<?xml version="1.0" encoding="utf-8"?>
<!-- Generator: Adobe Illustrator 25.0.0, SVG Export Plug-In . SVG Version: 6.00 Build 0)  -->
<svg version="1.1" id="Larger_x2F_Smaller_TEMPLATE_Trajan_Pro"
	 xmlns="http://www.w3.org/2000/svg" xmlns:xlink="http://www.w3.org/1999/xlink" x="0px" y="0px" viewBox="0 0 475 114"
	 style="enable-background:new 0 0 475 114;" xml:space="preserve">
<style type="text/css">
	.st0{fill:#010101;}
</style>
<g id="TEMPLATE_STARTER_1_">
	<g id="B-H:_Horizontal_Orientation_Same_Size">
		<g id="_x32__Line_1_">
			<rect id="_x32__Line_Vertical_Bar" x="269" y="26.8" class="st0" width="1.2" height="59.3"/>
			<path id="Columbia_Trademark_14_" class="st0" d="M99.2,65c-0.3,0-0.3,0.1-0.4,0.7s-0.6,1.5-1.1,2.1c-1.3,1.5-3.1,1.8-6,1.8
				c-4.4,0-10.2-3.8-10.2-11.6c0-3.2,0.6-6.2,3-8.4c1.4-1.3,3.3-2,6.1-2c3,0,5.5,0.9,6.6,2c0.8,0.8,1.2,2,1.3,3
				c0,0.5,0.1,0.7,0.3,0.7c0.3,0,0.4-0.3,0.4-0.7c0.1-0.7,0-2.4,0.1-3.5s0.2-1.5,0.2-1.8c0-0.2-0.1-0.4-0.5-0.4
				c-1-0.1-2-0.4-3.3-0.6C94.2,46.1,93,46,91,46c-4.8,0-7.9,1.3-10.3,3.4c-3.1,2.9-3.8,6.7-3.8,8.9c0,3.2,0.8,6.8,4,9.6
				c3,2.6,6.7,3.5,11.1,3.5c2.1,0,4.6-0.2,5.8-0.7c0.6-0.2,0.7-0.4,0.8-0.9c0.3-1.1,0.7-3.9,0.7-4.3C99.5,65.3,99.4,65,99.2,65z
				 M114.8,50.1c-8.2,0-11.2,6-11.2,10.7c0,4.8,3.2,10.7,11,10.7c6.9,0,11.3-4.9,11.3-11.2C125.8,54.1,121.6,50.1,114.8,50.1z
				 M115.7,70.1c-5.2,0-8.3-4.5-8.3-10.1c0-6.8,3.6-8.5,6.7-8.5c4.5,0,8,3.8,8,9.9C122,69.2,117.6,70.1,115.7,70.1z M167.5,50.5
				c-1.1,0-2.8,0.1-3.1,0.1c0,0-1.7-0.1-3.1-0.1c-0.4,0-0.6,0.1-0.6,0.2c0,0.2,0.2,0.2,0.5,0.2s0.8,0,1,0.1c0.9,0.2,1.1,0.6,1.2,1.6
				c0.1,0.9,0.1,1.6,0.1,5.8v3.4c0,2.8-0.1,5.3-1.6,6.7c-1.1,1.1-2.6,1.5-3.8,1.5c-0.9,0-2.2-0.1-3.4-1.1c-1.3-1.1-2.1-2.7-2.1-6.7
				v-3.8c0-4.1,0-4.9,0.1-5.8c0.1-1,0.3-1.4,1-1.6c0.3-0.1,0.5-0.1,0.8-0.1s0.4-0.1,0.4-0.2c0-0.2-0.2-0.2-0.6-0.2
				c-1,0-2.7,0.1-3.3,0.1c-0.8,0-2.5-0.1-4-0.1c-0.4,0-0.6,0.1-0.6,0.2c0,0.2,0.2,0.2,0.5,0.2c0.4,0,0.8,0,1.1,0.1
				c0.9,0.2,1.1,0.6,1.2,1.6c0.1,0.9,0.1,1.6,0.1,5.8v4c0,3.9,1,6,2.4,7.2c2,1.8,4.6,1.9,6,1.9c1.8,0,3.7-0.3,5.7-2
				c2.3-2,2.6-5.2,2.6-8.2v-2.9c0-4.1,0-4.9,0.1-5.8c0.1-1,0.3-1.4,1-1.6c0.3-0.1,0.5-0.1,0.8-0.1s0.5-0.1,0.5-0.2
				C168.1,50.6,167.9,50.5,167.5,50.5z M228.2,70.6c-0.4,0-1-0.1-1.4-0.1c-0.8-0.1-1-0.6-1.1-1.3c-0.1-1.2-0.1-3.3-0.1-6v-4.8
				c0-4.1,0-4.9,0.1-5.8c0.1-1,0.3-1.4,1-1.6c0.3-0.1,0.5-0.1,0.8-0.1s0.4-0.1,0.4-0.3s-0.2-0.2-0.6-0.2c-1,0-2.6,0.1-3.3,0.1
				c-0.8,0-2.5-0.1-3.5-0.1c-0.4,0-0.7,0.1-0.7,0.2c0,0.2,0.2,0.3,0.4,0.3c0.3,0,0.7,0,1,0.1c0.6,0.1,0.9,0.6,0.9,1.5
				c0.1,0.9,0.1,1.6,0.1,5.8v4.8c0,2.6,0,4.8-0.1,5.9c-0.1,0.8-0.2,1.2-0.8,1.4c-0.2,0.1-0.6,0.1-1,0.1c-0.3,0-0.4,0.1-0.4,0.2
				c0,0.2,0.2,0.3,0.5,0.3c1.1,0,2.8-0.1,3.4-0.1c0.7,0,2.4,0.1,4.2,0.1c0.3,0,0.5-0.1,0.5-0.3C228.6,70.7,228.5,70.6,228.2,70.6z
				 M143.6,66.8c-0.2,0-0.3,0.2-0.3,0.4c-0.1,0.5-0.4,1.3-0.7,1.6c-0.7,0.7-1.7,0.8-3.2,0.8c-2.1,0-2.8-0.2-3.3-0.6
				c-0.6-0.5-0.6-2.4-0.6-5.8v-4.8c0-4.1,0-4.9,0.1-5.8c0.1-1,0.3-1.4,1-1.5c0.3-0.1,0.8-0.1,1.1-0.1s0.5-0.1,0.5-0.2
				c0-0.2-0.2-0.2-0.6-0.2c-1.1,0-3,0.1-3.7,0.1s-2.4-0.1-3.7-0.1c-0.4,0-0.6,0.1-0.6,0.2c0,0.2,0.2,0.2,0.5,0.2
				c0.4,0,0.7,0,0.9,0.1c0.9,0.2,1.1,0.6,1.2,1.5s0.1,1.6,0.1,5.8v4.8c0,2.5,0,4.7-0.1,5.8c-0.1,0.8-0.2,1.4-0.8,1.5
				c-0.2,0.1-0.6,0.1-1,0.1c-0.3,0-0.4,0.1-0.4,0.2c0,0.2,0.2,0.3,0.5,0.3c1.1,0,2.8-0.1,3.4-0.1c2.2,0,4,0.2,7.9,0.2
				c1.4,0,1.5-0.1,1.7-0.7c0.2-0.8,0.4-2.8,0.4-3.1C143.8,67,143.8,66.8,143.6,66.8z M210.9,59.4c1.5-1.2,2.8-2.5,2.8-4.8
				c0-1.4-0.9-4.1-5.8-4.1c-0.9,0-2,0.1-3.3,0.1c-0.5,0-2.3-0.1-3.7-0.1c-0.4,0-0.6,0.1-0.6,0.2c0,0.2,0.2,0.2,0.5,0.2
				c0.4,0,0.8,0,1.1,0.1c0.9,0.2,1.1,0.6,1.2,1.6c0.1,0.9,0.1,1.6,0.1,5.8v4.8c0,2.5,0,4.7-0.1,5.8c-0.1,0.8-0.2,1.4-0.8,1.5
				c-0.2,0.1-0.6,0.1-1,0.1c-0.3,0-0.4,0.1-0.4,0.2c0,0.2,0.2,0.3,0.5,0.3c1.1,0,2.8-0.1,3.4-0.1c0.8,0,3.3,0.2,3.9,0.2
				c5,0,7.3-3,7.3-5.9C215.9,62,213.1,60.1,210.9,59.4z M206.3,52.1c0-0.3,0.1-0.4,0.2-0.5c0.3-0.1,0.5-0.1,0.9-0.1
				c2.3,0,3.4,2.4,3.4,4.2c0,1.3-0.4,2.3-1.1,2.9c-0.5,0.4-1.1,0.5-2,0.5c-0.6,0-1,0-1.3-0.1c-0.1,0-0.2-0.1-0.2-0.3L206.3,52.1
				L206.3,52.1z M209.2,69.9c-0.6,0-1.2,0-2-0.3c-0.9-0.4-1-0.8-1-2.6v-6.4c0-0.1,0.1-0.2,0.2-0.2c0.4,0,0.7,0,1.2,0
				c1.1,0.1,1.7,0.2,2.3,0.7c2.1,1.4,2.6,3.7,2.6,5.4C212.5,69.3,210.4,69.9,209.2,69.9z M197.2,70.6c-0.4,0-0.9,0-1.7-0.3
				c-0.8-0.2-1.1-1-1.3-2.7l-2.5-16.8c-0.1-0.6-0.2-0.8-0.5-0.8c-0.2,0-0.4,0.2-0.6,0.7l-7.4,15.5l-7.4-15.3
				c-0.4-0.7-0.5-0.8-0.7-0.8s-0.4,0.2-0.5,0.7l-2.7,17.7c-0.1,0.9-0.4,2-1.1,2.1c-0.4,0.1-0.6,0.1-0.8,0.1c-0.3,0-0.4,0.1-0.4,0.2
				c0,0.2,0.2,0.3,0.5,0.3c0.9,0,2.2-0.1,2.7-0.1s1.7,0.1,2.9,0.1c0.4,0,0.7-0.1,0.7-0.3c0-0.1-0.2-0.2-0.4-0.2
				c-0.3,0-0.7,0-1.1-0.1c-0.5-0.1-0.8-0.4-0.8-0.9c0-0.4,0-0.8,0.1-1.3l1.4-10.8h0.1c1,2,2.6,5.5,2.8,6c0.3,0.8,2.5,4.9,3.1,6.2
				c0.4,0.8,0.7,1.4,1,1.4c0.2,0,0.4-0.2,1-1.5l5.9-12.3h0.1l1.6,12c0.1,0.8,0,1.1-0.1,1.2c-0.2,0.1-0.3,0.2-0.3,0.3
				c0,0.2,0.2,0.2,0.8,0.3c1.1,0.1,4.8,0.2,5.5,0.2c0.4,0,0.7-0.1,0.7-0.3C197.7,70.6,197.5,70.6,197.2,70.6z M252.9,70.6
				c-0.3,0-0.7,0-1.1-0.1c-0.6-0.1-1.4-0.5-2.4-3c-1.7-4.1-6.1-15.2-6.7-16.7c-0.3-0.6-0.4-0.9-0.7-0.9s-0.4,0.3-0.8,1.1l-6.8,17.1
				c-0.5,1.4-1.1,2.3-2.3,2.4c-0.2,0-0.6,0.1-0.8,0.1s-0.3,0.1-0.3,0.2c0,0.2,0.2,0.3,0.5,0.3c1.4,0,2.9-0.1,3.2-0.1
				c0.8,0,2,0.1,2.9,0.1c0.3,0,0.5-0.1,0.5-0.3c0-0.2-0.1-0.2-0.4-0.2h-0.4c-0.8,0-1.1-0.4-1.1-0.8c0-0.3,0.1-1,0.4-1.7l1.5-3.9
				c0.1-0.2,0.1-0.2,0.2-0.2h6.1c0.1,0,0.2,0.1,0.3,0.2l2.2,5.8c0.1,0.3-0.1,0.6-0.2,0.6c-0.3,0-0.4,0.1-0.4,0.2
				c0,0.2,0.3,0.2,0.8,0.2c2.2,0.1,4.2,0.1,5.1,0.1c1,0,1.3-0.1,1.3-0.3C253.2,70.6,253.1,70.6,252.9,70.6z M243.7,62.6h-5
				c-0.1,0-0.1-0.1-0.1-0.2l2.5-6.7c0-0.1,0.1-0.2,0.2-0.2c0.1,0,0.1,0.1,0.1,0.2l2.4,6.7C243.8,62.5,243.8,62.6,243.7,62.6z
				 M27.8,71.1h31.1v-2.6H27.8V71.1z M47,48.7c-0.4,0.1-0.8,0-1.1-0.3c-0.3-0.2-0.6-0.4-0.9-0.6c0.9-0.6,1.6-1.6,1.6-2.7
				c0-1.6-1.2-2.9-2.7-3.1l1.2-1.5c0.1-0.2,0.1-0.4,0-0.5l-1.5-1.9C43.5,38,43.5,38,43.4,38s-0.2,0-0.2,0.1L41.7,40
				c-0.1,0.1-0.1,0.4,0,0.5l1.2,1.5c-1.5,0.2-2.7,1.6-2.7,3.1c0,1.2,0.6,2.2,1.6,2.7c-0.3,0.2-0.6,0.4-0.9,0.6
				c-0.3,0.3-0.7,0.4-1.1,0.3c-6.6-2.1-12.5-4.2-15.8-0.9c-4,3.9,0.7,10.2,2.1,12.8c1,1.8,1.7,3.9,1.7,5.6h31.1
				c0-1.7,0.7-3.8,1.7-5.6c1.5-2.6,6.1-8.9,2.1-12.8C59.4,44.6,53.6,46.6,47,48.7z M38.6,64.1c-1.2,0.1-2.2-1-2.6-2.6l1-2.3
				c0.1-0.3,0-0.5-0.1-0.7l-3.1-3.1c-0.2-0.2-0.3-0.2-0.4,0l-1.5,3.1c-0.1,0.3,0,0.5,0.2,0.7l2.3,2.4c0.5,1.9-0.8,2.5-1.5,2.5
				c-2.5,0-4.5-3.4-6.5-6.9c-2-3.4-2.7-5.9-1.2-7.8c2.5-3.2,9.1-0.7,14.2,1.7c0,0.7,0.1,1.6,0.6,2.6C42.7,59.7,40.8,64,38.6,64.1z
				 M60.3,57.3c-2,3.5-4,6.9-6.5,6.9c-0.7,0-2-0.7-1.5-2.5l2.3-2.4c0.2-0.2,0.3-0.4,0.2-0.7l-1.5-3.1c-0.1-0.2-0.2-0.2-0.4,0
				l-3.1,3.1c-0.2,0.2-0.2,0.4-0.1,0.7l1,2.3c-0.4,1.5-1.4,2.6-2.6,2.6c-2.2-0.1-4.1-4.4-1.4-10.4c0.5-1,0.6-1.9,0.6-2.6
				c5.1-2.3,11.7-4.8,14.2-1.7C63,51.4,62.3,53.9,60.3,57.3z"/>
		</g>
	</g>
</g>
<g>
	<path d="M281.6,42.9c-1.4-1.2-1.8-2.9-1.8-4.3c0-1,0.3-2.7,1.7-4c1-1,2.4-1.5,4.6-1.5c0.9,0,1.4,0.1,2.1,0.1c0.6,0.1,1,0.2,1.5,0.2
		c0.2,0,0.2,0.1,0.2,0.2c0,0.1,0,0.3-0.1,0.8c0,0.5,0,1.3,0,1.6c0,0.2,0,0.3-0.2,0.3c-0.1,0-0.1-0.1-0.1-0.3c0-0.5-0.2-1-0.6-1.3
		c-0.5-0.5-1.6-0.9-2.9-0.9c-1.3,0-2.1,0.3-2.7,0.9c-1.1,1-1.3,2.4-1.3,3.8c0,3.5,2.6,5.2,4.6,5.2c1.3,0,2.1-0.1,2.7-0.8
		c0.2-0.3,0.4-0.7,0.5-1c0-0.2,0.1-0.3,0.2-0.3c0.1,0,0.1,0.1,0.1,0.2c0,0.2-0.2,1.4-0.3,1.9c-0.1,0.2-0.1,0.3-0.4,0.4
		c-0.6,0.2-1.7,0.3-2.6,0.3C284.6,44.4,282.9,44,281.6,42.9z"/>
	<path d="M291.3,39.6c0-2.1,1.5-4.8,5.4-4.8c3.2,0,5.2,1.8,5.2,4.6s-2.1,5-5.4,5C292.8,44.4,291.3,41.8,291.3,39.6z M300,39.8
		c0-2.7-1.6-4.4-3.7-4.4c-1.4,0-3.1,0.8-3.1,3.8c0,2.5,1.5,4.5,3.9,4.5C297.9,43.7,300,43.3,300,39.8z"/>
	<path d="M306,40.7c0,1.6,0,2.4,0.3,2.6c0.2,0.2,0.7,0.3,1.7,0.3c0.7,0,1.2,0,1.5-0.3c0.2-0.2,0.3-0.5,0.3-0.7c0-0.1,0-0.2,0.1-0.2
		c0.1,0,0.1,0.1,0.1,0.3c0,0.1-0.1,1.1-0.2,1.4c-0.1,0.3-0.1,0.3-0.8,0.3c-0.9,0-1.7,0-2.3,0c-0.6,0-1.2,0-1.7,0c-0.1,0-0.4,0-0.7,0
		c-0.3,0-0.6,0-0.9,0c-0.2,0-0.2,0-0.2-0.1c0-0.1,0-0.1,0.2-0.1c0.2,0,0.3,0,0.5,0c0.3-0.1,0.3-0.3,0.4-0.7c0.1-0.5,0.1-1.5,0.1-2.6
		v-2.2c0-1.9,0-2.2,0-2.6c0-0.4-0.1-0.6-0.6-0.7c-0.1,0-0.3,0-0.4,0c-0.1,0-0.2,0-0.2-0.1c0-0.1,0.1-0.1,0.3-0.1c0.6,0,1.4,0,1.8,0
		c0.3,0,1.3,0,1.8,0c0.2,0,0.3,0,0.3,0.1c0,0.1-0.1,0.1-0.2,0.1c-0.1,0-0.3,0-0.5,0c-0.3,0.1-0.4,0.2-0.5,0.7c0,0.4,0,0.7,0,2.6
		V40.7z"/>
	<path d="M311.4,38.5c0-1.9,0-2.2,0-2.6c0-0.4-0.1-0.6-0.6-0.7c-0.1,0-0.3,0-0.5,0c-0.1,0-0.2,0-0.2-0.1c0-0.1,0.1-0.1,0.3-0.1
		c0.7,0,1.5,0,1.9,0c0.3,0,1.2,0,1.6,0c0.2,0,0.3,0,0.3,0.1c0,0.1-0.1,0.1-0.2,0.1c-0.1,0-0.2,0-0.4,0c-0.3,0.1-0.4,0.2-0.5,0.7
		c0,0.4,0,0.7,0,2.6v1.7c0,1.8,0.3,2.5,1,3c0.6,0.5,1.2,0.5,1.6,0.5c0.6,0,1.2-0.2,1.7-0.7c0.7-0.7,0.7-1.7,0.7-3v-1.6
		c0-1.9,0-2.2,0-2.6c0-0.4-0.1-0.6-0.5-0.7c-0.1,0-0.3,0-0.5,0c-0.1,0-0.2,0-0.2-0.1c0-0.1,0.1-0.1,0.3-0.1c0.7,0,1.5,0,1.5,0
		c0.1,0,1,0,1.5,0c0.2,0,0.3,0,0.3,0.1c0,0.1-0.1,0.1-0.2,0.1c-0.1,0-0.2,0-0.4,0c-0.3,0.1-0.4,0.2-0.5,0.7c0,0.4,0,0.7,0,2.6v1.3
		c0,1.4-0.1,2.8-1.2,3.7c-0.9,0.8-1.9,0.9-2.7,0.9c-0.7,0-2,0-2.9-0.8c-0.7-0.6-1.2-1.5-1.2-3.3V38.5z"/>
	<path d="M323.3,35c0-0.2,0.1-0.3,0.2-0.3c0.1,0,0.2,0.1,0.4,0.4l3.4,6.9l3.4-7c0.1-0.2,0.2-0.3,0.3-0.3c0.1,0,0.2,0.1,0.3,0.4
		l1.2,7.6c0.1,0.8,0.2,1.1,0.6,1.2c0.4,0.1,0.6,0.1,0.7,0.1c0.1,0,0.2,0,0.2,0.1c0,0.1-0.1,0.1-0.3,0.1c-0.3,0-2.1-0.1-2.6-0.1
		c-0.3,0-0.4-0.1-0.4-0.1c0-0.1,0.1-0.1,0.1-0.1c0.1,0,0.1-0.2,0.1-0.5l-0.7-5.3h0l-2.7,5.5c-0.3,0.6-0.4,0.7-0.5,0.7
		c-0.2,0-0.3-0.2-0.5-0.6c-0.3-0.6-1.3-2.5-1.5-2.8c-0.1-0.2-0.9-1.8-1.3-2.6h0L323,43c0,0.2,0,0.4,0,0.6c0,0.2,0.2,0.3,0.4,0.4
		s0.3,0.1,0.5,0.1c0.1,0,0.2,0.1,0.2,0.1c0,0.1-0.1,0.1-0.3,0.1c-0.5,0-1.1,0-1.3,0c-0.2,0-0.9,0-1.3,0c-0.1,0-0.2,0-0.2-0.1
		c0-0.1,0.1-0.1,0.2-0.1c0.1,0,0.2,0,0.4,0c0.3,0,0.5-0.5,0.5-0.9L323.3,35z"/>
	<path d="M336.2,38.5c0-1.9,0-2.2,0-2.6c0-0.4-0.1-0.6-0.6-0.7c-0.1,0-0.3,0-0.5,0c-0.1,0-0.2,0-0.2-0.1c0-0.1,0.1-0.1,0.3-0.1
		c0.7,0,1.5,0,1.7,0c0.6,0,1.5,0,1.9,0c2.3,0,2.7,1.2,2.7,1.8c0,1-0.7,1.7-1.4,2.2c1,0.3,2.4,1.2,2.4,2.7c0,1.3-1,2.7-3.4,2.7
		c-0.1,0-0.6,0-1,0c-0.4,0-0.9,0-1.1,0c-0.1,0-0.4,0-0.7,0c-0.3,0-0.6,0-0.9,0c-0.2,0-0.2,0-0.2-0.1c0-0.1,0-0.1,0.2-0.1
		c0.2,0,0.3,0,0.5,0c0.3-0.1,0.3-0.3,0.4-0.7c0.1-0.5,0.1-1.5,0.1-2.6V38.5z M337.8,38.7c0,0.1,0,0.1,0.1,0.1c0.1,0,0.3,0,0.6,0
		c0.4,0,0.8,0,1-0.2c0.3-0.3,0.6-0.7,0.6-1.3c0-0.8-0.5-1.9-1.6-1.9c-0.2,0-0.4,0-0.6,0c-0.1,0-0.1,0.1-0.1,0.2V38.7z M337.8,42.3
		c0,0.8,0,1.1,0.4,1.2c0.3,0.1,0.6,0.1,0.9,0.1c0.7,0,1.6-0.4,1.6-1.7c0-0.6-0.2-1.5-1.2-2.2c-0.3-0.2-0.6-0.3-1.1-0.3h-0.6
		c0,0-0.1,0-0.1,0.1V42.3z"/>
	<path d="M344.9,38.5c0-1.9,0-2.2,0-2.6c0-0.4-0.2-0.6-0.4-0.7c-0.1,0-0.3-0.1-0.5-0.1c-0.1,0-0.2,0-0.2-0.1c0-0.1,0.1-0.1,0.3-0.1
		c0.5,0,1.3,0,1.7,0c0.3,0,1.1,0,1.6,0c0.2,0,0.3,0,0.3,0.1c0,0.1-0.1,0.1-0.2,0.1c-0.1,0-0.2,0-0.4,0c-0.3,0.1-0.4,0.2-0.5,0.7
		c0,0.4,0,0.7,0,2.6v2.2c0,1.2,0,2.2,0.1,2.7c0,0.3,0.1,0.5,0.5,0.6c0.2,0,0.5,0,0.7,0c0.1,0,0.2,0.1,0.2,0.1c0,0.1-0.1,0.1-0.2,0.1
		c-0.8,0-1.7,0-2.1,0c-0.3,0-1.2,0-1.7,0c-0.2,0-0.2,0-0.2-0.1c0-0.1,0-0.1,0.2-0.1c0.2,0,0.3,0,0.5,0c0.3-0.1,0.3-0.2,0.4-0.6
		c0.1-0.5,0.1-1.5,0.1-2.7V38.5z"/>
	<path d="M351.3,41.1c-0.1,0-0.1,0-0.1,0.1l-0.7,1.7c-0.1,0.3-0.2,0.6-0.2,0.8c0,0.2,0.1,0.3,0.5,0.3h0.2c0.2,0,0.2,0.1,0.2,0.1
		c0,0.1-0.1,0.1-0.2,0.1c-0.4,0-1,0-1.4,0c-0.1,0-0.8,0-1.5,0c-0.2,0-0.2,0-0.2-0.1c0-0.1,0-0.1,0.1-0.1c0.1,0,0.3,0,0.4,0
		c0.6-0.1,0.8-0.5,1.1-1.1l3.3-7.8c0.1-0.3,0.2-0.5,0.4-0.5c0.2,0,0.2,0.1,0.4,0.4c0.3,0.7,2.4,5.7,3.2,7.6c0.5,1.1,0.9,1.3,1.1,1.3
		c0.2,0,0.3,0,0.5,0c0.1,0,0.2,0,0.2,0.1c0,0.1-0.1,0.1-0.6,0.1c-0.5,0-1.4,0-2.5,0c-0.2,0-0.4,0-0.4-0.1c0-0.1,0-0.1,0.2-0.1
		c0.1,0,0.2-0.1,0.1-0.3l-1-2.5c0-0.1-0.1-0.1-0.1-0.1H351.3z M354.1,40.5C354.1,40.5,354.1,40.4,354.1,40.5l-1.1-3.2
		c0,0,0-0.1-0.1-0.1c0,0-0.1,0.1-0.1,0.1l-1.2,3.1c0,0.1,0,0.1,0,0.1H354.1z"/>
	<path d="M364,37.5c0-2.2,0-2.6,0-3.1c0-0.5-0.1-0.7-0.6-0.8c-0.1,0-0.4,0-0.6,0c-0.2,0-0.2,0-0.2-0.1s0.1-0.1,0.3-0.1
		c0.8,0,1.7,0,2.1,0c0.3,0,1.3,0,1.8,0c0.2,0,0.3,0,0.3,0.1s-0.1,0.1-0.2,0.1c-0.2,0-0.2,0-0.4,0c-0.4,0.1-0.5,0.3-0.5,0.8
		c0,0.5,0,0.9,0,3.1v2c0,2.1,0.4,3,1.1,3.6c0.7,0.5,1.3,0.6,1.8,0.6c0.6,0,1.4-0.2,2-0.8c0.8-0.8,0.8-2.1,0.8-3.6v-1.8
		c0-2.2,0-2.6,0-3.1c0-0.5-0.1-0.7-0.6-0.8c-0.1,0-0.4,0-0.5,0c-0.2,0-0.2,0-0.2-0.1s0.1-0.1,0.3-0.1c0.7,0,1.7,0,1.7,0
		c0.2,0,1.1,0,1.7,0c0.2,0,0.3,0,0.3,0.1s-0.1,0.1-0.3,0.1c-0.2,0-0.2,0-0.4,0c-0.4,0.1-0.5,0.3-0.5,0.8c0,0.5,0,0.9,0,3.1V39
		c0,1.6-0.2,3.3-1.4,4.4c-1,0.9-2.1,1-3,1c-0.8,0-2.2,0-3.2-1c-0.7-0.7-1.3-1.7-1.3-3.8V37.5z"/>
	<path d="M376.9,42.6c0,1,0.2,1.2,0.4,1.3c0.2,0.1,0.5,0.1,0.7,0.1c0.1,0,0.2,0.1,0.2,0.1c0,0.1-0.1,0.1-0.3,0.1c-0.8,0-1.4,0-1.7,0
		c-0.1,0-0.7,0-1.4,0c-0.2,0-0.3,0-0.3-0.1c0-0.1,0.1-0.1,0.2-0.1c0.2,0,0.4,0,0.6-0.1c0.3-0.1,0.4-0.4,0.4-1.5l0.1-7.3
		c0-0.2,0.1-0.4,0.2-0.4c0.2,0,0.3,0.2,0.6,0.4c0.2,0.2,2.1,2.1,3.9,3.9c0.9,0.9,2.6,2.6,2.8,2.8h0.1l-0.1-5.5c0-0.8-0.1-1-0.4-1.1
		c-0.2-0.1-0.5-0.1-0.7-0.1c-0.2,0-0.2-0.1-0.2-0.1c0-0.1,0.1-0.1,0.3-0.1c0.7,0,1.3,0,1.6,0c0.1,0,0.6,0,1.2,0c0.2,0,0.3,0,0.3,0.1
		c0,0.1-0.1,0.1-0.2,0.1c-0.1,0-0.2,0-0.4,0c-0.3,0.1-0.5,0.3-0.5,1l-0.1,7.8c0,0.3-0.1,0.4-0.2,0.4c-0.2,0-0.4-0.1-0.5-0.3
		c-0.8-0.7-2.4-2.3-3.7-3.6c-1.4-1.3-2.7-2.8-3-3h0L376.9,42.6z"/>
	<path d="M388.3,38.5c0-1.9,0-2.2,0-2.6c0-0.4-0.2-0.6-0.4-0.7c-0.1,0-0.3-0.1-0.5-0.1c-0.1,0-0.2,0-0.2-0.1c0-0.1,0.1-0.1,0.3-0.1
		c0.5,0,1.3,0,1.7,0c0.3,0,1.1,0,1.6,0c0.2,0,0.3,0,0.3,0.1c0,0.1-0.1,0.1-0.2,0.1c-0.1,0-0.2,0-0.4,0c-0.3,0.1-0.4,0.2-0.5,0.7
		c0,0.4,0,0.7,0,2.6v2.2c0,1.2,0,2.2,0.1,2.7c0,0.3,0.1,0.5,0.5,0.6c0.2,0,0.5,0,0.7,0c0.1,0,0.2,0.1,0.2,0.1c0,0.1-0.1,0.1-0.2,0.1
		c-0.8,0-1.7,0-2.1,0c-0.3,0-1.2,0-1.7,0c-0.2,0-0.2,0-0.2-0.1c0-0.1,0-0.1,0.2-0.1c0.2,0,0.3,0,0.5,0c0.3-0.1,0.3-0.2,0.4-0.6
		c0.1-0.5,0.1-1.5,0.1-2.7V38.5z"/>
	<path d="M393,36.1c-0.3-0.7-0.5-0.8-0.9-0.9c-0.2,0-0.4,0-0.5,0c-0.1,0-0.1-0.1-0.1-0.1c0-0.1,0.1-0.1,0.3-0.1c0.7,0,1.4,0,1.9,0
		c0.3,0,1,0,1.6,0c0.2,0,0.3,0,0.3,0.1c0,0.1-0.1,0.1-0.2,0.1c-0.2,0-0.4,0-0.5,0.1c-0.1,0.1-0.1,0.1-0.1,0.2c0,0.2,0.1,0.5,0.3,0.9
		l2.1,5.5h0c0.6-1.3,2.2-5.3,2.5-6.1c0.1-0.2,0.1-0.3,0.1-0.4c0-0.1-0.1-0.2-0.2-0.2c-0.1,0-0.3-0.1-0.5-0.1c-0.1,0-0.2,0-0.2-0.1
		c0-0.1,0.1-0.1,0.4-0.1c0.6,0,1.2,0,1.4,0c0.2,0,0.8,0,1.2,0c0.2,0,0.3,0,0.3,0.1c0,0.1-0.1,0.1-0.2,0.1c-0.1,0-0.4,0-0.6,0.1
		c-0.2,0.1-0.3,0.3-0.7,1.1c-0.5,1.2-0.8,1.8-1.5,3.3c-0.8,1.8-1.4,3.1-1.7,3.8c-0.3,0.7-0.4,0.9-0.6,0.9s-0.3-0.2-0.5-0.7L393,36.1
		z"/>
	<path d="M403.4,38.5c0-1.9,0-2.2,0-2.6c0-0.4-0.1-0.6-0.6-0.7c-0.1,0-0.3,0-0.5,0c-0.1,0-0.2,0-0.2-0.1c0-0.1,0.1-0.1,0.3-0.1
		c0.7,0,1.5,0,1.8,0c0.4,0,3.2,0,3.5,0c0.2,0,0.4-0.1,0.5-0.1c0.1,0,0.1-0.1,0.2-0.1c0.1,0,0.1,0.1,0.1,0.1c0,0.1-0.1,0.2-0.1,0.8
		c0,0.1,0,0.7-0.1,0.8c0,0.1,0,0.2-0.1,0.2c-0.1,0-0.1-0.1-0.1-0.2c0-0.1,0-0.3-0.1-0.5c-0.1-0.2-0.2-0.4-0.8-0.4
		c-0.2,0-1.7-0.1-2-0.1c-0.1,0-0.1,0-0.1,0.1v3c0,0.1,0,0.1,0.1,0.1c0.3,0,1.9,0,2.2,0c0.3,0,0.5-0.1,0.6-0.2
		c0.1-0.1,0.1-0.2,0.2-0.2c0.1,0,0.1,0.1,0.1,0.1c0,0.1,0,0.3-0.1,0.9c0,0.2-0.1,0.7-0.1,0.8c0,0.1,0,0.3-0.1,0.3
		c-0.1,0-0.1,0-0.1-0.1c0-0.1,0-0.3,0-0.4c-0.1-0.2-0.2-0.4-0.7-0.5c-0.2,0-1.7-0.1-2-0.1c-0.1,0-0.1,0.1-0.1,0.1v1
		c0,0.4,0,1.5,0,1.8c0,0.8,0.4,1,1.7,1c0.3,0,0.9,0,1.2-0.2c0.3-0.1,0.5-0.4,0.6-0.9c0-0.1,0.1-0.2,0.1-0.2c0.1,0,0.1,0.2,0.1,0.3
		c0,0.3-0.1,1.1-0.2,1.4c-0.1,0.3-0.2,0.3-0.7,0.3c-1,0-1.7,0-2.4,0c-0.6,0-1.1,0-1.5,0c-0.1,0-0.4,0-0.7,0c-0.3,0-0.6,0-0.9,0
		c-0.2,0-0.2,0-0.2-0.1c0-0.1,0-0.1,0.2-0.1c0.2,0,0.3,0,0.5,0c0.3-0.1,0.3-0.3,0.4-0.7c0.1-0.5,0.1-1.5,0.1-2.6V38.5z"/>
	<path d="M411.5,38.5c0-1.9,0-2.2,0-2.6c0-0.4-0.1-0.6-0.6-0.7c-0.1,0-0.3,0-0.5,0c-0.1,0-0.2,0-0.2-0.1c0-0.1,0.1-0.1,0.3-0.1
		c0.7,0,1.5,0,1.7,0c0.4,0,1.6,0,2,0c0.8,0,1.7,0.1,2.4,0.5c0.4,0.2,0.9,0.9,0.9,1.7c0,0.9-0.5,1.7-1.8,2.7c1.1,1.4,2,2.5,2.8,3.3
		c0.7,0.7,1.2,0.8,1.4,0.8c0.1,0,0.2,0,0.3,0s0.2,0.1,0.2,0.1c0,0.1-0.1,0.1-0.2,0.1h-1.2c-0.7,0-1.1-0.1-1.4-0.2
		c-0.6-0.3-1-0.9-1.7-1.8c-0.5-0.7-1-1.5-1.2-1.7c-0.1-0.1-0.1-0.1-0.2-0.1l-1.1,0c-0.1,0-0.1,0-0.1,0.1v0.2c0,1.1,0,2.1,0.1,2.6
		c0,0.4,0.1,0.6,0.5,0.7c0.2,0,0.5,0,0.6,0c0.1,0,0.2,0.1,0.2,0.1c0,0.1-0.1,0.1-0.3,0.1c-0.7,0-1.8,0-2,0c-0.2,0-1.1,0-1.6,0
		c-0.2,0-0.2,0-0.2-0.1c0-0.1,0-0.1,0.2-0.1c0.2,0,0.3,0,0.5,0c0.3-0.1,0.3-0.3,0.4-0.7c0.1-0.5,0.1-1.5,0.1-2.6V38.5z M413.1,39.4
		c0,0.1,0,0.2,0.1,0.2c0.3,0.1,0.7,0.1,1,0.1c0.5,0,0.7,0,0.9-0.2c0.4-0.3,0.8-0.8,0.8-1.8c0-1.7-1.2-2.2-1.9-2.2
		c-0.3,0-0.6,0-0.8,0c-0.1,0-0.1,0.1-0.1,0.2V39.4z"/>
	<path d="M420.5,44.1c-0.2-0.1-0.2-0.1-0.2-0.4c0-0.7,0.1-1.4,0.1-1.6c0-0.2,0.1-0.3,0.2-0.3c0.1,0,0.1,0.1,0.1,0.2
		c0,0.2,0,0.4,0.1,0.6c0.3,0.9,1.2,1.2,2,1.2c1.1,0,1.8-0.7,1.8-1.6c0-0.5-0.1-1.1-1.3-1.7l-0.7-0.4c-1.5-0.9-2-1.7-2-2.8
		c0-1.5,1.5-2.5,3.2-2.5c0.8,0,1.5,0.1,1.8,0.2c0.1,0,0.2,0.1,0.2,0.2c0,0.2,0,0.5,0,1.5c0,0.3-0.1,0.4-0.2,0.4
		c-0.1,0-0.1-0.1-0.1-0.2c0-0.1-0.1-0.5-0.3-0.8c-0.2-0.2-0.6-0.6-1.4-0.6c-0.9,0-1.7,0.5-1.7,1.3c0,0.6,0.2,1,1.3,1.6l0.5,0.3
		c1.7,0.9,2.2,1.9,2.2,3c0,0.9-0.3,1.7-1.3,2.3c-0.6,0.4-1.5,0.5-2.1,0.5C421.9,44.4,421.1,44.3,420.5,44.1z"/>
	<path d="M428.8,38.5c0-1.9,0-2.2,0-2.6c0-0.4-0.2-0.6-0.4-0.7c-0.1,0-0.3-0.1-0.5-0.1c-0.1,0-0.2,0-0.2-0.1c0-0.1,0.1-0.1,0.3-0.1
		c0.5,0,1.3,0,1.7,0c0.3,0,1.1,0,1.6,0c0.2,0,0.3,0,0.3,0.1c0,0.1-0.1,0.1-0.2,0.1c-0.1,0-0.2,0-0.4,0c-0.3,0.1-0.4,0.2-0.5,0.7
		c0,0.4,0,0.7,0,2.6v2.2c0,1.2,0,2.2,0.1,2.7c0,0.3,0.1,0.5,0.5,0.6c0.2,0,0.5,0,0.7,0c0.1,0,0.2,0.1,0.2,0.1c0,0.1-0.1,0.1-0.2,0.1
		c-0.8,0-1.7,0-2.1,0c-0.3,0-1.2,0-1.7,0c-0.2,0-0.2,0-0.2-0.1c0-0.1,0-0.1,0.2-0.1c0.2,0,0.3,0,0.5,0c0.3-0.1,0.3-0.2,0.4-0.6
		c0.1-0.5,0.1-1.5,0.1-2.7V38.5z"/>
	<path d="M436.4,35.7l-1.9,0c-0.7,0-1,0.1-1.2,0.4c-0.1,0.2-0.2,0.3-0.2,0.4c0,0.1-0.1,0.2-0.1,0.2s-0.1-0.1-0.1-0.2
		c0-0.2,0.2-1.4,0.3-1.5c0-0.2,0.1-0.2,0.1-0.2c0.1,0,0.2,0.1,0.6,0.1c0.4,0,0.9,0.1,1.3,0.1h5.2c0.4,0,0.7,0,0.9-0.1
		c0.2,0,0.3-0.1,0.3-0.1c0.1,0,0.1,0.1,0.1,0.3c0,0.3,0,1.2,0,1.5c0,0.1,0,0.2-0.1,0.2c-0.1,0-0.1-0.1-0.1-0.2l0-0.1
		c0-0.3-0.4-0.7-1.5-0.7l-1.6,0v5c0,1.1,0,2.1,0.1,2.6c0,0.3,0.1,0.6,0.5,0.6c0.2,0,0.5,0,0.7,0c0.1,0,0.2,0.1,0.2,0.1
		c0,0.1-0.1,0.1-0.2,0.1c-0.8,0-1.7,0-2.1,0c-0.3,0-1.2,0-1.7,0c-0.2,0-0.2,0-0.2-0.1c0-0.1,0-0.1,0.2-0.1c0.2,0,0.3,0,0.5,0
		c0.3-0.1,0.3-0.3,0.4-0.7c0.1-0.5,0.1-1.5,0.1-2.6V35.7z"/>
	<path d="M445.3,41c0-0.7-0.1-0.9-0.3-1.3c-0.1-0.2-1.8-2.9-2.3-3.6c-0.3-0.4-0.6-0.7-0.8-0.9c-0.2-0.1-0.4-0.2-0.5-0.2
		c-0.1,0-0.2,0-0.2-0.1c0-0.1,0.1-0.1,0.2-0.1c0.2,0,1.2,0,1.6,0c0.3,0,0.9,0,1.5,0c0.1,0,0.2,0,0.2,0.1c0,0.1-0.1,0.1-0.3,0.2
		c-0.1,0-0.2,0.1-0.2,0.2s0.1,0.2,0.2,0.4c0.2,0.4,1.9,3.3,2.1,3.6c0.2-0.3,1.7-2.9,1.9-3.3c0.1-0.3,0.2-0.5,0.2-0.7
		c0-0.1-0.1-0.2-0.3-0.3c-0.1,0-0.2,0-0.2-0.1c0-0.1,0.1-0.1,0.2-0.1c0.4,0,0.9,0,1.2,0c0.3,0,1.1,0,1.4,0c0.1,0,0.2,0,0.2,0.1
		c0,0.1-0.1,0.1-0.2,0.1c-0.1,0-0.4,0.1-0.6,0.1c-0.3,0.1-0.4,0.2-0.7,0.6c-0.4,0.5-2.2,3.4-2.5,3.9c-0.2,0.4-0.2,0.8-0.2,1.2v1
		c0,0.2,0,0.7,0,1.2c0,0.4,0.1,0.6,0.5,0.7c0.2,0,0.5,0,0.6,0c0.1,0,0.2,0.1,0.2,0.1c0,0.1-0.1,0.1-0.3,0.1c-0.8,0-1.7,0-2,0
		c-0.3,0-1.2,0-1.7,0c-0.2,0-0.3,0-0.3-0.1c0-0.1,0.1-0.1,0.2-0.1c0.2,0,0.3,0,0.5,0c0.3-0.1,0.4-0.3,0.4-0.7c0-0.5,0-1,0-1.2V41z"
		/>
	<path d="M281.4,54.9c0-2.2,0-2.6,0-3.1c0-0.5-0.1-0.7-0.6-0.8c-0.1,0-0.4,0-0.6,0c-0.2,0-0.2,0-0.2-0.1s0.1-0.1,0.3-0.1
		c0.8,0,1.7,0,2.1,0c0.4,0,1.4,0,2.2,0c1.8,0,4.2,0,5.8,1.7c0.7,0.8,1.4,2,1.4,3.7c0,1.8-0.8,3.2-1.6,4c-0.7,0.7-2.2,1.7-4.9,1.7
		c-0.5,0-1.1,0-1.7-0.1c-0.6,0-1.1-0.1-1.4-0.1c-0.2,0-0.5,0-0.8,0c-0.3,0-0.7,0-1,0c-0.2,0-0.3,0-0.3-0.1c0-0.1,0.1-0.1,0.2-0.1
		c0.2,0,0.4,0,0.5-0.1c0.3-0.1,0.4-0.4,0.4-0.8c0.1-0.6,0.1-1.8,0.1-3.1V54.9z M283.2,56.5c0,1.5,0,2.7,0,2.9c0,0.4,0,0.9,0.2,1.1
		c0.2,0.3,0.8,0.6,1.9,0.6c1.5,0,2.5-0.3,3.3-1c0.9-0.8,1.2-2.1,1.2-3.6c0-1.8-0.8-3-1.4-3.6c-1.3-1.3-3-1.5-4.1-1.5
		c-0.3,0-0.8,0-0.9,0.1c-0.1,0.1-0.2,0.1-0.2,0.3c0,0.5,0,1.8,0,2.9V56.5z"/>
	<path d="M294.1,55.9c0-1.9,0-2.2,0-2.6c0-0.4-0.1-0.6-0.6-0.7c-0.1,0-0.3,0-0.5,0c-0.1,0-0.2,0-0.2-0.1c0-0.1,0.1-0.1,0.3-0.1
		c0.7,0,1.5,0,1.8,0c0.4,0,3.2,0,3.5,0c0.2,0,0.4-0.1,0.5-0.1c0.1,0,0.1-0.1,0.2-0.1c0.1,0,0.1,0.1,0.1,0.1c0,0.1-0.1,0.2-0.1,0.8
		c0,0.1,0,0.7-0.1,0.8c0,0.1,0,0.2-0.1,0.2c-0.1,0-0.1-0.1-0.1-0.2c0-0.1,0-0.3-0.1-0.5c-0.1-0.2-0.2-0.4-0.8-0.4
		c-0.2,0-1.7-0.1-2-0.1c-0.1,0-0.1,0-0.1,0.1v3c0,0.1,0,0.1,0.1,0.1c0.3,0,1.9,0,2.2,0c0.3,0,0.5-0.1,0.6-0.2
		c0.1-0.1,0.1-0.2,0.2-0.2c0.1,0,0.1,0.1,0.1,0.1c0,0.1,0,0.3-0.1,0.9c0,0.2-0.1,0.7-0.1,0.8c0,0.1,0,0.3-0.1,0.3
		c-0.1,0-0.1,0-0.1-0.1c0-0.1,0-0.3,0-0.4c-0.1-0.2-0.2-0.4-0.7-0.5c-0.2,0-1.7-0.1-2-0.1c-0.1,0-0.1,0.1-0.1,0.1v1
		c0,0.4,0,1.5,0,1.8c0,0.8,0.4,1,1.7,1c0.3,0,0.9,0,1.2-0.2c0.3-0.1,0.5-0.4,0.6-0.9c0-0.1,0.1-0.2,0.1-0.2c0.1,0,0.1,0.2,0.1,0.3
		c0,0.3-0.1,1.1-0.2,1.4c-0.1,0.3-0.2,0.3-0.7,0.3c-1,0-1.7,0-2.4,0c-0.6,0-1.1,0-1.5,0c-0.1,0-0.4,0-0.7,0c-0.3,0-0.6,0-0.9,0
		c-0.2,0-0.2,0-0.2-0.1c0-0.1,0-0.1,0.2-0.1c0.2,0,0.3,0,0.5,0c0.3-0.1,0.3-0.3,0.4-0.7c0.1-0.5,0.1-1.5,0.1-2.6V55.9z"/>
	<path d="M302.2,55.9c0-1.9,0-2.2,0-2.6c0-0.4-0.1-0.6-0.6-0.7c-0.1,0-0.3,0-0.5,0c-0.1,0-0.2,0-0.2-0.1c0-0.1,0.1-0.1,0.3-0.1
		c0.7,0,1.5,0,1.8,0c0.5,0,1.5,0,2.1,0c1.6,0,2.2,0.5,2.4,0.7c0.3,0.3,0.6,0.8,0.6,1.5c0,1.7-1.4,3-3.2,3c-0.1,0-0.3,0-0.4,0
		c-0.1,0-0.2,0-0.2-0.1c0-0.1,0.1-0.2,0.4-0.2c0.7,0,1.7-0.7,1.7-2c0-0.4,0-1.2-0.8-1.8c-0.5-0.4-1-0.5-1.3-0.5
		c-0.2,0-0.4,0-0.6,0.1c-0.1,0-0.1,0.1-0.1,0.2v4.9c0,1.1,0,2.1,0.1,2.6c0,0.3,0.1,0.6,0.5,0.6c0.2,0,0.5,0,0.7,0
		c0.1,0,0.2,0.1,0.2,0.1c0,0.1-0.1,0.1-0.2,0.1c-0.9,0-1.8,0-2.1,0c-0.3,0-1.1,0-1.6,0c-0.2,0-0.2,0-0.2-0.1c0-0.1,0-0.1,0.2-0.1
		c0.2,0,0.3,0,0.5,0c0.3-0.1,0.3-0.3,0.4-0.7c0.1-0.5,0.1-1.5,0.1-2.6V55.9z"/>
	<path d="M310.6,58.5c-0.1,0-0.1,0-0.1,0.1l-0.7,1.7c-0.1,0.3-0.2,0.6-0.2,0.8c0,0.2,0.1,0.3,0.5,0.3h0.2c0.2,0,0.2,0.1,0.2,0.1
		c0,0.1-0.1,0.1-0.2,0.1c-0.4,0-1,0-1.4,0c-0.1,0-0.8,0-1.5,0c-0.2,0-0.2,0-0.2-0.1c0-0.1,0-0.1,0.1-0.1c0.1,0,0.3,0,0.4,0
		c0.6-0.1,0.8-0.5,1.1-1.1l3.3-7.8c0.1-0.3,0.2-0.5,0.4-0.5c0.2,0,0.2,0.1,0.4,0.4c0.3,0.7,2.4,5.7,3.2,7.6c0.5,1.1,0.9,1.3,1.1,1.3
		c0.2,0,0.3,0,0.5,0c0.1,0,0.2,0,0.2,0.1c0,0.1-0.1,0.1-0.6,0.1c-0.5,0-1.4,0-2.5,0c-0.2,0-0.4,0-0.4-0.1c0-0.1,0-0.1,0.2-0.1
		c0.1,0,0.2-0.1,0.1-0.3l-1-2.5c0-0.1-0.1-0.1-0.1-0.1H310.6z M313.4,57.9C313.4,57.9,313.4,57.8,313.4,57.9l-1.1-3.2
		c0,0,0-0.1-0.1-0.1c0,0-0.1,0.1-0.1,0.1l-1.2,3.1c0,0.1,0,0.1,0,0.1H313.4z"/>
	<path d="M319.2,55.9c0-1.9,0-2.2,0-2.6c0-0.4-0.1-0.6-0.6-0.7c-0.1,0-0.3,0-0.5,0c-0.1,0-0.2,0-0.2-0.1c0-0.1,0.1-0.1,0.3-0.1
		c0.7,0,1.5,0,1.7,0c0.4,0,1.6,0,2,0c0.8,0,1.7,0.1,2.4,0.5c0.4,0.2,0.9,0.9,0.9,1.7c0,0.9-0.5,1.7-1.8,2.7c1.1,1.4,2,2.5,2.8,3.3
		c0.7,0.7,1.2,0.8,1.4,0.8c0.1,0,0.2,0,0.3,0s0.2,0.1,0.2,0.1c0,0.1-0.1,0.1-0.2,0.1h-1.2c-0.7,0-1.1-0.1-1.4-0.2
		c-0.6-0.3-1-0.9-1.7-1.8c-0.5-0.7-1-1.5-1.2-1.7c-0.1-0.1-0.1-0.1-0.2-0.1l-1.1,0c-0.1,0-0.1,0-0.1,0.1v0.2c0,1.1,0,2.1,0.1,2.6
		c0,0.4,0.1,0.6,0.5,0.7c0.2,0,0.5,0,0.6,0c0.1,0,0.2,0.1,0.2,0.1c0,0.1-0.1,0.1-0.3,0.1c-0.7,0-1.8,0-2,0c-0.2,0-1.1,0-1.6,0
		c-0.2,0-0.2,0-0.2-0.1c0-0.1,0-0.1,0.2-0.1c0.2,0,0.3,0,0.5,0c0.3-0.1,0.3-0.3,0.4-0.7c0.1-0.5,0.1-1.5,0.1-2.6V55.9z M320.9,56.8
		c0,0.1,0,0.2,0.1,0.2c0.3,0.1,0.7,0.1,1,0.1c0.5,0,0.7,0,0.9-0.2c0.4-0.3,0.8-0.8,0.8-1.8c0-1.7-1.2-2.2-1.9-2.2
		c-0.3,0-0.6,0-0.8,0c-0.1,0-0.1,0.1-0.1,0.2V56.8z"/>
	<path d="M330.3,53.1l-1.9,0c-0.7,0-1,0.1-1.2,0.4c-0.1,0.2-0.2,0.3-0.2,0.4c0,0.1-0.1,0.2-0.1,0.2s-0.1-0.1-0.1-0.2
		c0-0.2,0.2-1.4,0.3-1.5c0-0.2,0.1-0.2,0.1-0.2c0.1,0,0.2,0.1,0.6,0.1c0.4,0,0.9,0.1,1.3,0.1h5.2c0.4,0,0.7,0,0.9-0.1
		c0.2,0,0.3-0.1,0.3-0.1c0.1,0,0.1,0.1,0.1,0.3c0,0.3,0,1.2,0,1.5c0,0.1,0,0.2-0.1,0.2c-0.1,0-0.1-0.1-0.1-0.2l0-0.1
		c0-0.3-0.4-0.7-1.5-0.7l-1.6,0v5c0,1.1,0,2.1,0.1,2.6c0,0.3,0.1,0.6,0.5,0.6c0.2,0,0.5,0,0.7,0c0.1,0,0.2,0.1,0.2,0.1
		c0,0.1-0.1,0.1-0.2,0.1c-0.8,0-1.7,0-2.1,0c-0.3,0-1.2,0-1.7,0c-0.2,0-0.2,0-0.2-0.1c0-0.1,0-0.1,0.2-0.1c0.2,0,0.3,0,0.5,0
		c0.3-0.1,0.3-0.3,0.4-0.7c0.1-0.5,0.1-1.5,0.1-2.6V53.1z"/>
	<path d="M338.1,52.4c0-0.2,0.1-0.3,0.2-0.3c0.1,0,0.2,0.1,0.4,0.4l3.4,6.9l3.4-7c0.1-0.2,0.2-0.3,0.3-0.3c0.1,0,0.2,0.1,0.3,0.4
		l1.2,7.6c0.1,0.8,0.2,1.1,0.6,1.2c0.4,0.1,0.6,0.1,0.7,0.1c0.1,0,0.2,0,0.2,0.1c0,0.1-0.1,0.1-0.3,0.1c-0.3,0-2.1-0.1-2.6-0.1
		c-0.3,0-0.4-0.1-0.4-0.1c0-0.1,0.1-0.1,0.1-0.1c0.1,0,0.1-0.2,0.1-0.5l-0.7-5.3h0l-2.7,5.5c-0.3,0.6-0.4,0.7-0.5,0.7
		c-0.2,0-0.3-0.2-0.5-0.6c-0.3-0.6-1.3-2.5-1.5-2.8c-0.1-0.2-0.9-1.8-1.3-2.6h0l-0.6,4.8c0,0.2,0,0.4,0,0.6c0,0.2,0.2,0.3,0.4,0.4
		c0.2,0,0.3,0.1,0.5,0.1c0.1,0,0.2,0.1,0.2,0.1c0,0.1-0.1,0.1-0.3,0.1c-0.5,0-1.1,0-1.3,0c-0.2,0-0.9,0-1.3,0c-0.1,0-0.2,0-0.2-0.1
		c0-0.1,0.1-0.1,0.2-0.1c0.1,0,0.2,0,0.4,0c0.3,0,0.5-0.5,0.5-0.9L338.1,52.4z"/>
	<path d="M351,55.9c0-1.9,0-2.2,0-2.6c0-0.4-0.1-0.6-0.6-0.7c-0.1,0-0.3,0-0.5,0c-0.1,0-0.2,0-0.2-0.1c0-0.1,0.1-0.1,0.3-0.1
		c0.7,0,1.5,0,1.8,0c0.4,0,3.2,0,3.5,0c0.2,0,0.4-0.1,0.5-0.1c0.1,0,0.1-0.1,0.2-0.1c0.1,0,0.1,0.1,0.1,0.1c0,0.1-0.1,0.2-0.1,0.8
		c0,0.1,0,0.7-0.1,0.8c0,0.1,0,0.2-0.1,0.2c-0.1,0-0.1-0.1-0.1-0.2c0-0.1,0-0.3-0.1-0.5c-0.1-0.2-0.2-0.4-0.8-0.4
		c-0.2,0-1.7-0.1-2-0.1c-0.1,0-0.1,0-0.1,0.1v3c0,0.1,0,0.1,0.1,0.1c0.3,0,1.9,0,2.2,0c0.3,0,0.5-0.1,0.6-0.2
		c0.1-0.1,0.1-0.2,0.2-0.2c0.1,0,0.1,0.1,0.1,0.1c0,0.1,0,0.3-0.1,0.9c0,0.2-0.1,0.7-0.1,0.8c0,0.1,0,0.3-0.1,0.3
		c-0.1,0-0.1,0-0.1-0.1c0-0.1,0-0.3,0-0.4c-0.1-0.2-0.2-0.4-0.7-0.5c-0.2,0-1.7-0.1-2-0.1c-0.1,0-0.1,0.1-0.1,0.1v1
		c0,0.4,0,1.5,0,1.8c0,0.8,0.4,1,1.7,1c0.3,0,0.9,0,1.2-0.2c0.3-0.1,0.5-0.4,0.6-0.9c0-0.1,0.1-0.2,0.1-0.2c0.1,0,0.1,0.2,0.1,0.3
		c0,0.3-0.1,1.1-0.2,1.4c-0.1,0.3-0.2,0.3-0.7,0.3c-1,0-1.7,0-2.4,0c-0.6,0-1.1,0-1.5,0c-0.1,0-0.4,0-0.7,0c-0.3,0-0.6,0-0.9,0
		c-0.2,0-0.2,0-0.2-0.1c0-0.1,0-0.1,0.2-0.1c0.2,0,0.3,0,0.5,0c0.3-0.1,0.3-0.3,0.4-0.7c0.1-0.5,0.1-1.5,0.1-2.6V55.9z"/>
	<path d="M359.9,60c0,1,0.2,1.2,0.4,1.3c0.2,0.1,0.5,0.1,0.7,0.1c0.1,0,0.2,0.1,0.2,0.1c0,0.1-0.1,0.1-0.3,0.1c-0.8,0-1.4,0-1.7,0
		c-0.1,0-0.7,0-1.4,0c-0.2,0-0.3,0-0.3-0.1c0-0.1,0.1-0.1,0.2-0.1c0.2,0,0.4,0,0.6-0.1c0.3-0.1,0.4-0.4,0.4-1.5l0.1-7.3
		c0-0.2,0.1-0.4,0.2-0.4c0.2,0,0.3,0.2,0.6,0.4c0.2,0.2,2.1,2.1,3.9,3.9c0.9,0.9,2.6,2.6,2.8,2.8h0.1l-0.1-5.5c0-0.8-0.1-1-0.4-1.1
		c-0.2-0.1-0.5-0.1-0.7-0.1c-0.2,0-0.2-0.1-0.2-0.1c0-0.1,0.1-0.1,0.3-0.1c0.7,0,1.3,0,1.6,0c0.1,0,0.6,0,1.2,0c0.2,0,0.3,0,0.3,0.1
		c0,0.1-0.1,0.1-0.2,0.1c-0.1,0-0.2,0-0.4,0c-0.3,0.1-0.5,0.3-0.5,1l-0.1,7.8c0,0.3-0.1,0.4-0.2,0.4c-0.2,0-0.4-0.1-0.5-0.3
		c-0.8-0.7-2.4-2.3-3.7-3.6c-1.4-1.3-2.7-2.8-3-3h0L359.9,60z"/>
	<path d="M373,53.1l-1.9,0c-0.7,0-1,0.1-1.2,0.4c-0.1,0.2-0.2,0.3-0.2,0.4c0,0.1-0.1,0.2-0.1,0.2s-0.1-0.1-0.1-0.2
		c0-0.2,0.2-1.4,0.3-1.5c0-0.2,0.1-0.2,0.1-0.2c0.1,0,0.2,0.1,0.6,0.1c0.4,0,0.9,0.1,1.3,0.1h5.2c0.4,0,0.7,0,0.9-0.1
		c0.2,0,0.3-0.1,0.3-0.1c0.1,0,0.1,0.1,0.1,0.3c0,0.3,0,1.2,0,1.5c0,0.1,0,0.2-0.1,0.2c-0.1,0-0.1-0.1-0.1-0.2l0-0.1
		c0-0.3-0.4-0.7-1.5-0.7l-1.6,0v5c0,1.1,0,2.1,0.1,2.6c0,0.3,0.1,0.6,0.5,0.6c0.2,0,0.5,0,0.7,0c0.1,0,0.2,0.1,0.2,0.1
		c0,0.1-0.1,0.1-0.2,0.1c-0.8,0-1.7,0-2.1,0c-0.3,0-1.2,0-1.7,0c-0.2,0-0.2,0-0.2-0.1c0-0.1,0-0.1,0.2-0.1c0.2,0,0.3,0,0.5,0
		c0.3-0.1,0.3-0.3,0.4-0.7c0.1-0.5,0.1-1.5,0.1-2.6V53.1z"/>
	<path d="M383.4,57c0-2.1,1.5-4.8,5.4-4.8c3.2,0,5.2,1.8,5.2,4.6c0,2.8-2.1,5-5.4,5C384.9,61.8,383.4,59.2,383.4,57z M392.1,57.2
		c0-2.7-1.6-4.4-3.7-4.4c-1.4,0-3.1,0.8-3.1,3.8c0,2.5,1.5,4.5,3.9,4.5C390.1,61.1,392.1,60.7,392.1,57.2z"/>
	<path d="M398.1,58.1c0,1.2,0,2.1,0.1,2.6c0,0.4,0.1,0.6,0.5,0.7c0.2,0,0.4,0,0.6,0c0.2,0,0.2,0.1,0.2,0.1c0,0.1-0.1,0.1-0.3,0.1
		c-0.8,0-1.7,0-2,0s-1.1,0-1.6,0c-0.2,0-0.3,0-0.3-0.1c0-0.1,0-0.1,0.2-0.1c0.2,0,0.3,0,0.5,0c0.3-0.1,0.3-0.3,0.4-0.7
		c0.1-0.5,0.1-1.4,0.1-2.6v-2.2c0-1.9,0-2.2,0-2.6c0-0.4-0.1-0.6-0.6-0.7c-0.1,0-0.3,0-0.5,0c-0.1,0-0.2,0-0.2-0.1
		c0-0.1,0.1-0.1,0.3-0.1c0.7,0,1.5,0,1.8,0c0.5,0,3.3,0,3.6,0c0.2,0,0.4,0,0.5-0.1c0.1,0,0.1-0.1,0.2-0.1c0,0,0.1,0.1,0.1,0.1
		c0,0.1-0.1,0.2-0.1,0.6c0,0.1,0,0.9-0.1,1c0,0.1,0,0.2-0.1,0.2c-0.1,0-0.2-0.1-0.2-0.2c0-0.1,0-0.3-0.1-0.5
		c-0.1-0.2-0.3-0.4-0.8-0.4l-2.1,0c-0.1,0-0.1,0-0.1,0.2v3c0,0.1,0,0.1,0.1,0.1l1.8,0c0.2,0,0.4,0,0.6,0c0.2,0,0.4-0.1,0.5-0.2
		c0.1-0.1,0.1-0.1,0.2-0.1c0,0,0.1,0,0.1,0.1c0,0.1-0.1,0.4-0.1,0.8c0,0.2,0,0.8,0,0.9c0,0.1,0,0.3-0.1,0.3c-0.1,0-0.1-0.1-0.1-0.2
		c0-0.1,0-0.2-0.1-0.4c-0.1-0.2-0.2-0.4-0.6-0.4c-0.3,0-1.8,0-2,0c-0.1,0-0.1,0-0.1,0.1V58.1z"/>
	<path d="M281.4,72.3c0-2.2,0-2.6,0-3.1c0-0.5-0.1-0.7-0.6-0.8c-0.1,0-0.4,0-0.6,0c-0.2,0-0.2,0-0.2-0.1s0.1-0.1,0.3-0.1
		c0.4,0,0.8,0,1.2,0c0.4,0,0.7,0,0.9,0c0.5,0,3.4,0,3.6,0c0.3,0,0.5-0.1,0.6-0.1c0.1,0,0.2-0.1,0.2-0.1c0.1,0,0.1,0.1,0.1,0.1
		c0,0.1-0.1,0.3-0.1,0.9c0,0.1,0,0.8-0.1,1c0,0.1,0,0.2-0.1,0.2s-0.1-0.1-0.1-0.2c0-0.1,0-0.3-0.1-0.5c-0.1-0.3-0.2-0.4-1-0.5
		c-0.2,0-1.8-0.1-2.1-0.1c-0.1,0-0.1,0-0.1,0.1v3.7c0,0.1,0,0.2,0.1,0.2c0.3,0,2,0,2.3,0c0.3,0,0.6-0.1,0.7-0.2
		c0.1-0.1,0.2-0.2,0.2-0.2c0.1,0,0.1,0,0.1,0.1s-0.1,0.3-0.1,1.1c0,0.3-0.1,0.9-0.1,1c0,0.1,0,0.3-0.1,0.3c-0.1,0-0.1-0.1-0.1-0.1
		c0-0.1,0-0.3-0.1-0.5c-0.1-0.3-0.3-0.5-0.8-0.6c-0.3,0-1.7,0-2.1,0c-0.1,0-0.1,0.1-0.1,0.1v1.1c0,0.5,0,1.8,0,2.2
		c0,1,0.3,1.2,1.7,1.2c0.4,0,1,0,1.4-0.2c0.4-0.2,0.6-0.5,0.7-1.1c0-0.2,0.1-0.2,0.2-0.2c0.1,0,0.1,0.1,0.1,0.3
		c0,0.3-0.1,1.3-0.2,1.6c-0.1,0.4-0.2,0.4-0.8,0.4c-1.1,0-1.9,0-2.5,0c-0.6,0-1.1,0-1.5,0c-0.2,0-0.5,0-0.8,0c-0.3,0-0.7,0-1,0
		c-0.2,0-0.3,0-0.3-0.1c0-0.1,0.1-0.1,0.2-0.1c0.2,0,0.4,0,0.5-0.1c0.3-0.1,0.4-0.4,0.4-0.8c0.1-0.6,0.1-1.8,0.1-3.1V72.3z"/>
	<path d="M290.7,69.8c0-0.2,0.1-0.3,0.2-0.3c0.1,0,0.2,0.1,0.4,0.4l3.4,6.9l3.4-7c0.1-0.2,0.2-0.3,0.3-0.3c0.1,0,0.2,0.1,0.3,0.4
		l1.2,7.6c0.1,0.8,0.2,1.1,0.6,1.2c0.4,0.1,0.6,0.1,0.7,0.1c0.1,0,0.2,0,0.2,0.1c0,0.1-0.1,0.1-0.3,0.1c-0.3,0-2.1-0.1-2.6-0.1
		c-0.3,0-0.4-0.1-0.4-0.1c0-0.1,0.1-0.1,0.1-0.1c0.1,0,0.1-0.2,0.1-0.5l-0.7-5.3h0l-2.7,5.5c-0.3,0.6-0.4,0.7-0.5,0.7
		c-0.2,0-0.3-0.2-0.5-0.6c-0.3-0.6-1.3-2.5-1.5-2.8c-0.1-0.2-0.9-1.8-1.3-2.6h0l-0.6,4.8c0,0.2,0,0.4,0,0.6c0,0.2,0.2,0.3,0.4,0.4
		c0.2,0,0.3,0.1,0.5,0.1s0.2,0.1,0.2,0.1c0,0.1-0.1,0.1-0.3,0.1c-0.5,0-1.1,0-1.3,0c-0.2,0-0.9,0-1.3,0c-0.1,0-0.2,0-0.2-0.1
		c0-0.1,0.1-0.1,0.2-0.1c0.1,0,0.2,0,0.4,0c0.3,0,0.5-0.5,0.5-0.9L290.7,69.8z"/>
	<path d="M303.7,73.3c0-1.9,0-2.2,0-2.6c0-0.4-0.1-0.6-0.6-0.7c-0.1,0-0.3,0-0.5,0c-0.1,0-0.2,0-0.2-0.1s0.1-0.1,0.3-0.1
		c0.7,0,1.5,0,1.8,0c0.4,0,3.2,0,3.5,0c0.2,0,0.4-0.1,0.5-0.1c0.1,0,0.1-0.1,0.2-0.1c0.1,0,0.1,0.1,0.1,0.1c0,0.1-0.1,0.2-0.1,0.8
		c0,0.1,0,0.7-0.1,0.8c0,0.1,0,0.2-0.1,0.2c-0.1,0-0.1-0.1-0.1-0.2c0-0.1,0-0.3-0.1-0.5c-0.1-0.2-0.2-0.4-0.8-0.4
		c-0.2,0-1.7-0.1-2-0.1c-0.1,0-0.1,0-0.1,0.1v3c0,0.1,0,0.1,0.1,0.1c0.3,0,1.9,0,2.2,0c0.3,0,0.5-0.1,0.6-0.2
		c0.1-0.1,0.1-0.2,0.2-0.2c0.1,0,0.1,0.1,0.1,0.1c0,0.1,0,0.3-0.1,0.9c0,0.2-0.1,0.7-0.1,0.8c0,0.1,0,0.3-0.1,0.3
		c-0.1,0-0.1,0-0.1-0.1c0-0.1,0-0.3,0-0.4c-0.1-0.2-0.2-0.4-0.7-0.5c-0.2,0-1.7-0.1-2-0.1c-0.1,0-0.1,0.1-0.1,0.1v1
		c0,0.4,0,1.5,0,1.8c0,0.8,0.4,1,1.7,1c0.3,0,0.9,0,1.2-0.2c0.3-0.1,0.5-0.4,0.6-0.9c0-0.1,0.1-0.2,0.1-0.2c0.1,0,0.1,0.2,0.1,0.3
		c0,0.3-0.1,1.1-0.2,1.4c-0.1,0.3-0.2,0.3-0.7,0.3c-1,0-1.7,0-2.4,0c-0.6,0-1.1,0-1.5,0c-0.1,0-0.4,0-0.7,0c-0.3,0-0.6,0-0.9,0
		c-0.2,0-0.2,0-0.2-0.1c0-0.1,0-0.1,0.2-0.1c0.2,0,0.3,0,0.5,0c0.3-0.1,0.3-0.3,0.4-0.7c0.1-0.5,0.1-1.5,0.1-2.6V73.3z"/>
	<path d="M311.7,73.3c0-1.9,0-2.2,0-2.6c0-0.4-0.1-0.6-0.6-0.7c-0.1,0-0.3,0-0.5,0c-0.1,0-0.2,0-0.2-0.1s0.1-0.1,0.3-0.1
		c0.7,0,1.5,0,1.7,0c0.4,0,1.6,0,2,0c0.8,0,1.7,0.1,2.4,0.5c0.4,0.2,0.9,0.9,0.9,1.7c0,0.9-0.5,1.7-1.8,2.7c1.1,1.4,2,2.5,2.8,3.3
		c0.7,0.7,1.2,0.8,1.4,0.8c0.1,0,0.2,0,0.3,0s0.2,0.1,0.2,0.1c0,0.1-0.1,0.1-0.2,0.1h-1.2c-0.7,0-1.1-0.1-1.4-0.2
		c-0.6-0.3-1-0.9-1.7-1.8c-0.5-0.7-1-1.5-1.2-1.7c-0.1-0.1-0.1-0.1-0.2-0.1l-1.1,0c-0.1,0-0.1,0-0.1,0.1v0.2c0,1.1,0,2.1,0.1,2.6
		c0,0.4,0.1,0.6,0.5,0.7c0.2,0,0.5,0,0.6,0c0.1,0,0.2,0.1,0.2,0.1c0,0.1-0.1,0.1-0.3,0.1c-0.7,0-1.8,0-2,0c-0.2,0-1.1,0-1.6,0
		c-0.2,0-0.2,0-0.2-0.1c0-0.1,0-0.1,0.2-0.1c0.2,0,0.3,0,0.5,0c0.3-0.1,0.3-0.3,0.4-0.7c0.1-0.5,0.1-1.5,0.1-2.6V73.3z M313.3,74.3
		c0,0.1,0,0.2,0.1,0.2c0.3,0.1,0.7,0.1,1,0.1c0.5,0,0.7,0,0.9-0.2c0.4-0.3,0.8-0.8,0.8-1.8c0-1.7-1.2-2.2-1.9-2.2
		c-0.3,0-0.6,0-0.8,0c-0.1,0-0.1,0.1-0.1,0.2V74.3z"/>
	<path d="M329.4,78.2c0,0.3,0,0.3-0.2,0.4c-0.9,0.4-2.1,0.6-3.1,0.6c-3.1,0-5.9-1.4-5.9-4.8c0-2,1.1-3.4,2.2-4
		c1.2-0.7,2.4-0.8,3.4-0.8c0.9,0,2,0.1,2.3,0.2c0.3,0,0.7,0.1,1,0.1c0.1,0,0.2,0.1,0.2,0.1c0,0.1-0.1,0.5-0.1,2
		c0,0.2-0.1,0.3-0.2,0.3c-0.1,0-0.1-0.1-0.1-0.2c0-0.3-0.1-0.7-0.4-1c-0.4-0.4-1.3-0.9-2.8-0.9c-0.7,0-1.6,0-2.5,0.7
		c-0.7,0.6-1.2,1.5-1.2,3c0,2.7,1.7,4.6,4.4,4.6c0.3,0,0.6,0,0.9-0.1c0.2-0.1,0.2-0.2,0.2-0.4v-1.1c0-0.6,0-1.1,0-1.5
		c0-0.4-0.1-0.6-0.6-0.7c-0.1,0-0.3,0-0.5,0c-0.1,0-0.2-0.1-0.2-0.1c0-0.1,0.1-0.1,0.3-0.1c0.7,0,1.6,0,2,0c0.4,0,1.1,0,1.5,0
		c0.2,0,0.3,0,0.3,0.1c0,0.1-0.1,0.1-0.2,0.1c-0.1,0-0.2,0-0.3,0c-0.3,0.1-0.5,0.2-0.5,0.7c0,0.4,0,0.9,0,1.5V78.2z"/>
	<path d="M333,73.3c0-1.9,0-2.2,0-2.6c0-0.4-0.1-0.6-0.6-0.7c-0.1,0-0.3,0-0.5,0c-0.1,0-0.2,0-0.2-0.1s0.1-0.1,0.3-0.1
		c0.7,0,1.5,0,1.8,0c0.4,0,3.2,0,3.5,0c0.2,0,0.4-0.1,0.5-0.1c0.1,0,0.1-0.1,0.2-0.1c0.1,0,0.1,0.1,0.1,0.1c0,0.1-0.1,0.2-0.1,0.8
		c0,0.1,0,0.7-0.1,0.8c0,0.1,0,0.2-0.1,0.2c-0.1,0-0.1-0.1-0.1-0.2c0-0.1,0-0.3-0.1-0.5c-0.1-0.2-0.2-0.4-0.8-0.4
		c-0.2,0-1.7-0.1-2-0.1c-0.1,0-0.1,0-0.1,0.1v3c0,0.1,0,0.1,0.1,0.1c0.3,0,1.9,0,2.2,0c0.3,0,0.5-0.1,0.6-0.2
		c0.1-0.1,0.1-0.2,0.2-0.2c0.1,0,0.1,0.1,0.1,0.1c0,0.1,0,0.3-0.1,0.9c0,0.2-0.1,0.7-0.1,0.8c0,0.1,0,0.3-0.1,0.3
		c-0.1,0-0.1,0-0.1-0.1c0-0.1,0-0.3,0-0.4c-0.1-0.2-0.2-0.4-0.7-0.5c-0.2,0-1.7-0.1-2-0.1c-0.1,0-0.1,0.1-0.1,0.1v1
		c0,0.4,0,1.5,0,1.8c0,0.8,0.4,1,1.7,1c0.3,0,0.9,0,1.2-0.2c0.3-0.1,0.5-0.4,0.6-0.9c0-0.1,0.1-0.2,0.1-0.2c0.1,0,0.1,0.2,0.1,0.3
		c0,0.3-0.1,1.1-0.2,1.4c-0.1,0.3-0.2,0.3-0.7,0.3c-1,0-1.7,0-2.4,0c-0.6,0-1.1,0-1.5,0c-0.1,0-0.4,0-0.7,0c-0.3,0-0.6,0-0.9,0
		c-0.2,0-0.2,0-0.2-0.1c0-0.1,0-0.1,0.2-0.1c0.2,0,0.3,0,0.5,0c0.3-0.1,0.3-0.3,0.4-0.7c0.1-0.5,0.1-1.5,0.1-2.6V73.3z"/>
	<path d="M341.8,77.4c0,1,0.2,1.2,0.4,1.3c0.2,0.1,0.5,0.1,0.7,0.1c0.1,0,0.2,0.1,0.2,0.1c0,0.1-0.1,0.1-0.3,0.1c-0.8,0-1.4,0-1.7,0
		c-0.1,0-0.7,0-1.4,0c-0.2,0-0.3,0-0.3-0.1c0-0.1,0.1-0.1,0.2-0.1c0.2,0,0.4,0,0.6-0.1c0.3-0.1,0.4-0.4,0.4-1.5l0.1-7.3
		c0-0.2,0.1-0.4,0.2-0.4c0.2,0,0.3,0.2,0.6,0.4c0.2,0.2,2.1,2.1,3.9,3.9c0.9,0.9,2.6,2.6,2.8,2.8h0.1l-0.1-5.5c0-0.8-0.1-1-0.4-1.1
		c-0.2-0.1-0.5-0.1-0.7-0.1c-0.2,0-0.2-0.1-0.2-0.1c0-0.1,0.1-0.1,0.3-0.1c0.7,0,1.3,0,1.6,0c0.1,0,0.6,0,1.2,0c0.2,0,0.3,0,0.3,0.1
		c0,0.1-0.1,0.1-0.2,0.1c-0.1,0-0.2,0-0.4,0c-0.3,0.1-0.5,0.3-0.5,1l-0.1,7.8c0,0.3-0.1,0.4-0.2,0.4c-0.2,0-0.4-0.1-0.5-0.3
		c-0.8-0.7-2.4-2.3-3.7-3.6c-1.4-1.3-2.7-2.8-3-3h0L341.8,77.4z"/>
	<path d="M353.3,77.9c-1.3-1.1-1.6-2.5-1.6-3.6c0-0.8,0.3-2.3,1.5-3.4c0.9-0.8,2.1-1.3,4-1.3c0.8,0,1.3,0.1,1.9,0.1
		c0.5,0.1,0.9,0.2,1.3,0.2c0.1,0,0.2,0.1,0.2,0.1c0,0.1,0,0.2-0.1,0.7c0,0.4,0,1.1,0,1.3c0,0.2-0.1,0.3-0.2,0.3
		c-0.1,0-0.1-0.1-0.1-0.3c0-0.4-0.2-0.8-0.5-1.1c-0.4-0.4-1.3-0.7-2.5-0.7c-1.1,0-1.8,0.2-2.4,0.7c-0.9,0.8-1.2,2-1.2,3.2
		c0,2.9,2.3,4.3,4,4.3c1.1,0,1.8-0.1,2.3-0.7c0.2-0.2,0.4-0.6,0.4-0.8c0-0.2,0.1-0.2,0.2-0.2c0.1,0,0.1,0.1,0.1,0.2
		c0,0.1-0.1,1.2-0.3,1.6c-0.1,0.2-0.1,0.3-0.3,0.4c-0.5,0.2-1.5,0.3-2.3,0.3C355.9,79.2,354.5,78.9,353.3,77.9z"/>
	<path d="M365,75.9c0-0.7-0.1-0.9-0.3-1.3c-0.1-0.2-1.8-2.9-2.3-3.6c-0.3-0.5-0.6-0.7-0.8-0.9c-0.2-0.1-0.4-0.2-0.5-0.2
		c-0.1,0-0.2,0-0.2-0.1s0.1-0.1,0.2-0.1c0.2,0,1.2,0,1.6,0c0.3,0,0.9,0,1.5,0c0.1,0,0.2,0,0.2,0.1c0,0.1-0.1,0.1-0.3,0.2
		c-0.1,0-0.2,0.1-0.2,0.2c0,0.1,0.1,0.2,0.2,0.4c0.2,0.4,1.9,3.3,2.1,3.6c0.2-0.3,1.7-2.9,1.9-3.3c0.1-0.3,0.2-0.5,0.2-0.7
		c0-0.1-0.1-0.2-0.3-0.3c-0.1,0-0.2,0-0.2-0.1c0-0.1,0.1-0.1,0.2-0.1c0.4,0,0.9,0,1.2,0c0.3,0,1.1,0,1.4,0c0.1,0,0.2,0,0.2,0.1
		c0,0.1-0.1,0.1-0.2,0.1c-0.1,0-0.4,0.1-0.6,0.1c-0.3,0.1-0.4,0.2-0.7,0.6c-0.4,0.5-2.2,3.4-2.5,3.9c-0.2,0.5-0.2,0.8-0.2,1.2v1
		c0,0.2,0,0.7,0,1.2c0,0.4,0.1,0.6,0.5,0.7c0.2,0,0.5,0,0.6,0c0.1,0,0.2,0.1,0.2,0.1c0,0.1-0.1,0.1-0.3,0.1c-0.8,0-1.7,0-2,0
		c-0.3,0-1.2,0-1.7,0c-0.2,0-0.3,0-0.3-0.1c0-0.1,0.1-0.1,0.2-0.1c0.2,0,0.3,0,0.5,0c0.3-0.1,0.4-0.3,0.4-0.7c0-0.5,0-1,0-1.2V75.9z
		"/>
	<path d="M377.3,68.2c0-0.2,0.1-0.4,0.2-0.4s0.2,0.1,0.4,0.5l4,8.2l3.9-8.3c0.1-0.2,0.2-0.3,0.3-0.3s0.2,0.1,0.3,0.5l1.3,9
		c0.1,0.9,0.3,1.3,0.7,1.5c0.4,0.1,0.7,0.1,0.9,0.1c0.1,0,0.2,0,0.2,0.1c0,0.1-0.2,0.2-0.4,0.2c-0.4,0-2.4,0-2.9-0.1
		c-0.3,0-0.4-0.1-0.4-0.2c0-0.1,0.1-0.1,0.2-0.2c0.1,0,0.1-0.2,0.1-0.6l-0.9-6.4h-0.1l-3.2,6.6c-0.3,0.7-0.4,0.8-0.5,0.8
		c-0.1,0-0.3-0.3-0.5-0.7c-0.3-0.7-1.5-2.9-1.7-3.3c-0.1-0.3-1-2.1-1.5-3.2h-0.1l-0.8,5.8c0,0.3,0,0.5,0,0.7c0,0.3,0.2,0.4,0.4,0.5
		c0.3,0.1,0.5,0.1,0.6,0.1c0.1,0,0.2,0,0.2,0.1c0,0.1-0.1,0.2-0.3,0.2c-0.6,0-1.3,0-1.5,0c-0.3,0-1,0-1.4,0c-0.1,0-0.3,0-0.3-0.2
		c0-0.1,0.1-0.1,0.2-0.1c0.1,0,0.2,0,0.4,0c0.4-0.1,0.5-0.7,0.6-1.1L377.3,68.2z"/>
	<path d="M391.7,73.3c0-1.9,0-2.2,0-2.6c0-0.4-0.1-0.6-0.6-0.7c-0.1,0-0.3,0-0.5,0c-0.1,0-0.2,0-0.2-0.1s0.1-0.1,0.3-0.1
		c0.7,0,1.5,0,1.8,0c0.4,0,3.2,0,3.5,0c0.2,0,0.4-0.1,0.5-0.1c0.1,0,0.1-0.1,0.2-0.1c0.1,0,0.1,0.1,0.1,0.1c0,0.1-0.1,0.2-0.1,0.8
		c0,0.1,0,0.7-0.1,0.8c0,0.1,0,0.2-0.1,0.2c-0.1,0-0.1-0.1-0.1-0.2c0-0.1,0-0.3-0.1-0.5c-0.1-0.2-0.2-0.4-0.8-0.4
		c-0.2,0-1.7-0.1-2-0.1c-0.1,0-0.1,0-0.1,0.1v3c0,0.1,0,0.1,0.1,0.1c0.3,0,1.9,0,2.2,0c0.3,0,0.5-0.1,0.6-0.2
		c0.1-0.1,0.1-0.2,0.2-0.2c0.1,0,0.1,0.1,0.1,0.1c0,0.1,0,0.3-0.1,0.9c0,0.2-0.1,0.7-0.1,0.8c0,0.1,0,0.3-0.1,0.3
		c-0.1,0-0.1,0-0.1-0.1c0-0.1,0-0.3,0-0.4c-0.1-0.2-0.2-0.4-0.7-0.5c-0.2,0-1.7-0.1-2-0.1c-0.1,0-0.1,0.1-0.1,0.1v1
		c0,0.4,0,1.5,0,1.8c0,0.8,0.4,1,1.7,1c0.3,0,0.9,0,1.2-0.2c0.3-0.1,0.5-0.4,0.6-0.9c0-0.1,0.1-0.2,0.1-0.2c0.1,0,0.1,0.2,0.1,0.3
		c0,0.3-0.1,1.1-0.2,1.4c-0.1,0.3-0.2,0.3-0.7,0.3c-1,0-1.7,0-2.4,0c-0.6,0-1.1,0-1.5,0c-0.1,0-0.4,0-0.7,0c-0.3,0-0.6,0-0.9,0
		c-0.2,0-0.2,0-0.2-0.1c0-0.1,0-0.1,0.2-0.1c0.2,0,0.3,0,0.5,0c0.3-0.1,0.3-0.3,0.4-0.7c0.1-0.5,0.1-1.5,0.1-2.6V73.3z"/>
	<path d="M399.7,73.3c0-1.9,0-2.2,0-2.6c0-0.4-0.1-0.6-0.6-0.7c-0.1,0-0.3,0-0.5,0c-0.1,0-0.2,0-0.2-0.1s0.1-0.1,0.3-0.1
		c0.7,0,1.5,0,1.8,0c0.4,0,1.3,0,2.1,0c1.6,0,3.7,0,5.1,1.4c0.6,0.6,1.2,1.7,1.2,3.1c0,1.6-0.7,2.7-1.4,3.4
		c-0.6,0.6-1.9,1.5-4.3,1.5c-0.5,0-1,0-1.5-0.1c-0.5,0-1-0.1-1.3-0.1c-0.1,0-0.4,0-0.7,0c-0.3,0-0.6,0-0.9,0c-0.2,0-0.2,0-0.2-0.1
		c0-0.1,0-0.1,0.2-0.1c0.2,0,0.3,0,0.5,0c0.3-0.1,0.3-0.3,0.4-0.7c0.1-0.5,0.1-1.5,0.1-2.6V73.3z M401.4,74.7c0,1.3,0,2.2,0,2.5
		c0,0.3,0,0.7,0.1,0.9c0.2,0.2,0.7,0.5,1.7,0.5c1.2,0,2-0.2,2.8-0.8c0.8-0.7,1.1-1.8,1.1-3.1c0-1.6-0.6-2.6-1.2-3.1
		c-1.2-1-2.6-1.2-3.6-1.2c-0.3,0-0.7,0-0.8,0.1c-0.1,0-0.2,0.1-0.2,0.2c0,0.4,0,1.4,0,2.4V74.7z"/>
	<path d="M411.6,73.3c0-1.9,0-2.2,0-2.6c0-0.4-0.2-0.6-0.4-0.7c-0.1,0-0.3-0.1-0.5-0.1c-0.1,0-0.2,0-0.2-0.1c0-0.1,0.1-0.1,0.3-0.1
		c0.5,0,1.3,0,1.7,0c0.3,0,1.1,0,1.6,0c0.2,0,0.3,0,0.3,0.1c0,0.1-0.1,0.1-0.2,0.1c-0.1,0-0.2,0-0.4,0c-0.3,0.1-0.4,0.2-0.5,0.7
		c0,0.4,0,0.7,0,2.6v2.2c0,1.2,0,2.2,0.1,2.7c0,0.3,0.1,0.5,0.5,0.6c0.2,0,0.5,0,0.7,0c0.1,0,0.2,0.1,0.2,0.1c0,0.1-0.1,0.1-0.2,0.1
		c-0.8,0-1.7,0-2.1,0c-0.3,0-1.2,0-1.7,0c-0.2,0-0.2,0-0.2-0.1c0-0.1,0-0.1,0.2-0.1c0.2,0,0.3,0,0.5,0c0.3-0.1,0.3-0.2,0.4-0.6
		c0.1-0.5,0.1-1.5,0.1-2.7V73.3z"/>
	<path d="M417.6,77.9c-1.3-1.1-1.6-2.5-1.6-3.6c0-0.8,0.3-2.3,1.5-3.4c0.9-0.8,2.1-1.3,4-1.3c0.8,0,1.3,0.1,1.9,0.1
		c0.5,0.1,0.9,0.2,1.3,0.2c0.1,0,0.2,0.1,0.2,0.1c0,0.1,0,0.2-0.1,0.7c0,0.4,0,1.1,0,1.3c0,0.2-0.1,0.3-0.2,0.3
		c-0.1,0-0.1-0.1-0.1-0.3c0-0.4-0.2-0.8-0.5-1.1c-0.4-0.4-1.3-0.7-2.5-0.7c-1.1,0-1.8,0.2-2.4,0.7c-0.9,0.8-1.2,2-1.2,3.2
		c0,2.9,2.3,4.3,4,4.3c1.1,0,1.8-0.1,2.3-0.7c0.2-0.2,0.4-0.6,0.4-0.8c0-0.2,0.1-0.2,0.2-0.2c0.1,0,0.1,0.1,0.1,0.2
		c0,0.1-0.1,1.2-0.3,1.6c-0.1,0.2-0.1,0.3-0.3,0.4c-0.5,0.2-1.5,0.3-2.3,0.3C420.2,79.2,418.8,78.9,417.6,77.9z"/>
	<path d="M427.6,73.3c0-1.9,0-2.2,0-2.6c0-0.4-0.2-0.6-0.4-0.7c-0.1,0-0.3-0.1-0.5-0.1c-0.1,0-0.2,0-0.2-0.1c0-0.1,0.1-0.1,0.3-0.1
		c0.5,0,1.3,0,1.7,0c0.3,0,1.1,0,1.6,0c0.2,0,0.3,0,0.3,0.1c0,0.1-0.1,0.1-0.2,0.1c-0.1,0-0.2,0-0.4,0c-0.3,0.1-0.4,0.2-0.5,0.7
		c0,0.4,0,0.7,0,2.6v2.2c0,1.2,0,2.2,0.1,2.7c0,0.3,0.1,0.5,0.5,0.6c0.2,0,0.5,0,0.7,0c0.1,0,0.2,0.1,0.2,0.1c0,0.1-0.1,0.1-0.2,0.1
		c-0.8,0-1.7,0-2.1,0c-0.3,0-1.2,0-1.7,0c-0.2,0-0.2,0-0.2-0.1c0-0.1,0-0.1,0.2-0.1c0.2,0,0.3,0,0.5,0c0.3-0.1,0.3-0.2,0.4-0.6
		c0.1-0.5,0.1-1.5,0.1-2.7V73.3z"/>
	<path d="M434.3,77.4c0,1,0.2,1.2,0.4,1.3c0.2,0.1,0.5,0.1,0.7,0.1c0.1,0,0.2,0.1,0.2,0.1c0,0.1-0.1,0.1-0.3,0.1c-0.8,0-1.4,0-1.7,0
		c-0.1,0-0.7,0-1.4,0c-0.2,0-0.3,0-0.3-0.1c0-0.1,0.1-0.1,0.2-0.1c0.2,0,0.4,0,0.6-0.1c0.3-0.1,0.4-0.4,0.4-1.5l0.1-7.3
		c0-0.2,0.1-0.4,0.2-0.4c0.2,0,0.3,0.2,0.6,0.4c0.2,0.2,2.1,2.1,3.9,3.9c0.9,0.9,2.6,2.6,2.8,2.8h0.1l-0.1-5.5c0-0.8-0.1-1-0.4-1.1
		c-0.2-0.1-0.5-0.1-0.7-0.1c-0.2,0-0.2-0.1-0.2-0.1c0-0.1,0.1-0.1,0.3-0.1c0.7,0,1.3,0,1.6,0c0.1,0,0.6,0,1.2,0c0.2,0,0.3,0,0.3,0.1
		c0,0.1-0.1,0.1-0.2,0.1c-0.1,0-0.2,0-0.4,0c-0.3,0.1-0.5,0.3-0.5,1l-0.1,7.8c0,0.3-0.1,0.4-0.2,0.4c-0.2,0-0.4-0.1-0.5-0.3
		c-0.8-0.7-2.4-2.3-3.7-3.6c-1.4-1.3-2.7-2.8-3-3h0L434.3,77.4z"/>
	<path d="M445.7,73.3c0-1.9,0-2.2,0-2.6c0-0.4-0.1-0.6-0.6-0.7c-0.1,0-0.3,0-0.5,0c-0.1,0-0.2,0-0.2-0.1s0.1-0.1,0.3-0.1
		c0.7,0,1.5,0,1.8,0c0.4,0,3.2,0,3.5,0c0.2,0,0.4-0.1,0.5-0.1c0.1,0,0.1-0.1,0.2-0.1c0.1,0,0.1,0.1,0.1,0.1c0,0.1-0.1,0.2-0.1,0.8
		c0,0.1,0,0.7-0.1,0.8c0,0.1,0,0.2-0.1,0.2c-0.1,0-0.1-0.1-0.1-0.2c0-0.1,0-0.3-0.1-0.5c-0.1-0.2-0.2-0.4-0.8-0.4
		c-0.2,0-1.7-0.1-2-0.1c-0.1,0-0.1,0-0.1,0.1v3c0,0.1,0,0.1,0.1,0.1c0.3,0,1.9,0,2.2,0c0.3,0,0.5-0.1,0.6-0.2
		c0.1-0.1,0.1-0.2,0.2-0.2c0.1,0,0.1,0.1,0.1,0.1c0,0.1,0,0.3-0.1,0.9c0,0.2-0.1,0.7-0.1,0.8c0,0.1,0,0.3-0.1,0.3
		c-0.1,0-0.1,0-0.1-0.1c0-0.1,0-0.3,0-0.4c-0.1-0.2-0.2-0.4-0.7-0.5c-0.2,0-1.7-0.1-2-0.1c-0.1,0-0.1,0.1-0.1,0.1v1
		c0,0.4,0,1.5,0,1.8c0,0.8,0.4,1,1.7,1c0.3,0,0.9,0,1.2-0.2c0.3-0.1,0.5-0.4,0.6-0.9c0-0.1,0.1-0.2,0.1-0.2c0.1,0,0.1,0.2,0.1,0.3
		c0,0.3-0.1,1.1-0.2,1.4c-0.1,0.3-0.2,0.3-0.7,0.3c-1,0-1.7,0-2.4,0c-0.6,0-1.1,0-1.5,0c-0.1,0-0.4,0-0.7,0c-0.3,0-0.6,0-0.9,0
		c-0.2,0-0.2,0-0.2-0.1c0-0.1,0-0.1,0.2-0.1c0.2,0,0.3,0,0.5,0c0.3-0.1,0.3-0.3,0.4-0.7c0.1-0.5,0.1-1.5,0.1-2.6V73.3z"/>
</g>
</svg>
