<?xml version="1.0" encoding="utf-8"?>
<!-- Generator: Adobe Illustrator 25.0.0, SVG Export Plug-In . SVG Version: 6.00 Build 0)  -->
<svg version="1.1" id="Layer_1" xmlns="http://www.w3.org/2000/svg" xmlns:xlink="http://www.w3.org/1999/xlink" x="0px" y="0px"
	 viewBox="0 0 1381 242.4" style="enable-background:new 0 0 1381 242.4;" xml:space="preserve">
<style type="text/css">
	.st0{fill:none;stroke:#000000;stroke-width:2.7;}
	.st1{fill-rule:evenodd;clip-rule:evenodd;}
</style>
<g>
	<path d="M200.8,107.9c-7.9-7.1-9.8-16.3-9.8-24.1c0-5.4,1.9-15,9.1-22.2c4.9-4.9,12.3-8.7,24.8-8.7c3.2,0,7.8,0.2,11.8,1
		c3.1,0.6,5.7,1.1,8.3,1.2c0.9,0.1,1.1,0.4,1.1,0.9c0,0.7-0.2,1.6-0.4,4.6c-0.2,2.7-0.2,7.2-0.2,8.4c-0.1,1.2-0.2,1.7-0.7,1.7
		c-0.6,0-0.7-0.6-0.7-1.7c0-3.2-1.3-6.5-3.4-8.3c-2.8-2.4-9.1-4.6-16.3-4.6c-10.8,0-15.9,3.2-18.7,5.9c-5.9,5.7-7.3,12.9-7.3,21.2
		c0,15.5,12,29.8,29.4,29.8c6.1,0,10.9-0.7,14.1-4.1c1.7-1.8,2.8-5.4,3-6.8c0.2-0.9,0.3-1.2,0.8-1.2c0.4,0,0.6,0.6,0.6,1.2
		c0,0.6-1,7.6-1.8,10.4c-0.5,1.5-0.7,1.7-2.1,2.4c-3.3,1.3-9.4,1.9-14.6,1.9C215.4,116.7,207.2,113.7,200.8,107.9z"/>
	<path d="M283.2,62.3c16.1,0,28.3,9.8,28.3,25.9c0,15.4-11.5,28.2-28.7,28.2c-19.6,0-28-14.7-28-27.2
		C254.8,78.1,263.4,62.3,283.2,62.3z M284.8,113.6c6.4,0,19.4-3.4,19.4-23.4c0-16.6-10.1-25.3-21.4-25.3c-12,0-20.6,7.5-20.6,22.5
		C262.2,103.5,271.9,113.6,284.8,113.6z"/>
	<path d="M332.9,95.6c0,10.2,0.2,14.3,1.5,15.5c1.1,1.1,3.9,1.6,9.5,1.6c3.7,0,6.9-0.1,8.6-2.1c0.9-1.1,1.5-2.5,1.7-3.9
		c0.1-0.5,0.3-0.9,0.7-0.9c0.3,0,0.5,0.3,0.5,1.1c0,0.7-0.5,4.9-1.1,6.9c-0.5,1.6-0.7,1.9-4.6,1.9c-5.1,0-9.1-0.1-12.4-0.2
		c-3.3-0.1-5.7-0.2-7.8-0.2c-0.3,0-1.5,0-2.9,0.1c-1.5,0.1-3,0.2-4.1,0.2c-0.7,0-1.1-0.2-1.1-0.6c0-0.2,0.2-0.6,0.6-0.6
		c0.7,0,1.5-0.2,2.2-0.3c1.4-0.3,1.5-1.6,1.9-3.7c0.4-2.8,0.4-8.3,0.4-15V83.2c0-10.7,0-12.7-0.2-14.9c-0.2-2.4-0.6-3.5-2.9-3.8
		c-0.6-0.1-1.8-0.2-2.4-0.2c-0.2,0-0.6-0.3-0.6-0.6c0-0.4,0.3-0.6,1.1-0.6c3.3,0,7.7,0.2,8.1,0.2c0.3,0,5.7-0.2,7.9-0.2
		c0.7,0,1.1,0.2,1.1,0.6c0,0.2-0.3,0.5-0.6,0.5c-0.5,0-1.5,0.1-2.4,0.2c-2.1,0.4-2.5,1.5-2.7,3.9c-0.1,2.2-0.1,4.1-0.1,14.9V95.6z"
		/>
	<path d="M365.9,83.2c0-10.7,0-12.7-0.2-14.9c-0.2-2.2-0.6-3.5-2.9-3.8c-0.6-0.1-1.8-0.2-2.4-0.2c-0.2,0-0.6-0.3-0.6-0.6
		c0-0.4,0.3-0.6,1.1-0.6c3.3,0,7.6,0.2,8.2,0.2c0.7,0,5.1-0.2,7.2-0.2c0.8,0,1.2,0.2,1.2,0.6c0,0.2-0.3,0.6-0.7,0.6
		c-0.5,0-0.9,0-1.8,0.2c-1.9,0.3-2.3,1.5-2.4,3.8c-0.2,2.2-0.2,4.1-0.2,14.9v9.7c0,10,2.2,14.1,5.3,16.9c3.5,3.2,6.6,3.7,10.6,3.7
		c4.4,0,8.6-1.9,11.1-4.9c3.3-4,4.1-9.7,4.1-16.8v-8.7c0-10.7-0.1-12.7-0.2-14.9c-0.1-2.2-0.5-3.5-2.8-3.8c-0.6-0.1-1.8-0.2-2.4-0.2
		c-0.3,0-0.6-0.3-0.6-0.6c0-0.4,0.3-0.6,1.1-0.6c3.2,0,7.3,0.2,7.7,0.2c0.5,0,3.9-0.2,6-0.2c0.8,0,1.1,0.2,1.1,0.6
		c0,0.2-0.2,0.6-0.6,0.6c-0.5,0-0.9,0-1.8,0.2c-2,0.4-2.4,1.5-2.5,3.8c-0.2,2.2-0.1,4.1-0.1,14.9l0,7.4c0,7.5-1,15.9-6.7,20.7
		c-5.2,4.5-10.7,5-15,5c-2.4,0-9.8-0.2-14.9-4.9c-3.5-3.3-6.3-8-6.3-18.1L365.9,83.2z"/>
	<path d="M481.4,106.6c0.2,2.4,0.7,6.2,3.7,7.2c2,0.6,3.9,0.6,4.6,0.6c0.3,0,0.6,0.2,0.6,0.5c0,0.4-0.6,0.7-1.5,0.7
		c-1.6,0-9.6-0.2-12.2-0.4c-1.7-0.2-2-0.4-2-0.7c0-0.2,0.2-0.5,0.5-0.6c0.4-0.1,0.5-1.1,0.3-2.4l-3.4-35h-0.2l-17.2,35.3
		c-1.5,3-1.9,3.7-2.5,3.7s-1.1-0.7-2.4-3.2c-1.9-3.4-6.6-12.3-8.4-16c-2.1-4.4-7.9-16-9.1-18.9h-0.3l-2.8,31.2
		c-0.1,1.1-0.1,2.4-0.1,3.5c0,1.1,0.7,1.7,1.7,1.9c1.2,0.3,2.3,0.4,2.8,0.4c0.2,0,0.6,0.2,0.6,0.5c0,0.5-0.5,0.7-1.3,0.7
		c-2.7,0-6.1-0.2-6.7-0.2c-0.7,0-4.1,0.2-6,0.2c-0.7,0-1.2-0.2-1.2-0.7c0-0.2,0.3-0.5,0.7-0.5c0.6,0,1.1-0.1,2.1-0.2
		c2.4-0.4,2.4-2.9,2.8-5.5l5.2-45.1c0.1-0.7,0.4-1.2,0.8-1.2c0.5,0,1.1,0.2,1.5,1.1l21.6,42.9l20.8-42.9c0.3-0.6,0.6-1.1,1.1-1.1
		c0.5,0,0.9,0.6,1.1,1.9L481.4,106.6z"/>
	<path d="M503,83.2c0-10.7,0-12.7-0.2-14.9c-0.2-2.4-0.6-3.7-2.9-4c-0.6-0.1-1.8-0.2-2.4-0.2c-0.2,0-0.6-0.2-0.6-0.4
		c0-0.4,0.3-0.6,1.1-0.6c3.3,0,7.9,0.2,8.3,0.2c1.7,0,5-0.2,8.4-0.2c12,0,15,6.9,15,10.6c0,5.5-3.6,8.9-7.2,12.1
		c5.4,1.6,12.6,6.6,12.6,14.4c0,7.7-5.8,15.4-18,15.4c-1.3,0-3.9-0.1-6.2-0.2c-2.3-0.1-4.3-0.2-4.6-0.2c-0.2,0-1.5,0.1-2.9,0.1
		c-1.5,0.1-3.2,0.2-4.3,0.2c-0.7,0-1.1-0.2-1.1-0.6c0-0.2,0.2-0.4,0.6-0.4c0.6,0,1.5-0.2,2.2-0.3c1.4-0.2,1.5-1.8,1.9-3.8
		c0.4-2.8,0.4-8.3,0.4-15V83.2z M509.2,84.7c0,0.5,0.2,0.7,0.5,0.7c0.4,0.1,1.7,0.3,4.4,0.3c4,0,5.5-0.2,7-1.8
		c1.5-1.7,2.8-4.1,2.8-7.4c0-5.3-2.9-11.1-10.1-11.1c-0.8,0-2.5,0.1-3.7,0.3c-0.7,0.2-0.9,0.3-0.9,0.7L509.2,84.7z M509.2,92.3
		c0,5.4,0,13.7,0.1,14.7c0.2,3.3,0.2,4.1,2.4,5.2c1.9,0.9,5,1,6.3,1c4.7,0,10.5-1.8,10.5-10.7c0-3.1-1.2-9-6.8-12.6
		c-2.4-1.5-4.7-1.5-6.4-1.8c-0.9-0.2-4.5-0.2-5.6-0.2c-0.2,0-0.4,0.2-0.4,0.5L509.2,92.3z"/>
	<path d="M560.3,95.4c0,6.7,0,12.1,0.3,15c0.2,2,0.5,3.3,2.6,3.7c1.1,0.2,2.6,0.3,3.3,0.3c0.4,0,0.6,0.3,0.6,0.6
		c0,0.3-0.3,0.6-1.1,0.6c-4,0-8.6-0.2-8.9-0.2c-0.4,0-4.9,0.2-7.1,0.2c-0.7,0-1.1-0.2-1.1-0.6c0-0.2,0.2-0.6,0.6-0.6
		c0.7,0,1.5-0.2,2.2-0.3c1.4-0.3,1.6-1.6,1.9-3.7c0.3-2.8,0.4-8.3,0.4-15V83.2c0-10.7,0-12.7-0.2-14.9c-0.2-2.4-0.7-3.4-2.3-3.7
		c-0.8-0.2-1.7-0.2-2.2-0.2c-0.3,0-0.6-0.3-0.6-0.6c0-0.4,0.3-0.6,1.1-0.6c2.4,0,6.8,0.2,7.2,0.2c0.3,0,5-0.2,7.2-0.2
		c0.8,0,1.1,0.2,1.1,0.6c0,0.2-0.3,0.6-0.6,0.6c-0.5,0-1,0-1.8,0.2c-2,0.4-2.4,1.4-2.5,3.8c-0.1,2.2-0.1,4.1-0.1,14.9V95.4z"/>
	<path d="M599.5,64.6c0.9-2.3,1.2-2.7,1.7-2.7c0.7,0,1,1,1.7,2.5c1.3,2.9,12.8,31.5,17.2,42c2.6,6.2,4.6,7.1,6.1,7.6
		c1.1,0.3,2.1,0.4,2.8,0.4c0.4,0,0.9,0.2,0.9,0.6c0,0.4-0.8,0.6-1.6,0.6c-1.1,0-6.3,0-11.3-0.2c-1.4-0.1-2.5-0.1-2.5-0.5
		c0-0.3,0.2-0.3,0.5-0.5c0.4-0.2,1.1-0.7,0.6-1.9l-6.4-15.9c-0.2-0.3-0.2-0.4-0.7-0.4h-16.5c-0.3,0-0.6,0.2-0.7,0.6l-4.1,11.1
		c-0.7,1.7-1.1,3.4-1.1,4.6c0,1.4,1.2,1.9,2.4,1.9h0.7c0.6,0,0.7,0.2,0.7,0.6c0,0.4-0.4,0.6-1.1,0.6c-1.7,0-5.6-0.2-6.4-0.2
		c-0.7,0-4.3,0.2-7.2,0.2c-0.9,0-1.4-0.2-1.4-0.6c0-0.3,0.3-0.6,0.6-0.6c0.5,0,1.5-0.1,2.1-0.2c3.3-0.4,4.6-2.8,6-6.3L599.5,64.6z
		 M607.5,93.4c0.3,0,0.3-0.2,0.2-0.5L600.7,74c-0.4-1.1-0.8-1.1-1.2,0l-6.7,18.9c-0.1,0.3,0,0.5,0.2,0.5H607.5z"/>
	<line class="st0" x1="656.1" y1="50" x2="656.1" y2="125.9"/>
	<rect x="60.9" y="109.2" class="st1" width="81.5" height="6.7"/>
	<path class="st1" d="M152.5,53.9c-8.7-8.5-24-3.2-41.4,2.4c-1,0.3-2,0-2.9-0.7c-0.8-0.6-1.6-1.2-2.3-1.6c2.5-1.5,4.1-4.1,4.1-7.2
		c0-4.2-3.1-7.6-7.1-8.2l3.1-4c0.3-0.4,0.3-1,0-1.4l-3.8-4.9c-0.2-0.2-0.3-0.3-0.6-0.3c-0.2,0-0.4,0.1-0.6,0.3l-3.8,4.9
		c-0.3,0.4-0.3,1,0,1.4l3.1,4c-4,0.6-7.1,4.1-7.1,8.2c0,3.1,1.6,5.7,4.1,7.2c-0.8,0.5-1.6,1-2.4,1.6c-0.9,0.7-1.9,1-2.9,0.7
		c-17.4-5.5-32.7-10.9-41.4-2.4c-10.4,10.2,1.7,26.8,5.5,33.6c2.7,4.8,4.6,10.3,4.6,14.8h40.8h40.8c0-4.4,1.9-10,4.6-14.8
		C150.8,80.7,162.9,64.1,152.5,53.9z M89.2,96.6c-3.2,0.2-5.8-2.7-6.8-6.7l2.6-6.1c0.3-0.7,0.1-1.3-0.3-1.7l-8.2-8.2
		c-0.5-0.5-0.9-0.5-1.1,0l-3.9,8.2c-0.3,0.7,0,1.2,0.4,1.7l6.1,6.2c1.3,4.9-2,6.6-3.9,6.6c-6.5,0-11.7-8.8-17-18
		c-5.2-9-7-15.5-3.1-20.5c6.6-8.3,23.8-1.7,37.2,4.4c-0.1,1.9,0.3,4.1,1.5,6.8C99.8,85,95.1,96.2,89.2,96.6z M146,78.7
		c-5.3,9.1-10.5,18-17,18c-1.9,0-5.2-1.8-3.9-6.6l6.1-6.2c0.4-0.5,0.7-1,0.4-1.7l-3.9-8.2c-0.2-0.5-0.6-0.5-1.1,0l-8.2,8.2
		c-0.4,0.4-0.6,1.1-0.3,1.7l2.6,6.1c-1,4-3.6,6.9-6.8,6.7c-5.9-0.4-10.6-11.5-3.6-27.3c1.2-2.6,1.6-4.9,1.5-6.8
		c13.4-6.1,30.6-12.6,37.2-4.4C153.1,63.1,151.2,69.7,146,78.7z"/>
	<g>
		<path d="M712.5,106.8c4.6-10.6,15.1-38.1,16.9-43.8c0.4-1.2,0.7-2.3,0.7-3c0-0.6-0.2-1.4-1-1.8c-0.9-0.3-2.1-0.3-3-0.3
			c-0.5,0-0.9-0.1-0.9-0.5c0-0.5,0.5-0.6,1.7-0.6c3.2,0,6.8,0.2,7.7,0.2c0.5,0,3.9-0.2,6.2-0.2c0.9,0,1.3,0.2,1.3,0.6
			s-0.3,0.6-0.9,0.6c-0.6,0-2.3,0-3.8,0.9c-1,0.7-2.2,2.1-4.3,7.4c-0.9,2.2-4.8,11.7-8.8,21.4c-4.8,11.5-8.4,20-10.2,23.9
			c-2.2,4.7-2.5,6-3.3,6c-0.9,0-1.3-1.1-2.8-4.9l-19.3-48.4c-1.7-4.4-2.9-5.3-5.7-6.1c-1.2-0.3-2.5-0.3-3-0.3
			c-0.5,0-0.6-0.2-0.6-0.6c0-0.5,0.8-0.6,2.1-0.6c3.8,0,8.3,0.2,9.2,0.2c0.8,0,4.3-0.2,7.3-0.2c1.4,0,2.1,0.2,2.1,0.6
			s-0.2,0.6-0.8,0.6c-0.9,0-2.3,0.1-3,0.4c-0.9,0.4-1,1-1,1.6c0,1,0.9,3.5,2.1,6.5L712.5,106.8z"/>
		<path d="M753.9,79.7c0-12.3,0-14.5-0.2-17c-0.2-2.7-0.8-3.9-3.4-4.5c-0.6-0.2-2-0.2-2.7-0.2c-0.3,0-0.6-0.2-0.6-0.5
			c0-0.5,0.4-0.6,1.3-0.6c3.6,0,8.3,0.2,8.9,0.2c1.7,0,6.3-0.2,9.9-0.2c9.9,0,13.4,3.3,14.7,4.5c1.7,1.7,3.9,5.2,3.9,9.4
			c0,11.2-8.2,18.8-19.4,18.8c-0.4,0-1.3,0-1.7-0.1c-0.4,0-0.9-0.2-0.9-0.6c0-0.6,0.5-0.7,2.1-0.7c7.7,0,13.7-5.6,13.7-12.9
			c0-2.6-0.2-7.9-4.4-12.2s-9-3.9-10.8-3.9c-1.3,0-2.7,0.2-3.4,0.5c-0.5,0.2-0.6,0.7-0.6,1.5v32.4c0,7.6,0,13.8,0.4,17.1
			c0.2,2.3,0.7,4,3.1,4.3c1.1,0.2,2.8,0.3,3.6,0.3c0.5,0,0.6,0.2,0.6,0.5c0,0.4-0.4,0.6-1.3,0.6c-4.3,0-9.3-0.2-9.7-0.2
			c-0.2,0-5.2,0.2-7.6,0.2c-0.9,0-1.3-0.2-1.3-0.6c0-0.2,0.2-0.5,0.6-0.5c0.7,0,1.7-0.2,2.4-0.3c1.6-0.3,2-2.1,2.3-4.3
			c0.4-3.3,0.4-9.5,0.4-17.1V79.7z"/>
		<path d="M821.4,93.5c0,7.6,0,13.8,0.4,17.1c0.2,2.3,0.7,4,3.1,4.3c1.1,0.2,2.8,0.3,3.5,0.3c0.5,0,0.6,0.2,0.6,0.5
			c0,0.4-0.4,0.6-1.3,0.6c-4.3,0-9.3-0.2-9.7-0.2s-5.4,0.2-7.7,0.2c-0.9,0-1.3-0.2-1.3-0.6c0-0.2,0.2-0.5,0.6-0.5
			c0.7,0,1.7-0.2,2.4-0.3c1.6-0.3,2-2.1,2.3-4.3c0.4-3.3,0.4-9.5,0.4-17.1V60.2l-11.7,0.2c-4.9,0.1-6.8,0.6-8,2.5
			c-0.9,1.3-1.1,1.9-1.3,2.4c-0.2,0.6-0.5,0.8-0.8,0.8c-0.2,0-0.4-0.2-0.4-0.7c0-0.8,1.6-7.6,1.7-8.2c0.2-0.5,0.5-1.5,0.8-1.5
			c0.6,0,1.3,0.8,3.5,0.9c2.3,0.2,5.3,0.4,6.2,0.4h29.6c2.5,0,4.3-0.2,5.6-0.4c1.2-0.2,1.9-0.4,2.2-0.4c0.4,0,0.4,0.5,0.4,0.9
			c0,2.4-0.2,7.8-0.2,8.7c0,0.7-0.2,1-0.6,1c-0.4,0-0.6-0.2-0.6-1.3l-0.1-0.9c-0.2-2.4-2.1-4.2-9.7-4.3l-9.9-0.2V93.5z"/>
		<path d="M865.7,93.7c0,11.6,0.3,16.6,1.7,18.1c1.3,1.3,3.3,1.8,9.5,1.8c4.2,0,7.7-0.1,9.5-2.4c1-1.3,1.8-3.2,2.1-4.7
			c0.1-0.6,0.2-1,0.7-1c0.4,0,0.5,0.3,0.5,1.2c0,0.9-0.6,5.6-1.2,7.9c-0.6,1.8-0.8,2.1-5,2.1c-5.7,0-9.8-0.2-13.1-0.2
			c-3.3-0.2-5.8-0.2-8-0.2c-0.3,0-1.7,0.1-3.2,0.1c-1.6,0.1-3.3,0.2-4.5,0.2c-0.9,0-1.3-0.2-1.3-0.6c0-0.2,0.2-0.5,0.6-0.5
			c0.7,0,1.7-0.2,2.4-0.3c1.6-0.3,2-2.1,2.3-4.3c0.4-3.3,0.4-9.5,0.4-17.1V79.7c0-12.3,0-14.5-0.2-17c-0.2-2.7-0.8-3.9-3.4-4.5
			c-0.6-0.2-2-0.2-2.7-0.2c-0.3,0-0.6-0.2-0.6-0.5c0-0.5,0.4-0.6,1.3-0.6c3.6,0,8.5,0.2,8.9,0.2s6.2-0.2,8.5-0.2
			c0.9,0,1.3,0.2,1.3,0.6c0,0.3-0.3,0.5-0.6,0.5c-0.6,0-1.7,0.1-2.6,0.2c-2.3,0.4-2.9,1.7-3.1,4.5c-0.2,2.5-0.2,4.7-0.2,17V93.7z"/>
		<path d="M912.4,93.5c0,7.6,0,13.8,0.4,17.1c0.2,2.3,0.7,4,3.1,4.3c1.1,0.2,2.8,0.3,3.6,0.3c0.5,0,0.6,0.2,0.6,0.5
			c0,0.4-0.4,0.6-1.3,0.6c-4.3,0-9.3-0.2-9.7-0.2s-5.4,0.2-7.7,0.2c-0.9,0-1.3-0.2-1.3-0.6c0-0.2,0.2-0.5,0.6-0.5
			c0.7,0,1.7-0.2,2.4-0.3c1.6-0.3,2-2.1,2.3-4.3c0.4-3.3,0.4-9.5,0.4-17.1V79.7c0-12.3,0-14.5-0.2-17c-0.2-2.7-0.9-4-2.7-4.4
			c-0.9-0.2-1.9-0.3-2.4-0.3c-0.3,0-0.6-0.2-0.6-0.5c0-0.5,0.4-0.6,1.3-0.6c2.6,0,7.6,0.2,8,0.2s5.4-0.2,7.7-0.2
			c0.9,0,1.3,0.2,1.3,0.6c0,0.3-0.3,0.5-0.6,0.5c-0.6,0-1,0.1-2,0.2c-2.1,0.4-2.8,1.7-2.9,4.5c-0.2,2.5-0.2,4.7-0.2,17V93.5z"/>
	</g>
	<g>
		<path d="M222.7,173.4c0,8.6-6.5,15-15.3,15c-9.8,0-15.5-6.9-15.5-14.7c0-8.9,6.4-15.5,15.6-15.5
			C217.5,158.3,222.7,165.5,222.7,173.4z M197.8,172.5c0,6,2.6,14.2,10,14.2c5,0,9-3.7,9-12.5c0-6.6-3-14.2-9.9-14.2
			C202.6,160,197.8,163.2,197.8,172.5z"/>
		<path d="M233.9,172.6c-0.9,0-0.9,0.1-0.9,1.3v8.6c0,3.2,0.2,3.6,1.7,3.9l1,0.2c0.3,0.3,0.3,1.1-0.1,1.3c-1.3-0.1-3-0.1-5-0.1
			c-1.4,0-2.9,0-4.7,0.1c-0.3-0.2-0.4-1-0.1-1.3l1-0.1c1.5-0.2,1.7-0.7,1.7-3.9v-8.6c0-1.2,0-1.3-0.8-1.3H226
			c-0.3-0.2-0.4-0.7-0.1-1l1.9-1c0.3-0.2,0.6-0.4,0.6-1v-0.3c0-1.3,0.2-3.4,1-5.6c1.3-3.5,4.1-6.1,8.5-6.1c2.4,0,4,0.8,5.1,1.7
			c1.7-1.6,3.7-2.8,7.2-2.8c3.5,0,6.2,1.8,6.2,4c0,1.4-1,2.3-2.3,2.3c-1,0-1.4-0.4-1.7-0.9c-1.4-2.7-2.9-3.7-4-3.7
			c-3.1,0-3.7,3.7-3.7,10.9v0.5c0,0.7,0.1,0.8,1.1,0.8h3.7c3.9,0,6.4-0.6,6.6-0.6c0.3,0,0.5,0.1,0.6,0.3c-0.1,1.3-0.1,3.4-0.1,5.2v7
			c0,3.2,0.2,3.7,1.7,3.9l0.8,0.1c0.3,0.3,0.3,1.1-0.1,1.3c-1.6-0.1-3.1-0.1-4.7-0.1c-1.4,0-2.9,0-4.3,0.1c-0.4-0.2-0.4-1-0.1-1.3
			l0.5-0.1c1.5-0.3,1.7-0.7,1.7-4v-6.4c0-3.4,0-3.5-2.3-3.5h-4c-0.8,0-0.9,0.1-0.9,1.3v8.6c0,3.2,0.2,3.7,1.7,3.9l1.7,0.2
			c0.3,0.3,0.3,1.1-0.1,1.3c-1.9-0.1-3.6-0.1-5.7-0.1c-1.4,0-2.9,0-4.4,0.1c-0.3-0.2-0.4-1-0.1-1.3l0.7-0.1c1.5-0.2,1.7-0.7,1.7-4
			v-8.6c0-1.2,0-1.3-0.8-1.3H233.9z M233,169.5c0,1,0,1.1,1,1.1h5.7c0.6,0,0.6-0.3,0.6-0.7v-0.9c0-1.8,0.2-4,0.9-6.2
			c-0.4-1.7-2.1-3.4-4-3.4c-2.3,0-4.1,1.5-4.1,9.1V169.5z"/>
		<path d="M275.6,170.6c0.6,0.5,0.9,1.2,0.9,2.2c0,1.4-0.7,2-1.1,2c-0.3,0-0.5-0.1-0.8-0.5c-1-1.3-2.3-2.7-4-2.7c-2.5,0-5,2.4-5,6.5
			c0,3.5,2.3,6.9,6.2,6.9c2.8,0,3.8-1,4.7-2.3c0.4,0,0.9,0.3,0.9,0.8c-1.6,3.5-4.9,4.7-7.7,4.7c-2.3,0-4.6-0.9-6.1-2.4
			c-1.5-1.5-2.5-3.7-2.5-6.3c0-5.1,3.7-9.8,10.7-9.8C273.1,169.9,274.4,170.1,275.6,170.6z"/>
		<path d="M283.6,177.4c-0.8,0-0.9,0-0.9,0.6c0,3.9,2.7,7.1,6.6,7.1c1.7,0,3.2-0.6,4.2-2.2c0.4-0.1,0.9,0.3,1,0.7
			c-1.5,3.5-4.7,4.8-7.4,4.8c-5,0-8.4-3.7-8.4-8.7c0-4.9,3.4-9.7,9.2-9.7c3.2,0,6.5,2.1,6.5,5.9c0,0.4,0,0.7-0.2,1
			c-0.3,0.4-1.3,0.6-3,0.6H283.6z M287.6,175.6c1.3,0,1.8-0.1,2.1-0.3c0.3-0.2,0.4-0.5,0.4-0.9c0-1.6-1-2.8-2.9-2.8
			c-2.9,0-4.3,2.8-4.3,3.7c0,0.2,0.1,0.3,0.6,0.3H287.6z"/>
		<path d="M325.8,178.9c0,6.2-4.4,9.4-9.5,9.4c-5,0-9.2-3.2-9.2-8.9c0-5.8,4.4-9.5,9.5-9.5C321.5,169.9,325.8,173.3,325.8,178.9z
			 M316.8,186.6c3,0,3.9-3.6,3.9-6.9c0-3.7-1.3-8-4.5-8c-2.2,0-4,2.3-4,7.1C312.2,182.7,313.6,186.6,316.8,186.6z"/>
		<path d="M336.5,172.6c-0.9,0-0.9,0.1-0.9,1.3v8.6c0,3.2,0.2,3.7,1.7,3.9l1.7,0.2c0.3,0.3,0.3,1.1-0.1,1.3c-2-0.1-3.7-0.1-5.7-0.1
			c-1.4,0-2.9,0-4.7,0.1c-0.3-0.2-0.4-1-0.1-1.3l1-0.1c1.5-0.2,1.7-0.7,1.7-3.9v-8.6c0-1.2,0-1.3-0.8-1.3h-1.6
			c-0.3-0.2-0.4-0.7-0.1-1l1.9-1c0.3-0.2,0.6-0.4,0.6-1v-0.8c0-1.9,0.2-4,0.9-6.2c1.1-3.4,4-6.1,8.1-6.1c3,0,5,1.3,5,3.2
			c0,1.2-1.1,2.1-2.1,2.1c-0.7,0-1-0.3-1.3-0.6c-1.4-2-2.4-2.9-3.4-2.9c-1.5,0-2.7,3-2.7,9.5v1.3c0,1.3,0,1.4,1,1.4h4.6
			c0.2,0.1,0.3,0.4,0.3,0.7c0,0.7-0.3,1.1-0.6,1.3H336.5z"/>
		<path d="M360,172.5c-0.8,0-0.8,0.1-0.8,1.5v6.7c0,2.7,0.4,5.2,3.2,5.2c0.9,0,1.4-0.3,2.1-0.8c0.4,0,0.7,0.4,0.6,0.9
			c-0.9,1.2-2.9,2.4-5.5,2.4c-4.1,0-4.9-2.4-4.9-5.4V174c0-1.5-0.1-1.6-0.8-1.6h-1.5c-0.4-0.2-0.5-0.9-0.1-1.2
			c1.5-0.6,2.5-1.1,3.4-1.8c0.8-0.6,1.8-1.5,2.4-2.7c0.4-0.3,1-0.1,1.2,0.2v2.6c0,0.7,0,0.8,0.8,0.8h4.3c0.3,0.1,0.3,0.5,0.3,0.9
			c0,0.5-0.2,0.9-0.6,1.1H360z"/>
		<path d="M372.8,171.3c0,0.5,0.1,0.7,0.4,0.7c1.5-1.1,3.4-2.1,5.6-2.1c3.7,0,5.6,2.4,5.6,6.1v6.5c0,3.2,0.2,3.7,1.7,3.9l1,0.1
			c0.4,0.3,0.3,1.1-0.1,1.3c-1.8-0.1-3.3-0.1-4.9-0.1c-1.4,0-2.9,0-4.4,0.1c-0.3-0.2-0.4-1-0.1-1.3l0.7-0.1c1.5-0.2,1.7-0.7,1.7-4
			v-6.1c0-2.1-0.9-3.8-3.5-3.8c-1.4,0-2.4,0.7-3,1.3c-0.5,0.5-0.5,1.2-0.5,2.9v5.8c0,3.2,0.2,3.7,1.7,4l0.7,0.1
			c0.3,0.3,0.3,1.1-0.1,1.3c-1.5-0.1-3-0.1-4.6-0.1c-1.4,0-2.9,0-4.7,0.1c-0.3-0.2-0.4-1-0.1-1.3l1-0.1c1.5-0.2,1.7-0.7,1.7-3.9
			v-18.7c0-2.9-0.1-3.2-1-3.8l-0.6-0.4c-0.3-0.2-0.3-0.9,0-1c1.7-0.5,3.9-1.4,5.7-2.1c0.3,0,0.5,0.1,0.6,0.3
			c-0.1,1.7-0.1,4.4-0.1,6.3V171.3z"/>
		<path d="M393.9,177.4c-0.8,0-0.9,0-0.9,0.6c0,3.9,2.7,7.1,6.6,7.1c1.7,0,3.2-0.6,4.2-2.2c0.4-0.1,0.9,0.3,1,0.7
			c-1.5,3.5-4.7,4.8-7.4,4.8c-5,0-8.4-3.7-8.4-8.7c0-4.9,3.4-9.7,9.2-9.7c3.2,0,6.5,2.1,6.5,5.9c0,0.4,0,0.7-0.2,1
			c-0.3,0.4-1.3,0.6-3,0.6H393.9z M397.9,175.6c1.3,0,1.8-0.1,2.1-0.3c0.3-0.2,0.4-0.5,0.4-0.9c0-1.6-1-2.8-2.9-2.8
			c-2.9,0-4.3,2.8-4.3,3.7c0,0.2,0.1,0.3,0.6,0.3H397.9z"/>
		<path d="M434.1,176.9c-1.8,4-3.8,9.1-4.5,11.3c-0.1,0.1-0.4,0.2-0.7,0.2s-0.6-0.1-0.8-0.2c-0.5-1.7-1.2-3.9-2-5.7l-7.6-18.3
			c-1.2-2.9-1.6-3.5-3.4-3.9l-1-0.2c-0.3-0.3-0.3-1.1,0.1-1.2c1.7,0.1,3.6,0.1,5.3,0.1c2,0,3.4,0,5.7-0.1c0.4,0.3,0.4,1,0,1.3
			l-1.1,0.3c-1,0.2-1.3,0.4-1.3,0.8c0,0.4,0.3,1.3,2.1,5.8l3.1,7.7c0.8,2,2,4.5,2.4,5.5c2.4-5.5,5-11.5,7.3-17.4
			c0.7-1.7,0.6-2.1-0.7-2.4l-1.3-0.3c-0.3-0.3-0.3-1,0.1-1.3c1.8,0.1,3.3,0.1,4.7,0.1c1.6,0,3,0,4.2-0.1c0.3,0.2,0.3,0.9,0.1,1.3
			l-1.1,0.2c-1,0.2-2,0.5-2.7,1.8c-1.2,2.1-2.4,5-4.4,9.4L434.1,176.9z"/>
		<path d="M451.2,182.5c0,3.2,0.2,3.7,1.7,3.9l0.8,0.1c0.3,0.3,0.3,1.1-0.1,1.3c-1.6-0.1-3.1-0.1-4.7-0.1c-1.4,0-2.9,0-4.6,0.1
			c-0.3-0.2-0.4-1-0.1-1.3l0.8-0.1c1.5-0.3,1.7-0.7,1.7-3.9v-6.4c0-2,0-2.5-1.1-3.1l-0.5-0.3c-0.1-0.2-0.1-0.8,0-1
			c2.3-0.7,4.4-1.6,5.7-2.4c0.3,0,0.5,0.1,0.6,0.3c-0.1,1.4-0.1,3.5-0.1,5.3V182.5z M446.3,163.3c0-1.5,1.1-2.6,2.7-2.6
			c1.6,0,2.7,1.1,2.7,2.6c0,1.5-1.1,2.6-2.7,2.6C447.4,165.9,446.3,164.8,446.3,163.3z"/>
		<path d="M470.3,170.6c0.6,0.5,0.9,1.2,0.9,2.2c0,1.4-0.7,2-1.1,2c-0.3,0-0.5-0.1-0.8-0.5c-1-1.3-2.3-2.7-4-2.7c-2.5,0-5,2.4-5,6.5
			c0,3.5,2.3,6.9,6.2,6.9c2.8,0,3.8-1,4.7-2.3c0.4,0,0.9,0.3,0.9,0.8c-1.6,3.5-4.9,4.7-7.7,4.7c-2.3,0-4.6-0.9-6.1-2.4
			c-1.5-1.5-2.5-3.7-2.5-6.3c0-5.1,3.7-9.8,10.7-9.8C467.8,169.9,469.1,170.1,470.3,170.6z"/>
		<path d="M478.2,177.4c-0.8,0-0.9,0-0.9,0.6c0,3.9,2.7,7.1,6.6,7.1c1.7,0,3.2-0.6,4.2-2.2c0.4-0.1,0.9,0.3,1,0.7
			c-1.5,3.5-4.7,4.8-7.4,4.8c-5,0-8.4-3.7-8.4-8.7c0-4.9,3.4-9.7,9.2-9.7c3.2,0,6.5,2.1,6.5,5.9c0,0.4,0,0.7-0.2,1
			c-0.3,0.4-1.3,0.6-3,0.6H478.2z M482.2,175.6c1.3,0,1.8-0.1,2.1-0.3c0.3-0.2,0.4-0.5,0.4-0.9c0-1.6-1-2.8-2.9-2.8
			c-2.9,0-4.3,2.8-4.3,3.7c0,0.2,0.1,0.3,0.6,0.3H482.2z"/>
		<path d="M505.6,165.5c0-4,0-4.7-1.9-4.9l-1.5-0.2c-0.3-0.3-0.3-1,0-1.2c3-0.3,5.7-0.4,9.6-0.4c4.1,0,7.1,0.6,9.1,1.7
			c2.3,1.3,3.7,3.7,3.7,6.5c0,6.6-6.3,8.4-9.8,8.4c-0.4,0-0.7,0-1.1,0c-0.3-0.3-0.3-0.8-0.1-1.1c4-0.8,5.4-3.7,5.4-7.2
			c0-3.5-2.3-6.6-6.2-6.6c-2.2,0-2.2,0.1-2.2,1.8v19c0,4.6,0.4,4.7,2.4,5l1.6,0.2c0.3,0.3,0.2,1.1-0.1,1.3c-2.6-0.1-4.5-0.1-6.4-0.1
			s-3.9,0-5.6,0.1c-0.3-0.2-0.4-1-0.1-1.3l0.7-0.1c2-0.3,2.4-0.4,2.4-5V165.5z"/>
		<path d="M528.6,176.1c0-2,0-2.5-1.1-3.1l-0.5-0.3c-0.1-0.2-0.1-0.8,0-1c1.9-0.6,4.2-1.6,5.5-2.4c0.3,0,0.5,0.1,0.6,0.4
			c0,0.8-0.1,1.6-0.1,2c0,0.3,0.2,0.5,0.4,0.5c1.3-1,2.8-2.3,4.3-2.3c1.5,0,2.4,1,2.4,2.1c0,1.7-1.3,2.5-2.4,2.5
			c-0.4,0-0.8-0.1-1.2-0.3c-1.1-0.7-1.8-0.8-2.1-0.8c-1,0-1.3,1-1.3,3.1v6c0,3.2,0.2,3.7,1.7,3.9l1.7,0.2c0.3,0.3,0.3,1.1-0.1,1.3
			c-2.6-0.1-4.1-0.1-5.7-0.1c-1.4,0-2.9,0-4.5,0.1c-0.3-0.2-0.4-1-0.1-1.3l0.8-0.1c1.5-0.3,1.7-0.7,1.7-3.9V176.1z"/>
		<path d="M559.7,178.9c0,6.2-4.4,9.4-9.5,9.4c-5,0-9.2-3.2-9.2-8.9c0-5.8,4.4-9.5,9.5-9.5C555.4,169.9,559.7,173.3,559.7,178.9z
			 M550.7,186.6c3,0,3.9-3.6,3.9-6.9c0-3.7-1.3-8-4.5-8c-2.2,0-4,2.3-4,7.1C546.1,182.7,547.5,186.6,550.7,186.6z"/>
		<path d="M573.1,183c-0.7,1.6-1.5,3.6-2,5.1c-0.2,0.2-0.4,0.3-0.7,0.3s-0.6-0.1-0.8-0.3c-0.4-1.2-1.1-2.9-1.7-4
			c-1-2.1-3.4-7.6-4.2-9.4c-0.9-1.9-1.3-2.4-2.7-2.7l-0.8-0.2c-0.3-0.3-0.3-1,0.1-1.3c1.5,0.1,3,0.1,4.6,0.1c2,0,3.3,0,4.8-0.1
			c0.4,0.2,0.5,1,0.1,1.3l-0.8,0.1c-0.6,0.1-1.1,0.2-1.1,0.5c0,0.3,0.1,0.7,0.3,1.4c0.6,1.6,2.8,7,3.5,8.3c1-2.2,2.1-4.8,3.2-7.6
			c0.4-1.1,0.6-1.7,0.6-2s-0.4-0.5-0.9-0.6l-1-0.2c-0.3-0.3-0.3-1.1,0.2-1.3c1.3,0.1,2.4,0.1,3.7,0.1c1.1,0,2.2,0,3.2-0.1
			c0.4,0.2,0.4,1,0.1,1.3l-0.9,0.2c-1.3,0.3-1.9,0.6-3.3,3.5L573.1,183z"/>
		<path d="M599.2,178.9c0,6.2-4.4,9.4-9.5,9.4c-5,0-9.2-3.2-9.2-8.9c0-5.8,4.4-9.5,9.5-9.5C595,169.9,599.2,173.3,599.2,178.9z
			 M590.2,186.6c3,0,3.9-3.6,3.9-6.9c0-3.7-1.3-8-4.5-8c-2.2,0-4,2.3-4,7.1C585.6,182.7,587.1,186.6,590.2,186.6z"/>
		<path d="M602.7,186.9c-0.4-0.8-0.7-3-0.6-4.9c0.3-0.3,0.9-0.4,1.2-0.1c0.8,2.4,2.4,4.7,4.7,4.7c1.3,0,2.4-0.9,2.4-2.4
			c0-1.6-1.4-2.7-3-3.4c-2.3-1.1-4.6-2.7-4.6-5.5c0-3.4,2.9-5.4,6.5-5.4c1.8,0,3.4,0.5,4,0.9c0.4,0.9,0.7,2.3,0.7,4.2
			c-0.1,0.3-0.9,0.5-1.2,0.2c-0.7-2-2-3.7-3.7-3.7c-1.4,0-2.4,1-2.4,2.3s1.3,2.2,2.9,3c2.4,1.1,4.8,2.6,4.8,6.1
			c0,3.8-3.4,5.4-6.8,5.4C605.9,188.3,604.1,188,602.7,186.9z"/>
		<path d="M624.7,172.5c-0.8,0-0.8,0.1-0.8,1.5v6.7c0,2.7,0.4,5.2,3.2,5.2c0.9,0,1.4-0.3,2.1-0.8c0.4,0,0.7,0.4,0.6,0.9
			c-0.9,1.2-2.9,2.4-5.5,2.4c-4.1,0-4.9-2.4-4.9-5.4V174c0-1.5-0.1-1.6-0.8-1.6H617c-0.4-0.2-0.5-0.9-0.1-1.2
			c1.5-0.6,2.5-1.1,3.4-1.8c0.8-0.6,1.8-1.5,2.4-2.7c0.4-0.3,1-0.1,1.2,0.2v2.6c0,0.7,0,0.8,0.8,0.8h4.3c0.3,0.1,0.3,0.5,0.3,0.9
			c0,0.5-0.2,0.9-0.6,1.1H624.7z"/>
		<path d="M649.6,172.6c-0.9,0-0.9,0.1-0.9,1.3v8.6c0,3.2,0.2,3.7,1.7,3.9l1.7,0.2c0.3,0.3,0.3,1.1-0.1,1.3c-2-0.1-3.7-0.1-5.7-0.1
			c-1.4,0-2.9,0-4.7,0.1c-0.3-0.2-0.4-1-0.1-1.3l1-0.1c1.5-0.2,1.7-0.7,1.7-3.9v-8.6c0-1.2,0-1.3-0.8-1.3h-1.6
			c-0.3-0.2-0.4-0.7-0.1-1l1.9-1c0.3-0.2,0.6-0.4,0.6-1v-0.8c0-1.9,0.2-4,0.9-6.2c1.1-3.4,4-6.1,8.1-6.1c3,0,5,1.3,5,3.2
			c0,1.2-1.1,2.1-2.1,2.1c-0.7,0-1-0.3-1.3-0.6c-1.4-2-2.4-2.9-3.4-2.9c-1.5,0-2.7,3-2.7,9.5v1.3c0,1.3,0,1.4,1,1.4h4.6
			c0.2,0.1,0.3,0.4,0.3,0.7c0,0.7-0.3,1.1-0.6,1.3H649.6z"/>
		<path d="M673.5,178.9c0,6.2-4.4,9.4-9.5,9.4c-5,0-9.2-3.2-9.2-8.9c0-5.8,4.4-9.5,9.5-9.5C669.2,169.9,673.5,173.3,673.5,178.9z
			 M664.4,186.6c3,0,3.9-3.6,3.9-6.9c0-3.7-1.3-8-4.5-8c-2.2,0-4,2.3-4,7.1C659.9,182.7,661.3,186.6,664.4,186.6z"/>
		<path d="M678.7,176.1c0-2,0-2.5-1.1-3.1l-0.5-0.3c-0.1-0.2-0.1-0.8,0-1c1.9-0.6,4.2-1.6,5.5-2.4c0.3,0,0.5,0.1,0.6,0.4
			c0,0.8-0.1,1.6-0.1,2c0,0.3,0.2,0.5,0.4,0.5c1.3-1,2.8-2.3,4.3-2.3c1.5,0,2.4,1,2.4,2.1c0,1.7-1.3,2.5-2.4,2.5
			c-0.4,0-0.8-0.1-1.2-0.3c-1.1-0.7-1.8-0.8-2.1-0.8c-1,0-1.3,1-1.3,3.1v6c0,3.2,0.2,3.7,1.7,3.9l1.7,0.2c0.3,0.3,0.3,1.1-0.1,1.3
			c-2.6-0.1-4.1-0.1-5.7-0.1c-1.4,0-2.9,0-4.5,0.1c-0.3-0.2-0.4-1-0.1-1.3l0.8-0.1c1.5-0.3,1.7-0.7,1.7-3.9V176.1z"/>
		<path d="M714.7,162.6c0-1.8,0-1.9-1.2-1.9h-2.4c-4,0-5.2,0.5-6.8,4c-0.3,0.3-1.2,0.1-1.4-0.3c0.7-2.4,1.4-5,1.7-6.6
			c0.1-0.1,0.3-0.2,0.5-0.2c0.2,0,0.3,0,0.4,0.2c0.2,1.1,0.8,1.1,3.8,1.1H727c2.1,0,2.8-0.1,3.3-1.1c0.2-0.1,0.3-0.2,0.5-0.2
			c0.3,0,0.5,0.1,0.6,0.2c-0.4,1.8-0.8,5.5-0.7,6.9c-0.2,0.3-1,0.4-1.3,0.1c-0.6-3.4-1.4-4.2-6.1-4.2h-2.5c-1.1,0-1.2,0.1-1.2,1.9
			v18.8c0,4.6,0.4,4.7,2.4,5l1.6,0.2c0.3,0.3,0.3,1.1-0.1,1.3c-2.5-0.1-4.5-0.1-6.4-0.1c-1.9,0-4,0-6.7,0.1c-0.3-0.2-0.4-1-0.1-1.3
			l1.8-0.2c2-0.3,2.4-0.3,2.4-4.9V162.6z"/>
		<path d="M733,177.4c-0.8,0-0.9,0-0.9,0.6c0,3.9,2.7,7.1,6.6,7.1c1.7,0,3.2-0.6,4.2-2.2c0.4-0.1,0.9,0.3,1,0.7
			c-1.5,3.5-4.7,4.8-7.4,4.8c-5,0-8.4-3.7-8.4-8.7c0-4.9,3.4-9.7,9.2-9.7c3.2,0,6.5,2.1,6.5,5.9c0,0.4,0,0.7-0.2,1
			c-0.3,0.4-1.3,0.6-3,0.6H733z M737,175.6c1.3,0,1.8-0.1,2.1-0.3c0.3-0.2,0.4-0.5,0.4-0.9c0-1.6-1-2.8-2.9-2.8
			c-2.9,0-4.3,2.8-4.3,3.7c0,0.2,0.1,0.3,0.6,0.3H737z"/>
		<path d="M759.4,182.2c-0.1,2.5,0.5,3.8,2.1,3.8c0.7,0,1.3-0.5,1.5-0.5c0.2,0,0.5,0.5,0.4,0.9c-0.9,1.2-3,1.9-4.4,1.9
			c-1.1,0-2.3-0.3-3.1-1.2c-0.3-0.3-0.5-0.5-0.7-0.5s-0.5,0.2-1.2,0.6c-0.8,0.5-2.1,1.1-3.7,1.1c-3,0-4.4-2-4.4-4.2
			c0-1.6,0.6-3,3.6-4c1.5-0.5,3.2-1.1,4.8-1.7c0.9-0.3,1-0.7,1-1.1l0-1.1c0.1-2.2-0.5-4.1-2.7-4.1c-1.2,0-2.1,0.7-2.3,1.9
			c-0.1,0.8-0.3,1.3-0.8,1.6c-0.6,0.4-1.8,0.8-2.8,0.8c-0.6,0-0.8-0.3-0.8-0.7c0-0.5,0.3-1.4,1.7-2.8c1.3-1.3,4.5-2.7,6.7-2.7
			c3.4,0,5.6,1.6,5.4,5.4L759.4,182.2z M755.2,180.7c0-0.5-0.1-0.7-0.3-0.7c-0.3,0-1.1,0.2-1.9,0.5c-1.2,0.4-2.4,1-2.4,2.9
			c0,1.1,0.8,2.5,2.4,2.5c1.6,0,2-1,2.1-2.1L755.2,180.7z"/>
		<path d="M778.6,170.6c0.6,0.5,0.9,1.2,0.9,2.2c0,1.4-0.7,2-1.1,2c-0.3,0-0.5-0.1-0.8-0.5c-1-1.3-2.3-2.7-4-2.7c-2.5,0-5,2.4-5,6.5
			c0,3.5,2.3,6.9,6.2,6.9c2.8,0,3.8-1,4.7-2.3c0.4,0,0.9,0.3,0.9,0.8c-1.6,3.5-4.9,4.7-7.7,4.7c-2.3,0-4.6-0.9-6.1-2.4
			c-1.5-1.5-2.5-3.7-2.5-6.3c0-5.1,3.7-9.8,10.7-9.8C776.1,169.9,777.4,170.1,778.6,170.6z"/>
		<path d="M788.1,171.3c0,0.5,0.1,0.7,0.4,0.7c1.5-1.1,3.4-2.1,5.6-2.1c3.7,0,5.6,2.4,5.6,6.1v6.5c0,3.2,0.2,3.7,1.7,3.9l1,0.1
			c0.4,0.3,0.3,1.1-0.1,1.3c-1.8-0.1-3.3-0.1-4.9-0.1c-1.4,0-2.9,0-4.4,0.1c-0.3-0.2-0.4-1-0.1-1.3l0.7-0.1c1.5-0.2,1.7-0.7,1.7-4
			v-6.1c0-2.1-0.9-3.8-3.5-3.8c-1.4,0-2.4,0.7-3,1.3c-0.5,0.5-0.5,1.2-0.5,2.9v5.8c0,3.2,0.2,3.7,1.7,4l0.7,0.1
			c0.3,0.3,0.3,1.1-0.1,1.3c-1.5-0.1-3-0.1-4.6-0.1c-1.4,0-2.9,0-4.7,0.1c-0.3-0.2-0.4-1-0.1-1.3l1-0.1c1.5-0.2,1.7-0.7,1.7-3.9
			v-18.7c0-2.9-0.1-3.2-1-3.8l-0.6-0.4c-0.3-0.2-0.3-0.9,0-1c1.7-0.5,3.9-1.4,5.7-2.1c0.3,0,0.5,0.1,0.6,0.3
			c-0.1,1.7-0.1,4.4-0.1,6.3V171.3z"/>
		<path d="M811.3,182.5c0,3.2,0.2,3.7,1.7,3.9l0.8,0.1c0.3,0.3,0.3,1.1-0.1,1.3c-1.6-0.1-3.1-0.1-4.7-0.1c-1.4,0-2.9,0-4.6,0.1
			c-0.3-0.2-0.4-1-0.1-1.3l0.8-0.1c1.5-0.3,1.7-0.7,1.7-3.9v-6.4c0-2,0-2.5-1.1-3.1l-0.5-0.3c-0.1-0.2-0.1-0.8,0-1
			c2.3-0.7,4.4-1.6,5.7-2.4c0.3,0,0.5,0.1,0.6,0.3c-0.1,1.4-0.1,3.5-0.1,5.3V182.5z M806.4,163.3c0-1.5,1.1-2.6,2.7-2.6
			s2.7,1.1,2.7,2.6c0,1.5-1.1,2.6-2.7,2.6S806.4,164.8,806.4,163.3z"/>
		<path d="M823,182.5c0,3.2,0.2,3.7,1.7,4l0.7,0.1c0.3,0.3,0.3,1.1-0.1,1.3c-1.5-0.1-3-0.1-4.6-0.1c-1.4,0-2.9,0-4.7,0.1
			c-0.3-0.2-0.4-1-0.1-1.3l1-0.1c1.5-0.2,1.7-0.7,1.7-3.9v-6.4c0-2,0-2.5-1.1-3.1l-0.5-0.3c-0.1-0.2-0.1-0.8,0-1
			c1.9-0.5,4.3-1.6,5.7-2.4c0.3,0,0.5,0.2,0.6,0.3c-0.1,0.8-0.1,1.7-0.1,2c0,0.3,0.1,0.4,0.4,0.4c2-1.1,3.3-2.2,6-2.2
			c3.5,0,5.2,2.4,5.2,5.8v6.7c0,3.2,0.2,3.7,1.7,3.9l1,0.1c0.3,0.3,0.3,1.1-0.1,1.3c-1.8-0.1-3.3-0.1-4.9-0.1c-1.4,0-2.9,0-4.4,0.1
			c-0.3-0.2-0.4-1-0.1-1.3l0.7-0.1c1.5-0.2,1.7-0.7,1.7-4v-6c0-2.2-0.9-4-3.5-4c-1.3,0-2.4,0.7-2.9,1.3c-0.6,0.8-0.6,1.2-0.6,2.8
			V182.5z"/>
		<path d="M854.7,173.8c0.1,0.4,0.2,0.9,0.2,1.9c0,3.7-2.4,7.2-8,7.2c-0.5,0-1.1-0.1-1.7-0.2c-0.7,0.3-1.3,0.9-1.3,1.7
			c0,0.9,0.6,1.7,2.4,1.7c1.3,0,2.9-0.1,4.8-0.1c3.1,0,7.1,0.5,7.1,5.3c0,2.3-1.6,4.4-2.7,5.3c-1.9,1.6-4.7,2.9-8.4,2.9
			c-6.1,0-8.1-2.9-8.1-5.1c0-0.7,0.1-1.2,0.6-1.9c0.4-0.4,2-1.4,2.7-2c0.3-0.3,0.7-0.8,0.3-1c-1.5-0.5-2.9-1.9-2.9-3.6
			c0-0.4,0.2-0.8,0.7-1.1c0.7-0.3,2.8-1.7,2.8-2.3c0-0.1,0-0.4-0.2-0.5c-1.5-0.6-3.2-2.4-3.2-5.2c0-3.9,3.3-6.9,8-6.9
			c1.7,0,3.3,0.3,4.4,0.9c0.9,0.4,1.4,0.7,1.9,0.7h4.3c0.2,0.1,0.3,0.4,0.3,0.8c0,0.9-0.3,1.4-0.7,1.5H854.7z M847.4,189.8
			c-1.5,0-2.4,0.1-3,0.5c-0.7,0.6-1.3,1.3-1.3,2.4c0,2.7,2.4,4.4,5.7,4.4c3.7,0,5.8-1.5,5.8-4c0-2.2-2-3.3-4.7-3.3H847.4z
			 M847.7,181.2c1.7,0,2.9-1.4,2.9-4.5c0-3-1.3-5.1-3.2-5.1c-1.5,0-2.9,1.4-2.9,4.4C844.5,179.4,846.1,181.2,847.7,181.2z"/>
		<path d="M860.8,193.1c-0.6-0.2-0.8-0.7-0.5-1.3c1.5-0.5,3.7-1.6,3.7-3.9c0-1.9-2.1-2.4-2.5-2.6c-0.6-0.3-1-0.9-1-1.6
			c0-1.3,1-2.3,2.7-2.3c1.7,0,3.7,1.5,3.7,4.7C866.9,189.9,864,192.1,860.8,193.1z"/>
		<path d="M890,180.5c0,2.2,0.1,3.7,0.7,4.5c0.5,0.6,1.2,1,4.7,1c4.8,0,5.5-0.2,7.5-4.7c0.4-0.2,1.1-0.1,1.3,0.3
			c-0.3,1.8-1.3,5.1-1.8,6.3c-1.8-0.1-5.6-0.1-10.4-0.1h-4.5c-2.2,0-4.4,0-6.2,0.1c-0.3-0.2-0.5-1-0.1-1.3l1.3-0.2
			c2-0.3,2.4-0.4,2.4-4.9v-16.2c0-4.5-0.4-4.7-2.4-5l-1.2-0.2c-0.3-0.2-0.3-1.1,0.1-1.3c2.2,0.1,4.1,0.1,6.1,0.1
			c1.9,0,3.9,0,5.8-0.1c0.4,0.2,0.4,1,0.1,1.3l-1,0.2c-2,0.3-2.4,0.4-2.4,5V180.5z"/>
		<path d="M910.5,177.4c-0.8,0-0.9,0-0.9,0.6c0,3.9,2.7,7.1,6.6,7.1c1.7,0,3.2-0.6,4.2-2.2c0.4-0.1,0.9,0.3,1,0.7
			c-1.5,3.5-4.7,4.8-7.4,4.8c-5.1,0-8.4-3.7-8.4-8.7c0-4.9,3.4-9.7,9.2-9.7c3.2,0,6.5,2.1,6.5,5.9c0,0.4,0,0.7-0.2,1
			c-0.3,0.4-1.3,0.6-3,0.6H910.5z M914.5,175.6c1.3,0,1.8-0.1,2.1-0.3c0.3-0.2,0.4-0.5,0.4-0.9c0-1.6-1-2.8-2.9-2.8
			c-2.9,0-4.3,2.8-4.3,3.7c0,0.2,0.1,0.3,0.6,0.3H914.5z"/>
		<path d="M936.9,182.2c-0.1,2.5,0.5,3.8,2.1,3.8c0.7,0,1.3-0.5,1.5-0.5c0.2,0,0.5,0.5,0.4,0.9c-0.9,1.2-3,1.9-4.4,1.9
			c-1.1,0-2.3-0.3-3.1-1.2c-0.3-0.3-0.5-0.5-0.7-0.5s-0.5,0.2-1.2,0.6c-0.8,0.5-2.1,1.1-3.7,1.1c-3,0-4.4-2-4.4-4.2
			c0-1.6,0.6-3,3.6-4c1.5-0.5,3.2-1.1,4.8-1.7c0.9-0.3,1-0.7,1-1.1l0-1.1c0.1-2.2-0.5-4.1-2.7-4.1c-1.2,0-2.1,0.7-2.3,1.9
			c-0.1,0.8-0.3,1.3-0.8,1.6c-0.6,0.4-1.8,0.8-2.8,0.8c-0.6,0-0.8-0.3-0.8-0.7c0-0.5,0.3-1.4,1.7-2.8c1.3-1.3,4.5-2.7,6.7-2.7
			c3.4,0,5.6,1.6,5.4,5.4L936.9,182.2z M932.6,180.7c0-0.5-0.1-0.7-0.3-0.7c-0.3,0-1.1,0.2-1.9,0.5c-1.2,0.4-2.4,1-2.4,2.9
			c0,1.1,0.8,2.5,2.4,2.5c1.6,0,2-1,2.1-2.1L932.6,180.7z"/>
		<path d="M944.1,176.1c0-2,0-2.5-1.1-3.1l-0.5-0.3c-0.1-0.2-0.1-0.8,0-1c1.9-0.6,4.2-1.6,5.5-2.4c0.3,0,0.5,0.1,0.6,0.4
			c0,0.8-0.1,1.6-0.1,2c0,0.3,0.2,0.5,0.4,0.5c1.3-1,2.8-2.3,4.3-2.3c1.5,0,2.4,1,2.4,2.1c0,1.7-1.3,2.5-2.4,2.5
			c-0.4,0-0.8-0.1-1.2-0.3c-1.1-0.7-1.8-0.8-2.1-0.8c-1,0-1.3,1-1.3,3.1v6c0,3.2,0.2,3.7,1.7,3.9l1.7,0.2c0.3,0.3,0.3,1.1-0.1,1.3
			c-2.6-0.1-4.1-0.1-5.7-0.1c-1.4,0-2.9,0-4.5,0.1c-0.3-0.2-0.4-1-0.1-1.3l0.8-0.1c1.5-0.3,1.7-0.7,1.7-3.9V176.1z"/>
		<path d="M963.7,182.5c0,3.2,0.2,3.7,1.7,4l0.7,0.1c0.3,0.3,0.3,1.1-0.1,1.3c-1.5-0.1-3-0.1-4.6-0.1c-1.4,0-2.9,0-4.7,0.1
			c-0.3-0.2-0.4-1-0.1-1.3l1-0.1c1.5-0.2,1.7-0.7,1.7-3.9v-6.4c0-2,0-2.5-1.1-3.1l-0.5-0.3c-0.1-0.2-0.1-0.8,0-1
			c1.9-0.5,4.3-1.6,5.7-2.4c0.3,0,0.5,0.2,0.6,0.3c-0.1,0.8-0.1,1.7-0.1,2c0,0.3,0.1,0.4,0.4,0.4c2-1.1,3.3-2.2,6-2.2
			c3.5,0,5.2,2.4,5.2,5.8v6.7c0,3.2,0.2,3.7,1.7,3.9l1,0.1c0.3,0.3,0.3,1.1-0.1,1.3c-1.8-0.1-3.3-0.1-4.9-0.1c-1.4,0-2.9,0-4.4,0.1
			c-0.3-0.2-0.4-1-0.1-1.3l0.7-0.1c1.5-0.2,1.7-0.7,1.7-4v-6c0-2.2-0.9-4-3.5-4c-1.3,0-2.4,0.7-2.9,1.3c-0.6,0.8-0.6,1.2-0.6,2.8
			V182.5z"/>
		<path d="M986.9,182.5c0,3.2,0.2,3.7,1.7,3.9l0.8,0.1c0.3,0.3,0.3,1.1-0.1,1.3c-1.6-0.1-3.1-0.1-4.7-0.1c-1.4,0-2.9,0-4.6,0.1
			c-0.3-0.2-0.4-1-0.1-1.3l0.8-0.1c1.5-0.3,1.7-0.7,1.7-3.9v-6.4c0-2,0-2.5-1.1-3.1l-0.5-0.3c-0.1-0.2-0.1-0.8,0-1
			c2.3-0.7,4.4-1.6,5.7-2.4c0.3,0,0.5,0.1,0.6,0.3c-0.1,1.4-0.1,3.5-0.1,5.3V182.5z M981.9,163.3c0-1.5,1.1-2.6,2.7-2.6
			s2.7,1.1,2.7,2.6c0,1.5-1.1,2.6-2.7,2.6S981.9,164.8,981.9,163.3z"/>
		<path d="M998.6,182.5c0,3.2,0.2,3.7,1.7,4l0.7,0.1c0.3,0.3,0.3,1.1-0.1,1.3c-1.5-0.1-3-0.1-4.6-0.1c-1.4,0-2.9,0-4.7,0.1
			c-0.3-0.2-0.4-1-0.1-1.3l1-0.1c1.5-0.2,1.7-0.7,1.7-3.9v-6.4c0-2,0-2.5-1.1-3.1l-0.5-0.3c-0.1-0.2-0.1-0.8,0-1
			c1.9-0.5,4.3-1.6,5.7-2.4c0.3,0,0.5,0.2,0.6,0.3c-0.1,0.8-0.1,1.7-0.1,2c0,0.3,0.1,0.4,0.4,0.4c2-1.1,3.3-2.2,6-2.2
			c3.5,0,5.2,2.4,5.2,5.8v6.7c0,3.2,0.2,3.7,1.7,3.9l1,0.1c0.3,0.3,0.3,1.1-0.1,1.3c-1.8-0.1-3.3-0.1-4.9-0.1c-1.4,0-2.9,0-4.4,0.1
			c-0.3-0.2-0.4-1-0.1-1.3l0.7-0.1c1.5-0.2,1.7-0.7,1.7-4v-6c0-2.2-0.9-4-3.5-4c-1.3,0-2.4,0.7-2.9,1.3c-0.6,0.8-0.6,1.2-0.6,2.8
			V182.5z"/>
		<path d="M1030.3,173.8c0.1,0.4,0.2,0.9,0.2,1.9c0,3.7-2.4,7.2-8,7.2c-0.5,0-1.1-0.1-1.7-0.2c-0.7,0.3-1.3,0.9-1.3,1.7
			c0,0.9,0.6,1.7,2.4,1.7c1.3,0,2.9-0.1,4.8-0.1c3.1,0,7.1,0.5,7.1,5.3c0,2.3-1.6,4.4-2.7,5.3c-1.9,1.6-4.7,2.9-8.4,2.9
			c-6.1,0-8.1-2.9-8.1-5.1c0-0.7,0.1-1.2,0.6-1.9c0.4-0.4,2-1.4,2.7-2c0.3-0.3,0.7-0.8,0.3-1c-1.5-0.5-2.9-1.9-2.9-3.6
			c0-0.4,0.2-0.8,0.7-1.1c0.7-0.3,2.8-1.7,2.8-2.3c0-0.1,0-0.4-0.2-0.5c-1.5-0.6-3.2-2.4-3.2-5.2c0-3.9,3.3-6.9,8-6.9
			c1.7,0,3.3,0.3,4.4,0.9c0.9,0.4,1.4,0.7,1.9,0.7h4.3c0.2,0.1,0.3,0.4,0.3,0.8c0,0.9-0.3,1.4-0.7,1.5H1030.3z M1022.9,189.8
			c-1.5,0-2.4,0.1-3,0.5c-0.7,0.6-1.3,1.3-1.3,2.4c0,2.7,2.4,4.4,5.7,4.4c3.7,0,5.8-1.5,5.8-4c0-2.2-2-3.3-4.7-3.3H1022.9z
			 M1023.3,181.2c1.7,0,2.9-1.4,2.9-4.5c0-3-1.3-5.1-3.2-5.1c-1.5,0-2.9,1.4-2.9,4.4C1020.1,179.4,1021.6,181.2,1023.3,181.2z"/>
		<path d="M1036.4,193.1c-0.6-0.2-0.8-0.7-0.5-1.3c1.5-0.5,3.7-1.6,3.7-3.9c0-1.9-2.1-2.4-2.5-2.6c-0.6-0.3-1-0.9-1-1.6
			c0-1.3,1-2.3,2.7-2.3c1.7,0,3.7,1.5,3.7,4.7C1042.5,189.9,1039.6,192.1,1036.4,193.1z"/>
		<path d="M1070.3,182.2c-0.1,2.5,0.5,3.8,2.1,3.8c0.7,0,1.3-0.5,1.5-0.5c0.2,0,0.5,0.5,0.4,0.9c-0.9,1.2-3,1.9-4.4,1.9
			c-1.1,0-2.3-0.3-3.1-1.2c-0.3-0.3-0.5-0.5-0.7-0.5s-0.5,0.2-1.2,0.6c-0.8,0.5-2.1,1.1-3.7,1.1c-3,0-4.4-2-4.4-4.2
			c0-1.6,0.6-3,3.6-4c1.5-0.5,3.2-1.1,4.8-1.7c0.9-0.3,1-0.7,1-1.1l0-1.1c0.1-2.2-0.5-4.1-2.7-4.1c-1.2,0-2.1,0.7-2.3,1.9
			c-0.1,0.8-0.3,1.3-0.8,1.6c-0.6,0.4-1.8,0.8-2.8,0.8c-0.6,0-0.8-0.3-0.8-0.7c0-0.5,0.3-1.4,1.7-2.8c1.3-1.3,4.5-2.7,6.7-2.7
			c3.4,0,5.6,1.6,5.4,5.4L1070.3,182.2z M1066,180.7c0-0.5-0.1-0.7-0.3-0.7c-0.3,0-1.1,0.2-1.9,0.5c-1.2,0.4-2.4,1-2.4,2.9
			c0,1.1,0.8,2.5,2.4,2.5c1.6,0,2-1,2.1-2.1L1066,180.7z"/>
		<path d="M1082,182.5c0,3.2,0.2,3.7,1.7,4l0.7,0.1c0.3,0.3,0.3,1.1-0.1,1.3c-1.5-0.1-3-0.1-4.6-0.1c-1.4,0-2.9,0-4.7,0.1
			c-0.3-0.2-0.4-1-0.1-1.3l1-0.1c1.5-0.2,1.7-0.7,1.7-3.9v-6.4c0-2,0-2.5-1.1-3.1l-0.5-0.3c-0.1-0.2-0.1-0.8,0-1
			c1.9-0.5,4.3-1.6,5.7-2.4c0.3,0,0.5,0.2,0.6,0.3c-0.1,0.8-0.1,1.7-0.1,2c0,0.3,0.1,0.4,0.4,0.4c2-1.1,3.3-2.2,6-2.2
			c3.5,0,5.2,2.4,5.2,5.8v6.7c0,3.2,0.2,3.7,1.7,3.9l1,0.1c0.3,0.3,0.3,1.1-0.1,1.3c-1.8-0.1-3.3-0.1-4.9-0.1c-1.4,0-2.9,0-4.4,0.1
			c-0.3-0.2-0.4-1-0.1-1.3l0.7-0.1c1.5-0.2,1.7-0.7,1.7-4v-6c0-2.2-0.9-4-3.5-4c-1.3,0-2.4,0.7-2.9,1.3c-0.6,0.8-0.6,1.2-0.6,2.8
			V182.5z"/>
		<path d="M1116,180.6c0,4,0.3,5.3,1,5.3c0.5,0,1.2-0.1,1.8-0.4c0.3,0.3,0.4,1.3,0,1.6c-2.2,0.2-5.3,1-6.9,1.7
			c-0.2,0-0.4-0.2-0.5-0.5l0.1-0.7c0.1-0.7,0-1,0-1.2l-0.2,0c-1.3,1-2.9,2-5,2c-5,0-8.1-4-8.1-8.4c0-6.3,5-10,10.4-10
			c1.1,0,2,0.1,2.5,0.3c0.2,0,0.3-0.2,0.3-0.7v-5.7c0-2.9-0.1-3.2-1-3.8l-0.6-0.4c-0.3-0.2-0.3-0.9,0-1c1.7-0.5,4-1.4,5.7-2.1
			c0.3,0,0.5,0.1,0.6,0.3c-0.1,1.7-0.1,4.4-0.1,6.3V180.6z M1111.4,175.3c0-0.9-0.1-1.5-0.6-2.1c-0.6-0.8-1.6-1.5-2.9-1.5
			c-3,0-4.8,2.9-4.8,6.6c0,4.5,2.4,7.4,5.4,7.4c1,0,2.2-0.6,2.6-1c0.2-0.2,0.3-0.6,0.3-1.2V175.3z"/>
		<path d="M1140.1,181.4c0,4.6,0.4,4.7,2.4,5l1,0.1c0.3,0.3,0.3,1.1-0.1,1.3c-1.9-0.1-3.9-0.1-5.8-0.1c-1.9,0-4,0-5.9,0.1
			c-0.3-0.2-0.4-1-0.1-1.3l1-0.1c2-0.3,2.4-0.4,2.4-5v-16.2c0-4.6-0.4-4.7-2.4-5l-1-0.1c-0.3-0.3-0.3-1.1,0.1-1.3
			c1.9,0.1,3.9,0.1,5.9,0.1c1.9,0,3.9,0,5.8-0.1c0.3,0.2,0.4,1,0.1,1.3l-1,0.1c-2,0.3-2.4,0.4-2.4,5V181.4z"/>
		<path d="M1153.1,182.5c0,3.2,0.2,3.7,1.7,4l0.7,0.1c0.3,0.3,0.3,1.1-0.1,1.3c-1.5-0.1-3-0.1-4.6-0.1c-1.4,0-2.9,0-4.7,0.1
			c-0.3-0.2-0.4-1-0.1-1.3l1-0.1c1.5-0.2,1.7-0.7,1.7-3.9v-6.4c0-2,0-2.5-1.1-3.1l-0.5-0.3c-0.1-0.2-0.1-0.8,0-1
			c1.9-0.5,4.3-1.6,5.7-2.4c0.3,0,0.5,0.2,0.6,0.3c-0.1,0.8-0.1,1.7-0.1,2c0,0.3,0.1,0.4,0.4,0.4c2-1.1,3.3-2.2,6-2.2
			c3.5,0,5.2,2.4,5.2,5.8v6.7c0,3.2,0.2,3.7,1.7,3.9l1,0.1c0.3,0.3,0.3,1.1-0.1,1.3c-1.8-0.1-3.3-0.1-4.9-0.1c-1.4,0-2.9,0-4.4,0.1
			c-0.3-0.2-0.4-1-0.1-1.3l0.7-0.1c1.5-0.2,1.7-0.7,1.7-4v-6c0-2.2-0.9-4-3.5-4c-1.3,0-2.4,0.7-2.9,1.3c-0.6,0.8-0.6,1.2-0.6,2.8
			V182.5z"/>
		<path d="M1176.3,182.5c0,3.2,0.2,3.7,1.7,4l0.7,0.1c0.3,0.3,0.3,1.1-0.1,1.3c-1.5-0.1-3-0.1-4.6-0.1c-1.4,0-2.9,0-4.7,0.1
			c-0.3-0.2-0.4-1-0.1-1.3l1-0.1c1.5-0.2,1.7-0.7,1.7-3.9v-6.4c0-2,0-2.5-1.1-3.1l-0.5-0.3c-0.1-0.2-0.1-0.8,0-1
			c1.9-0.5,4.3-1.6,5.7-2.4c0.3,0,0.5,0.2,0.6,0.3c-0.1,0.8-0.1,1.7-0.1,2c0,0.3,0.1,0.4,0.4,0.4c2-1.1,3.3-2.2,6-2.2
			c3.5,0,5.2,2.4,5.2,5.8v6.7c0,3.2,0.2,3.7,1.7,3.9l1,0.1c0.3,0.3,0.3,1.1-0.1,1.3c-1.8-0.1-3.3-0.1-4.9-0.1c-1.4,0-2.9,0-4.4,0.1
			c-0.3-0.2-0.4-1-0.1-1.3l0.7-0.1c1.5-0.2,1.7-0.7,1.7-4v-6c0-2.2-0.9-4-3.5-4c-1.3,0-2.4,0.7-2.9,1.3c-0.6,0.8-0.6,1.2-0.6,2.8
			V182.5z"/>
		<path d="M1211.2,178.9c0,6.2-4.4,9.4-9.5,9.4c-5,0-9.2-3.2-9.2-8.9c0-5.8,4.4-9.5,9.5-9.5C1206.9,169.9,1211.2,173.3,1211.2,178.9
			z M1202.2,186.6c3,0,3.9-3.6,3.9-6.9c0-3.7-1.3-8-4.5-8c-2.2,0-4,2.3-4,7.1C1197.6,182.7,1199.1,186.6,1202.2,186.6z"/>
		<path d="M1224.7,183c-0.7,1.6-1.5,3.6-2,5.1c-0.2,0.2-0.4,0.3-0.7,0.3s-0.6-0.1-0.8-0.3c-0.4-1.2-1.1-2.9-1.7-4
			c-1-2.1-3.4-7.6-4.2-9.4c-0.9-1.9-1.3-2.4-2.7-2.7l-0.8-0.2c-0.3-0.3-0.3-1,0.1-1.3c1.5,0.1,3,0.1,4.6,0.1c2,0,3.3,0,4.8-0.1
			c0.4,0.2,0.5,1,0.1,1.3l-0.8,0.1c-0.6,0.1-1.1,0.2-1.1,0.5c0,0.3,0.1,0.7,0.3,1.4c0.6,1.6,2.8,7,3.5,8.3c1-2.2,2.1-4.8,3.2-7.6
			c0.4-1.1,0.6-1.7,0.6-2s-0.4-0.5-0.9-0.6l-1-0.2c-0.3-0.3-0.3-1.1,0.2-1.3c1.3,0.1,2.4,0.1,3.7,0.1c1.1,0,2.2,0,3.2-0.1
			c0.4,0.2,0.4,1,0.1,1.3l-0.9,0.2c-1.3,0.3-1.9,0.6-3.3,3.5L1224.7,183z"/>
		<path d="M1245.6,182.2c-0.1,2.5,0.5,3.8,2.1,3.8c0.7,0,1.3-0.5,1.5-0.5c0.2,0,0.5,0.5,0.4,0.9c-0.9,1.2-3,1.9-4.4,1.9
			c-1.1,0-2.3-0.3-3.1-1.2c-0.3-0.3-0.5-0.5-0.7-0.5s-0.5,0.2-1.2,0.6c-0.8,0.5-2.1,1.1-3.7,1.1c-3,0-4.4-2-4.4-4.2
			c0-1.6,0.6-3,3.6-4c1.5-0.5,3.2-1.1,4.8-1.7c0.9-0.3,1-0.7,1-1.1l0-1.1c0.1-2.2-0.5-4.1-2.7-4.1c-1.2,0-2.1,0.7-2.3,1.9
			c-0.1,0.8-0.3,1.3-0.8,1.6c-0.6,0.4-1.8,0.8-2.8,0.8c-0.6,0-0.8-0.3-0.8-0.7c0-0.5,0.3-1.4,1.7-2.8c1.3-1.3,4.5-2.7,6.7-2.7
			c3.4,0,5.6,1.6,5.4,5.4L1245.6,182.2z M1241.3,180.7c0-0.5-0.1-0.7-0.3-0.7c-0.3,0-1.1,0.2-1.9,0.5c-1.2,0.4-2.4,1-2.4,2.9
			c0,1.1,0.8,2.5,2.4,2.5c1.6,0,2-1,2.1-2.1L1241.3,180.7z"/>
		<path d="M1258,172.5c-0.8,0-0.8,0.1-0.8,1.5v6.7c0,2.7,0.4,5.2,3.2,5.2c0.9,0,1.4-0.3,2.1-0.8c0.4,0,0.7,0.4,0.6,0.9
			c-0.9,1.2-2.9,2.4-5.5,2.4c-4.1,0-4.9-2.4-4.9-5.4V174c0-1.5-0.1-1.6-0.8-1.6h-1.5c-0.4-0.2-0.5-0.9-0.1-1.2
			c1.5-0.6,2.5-1.1,3.4-1.8c0.8-0.6,1.8-1.5,2.4-2.7c0.4-0.3,1-0.1,1.2,0.2v2.6c0,0.7,0,0.8,0.8,0.8h4.3c0.3,0.1,0.3,0.5,0.3,0.9
			c0,0.5-0.2,0.9-0.6,1.1H1258z"/>
		<path d="M1271.3,182.5c0,3.2,0.2,3.7,1.7,3.9l0.8,0.1c0.3,0.3,0.3,1.1-0.1,1.3c-1.6-0.1-3.1-0.1-4.7-0.1c-1.4,0-2.9,0-4.6,0.1
			c-0.3-0.2-0.4-1-0.1-1.3l0.8-0.1c1.5-0.3,1.7-0.7,1.7-3.9v-6.4c0-2,0-2.5-1.1-3.1l-0.5-0.3c-0.1-0.2-0.1-0.8,0-1
			c2.3-0.7,4.4-1.6,5.7-2.4c0.3,0,0.5,0.1,0.6,0.3c-0.1,1.4-0.1,3.5-0.1,5.3V182.5z M1266.4,163.3c0-1.5,1.1-2.6,2.7-2.6
			s2.7,1.1,2.7,2.6c0,1.5-1.1,2.6-2.7,2.6S1266.4,164.8,1266.4,163.3z"/>
		<path d="M1294.7,178.9c0,6.2-4.4,9.4-9.5,9.4c-5,0-9.2-3.2-9.2-8.9c0-5.8,4.4-9.5,9.5-9.5C1290.4,169.9,1294.7,173.3,1294.7,178.9
			z M1285.7,186.6c3,0,3.9-3.6,3.9-6.9c0-3.7-1.3-8-4.5-8c-2.2,0-4,2.3-4,7.1C1281.1,182.7,1282.5,186.6,1285.7,186.6z"/>
		<path d="M1304.4,182.5c0,3.2,0.2,3.7,1.7,4l0.7,0.1c0.3,0.3,0.3,1.1-0.1,1.3c-1.5-0.1-3-0.1-4.6-0.1c-1.4,0-2.9,0-4.7,0.1
			c-0.3-0.2-0.4-1-0.1-1.3l1-0.1c1.5-0.2,1.7-0.7,1.7-3.9v-6.4c0-2,0-2.5-1.1-3.1l-0.5-0.3c-0.1-0.2-0.1-0.8,0-1
			c1.9-0.5,4.3-1.6,5.7-2.4c0.3,0,0.5,0.2,0.6,0.3c-0.1,0.8-0.1,1.7-0.1,2c0,0.3,0.1,0.4,0.4,0.4c2-1.1,3.3-2.2,6-2.2
			c3.5,0,5.2,2.4,5.2,5.8v6.7c0,3.2,0.2,3.7,1.7,3.9l1,0.1c0.3,0.3,0.3,1.1-0.1,1.3c-1.8-0.1-3.3-0.1-4.9-0.1c-1.4,0-2.9,0-4.4,0.1
			c-0.3-0.2-0.4-1-0.1-1.3l0.7-0.1c1.5-0.2,1.7-0.7,1.7-4v-6c0-2.2-0.9-4-3.5-4c-1.3,0-2.4,0.7-2.9,1.3c-0.6,0.8-0.6,1.2-0.6,2.8
			V182.5z"/>
	</g>
</g>
</svg>
