<?xml version="1.0" encoding="utf-8"?>
<!-- Generator: Adobe Illustrator 25.0.0, SVG Export Plug-In . SVG Version: 6.00 Build 0)  -->
<svg version="1.1" id="Larger_x2F_Smaller_TEMPLATE_Trajan_Pro"
	 xmlns="http://www.w3.org/2000/svg" xmlns:xlink="http://www.w3.org/1999/xlink" x="0px" y="0px" viewBox="0 0 532.2 114.4"
	 style="enable-background:new 0 0 532.2 114.4;" xml:space="preserve">
<g id="TEMPLATE_STARTER_1_">
	<g id="A-H:_Horizontal_Orientation_Same_Size_copy_2">
		<g id="_x32__Line_4_">
			<rect id="_x32__Line_Vertical_Bar_2_" x="273.2" y="28.4" width="1.2" height="59.3"/>
			<g>
				<path d="M292,53.5c-1.5-1.3-1.9-3-1.9-4.4c0-1,0.3-2.8,1.8-4.1c1.1-1,2.5-1.6,4.7-1.6c0.9,0,1.5,0.1,2.2,0.2
					c0.6,0.1,1,0.2,1.5,0.3c0.2,0,0.2,0.1,0.2,0.2c0,0.1,0,0.3-0.1,0.8c0,0.5,0,1.3,0,1.6c0,0.2,0,0.3-0.2,0.3
					c-0.1,0-0.1-0.1-0.1-0.3c0-0.5-0.2-1-0.6-1.4c-0.5-0.5-1.7-0.9-3-0.9c-1.3,0-2.2,0.3-2.8,0.9c-1.1,1-1.4,2.4-1.4,3.9
					c0,3.6,2.7,5.3,4.7,5.3c1.3,0,2.1-0.1,2.7-0.8c0.3-0.3,0.4-0.7,0.5-1c0-0.2,0.1-0.3,0.2-0.3c0.1,0,0.1,0.1,0.1,0.2
					c0,0.2-0.2,1.5-0.3,2c-0.1,0.3-0.1,0.3-0.4,0.4c-0.6,0.2-1.7,0.3-2.7,0.3C295.1,55.1,293.4,54.6,292,53.5z"/>
				<path d="M302.8,50.1c0-2.2,1.5-5,5.5-5c3.3,0,5.4,1.8,5.4,4.8s-2.1,5.2-5.5,5.2C304.4,55,302.8,52.3,302.8,50.1z M311.8,50.3
					c0-2.8-1.7-4.6-3.8-4.6c-1.5,0-3.2,0.8-3.2,3.9c0,2.6,1.5,4.7,4,4.7C309.7,54.4,311.8,53.9,311.8,50.3z"/>
				<path d="M318.7,51.2c0,1.6,0,2.4,0.3,2.7c0.2,0.2,0.7,0.3,1.8,0.3c0.7,0,1.2,0,1.5-0.4c0.2-0.2,0.3-0.5,0.3-0.8
					c0-0.1,0-0.2,0.1-0.2c0.1,0,0.1,0.1,0.1,0.3c0,0.2-0.1,1.1-0.2,1.5c-0.1,0.3-0.2,0.3-0.8,0.3c-0.9,0-1.7,0-2.4,0
					c-0.7,0-1.2,0-1.8,0c-0.2,0-0.4,0-0.8,0c-0.3,0-0.6,0-0.9,0c-0.2,0-0.3,0-0.3-0.1c0-0.1,0-0.1,0.2-0.1c0.2,0,0.3,0,0.5,0
					c0.3-0.1,0.3-0.3,0.4-0.7c0.1-0.5,0.1-1.5,0.1-2.7v-2.2c0-1.9,0-2.3,0-2.7c0-0.4-0.1-0.6-0.6-0.7c-0.1,0-0.3,0-0.4,0
					c-0.2,0-0.2,0-0.2-0.1s0.1-0.1,0.3-0.1c0.6,0,1.5,0,1.8,0c0.3,0,1.4,0,1.9,0c0.2,0,0.3,0,0.3,0.1s-0.1,0.1-0.2,0.1
					c-0.1,0-0.4,0-0.5,0c-0.4,0.1-0.5,0.2-0.5,0.7c0,0.4,0,0.8,0,2.7V51.2z"/>
				<path d="M325.1,48.9c0-1.9,0-2.3,0-2.7c0-0.5-0.1-0.6-0.6-0.7c-0.1,0-0.3,0-0.5,0c-0.1,0-0.2,0-0.2-0.1s0.1-0.1,0.3-0.1
					c0.7,0,1.6,0,2,0c0.3,0,1.2,0,1.7,0c0.2,0,0.3,0,0.3,0.1s-0.1,0.1-0.2,0.1c-0.1,0-0.2,0-0.4,0c-0.3,0.1-0.5,0.2-0.5,0.7
					c0,0.4,0,0.8,0,2.7v1.8c0,1.9,0.4,2.6,1,3.1c0.6,0.5,1.2,0.5,1.7,0.5c0.6,0,1.2-0.2,1.8-0.7c0.7-0.7,0.8-1.8,0.8-3.1v-1.6
					c0-1.9,0-2.3,0-2.7c0-0.4-0.1-0.6-0.6-0.7c-0.1,0-0.3,0-0.5,0c-0.2,0-0.2,0-0.2-0.1s0.1-0.1,0.3-0.1c0.7,0,1.6,0,1.6,0
					c0.1,0,1,0,1.5,0c0.2,0,0.3,0,0.3,0.1s-0.1,0.1-0.2,0.1c-0.1,0-0.2,0-0.4,0c-0.4,0.1-0.5,0.2-0.5,0.7c0,0.4,0,0.8,0,2.7v1.4
					c0,1.4-0.1,2.9-1.3,3.8c-0.9,0.8-1.9,0.9-2.8,0.9c-0.7,0-2.1,0-3-0.9c-0.7-0.6-1.2-1.5-1.2-3.4V48.9z"/>
				<path d="M338.1,45.3c0-0.2,0.1-0.3,0.3-0.3c0.1,0,0.2,0.1,0.4,0.4l3.5,7l3.5-7.1c0.1-0.2,0.2-0.3,0.3-0.3c0.1,0,0.3,0.1,0.3,0.4
					l1.2,7.8c0.1,0.8,0.2,1.1,0.6,1.3c0.4,0.1,0.6,0.1,0.8,0.1c0.1,0,0.2,0,0.2,0.1c0,0.1-0.1,0.2-0.3,0.2c-0.3,0-2.2,0-2.7-0.1
					c-0.3,0-0.4-0.1-0.4-0.2c0-0.1,0.1-0.1,0.2-0.1c0.1,0,0.1-0.2,0.1-0.5l-0.7-5.5h0l-2.8,5.6c-0.3,0.6-0.4,0.7-0.5,0.7
					c-0.2,0-0.3-0.3-0.5-0.6c-0.3-0.6-1.4-2.5-1.5-2.9c-0.1-0.2-0.9-1.8-1.3-2.7h0l-0.6,4.9c0,0.2,0,0.4,0,0.6
					c0,0.2,0.2,0.3,0.4,0.4s0.3,0.1,0.5,0.1s0.2,0.1,0.2,0.1c0,0.1-0.1,0.2-0.3,0.2c-0.6,0-1.2,0-1.4,0c-0.3,0-0.9,0-1.3,0
					c-0.1,0-0.2,0-0.2-0.2c0-0.1,0.1-0.1,0.2-0.1c0.1,0,0.2,0,0.4,0c0.4,0,0.5-0.6,0.5-1L338.1,45.3z"/>
				<path d="M352.2,48.9c0-1.9,0-2.3,0-2.7c0-0.4-0.1-0.6-0.6-0.7c-0.1,0-0.3,0-0.5,0c-0.1,0-0.2,0-0.2-0.1s0.1-0.1,0.3-0.1
					c0.7,0,1.5,0,1.8,0c0.7,0,1.5,0,2,0c2.4,0,2.8,1.2,2.8,1.9c0,1-0.7,1.8-1.5,2.2c1.1,0.3,2.4,1.3,2.4,2.8c0,1.4-1.1,2.8-3.5,2.8
					c-0.1,0-0.6,0-1.1,0c-0.4,0-0.9,0-1.1,0c-0.2,0-0.4,0-0.8,0c-0.3,0-0.6,0-0.9,0c-0.2,0-0.3,0-0.3-0.1c0-0.1,0-0.1,0.2-0.1
					c0.2,0,0.3,0,0.5,0c0.3-0.1,0.3-0.3,0.4-0.7c0.1-0.5,0.1-1.5,0.1-2.7V48.9z M353.9,49.1c0,0.1,0,0.1,0.1,0.1c0.1,0,0.3,0,0.6,0
					c0.4,0,0.8,0,1-0.2c0.3-0.3,0.6-0.7,0.6-1.3c0-0.9-0.5-1.9-1.6-1.9c-0.2,0-0.4,0-0.6,0c-0.1,0-0.1,0.1-0.1,0.2V49.1z
					 M353.9,52.9c0,0.8,0,1.1,0.5,1.3c0.3,0.1,0.6,0.2,0.9,0.2c0.7,0,1.6-0.4,1.6-1.8c0-0.6-0.3-1.6-1.2-2.3
					c-0.3-0.2-0.6-0.3-1.1-0.3H354c0,0-0.1,0-0.1,0.1V52.9z"/>
				<path d="M361.9,48.9c0-1.9,0-2.3,0-2.7c0-0.4-0.2-0.6-0.5-0.7c-0.1,0-0.3-0.1-0.5-0.1c-0.1,0-0.2,0-0.2-0.1
					c0-0.1,0.1-0.1,0.3-0.1c0.5,0,1.4,0,1.8,0c0.3,0,1.2,0,1.7,0c0.2,0,0.3,0,0.3,0.1c0,0.1-0.1,0.1-0.2,0.1c-0.1,0-0.2,0-0.4,0
					c-0.4,0.1-0.5,0.2-0.5,0.7c0,0.4,0,0.8,0,2.7v2.2c0,1.2,0,2.2,0.1,2.8c0,0.3,0.1,0.5,0.5,0.6c0.2,0,0.5,0,0.7,0
					c0.1,0,0.2,0.1,0.2,0.1c0,0.1-0.1,0.1-0.3,0.1c-0.9,0-1.8,0-2.1,0c-0.3,0-1.2,0-1.7,0c-0.2,0-0.3,0-0.3-0.1c0-0.1,0-0.1,0.2-0.1
					c0.2,0,0.3,0,0.5,0c0.3-0.1,0.3-0.2,0.4-0.6c0.1-0.5,0.1-1.5,0.1-2.8V48.9z"/>
				<path d="M369.4,51.7c-0.1,0-0.1,0-0.1,0.1l-0.7,1.7c-0.1,0.3-0.2,0.6-0.2,0.8c0,0.2,0.1,0.4,0.5,0.4h0.2c0.2,0,0.2,0.1,0.2,0.1
					c0,0.1-0.1,0.1-0.2,0.1c-0.4,0-1.1,0-1.5,0c-0.1,0-0.8,0-1.5,0c-0.2,0-0.2,0-0.2-0.1c0-0.1,0-0.1,0.2-0.1c0.1,0,0.3,0,0.4,0
					c0.6-0.1,0.8-0.5,1.1-1.1l3.4-8c0.1-0.4,0.3-0.5,0.4-0.5c0.2,0,0.3,0.1,0.4,0.4c0.3,0.7,2.5,5.9,3.4,7.8
					c0.5,1.2,0.9,1.3,1.1,1.4c0.2,0,0.3,0,0.5,0c0.1,0,0.2,0,0.2,0.1c0,0.1-0.1,0.1-0.6,0.1c-0.5,0-1.4,0-2.5,0
					c-0.2,0-0.4,0-0.4-0.1c0-0.1,0-0.1,0.2-0.1c0.1,0,0.2-0.1,0.1-0.3l-1-2.6c0-0.1-0.1-0.1-0.1-0.1H369.4z M372.2,51
					C372.2,51,372.2,50.9,372.2,51l-1.2-3.3c0,0,0-0.1-0.1-0.1c0,0-0.1,0.1-0.1,0.1l-1.3,3.2c0,0.1,0,0.1,0,0.1H372.2z"/>
				<path d="M383.9,47.9c0-2.3,0-2.7,0-3.2c0-0.5-0.2-0.8-0.6-0.9c-0.1,0-0.4,0-0.6,0c-0.2,0-0.3,0-0.3-0.1c0-0.1,0.1-0.1,0.3-0.1
					c0.8,0,1.7,0,2.2,0c0.4,0,1.3,0,1.8,0c0.2,0,0.3,0,0.3,0.1c0,0.1-0.1,0.1-0.2,0.1c-0.2,0-0.3,0-0.4,0c-0.4,0.1-0.5,0.3-0.6,0.9
					c0,0.5,0,0.9,0,3.2V50c0,2.2,0.4,3.1,1.2,3.7c0.7,0.6,1.4,0.6,1.9,0.6c0.7,0,1.5-0.2,2.1-0.8c0.8-0.8,0.9-2.2,0.9-3.7v-1.9
					c0-2.3,0-2.7,0-3.2c0-0.5-0.1-0.8-0.6-0.9c-0.1,0-0.4,0-0.5,0c-0.2,0-0.3,0-0.3-0.1c0-0.1,0.1-0.1,0.3-0.1c0.8,0,1.7,0,1.7,0
					c0.2,0,1.1,0,1.7,0c0.2,0,0.3,0,0.3,0.1c0,0.1-0.1,0.1-0.3,0.1c-0.2,0-0.3,0-0.4,0c-0.4,0.1-0.5,0.3-0.6,0.9c0,0.5,0,0.9,0,3.2
					v1.6c0,1.7-0.2,3.4-1.4,4.5c-1.1,0.9-2.1,1.1-3.1,1.1c-0.8,0-2.2,0-3.3-1c-0.8-0.7-1.3-1.8-1.3-4V47.9z"/>
				<path d="M398,53.1c0,1,0.2,1.3,0.5,1.4c0.2,0.1,0.5,0.1,0.7,0.1c0.1,0,0.2,0.1,0.2,0.1c0,0.1-0.1,0.1-0.3,0.1
					c-0.9,0-1.5,0-1.7,0c-0.1,0-0.8,0-1.4,0c-0.2,0-0.3,0-0.3-0.1c0-0.1,0.1-0.1,0.2-0.1c0.2,0,0.4,0,0.6-0.1
					c0.3-0.1,0.4-0.4,0.4-1.5l0.1-7.6c0-0.3,0.1-0.4,0.2-0.4c0.2,0,0.3,0.2,0.6,0.4c0.2,0.2,2.1,2.2,4.1,4.1
					c0.9,0.9,2.7,2.7,2.9,2.9h0.1l-0.1-5.7c0-0.8-0.1-1-0.4-1.1c-0.2-0.1-0.5-0.1-0.7-0.1c-0.2,0-0.2-0.1-0.2-0.1
					c0-0.1,0.1-0.1,0.3-0.1c0.7,0,1.4,0,1.7,0c0.1,0,0.6,0,1.3,0c0.2,0,0.3,0,0.3,0.1c0,0.1-0.1,0.1-0.2,0.1c-0.1,0-0.2,0-0.4,0
					c-0.4,0.1-0.5,0.3-0.5,1l-0.1,8c0,0.3-0.1,0.4-0.2,0.4c-0.2,0-0.4-0.1-0.5-0.3c-0.8-0.8-2.5-2.3-3.9-3.7
					c-1.4-1.4-2.8-2.9-3.1-3.1h0L398,53.1z"/>
				<path d="M410.6,48.9c0-1.9,0-2.3,0-2.7c0-0.4-0.2-0.6-0.5-0.7c-0.1,0-0.3-0.1-0.5-0.1c-0.1,0-0.2,0-0.2-0.1
					c0-0.1,0.1-0.1,0.3-0.1c0.5,0,1.4,0,1.8,0c0.3,0,1.2,0,1.7,0c0.2,0,0.3,0,0.3,0.1c0,0.1-0.1,0.1-0.2,0.1c-0.1,0-0.2,0-0.4,0
					c-0.4,0.1-0.5,0.2-0.5,0.7c0,0.4,0,0.8,0,2.7v2.2c0,1.2,0,2.2,0.1,2.8c0,0.3,0.1,0.5,0.5,0.6c0.2,0,0.5,0,0.7,0
					c0.1,0,0.2,0.1,0.2,0.1c0,0.1-0.1,0.1-0.3,0.1c-0.9,0-1.8,0-2.1,0c-0.3,0-1.2,0-1.7,0c-0.2,0-0.3,0-0.3-0.1c0-0.1,0-0.1,0.2-0.1
					c0.2,0,0.3,0,0.5,0c0.3-0.1,0.3-0.2,0.4-0.6c0.1-0.5,0.1-1.5,0.1-2.8V48.9z"/>
				<path d="M416.2,46.5c-0.3-0.7-0.5-0.8-1-0.9c-0.2,0-0.4,0-0.5,0c-0.1,0-0.1-0.1-0.1-0.1c0-0.1,0.1-0.1,0.3-0.1
					c0.7,0,1.5,0,1.9,0c0.3,0,1,0,1.7,0c0.2,0,0.3,0,0.3,0.1s-0.1,0.1-0.2,0.1c-0.2,0-0.4,0-0.5,0.1c-0.1,0.1-0.1,0.1-0.1,0.3
					c0,0.2,0.1,0.5,0.3,1l2.2,5.7h0c0.6-1.3,2.3-5.4,2.6-6.3c0.1-0.2,0.1-0.4,0.1-0.5c0-0.1-0.1-0.2-0.2-0.2c-0.2,0-0.4-0.1-0.5-0.1
					c-0.1,0-0.2,0-0.2-0.1s0.1-0.1,0.4-0.1c0.7,0,1.2,0,1.4,0c0.2,0,0.8,0,1.2,0c0.2,0,0.3,0,0.3,0.1s-0.1,0.1-0.2,0.1
					s-0.4,0-0.6,0.2c-0.2,0.1-0.3,0.3-0.7,1.1c-0.5,1.2-0.9,1.9-1.6,3.4c-0.8,1.9-1.5,3.3-1.8,3.9c-0.3,0.7-0.4,0.9-0.6,0.9
					c-0.2,0-0.3-0.2-0.5-0.8L416.2,46.5z"/>
				<path d="M427.7,48.9c0-1.9,0-2.3,0-2.7c0-0.4-0.1-0.6-0.6-0.7c-0.1,0-0.3,0-0.5,0c-0.1,0-0.2,0-0.2-0.1s0.1-0.1,0.3-0.1
					c0.7,0,1.5,0,1.9,0c0.4,0,3.3,0,3.6,0c0.2,0,0.5-0.1,0.6-0.1c0.1,0,0.2-0.1,0.2-0.1c0.1,0,0.1,0.1,0.1,0.1
					c0,0.1-0.1,0.2-0.1,0.8c0,0.1,0,0.7-0.1,0.8c0,0.1,0,0.2-0.2,0.2c-0.1,0-0.1-0.1-0.1-0.2c0-0.1,0-0.3-0.1-0.5
					c-0.1-0.2-0.2-0.4-0.9-0.5c-0.2,0-1.8-0.1-2.1-0.1c-0.1,0-0.1,0-0.1,0.1v3.2c0,0.1,0,0.1,0.1,0.1c0.3,0,2,0,2.3,0
					c0.3,0,0.5-0.1,0.6-0.2c0.1-0.1,0.1-0.2,0.2-0.2c0.1,0,0.1,0.1,0.1,0.1s0,0.3-0.1,0.9c0,0.3-0.1,0.8-0.1,0.9
					c0,0.1,0,0.3-0.1,0.3c-0.1,0-0.1,0-0.1-0.1c0-0.1,0-0.3,0-0.5c-0.1-0.3-0.2-0.5-0.7-0.5c-0.2,0-1.7-0.1-2.1-0.1
					c-0.1,0-0.1,0.1-0.1,0.1v1c0,0.4,0,1.5,0,1.9c0,0.9,0.4,1.1,1.8,1.1c0.3,0,0.9,0,1.2-0.2c0.3-0.1,0.5-0.4,0.6-0.9
					c0-0.1,0.1-0.2,0.2-0.2c0.1,0,0.1,0.2,0.1,0.3c0,0.3-0.1,1.2-0.2,1.4c-0.1,0.3-0.2,0.3-0.7,0.3c-1,0-1.8,0-2.4,0
					c-0.6,0-1.1,0-1.5,0c-0.2,0-0.4,0-0.8,0c-0.3,0-0.6,0-0.9,0c-0.2,0-0.3,0-0.3-0.1c0-0.1,0-0.1,0.2-0.1c0.2,0,0.3,0,0.5,0
					c0.3-0.1,0.3-0.3,0.4-0.7c0.1-0.5,0.1-1.5,0.1-2.7V48.9z"/>
				<path d="M436.8,48.9c0-1.9,0-2.3,0-2.7c0-0.4-0.1-0.6-0.6-0.7c-0.1,0-0.3,0-0.5,0c-0.1,0-0.2,0-0.2-0.1s0.1-0.1,0.3-0.1
					c0.7,0,1.5,0,1.8,0c0.5,0,1.7,0,2.1,0c0.8,0,1.8,0.1,2.5,0.5c0.4,0.3,0.9,0.9,0.9,1.8c0,0.9-0.5,1.8-1.8,2.8
					c1.2,1.4,2.1,2.6,2.9,3.4c0.7,0.7,1.2,0.8,1.4,0.8c0.1,0,0.2,0,0.3,0c0.1,0,0.2,0.1,0.2,0.1c0,0.1-0.1,0.1-0.3,0.1h-1.3
					c-0.7,0-1.1-0.1-1.4-0.3c-0.6-0.3-1.1-0.9-1.8-1.9c-0.5-0.7-1.1-1.5-1.2-1.7c-0.1-0.1-0.2-0.1-0.2-0.1l-1.2,0
					c-0.1,0-0.1,0-0.1,0.1v0.2c0,1.2,0,2.2,0.1,2.7c0,0.4,0.1,0.6,0.5,0.7c0.2,0,0.5,0,0.6,0c0.1,0,0.2,0.1,0.2,0.1
					c0,0.1-0.1,0.1-0.3,0.1c-0.8,0-1.9,0-2.1,0c-0.3,0-1.1,0-1.6,0c-0.2,0-0.3,0-0.3-0.1c0-0.1,0-0.1,0.2-0.1c0.2,0,0.3,0,0.5,0
					c0.3-0.1,0.3-0.3,0.4-0.7c0.1-0.5,0.1-1.5,0.1-2.7V48.9z M438.5,49.9c0,0.1,0,0.2,0.1,0.2c0.3,0.1,0.7,0.1,1,0.1
					c0.5,0,0.7,0,0.9-0.2c0.4-0.3,0.9-0.8,0.9-1.9c0-1.8-1.2-2.3-2-2.3c-0.3,0-0.6,0-0.8,0c-0.1,0-0.1,0.1-0.1,0.2V49.9z"/>
				<path d="M446.9,54.7c-0.2-0.1-0.3-0.1-0.3-0.4c0-0.7,0.1-1.5,0.1-1.7c0-0.2,0.1-0.3,0.2-0.3c0.1,0,0.1,0.1,0.1,0.2
					c0,0.2,0,0.4,0.1,0.7c0.3,0.9,1.3,1.3,2.1,1.3c1.1,0,1.8-0.7,1.8-1.6c0-0.6-0.1-1.1-1.3-1.8l-0.8-0.5c-1.6-0.9-2.1-1.8-2.1-2.9
					c0-1.6,1.5-2.6,3.3-2.6c0.9,0,1.5,0.1,1.9,0.2c0.1,0,0.2,0.1,0.2,0.2c0,0.2,0,0.5,0,1.5c0,0.3-0.1,0.4-0.2,0.4
					c-0.1,0-0.1-0.1-0.1-0.2c0-0.1-0.1-0.5-0.3-0.8c-0.2-0.2-0.6-0.6-1.5-0.6c-0.9,0-1.8,0.5-1.8,1.4c0,0.6,0.2,1,1.4,1.7l0.5,0.3
					c1.7,1,2.3,1.9,2.3,3.1c0,0.9-0.4,1.7-1.3,2.4c-0.6,0.5-1.5,0.5-2.2,0.5C448.3,55,447.5,55,446.9,54.7z"/>
				<path d="M456.2,48.9c0-1.9,0-2.3,0-2.7c0-0.4-0.2-0.6-0.4-0.7c-0.2,0-0.3-0.1-0.5-0.1c-0.1,0-0.2,0-0.2-0.1
					c0-0.1,0.1-0.1,0.3-0.1c0.5,0,1.4,0,1.8,0c0.3,0,1.2,0,1.7,0c0.2,0,0.3,0,0.3,0.1c0,0.1-0.1,0.1-0.2,0.1s-0.2,0-0.4,0
					c-0.4,0.1-0.5,0.2-0.5,0.7c0,0.4,0,0.8,0,2.7v2.2c0,1.2,0,2.2,0.1,2.8c0,0.3,0.1,0.5,0.5,0.6c0.2,0,0.5,0,0.7,0
					c0.2,0,0.2,0.1,0.2,0.1c0,0.1-0.1,0.1-0.3,0.1c-0.9,0-1.8,0-2.1,0c-0.3,0-1.2,0-1.7,0c-0.2,0-0.3,0-0.3-0.1c0-0.1,0-0.1,0.2-0.1
					c0.2,0,0.3,0,0.5,0c0.3-0.1,0.3-0.2,0.4-0.6c0.1-0.5,0.1-1.5,0.1-2.8V48.9z"/>
				<path d="M464.8,46l-2,0c-0.8,0-1.1,0.1-1.3,0.4c-0.1,0.2-0.2,0.3-0.2,0.4c0,0.1-0.1,0.2-0.2,0.2S461,47,461,46.8
					c0-0.2,0.3-1.4,0.3-1.5c0-0.2,0.1-0.2,0.2-0.2c0.1,0,0.2,0.1,0.6,0.1c0.4,0,0.9,0.1,1.3,0.1h5.4c0.4,0,0.7,0,0.9-0.1
					c0.2,0,0.3-0.1,0.4-0.1c0.1,0,0.1,0.1,0.1,0.3c0,0.3,0,1.2,0,1.5c0,0.1,0,0.2-0.1,0.2c-0.1,0-0.1-0.1-0.1-0.3l0-0.1
					c0-0.3-0.4-0.7-1.6-0.7l-1.7,0v5.2c0,1.2,0,2.2,0.1,2.7c0,0.4,0.1,0.6,0.5,0.7c0.2,0,0.5,0,0.7,0c0.2,0,0.2,0.1,0.2,0.1
					c0,0.1-0.1,0.1-0.3,0.1c-0.9,0-1.8,0-2.1,0c-0.3,0-1.2,0-1.7,0c-0.2,0-0.3,0-0.3-0.1c0-0.1,0-0.1,0.2-0.1c0.2,0,0.4,0,0.5,0
					c0.3-0.1,0.3-0.3,0.4-0.7c0.1-0.5,0.1-1.5,0.1-2.7V46z"/>
				<path d="M474.8,51.6c0-0.7-0.1-1-0.3-1.3c-0.1-0.2-1.9-3-2.4-3.7c-0.3-0.5-0.6-0.8-0.9-0.9c-0.2-0.1-0.4-0.2-0.6-0.2
					c-0.1,0-0.2,0-0.2-0.1s0.1-0.1,0.3-0.1c0.2,0,1.2,0,1.6,0c0.3,0,0.9,0,1.5,0c0.1,0,0.2,0,0.2,0.1c0,0.1-0.1,0.1-0.3,0.2
					c-0.1,0-0.2,0.1-0.2,0.2c0,0.1,0.1,0.3,0.2,0.4c0.2,0.4,2,3.4,2.2,3.7c0.2-0.3,1.8-3,2-3.4c0.1-0.3,0.2-0.5,0.2-0.7
					c0-0.1-0.1-0.2-0.3-0.3c-0.1,0-0.2,0-0.2-0.1c0-0.1,0.1-0.1,0.2-0.1c0.4,0,0.9,0,1.3,0c0.3,0,1.2,0,1.4,0c0.2,0,0.2,0,0.2,0.1
					c0,0.1-0.1,0.1-0.3,0.1c-0.1,0-0.4,0.1-0.6,0.2c-0.3,0.1-0.4,0.3-0.7,0.6c-0.4,0.5-2.3,3.5-2.6,4.1c-0.2,0.5-0.2,0.9-0.2,1.3v1
					c0,0.2,0,0.7,0,1.3c0,0.4,0.2,0.6,0.5,0.7c0.2,0,0.5,0,0.7,0c0.1,0,0.2,0.1,0.2,0.1c0,0.1-0.1,0.1-0.3,0.1c-0.8,0-1.7,0-2.1,0
					c-0.3,0-1.2,0-1.7,0c-0.2,0-0.3,0-0.3-0.1c0-0.1,0.1-0.1,0.2-0.1c0.2,0,0.3,0,0.5,0c0.3-0.1,0.4-0.3,0.4-0.7c0-0.5,0-1.1,0-1.3
					V51.6z"/>
				<path d="M291.8,65.6c0-2.3,0-2.7,0-3.2c0-0.5-0.2-0.8-0.5-0.8c-0.2,0-0.4-0.1-0.5-0.1c-0.1,0-0.2,0-0.2-0.2
					c0-0.1,0.1-0.1,0.4-0.1c0.6,0,1.5,0,1.9,0c0.4,0,1.3,0,1.8,0c0.2,0,0.3,0,0.3,0.1c0,0.1-0.1,0.2-0.2,0.2c-0.2,0-0.3,0-0.5,0
					c-0.4,0.1-0.5,0.3-0.6,0.9c0,0.5,0,0.9,0,3.2v2.6c0,1.5,0,2.6,0.1,3.3c0,0.4,0.1,0.7,0.6,0.7c0.2,0,0.5,0.1,0.8,0.1
					c0.2,0,0.2,0,0.2,0.1c0,0.1-0.1,0.2-0.3,0.2c-1,0-1.9,0-2.3,0c-0.3,0-1.3,0-1.9,0c-0.2,0-0.3,0-0.3-0.2c0-0.1,0.1-0.1,0.2-0.1
					c0.2,0,0.4,0,0.5-0.1c0.3-0.1,0.4-0.3,0.4-0.8c0.1-0.6,0.1-1.8,0.1-3.3V65.6z"/>
				<path d="M298.7,66.7c0-1.9,0-2.3,0-2.7c0-0.4-0.1-0.6-0.6-0.7c-0.1,0-0.3,0-0.5,0c-0.1,0-0.2,0-0.2-0.1s0.1-0.1,0.3-0.1
					c0.7,0,1.5,0,1.8,0c0.5,0,1.6,0,2.1,0c0.8,0,1.8,0.1,2.5,0.5c0.4,0.3,0.9,0.9,0.9,1.8c0,0.9-0.5,1.8-1.8,2.8
					c1.2,1.4,2.1,2.6,2.9,3.4c0.7,0.7,1.2,0.8,1.4,0.8c0.1,0,0.2,0,0.3,0s0.2,0.1,0.2,0.1c0,0.1-0.1,0.1-0.3,0.1h-1.3
					c-0.7,0-1.1-0.1-1.4-0.3c-0.6-0.3-1.1-0.9-1.8-1.9c-0.5-0.7-1.1-1.5-1.2-1.7c-0.1-0.1-0.1-0.1-0.2-0.1l-1.2,0
					c-0.1,0-0.1,0-0.1,0.1v0.2c0,1.2,0,2.2,0.1,2.7c0,0.4,0.1,0.6,0.5,0.7c0.2,0,0.5,0,0.6,0c0.1,0,0.2,0.1,0.2,0.1
					c0,0.1-0.1,0.1-0.3,0.1c-0.8,0-1.9,0-2.1,0c-0.3,0-1.1,0-1.6,0c-0.2,0-0.3,0-0.3-0.1c0-0.1,0-0.1,0.2-0.1c0.2,0,0.3,0,0.5,0
					c0.3-0.1,0.3-0.3,0.4-0.7c0.1-0.5,0.1-1.5,0.1-2.7V66.7z M300.4,67.7c0,0.1,0,0.2,0.1,0.2c0.3,0.1,0.7,0.1,1,0.1
					c0.5,0,0.7,0,0.9-0.2c0.4-0.3,0.9-0.8,0.9-1.9c0-1.8-1.2-2.3-2-2.3c-0.3,0-0.6,0-0.8,0c-0.1,0-0.1,0.1-0.1,0.2V67.7z"/>
				<path d="M308.1,64.2c-0.3-0.7-0.5-0.8-1-0.9c-0.2,0-0.4,0-0.5,0c-0.1,0-0.1-0.1-0.1-0.1c0-0.1,0.1-0.1,0.3-0.1
					c0.7,0,1.5,0,1.9,0c0.3,0,1,0,1.7,0c0.2,0,0.3,0,0.3,0.1s-0.1,0.1-0.2,0.1c-0.2,0-0.4,0-0.5,0.1c-0.1,0.1-0.1,0.1-0.1,0.3
					c0,0.2,0.1,0.5,0.3,1l2.2,5.7h0c0.6-1.3,2.3-5.4,2.6-6.3c0.1-0.2,0.1-0.4,0.1-0.5c0-0.1-0.1-0.2-0.2-0.2c-0.2,0-0.4-0.1-0.5-0.1
					c-0.1,0-0.2,0-0.2-0.1s0.1-0.1,0.4-0.1c0.7,0,1.2,0,1.4,0c0.2,0,0.8,0,1.2,0c0.2,0,0.3,0,0.3,0.1s-0.1,0.1-0.2,0.1
					c-0.1,0-0.4,0-0.6,0.2c-0.2,0.1-0.3,0.3-0.7,1.1c-0.5,1.2-0.9,1.9-1.6,3.4c-0.8,1.9-1.5,3.3-1.8,3.9c-0.3,0.7-0.4,0.9-0.6,0.9
					c-0.2,0-0.3-0.2-0.5-0.8L308.1,64.2z"/>
				<path d="M319.7,66.7c0-1.9,0-2.3,0-2.7c0-0.4-0.2-0.6-0.5-0.7c-0.1,0-0.3-0.1-0.5-0.1c-0.1,0-0.2,0-0.2-0.1
					c0-0.1,0.1-0.1,0.3-0.1c0.5,0,1.4,0,1.8,0c0.3,0,1.2,0,1.7,0c0.2,0,0.3,0,0.3,0.1c0,0.1-0.1,0.1-0.2,0.1c-0.1,0-0.2,0-0.4,0
					c-0.4,0.1-0.5,0.2-0.5,0.7c0,0.4,0,0.8,0,2.7v2.2c0,1.2,0,2.2,0.1,2.8c0,0.3,0.1,0.5,0.5,0.6c0.2,0,0.5,0,0.7,0
					c0.1,0,0.2,0.1,0.2,0.1c0,0.1-0.1,0.1-0.3,0.1c-0.9,0-1.8,0-2.1,0c-0.3,0-1.2,0-1.7,0c-0.2,0-0.3,0-0.3-0.1c0-0.1,0-0.1,0.2-0.1
					c0.2,0,0.3,0,0.5,0c0.3-0.1,0.3-0.2,0.4-0.6c0.1-0.5,0.1-1.5,0.1-2.8V66.7z"/>
				<path d="M327.4,70.9c0,1,0.2,1.3,0.5,1.4c0.2,0.1,0.5,0.1,0.7,0.1c0.1,0,0.2,0.1,0.2,0.1c0,0.1-0.1,0.1-0.3,0.1
					c-0.9,0-1.5,0-1.7,0c-0.1,0-0.8,0-1.4,0c-0.2,0-0.3,0-0.3-0.1c0-0.1,0.1-0.1,0.2-0.1c0.2,0,0.4,0,0.6-0.1
					c0.3-0.1,0.4-0.4,0.4-1.5l0.1-7.6c0-0.3,0.1-0.4,0.2-0.4c0.2,0,0.3,0.2,0.6,0.4c0.2,0.2,2.1,2.2,4.1,4.1
					c0.9,0.9,2.7,2.7,2.9,2.9h0.1l-0.1-5.7c0-0.8-0.1-1-0.4-1.1c-0.2-0.1-0.5-0.1-0.7-0.1c-0.2,0-0.2-0.1-0.2-0.1
					c0-0.1,0.1-0.1,0.3-0.1c0.7,0,1.4,0,1.7,0c0.1,0,0.6,0,1.3,0c0.2,0,0.3,0,0.3,0.1c0,0.1-0.1,0.1-0.2,0.1c-0.1,0-0.2,0-0.4,0
					c-0.4,0.1-0.5,0.3-0.5,1l-0.1,8c0,0.3-0.1,0.4-0.2,0.4c-0.2,0-0.4-0.1-0.5-0.3c-0.8-0.8-2.5-2.3-3.9-3.7
					c-1.4-1.4-2.8-2.9-3.1-3.1h0L327.4,70.9z"/>
				<path d="M347.8,71.8c0,0.3,0,0.4-0.2,0.4c-0.9,0.4-2.2,0.6-3.2,0.6c-3.2,0-6.1-1.5-6.1-5c0-2,1.1-3.5,2.3-4.2
					c1.3-0.7,2.4-0.8,3.6-0.8c0.9,0,2.1,0.1,2.3,0.2c0.3,0,0.7,0.1,1,0.1c0.1,0,0.2,0.1,0.2,0.2c0,0.1-0.1,0.5-0.1,2.1
					c0,0.2-0.1,0.3-0.2,0.3c-0.1,0-0.1-0.1-0.1-0.2c0-0.3-0.1-0.7-0.4-1c-0.4-0.4-1.4-1-2.9-1c-0.7,0-1.6,0-2.5,0.8
					c-0.7,0.6-1.2,1.5-1.2,3.1c0,2.7,1.8,4.7,4.6,4.7c0.3,0,0.6,0,0.9-0.1c0.2-0.1,0.3-0.2,0.3-0.5v-1.2c0-0.6,0-1.1,0-1.5
					c0-0.4-0.1-0.6-0.6-0.7c-0.1,0-0.3,0-0.5,0c-0.1,0-0.2-0.1-0.2-0.1c0-0.1,0.1-0.1,0.3-0.1c0.7,0,1.6,0,2,0c0.4,0,1.1,0,1.5,0
					c0.2,0,0.3,0,0.3,0.1c0,0.1-0.1,0.1-0.2,0.1c-0.1,0-0.2,0-0.4,0c-0.4,0.1-0.5,0.2-0.5,0.7c0,0.4,0,0.9,0,1.5V71.8z"/>
				<path d="M358.4,61.5c0-0.3,0.1-0.4,0.3-0.4c0.1,0,0.2,0.1,0.4,0.5l4.1,8.3l4.1-8.4c0.1-0.2,0.2-0.4,0.3-0.4
					c0.1,0,0.2,0.2,0.3,0.5l1.4,9.2c0.1,0.9,0.3,1.4,0.7,1.5c0.4,0.1,0.7,0.1,0.9,0.1c0.1,0,0.2,0,0.2,0.1c0,0.1-0.2,0.2-0.4,0.2
					c-0.4,0-2.4,0-3-0.1c-0.3,0-0.4-0.1-0.4-0.2c0-0.1,0.1-0.1,0.2-0.2c0.1,0,0.1-0.2,0.1-0.6l-0.9-6.5h-0.1l-3.3,6.7
					c-0.3,0.7-0.4,0.8-0.6,0.8s-0.3-0.3-0.5-0.8c-0.4-0.7-1.5-3-1.7-3.4c-0.1-0.3-1-2.1-1.6-3.2h-0.1l-0.8,5.8c0,0.3,0,0.5,0,0.7
					c0,0.3,0.2,0.4,0.5,0.5c0.3,0.1,0.5,0.1,0.6,0.1c0.1,0,0.2,0,0.2,0.1c0,0.1-0.1,0.2-0.4,0.2c-0.6,0-1.3,0-1.6,0
					c-0.3,0-1,0-1.5,0c-0.1,0-0.3,0-0.3-0.2c0-0.1,0.1-0.1,0.2-0.1c0.1,0,0.2,0,0.5,0c0.4-0.1,0.5-0.7,0.6-1.2L358.4,61.5z"/>
				<path d="M373.9,66.7c0-1.9,0-2.3,0-2.7c0-0.4-0.1-0.6-0.6-0.7c-0.1,0-0.3,0-0.5,0c-0.1,0-0.2,0-0.2-0.1s0.1-0.1,0.3-0.1
					c0.7,0,1.5,0,1.9,0c0.4,0,3.3,0,3.6,0c0.2,0,0.4-0.1,0.6-0.1c0.1,0,0.1-0.1,0.2-0.1c0.1,0,0.1,0.1,0.1,0.1
					c0,0.1-0.1,0.2-0.1,0.8c0,0.1,0,0.7-0.1,0.8c0,0.1,0,0.2-0.1,0.2c-0.1,0-0.1-0.1-0.1-0.2c0-0.1,0-0.3-0.1-0.5
					c-0.1-0.2-0.2-0.4-0.9-0.5c-0.2,0-1.8-0.1-2.1-0.1c-0.1,0-0.1,0-0.1,0.1V67c0,0.1,0,0.1,0.1,0.1c0.3,0,2,0,2.3,0
					c0.3,0,0.5-0.1,0.6-0.2c0.1-0.1,0.2-0.2,0.2-0.2c0.1,0,0.1,0.1,0.1,0.1s0,0.3-0.1,0.9c0,0.3-0.1,0.8-0.1,0.9
					c0,0.1,0,0.3-0.1,0.3c-0.1,0-0.1,0-0.1-0.1c0-0.1,0-0.3,0-0.5c-0.1-0.3-0.2-0.5-0.7-0.5c-0.2,0-1.7-0.1-2.1-0.1
					c-0.1,0-0.1,0.1-0.1,0.1v1c0,0.4,0,1.5,0,1.9c0,0.9,0.4,1.1,1.8,1.1c0.3,0,0.9,0,1.2-0.2c0.3-0.1,0.5-0.4,0.6-0.9
					c0-0.1,0.1-0.2,0.1-0.2c0.1,0,0.1,0.2,0.1,0.3c0,0.3-0.1,1.2-0.2,1.4c-0.1,0.3-0.2,0.3-0.7,0.3c-1,0-1.8,0-2.4,0
					c-0.6,0-1.1,0-1.5,0c-0.2,0-0.4,0-0.8,0c-0.3,0-0.6,0-0.9,0c-0.2,0-0.3,0-0.3-0.1c0-0.1,0-0.1,0.2-0.1c0.2,0,0.3,0,0.5,0
					c0.3-0.1,0.3-0.3,0.4-0.7c0.1-0.5,0.1-1.5,0.1-2.7V66.7z"/>
				<path d="M383,66.7c0-1.9,0-2.3,0-2.7c0-0.4-0.1-0.6-0.6-0.7c-0.1,0-0.3,0-0.5,0c-0.1,0-0.2,0-0.2-0.1s0.1-0.1,0.3-0.1
					c0.7,0,1.5,0,1.9,0c0.4,0,1.4,0,2.1,0c1.6,0,3.9,0,5.3,1.5c0.7,0.7,1.2,1.7,1.2,3.2c0,1.6-0.7,2.8-1.4,3.6
					c-0.6,0.6-2,1.5-4.4,1.5c-0.5,0-1,0-1.6-0.1c-0.5,0-1-0.1-1.3-0.1c-0.2,0-0.4,0-0.8,0c-0.3,0-0.6,0-0.9,0c-0.2,0-0.3,0-0.3-0.1
					c0-0.1,0-0.1,0.2-0.1c0.2,0,0.3,0,0.5,0c0.3-0.1,0.3-0.3,0.4-0.7c0.1-0.5,0.1-1.5,0.1-2.7V66.7z M384.8,68.1c0,1.4,0,2.3,0,2.6
					c0,0.3,0,0.8,0.1,0.9c0.2,0.2,0.7,0.5,1.7,0.5c1.2,0,2.1-0.2,2.9-0.9c0.9-0.7,1.1-1.8,1.1-3.2c0-1.6-0.6-2.7-1.2-3.2
					c-1.2-1.1-2.7-1.2-3.7-1.2c-0.3,0-0.7,0-0.8,0.1c-0.1,0-0.2,0.1-0.2,0.3c0,0.4,0,1.5,0,2.5V68.1z"/>
				<path d="M396.1,66.7c0-1.9,0-2.3,0-2.7c0-0.4-0.2-0.6-0.5-0.7c-0.1,0-0.3-0.1-0.5-0.1c-0.1,0-0.2,0-0.2-0.1
					c0-0.1,0.1-0.1,0.3-0.1c0.5,0,1.4,0,1.8,0c0.3,0,1.2,0,1.7,0c0.2,0,0.3,0,0.3,0.1c0,0.1-0.1,0.1-0.2,0.1c-0.1,0-0.2,0-0.4,0
					c-0.4,0.1-0.5,0.2-0.5,0.7c0,0.4,0,0.8,0,2.7v2.2c0,1.2,0,2.2,0.1,2.8c0,0.3,0.1,0.5,0.5,0.6c0.2,0,0.5,0,0.7,0
					c0.1,0,0.2,0.1,0.2,0.1c0,0.1-0.1,0.1-0.3,0.1c-0.9,0-1.8,0-2.1,0c-0.3,0-1.2,0-1.7,0c-0.2,0-0.3,0-0.3-0.1c0-0.1,0-0.1,0.2-0.1
					c0.2,0,0.3,0,0.5,0c0.3-0.1,0.3-0.2,0.4-0.6c0.1-0.5,0.1-1.5,0.1-2.8V66.7z"/>
				<path d="M403,71.4c-1.3-1.1-1.7-2.5-1.7-3.8c0-0.9,0.3-2.4,1.5-3.5c1-0.8,2.2-1.3,4.2-1.3c0.8,0,1.3,0.1,1.9,0.1
					c0.5,0.1,0.9,0.2,1.3,0.2c0.2,0,0.2,0.1,0.2,0.2c0,0.1,0,0.3-0.1,0.7c0,0.4,0,1.1,0,1.4c0,0.2-0.1,0.3-0.2,0.3
					c-0.1,0-0.1-0.1-0.1-0.3c0-0.4-0.2-0.9-0.5-1.2c-0.4-0.4-1.3-0.8-2.5-0.8c-1.2,0-1.9,0.2-2.5,0.7c-1,0.8-1.2,2.1-1.2,3.3
					c0,3,2.3,4.5,4.1,4.5c1.2,0,1.8-0.1,2.3-0.7c0.2-0.3,0.4-0.6,0.5-0.9c0-0.2,0.1-0.3,0.2-0.3c0.1,0,0.1,0.1,0.1,0.2
					c0,0.1-0.1,1.3-0.3,1.7c-0.1,0.2-0.1,0.3-0.3,0.4c-0.5,0.2-1.5,0.3-2.4,0.3C405.7,72.8,404.2,72.4,403,71.4z"/>
				<path d="M414.7,69.4c-0.1,0-0.1,0-0.1,0.1l-0.7,1.7c-0.1,0.3-0.2,0.6-0.2,0.8c0,0.2,0.1,0.4,0.5,0.4h0.2c0.2,0,0.2,0.1,0.2,0.1
					c0,0.1-0.1,0.1-0.2,0.1c-0.4,0-1.1,0-1.5,0c-0.1,0-0.8,0-1.5,0c-0.2,0-0.2,0-0.2-0.1c0-0.1,0-0.1,0.2-0.1c0.1,0,0.3,0,0.4,0
					c0.6-0.1,0.8-0.5,1.1-1.1l3.4-8c0.1-0.4,0.3-0.5,0.4-0.5c0.2,0,0.3,0.1,0.4,0.4c0.3,0.7,2.5,5.9,3.4,7.8
					c0.5,1.2,0.9,1.3,1.1,1.4c0.2,0,0.3,0,0.5,0c0.1,0,0.2,0,0.2,0.1c0,0.1-0.1,0.1-0.6,0.1c-0.5,0-1.4,0-2.5,0
					c-0.2,0-0.4,0-0.4-0.1c0-0.1,0-0.1,0.2-0.1c0.1,0,0.2-0.1,0.1-0.3l-1-2.6c0-0.1-0.1-0.1-0.1-0.1H414.7z M417.5,68.7
					C417.5,68.7,417.5,68.7,417.5,68.7l-1.2-3.3c0,0,0-0.1-0.1-0.1c0,0-0.1,0.1-0.1,0.1l-1.3,3.2c0,0.1,0,0.1,0,0.1H417.5z"/>
				<path d="M426.1,68.9c0,1.6,0,2.4,0.3,2.7c0.2,0.2,0.7,0.3,1.8,0.3c0.7,0,1.2,0,1.5-0.4c0.2-0.2,0.3-0.5,0.3-0.8
					c0-0.1,0-0.2,0.2-0.2c0.1,0,0.1,0.1,0.1,0.3c0,0.2-0.1,1.1-0.2,1.5c-0.1,0.3-0.2,0.3-0.8,0.3c-0.9,0-1.7,0-2.4,0
					c-0.7,0-1.2,0-1.8,0c-0.2,0-0.4,0-0.8,0c-0.3,0-0.6,0-0.9,0c-0.2,0-0.3,0-0.3-0.1c0-0.1,0-0.1,0.2-0.1c0.2,0,0.3,0,0.5,0
					c0.3-0.1,0.3-0.3,0.4-0.7c0.1-0.5,0.1-1.5,0.1-2.7v-2.2c0-1.9,0-2.3,0-2.7c0-0.4-0.1-0.6-0.6-0.7c-0.1,0-0.3,0-0.4,0
					c-0.2,0-0.2,0-0.2-0.1s0.1-0.1,0.3-0.1c0.6,0,1.5,0,1.8,0c0.3,0,1.4,0,1.9,0c0.2,0,0.3,0,0.3,0.1s-0.1,0.1-0.2,0.1
					c-0.2,0-0.4,0-0.5,0c-0.4,0.1-0.5,0.2-0.5,0.7c0,0.4,0,0.8,0,2.7V68.9z"/>
				<path d="M439.1,71.2c-1.5-1.3-1.9-3-1.9-4.4c0-1,0.3-2.8,1.8-4.1c1.1-1,2.5-1.6,4.7-1.6c0.9,0,1.5,0.1,2.2,0.2
					c0.6,0.1,1.1,0.2,1.5,0.3c0.2,0,0.2,0.1,0.2,0.2c0,0.1,0,0.3-0.1,0.8c0,0.5,0,1.3,0,1.6c0,0.2,0,0.3-0.2,0.3
					c-0.1,0-0.2-0.1-0.2-0.3c0-0.5-0.2-1-0.6-1.4c-0.5-0.5-1.7-0.9-3-0.9c-1.3,0-2.2,0.3-2.8,0.9c-1.1,1-1.4,2.4-1.4,3.9
					c0,3.6,2.7,5.3,4.7,5.3c1.3,0,2.1-0.1,2.7-0.8c0.3-0.3,0.5-0.7,0.5-1c0-0.2,0.1-0.3,0.2-0.3c0.1,0,0.1,0.1,0.1,0.2
					c0,0.2-0.2,1.5-0.3,2c-0.1,0.3-0.1,0.3-0.4,0.4c-0.6,0.2-1.7,0.3-2.7,0.3C442.2,72.8,440.5,72.4,439.1,71.2z"/>
				<path d="M451.3,66.7c0-1.9,0-2.3,0-2.7c0-0.4-0.1-0.6-0.6-0.7c-0.1,0-0.3,0-0.5,0c-0.1,0-0.2,0-0.2-0.1s0.1-0.1,0.3-0.1
					c0.7,0,1.5,0,1.9,0c0.4,0,3.3,0,3.6,0c0.2,0,0.5-0.1,0.6-0.1c0.1,0,0.2-0.1,0.2-0.1c0.1,0,0.1,0.1,0.1,0.1
					c0,0.1-0.1,0.2-0.1,0.8c0,0.1,0,0.7-0.1,0.8c0,0.1,0,0.2-0.2,0.2c-0.1,0-0.1-0.1-0.1-0.2c0-0.1,0-0.3-0.1-0.5
					c-0.1-0.2-0.2-0.4-0.9-0.5c-0.2,0-1.8-0.1-2.1-0.1c-0.1,0-0.1,0-0.1,0.1V67c0,0.1,0,0.1,0.1,0.1c0.3,0,2,0,2.3,0
					c0.3,0,0.5-0.1,0.6-0.2c0.1-0.1,0.1-0.2,0.2-0.2c0.1,0,0.1,0.1,0.1,0.1s0,0.3-0.1,0.9c0,0.3-0.1,0.8-0.1,0.9
					c0,0.1,0,0.3-0.1,0.3c-0.1,0-0.1,0-0.1-0.1c0-0.1,0-0.3,0-0.5c-0.1-0.3-0.2-0.5-0.7-0.5c-0.2,0-1.7-0.1-2.1-0.1
					c-0.1,0-0.1,0.1-0.1,0.1v1c0,0.4,0,1.5,0,1.9c0,0.9,0.4,1.1,1.8,1.1c0.3,0,0.9,0,1.2-0.2c0.3-0.1,0.5-0.4,0.6-0.9
					c0-0.1,0.1-0.2,0.2-0.2c0.1,0,0.1,0.2,0.1,0.3c0,0.3-0.1,1.2-0.2,1.4c-0.1,0.3-0.2,0.3-0.7,0.3c-1,0-1.8,0-2.4,0
					c-0.6,0-1.1,0-1.5,0c-0.2,0-0.4,0-0.8,0c-0.3,0-0.6,0-0.9,0c-0.2,0-0.3,0-0.3-0.1c0-0.1,0-0.1,0.2-0.1c0.2,0,0.3,0,0.5,0
					c0.3-0.1,0.3-0.3,0.4-0.7c0.1-0.5,0.1-1.5,0.1-2.7V66.7z"/>
				<path d="M461.3,70.9c0,1,0.2,1.3,0.4,1.4c0.2,0.1,0.5,0.1,0.7,0.1c0.1,0,0.2,0.1,0.2,0.1c0,0.1-0.1,0.1-0.3,0.1
					c-0.9,0-1.5,0-1.7,0c-0.1,0-0.8,0-1.4,0c-0.2,0-0.3,0-0.3-0.1c0-0.1,0.1-0.1,0.2-0.1c0.2,0,0.4,0,0.6-0.1
					c0.3-0.1,0.4-0.4,0.4-1.5l0.1-7.6c0-0.3,0.1-0.4,0.2-0.4c0.2,0,0.3,0.2,0.6,0.4c0.2,0.2,2.1,2.2,4.1,4.1
					c0.9,0.9,2.7,2.7,2.8,2.9h0.1l-0.1-5.7c0-0.8-0.1-1-0.5-1.1c-0.2-0.1-0.5-0.1-0.7-0.1c-0.2,0-0.2-0.1-0.2-0.1
					c0-0.1,0.1-0.1,0.3-0.1c0.7,0,1.4,0,1.7,0c0.2,0,0.6,0,1.3,0c0.2,0,0.3,0,0.3,0.1c0,0.1-0.1,0.1-0.2,0.1c-0.1,0-0.2,0-0.4,0
					c-0.4,0.1-0.5,0.3-0.5,1l-0.2,8c0,0.3-0.1,0.4-0.2,0.4c-0.2,0-0.4-0.1-0.5-0.3c-0.8-0.8-2.5-2.3-3.9-3.7
					c-1.4-1.4-2.8-2.9-3.1-3.1h0L461.3,70.9z"/>
				<path d="M475.6,63.8l-2,0c-0.8,0-1.1,0.1-1.3,0.4c-0.1,0.2-0.2,0.3-0.2,0.4c0,0.1-0.1,0.2-0.2,0.2s-0.1-0.1-0.1-0.2
					c0-0.2,0.3-1.4,0.3-1.5c0-0.2,0.1-0.2,0.2-0.2c0.1,0,0.2,0.1,0.6,0.1c0.4,0,0.9,0.1,1.3,0.1h5.4c0.4,0,0.7,0,0.9-0.1
					c0.2,0,0.3-0.1,0.4-0.1c0.1,0,0.1,0.1,0.1,0.3c0,0.3,0,1.2,0,1.5c0,0.1,0,0.2-0.1,0.2c-0.1,0-0.1-0.1-0.1-0.3l0-0.1
					c0-0.3-0.4-0.7-1.6-0.7l-1.7,0v5.2c0,1.2,0,2.2,0.1,2.7c0,0.4,0.1,0.6,0.5,0.7c0.2,0,0.5,0,0.7,0c0.2,0,0.2,0.1,0.2,0.1
					c0,0.1-0.1,0.1-0.3,0.1c-0.9,0-1.8,0-2.1,0c-0.3,0-1.2,0-1.7,0c-0.2,0-0.3,0-0.3-0.1c0-0.1,0-0.1,0.2-0.1c0.2,0,0.4,0,0.5,0
					c0.3-0.1,0.3-0.3,0.4-0.7c0.1-0.5,0.1-1.5,0.1-2.7V63.8z"/>
				<path d="M484,66.7c0-1.9,0-2.3,0-2.7c0-0.4-0.1-0.6-0.6-0.7c-0.1,0-0.3,0-0.5,0c-0.1,0-0.2,0-0.2-0.1s0.1-0.1,0.3-0.1
					c0.7,0,1.5,0,1.9,0c0.4,0,3.3,0,3.6,0c0.2,0,0.5-0.1,0.6-0.1c0.1,0,0.2-0.1,0.2-0.1c0.1,0,0.1,0.1,0.1,0.1
					c0,0.1-0.1,0.2-0.1,0.8c0,0.1,0,0.7-0.1,0.8c0,0.1,0,0.2-0.2,0.2c-0.1,0-0.1-0.1-0.1-0.2c0-0.1,0-0.3-0.1-0.5
					c-0.1-0.2-0.2-0.4-0.9-0.5c-0.2,0-1.8-0.1-2.1-0.1c-0.1,0-0.1,0-0.1,0.1V67c0,0.1,0,0.1,0.1,0.1c0.3,0,2,0,2.3,0
					c0.3,0,0.5-0.1,0.6-0.2c0.1-0.1,0.1-0.2,0.2-0.2c0.1,0,0.1,0.1,0.1,0.1s0,0.3-0.1,0.9c0,0.3-0.1,0.8-0.1,0.9
					c0,0.1,0,0.3-0.1,0.3c-0.1,0-0.1,0-0.1-0.1c0-0.1,0-0.3,0-0.5c-0.1-0.3-0.2-0.5-0.7-0.5c-0.2,0-1.7-0.1-2.1-0.1
					c-0.1,0-0.1,0.1-0.1,0.1v1c0,0.4,0,1.5,0,1.9c0,0.9,0.4,1.1,1.8,1.1c0.3,0,0.9,0,1.2-0.2c0.3-0.1,0.5-0.4,0.6-0.9
					c0-0.1,0.1-0.2,0.2-0.2c0.1,0,0.1,0.2,0.1,0.3c0,0.3-0.1,1.2-0.2,1.4c-0.1,0.3-0.2,0.3-0.7,0.3c-1,0-1.8,0-2.4,0
					c-0.6,0-1.1,0-1.5,0c-0.2,0-0.4,0-0.8,0c-0.3,0-0.6,0-0.9,0c-0.2,0-0.3,0-0.3-0.1c0-0.1,0-0.1,0.2-0.1c0.2,0,0.3,0,0.5,0
					c0.3-0.1,0.3-0.3,0.4-0.7c0.1-0.5,0.1-1.5,0.1-2.7V66.7z"/>
				<path d="M493.1,66.7c0-1.9,0-2.3,0-2.7c0-0.4-0.1-0.6-0.6-0.7c-0.1,0-0.3,0-0.5,0c-0.1,0-0.2,0-0.2-0.1s0.1-0.1,0.3-0.1
					c0.7,0,1.5,0,1.8,0c0.5,0,1.7,0,2.1,0c0.8,0,1.8,0.1,2.5,0.5c0.4,0.3,0.9,0.9,0.9,1.8c0,0.9-0.5,1.8-1.8,2.8
					c1.2,1.4,2.1,2.6,2.9,3.4c0.7,0.7,1.2,0.8,1.4,0.8c0.1,0,0.2,0,0.3,0c0.1,0,0.2,0.1,0.2,0.1c0,0.1-0.1,0.1-0.3,0.1h-1.3
					c-0.7,0-1.1-0.1-1.4-0.3c-0.6-0.3-1.1-0.9-1.8-1.9c-0.5-0.7-1.1-1.5-1.2-1.7c-0.1-0.1-0.2-0.1-0.2-0.1l-1.2,0
					c-0.1,0-0.1,0-0.1,0.1v0.2c0,1.2,0,2.2,0.1,2.7c0,0.4,0.1,0.6,0.5,0.7c0.2,0,0.5,0,0.6,0c0.1,0,0.2,0.1,0.2,0.1
					c0,0.1-0.1,0.1-0.3,0.1c-0.8,0-1.9,0-2.1,0c-0.3,0-1.1,0-1.6,0c-0.2,0-0.3,0-0.3-0.1c0-0.1,0-0.1,0.2-0.1c0.2,0,0.3,0,0.5,0
					c0.3-0.1,0.3-0.3,0.4-0.7c0.1-0.5,0.1-1.5,0.1-2.7V66.7z M494.8,67.7c0,0.1,0,0.2,0.1,0.2c0.3,0.1,0.7,0.1,1,0.1
					c0.5,0,0.7,0,0.9-0.2c0.4-0.3,0.9-0.8,0.9-1.9c0-1.8-1.2-2.3-2-2.3c-0.3,0-0.6,0-0.8,0c-0.1,0-0.1,0.1-0.1,0.2V67.7z"/>
			</g>
			<path id="Columbia_Trademark_21_" d="M103.4,66.6c-0.3,0-0.3,0.1-0.4,0.7c-0.1,0.6-0.6,1.5-1.1,2.1c-1.3,1.5-3.1,1.8-6,1.8
				c-4.4,0-10.2-3.8-10.2-11.6c0-3.2,0.6-6.2,3-8.4c1.4-1.3,3.3-2,6.1-2c3,0,5.5,0.9,6.6,2c0.8,0.8,1.2,2,1.3,3
				c0,0.5,0.1,0.7,0.3,0.7c0.3,0,0.4-0.3,0.4-0.7c0.1-0.7,0-2.4,0.1-3.5c0.1-1.1,0.2-1.5,0.2-1.8c0-0.2-0.1-0.4-0.5-0.4
				c-1-0.1-2-0.4-3.3-0.6c-1.5-0.2-2.7-0.3-4.7-0.3c-4.8,0-7.9,1.3-10.3,3.4c-3.1,2.9-3.8,6.7-3.8,8.9c0,3.2,0.8,6.8,4,9.6
				c3,2.6,6.7,3.5,11.1,3.5c2.1,0,4.6-0.2,5.8-0.7c0.6-0.2,0.7-0.4,0.8-0.9c0.3-1.1,0.7-3.9,0.7-4.3
				C103.7,66.9,103.6,66.6,103.4,66.6z M119,51.7c-8.2,0-11.2,6-11.2,10.7c0,4.8,3.2,10.7,11,10.7c6.9,0,11.3-4.9,11.3-11.2
				C130,55.7,125.8,51.7,119,51.7z M119.9,71.7c-5.2,0-8.3-4.5-8.3-10.1c0-6.8,3.6-8.5,6.7-8.5c4.5,0,8,3.8,8,9.9
				C126.2,70.7,121.8,71.7,119.9,71.7z M171.7,52.1c-1.1,0-2.8,0.1-3.1,0.1c0,0-1.7-0.1-3.1-0.1c-0.4,0-0.6,0.1-0.6,0.2
				c0,0.2,0.2,0.2,0.5,0.2c0.3,0,0.8,0,1,0.1c0.9,0.2,1.1,0.6,1.2,1.6c0.1,0.9,0.1,1.6,0.1,5.8v3.4c0,2.8-0.1,5.3-1.6,6.7
				c-1.1,1.1-2.6,1.5-3.8,1.5c-0.9,0-2.2-0.1-3.4-1.1c-1.3-1.1-2.1-2.7-2.1-6.7V60c0-4.1,0-4.9,0.1-5.8c0.1-1,0.3-1.4,1-1.6
				c0.3-0.1,0.5-0.1,0.8-0.1c0.3,0,0.4-0.1,0.4-0.2c0-0.2-0.2-0.2-0.6-0.2c-1,0-2.7,0.1-3.3,0.1c-0.8,0-2.5-0.1-4-0.1
				c-0.4,0-0.6,0.1-0.6,0.2c0,0.2,0.2,0.2,0.5,0.2c0.4,0,0.8,0,1.1,0.1c0.9,0.2,1.1,0.6,1.2,1.6c0.1,0.9,0.1,1.6,0.1,5.8v4
				c0,3.9,1,6,2.4,7.2c2,1.8,4.6,1.9,6,1.9c1.8,0,3.7-0.3,5.7-2c2.3-2,2.6-5.2,2.6-8.2V60c0-4.1,0-4.9,0.1-5.8c0.1-1,0.3-1.4,1-1.6
				c0.3-0.1,0.5-0.1,0.8-0.1c0.3,0,0.5-0.1,0.5-0.2C172.3,52.1,172.1,52.1,171.7,52.1z M232.3,72.2c-0.4,0-1-0.1-1.4-0.1
				c-0.8-0.1-1-0.6-1.1-1.3c-0.1-1.2-0.1-3.3-0.1-6V60c0-4.1,0-4.9,0.1-5.8c0.1-1,0.3-1.4,1-1.6c0.3-0.1,0.5-0.1,0.8-0.1
				c0.3,0,0.4-0.1,0.4-0.3c0-0.2-0.2-0.2-0.6-0.2c-1,0-2.6,0.1-3.3,0.1c-0.8,0-2.5-0.1-3.5-0.1c-0.4,0-0.7,0.1-0.7,0.2
				c0,0.2,0.2,0.3,0.4,0.3c0.3,0,0.7,0,1,0.1c0.6,0.1,0.9,0.6,0.9,1.5c0.1,0.9,0.1,1.6,0.1,5.8v4.8c0,2.6,0,4.8-0.1,5.9
				c-0.1,0.8-0.2,1.2-0.8,1.4c-0.2,0.1-0.6,0.1-1,0.1c-0.3,0-0.4,0.1-0.4,0.2c0,0.2,0.2,0.3,0.5,0.3c1.1,0,2.8-0.1,3.4-0.1
				c0.7,0,2.4,0.1,4.2,0.1c0.3,0,0.5-0.1,0.5-0.3C232.8,72.2,232.6,72.2,232.3,72.2z M147.8,68.4c-0.2,0-0.3,0.2-0.3,0.4
				c-0.1,0.5-0.4,1.3-0.7,1.6c-0.7,0.7-1.7,0.8-3.2,0.8c-2.1,0-2.8-0.2-3.3-0.6c-0.6-0.5-0.6-2.4-0.6-5.8V60c0-4.1,0-4.9,0.1-5.8
				c0.1-1,0.3-1.4,1-1.5c0.3-0.1,0.8-0.1,1.1-0.1c0.3,0,0.5-0.1,0.5-0.2c0-0.2-0.2-0.2-0.6-0.2c-1.1,0-3,0.1-3.7,0.1
				c-0.7,0-2.4-0.1-3.7-0.1c-0.4,0-0.6,0.1-0.6,0.2c0,0.2,0.2,0.2,0.5,0.2c0.4,0,0.7,0,0.9,0.1c0.9,0.2,1.1,0.6,1.2,1.5
				c0.1,0.9,0.1,1.6,0.1,5.8v4.8c0,2.5,0,4.7-0.1,5.8c-0.1,0.8-0.2,1.4-0.8,1.5c-0.2,0.1-0.6,0.1-1,0.1c-0.3,0-0.4,0.1-0.4,0.2
				c0,0.2,0.2,0.3,0.5,0.3c1.1,0,2.8-0.1,3.4-0.1c2.2,0,4,0.2,7.9,0.2c1.4,0,1.5-0.1,1.7-0.7c0.2-0.8,0.4-2.8,0.4-3.1
				C148,68.5,148,68.4,147.8,68.4z M215.1,60.9c1.5-1.2,2.8-2.5,2.8-4.8c0-1.4-0.9-4.1-5.8-4.1c-0.9,0-2,0.1-3.3,0.1
				c-0.5,0-2.3-0.1-3.7-0.1c-0.4,0-0.6,0.1-0.6,0.2c0,0.2,0.2,0.2,0.5,0.2c0.4,0,0.8,0,1.1,0.1c0.9,0.2,1.1,0.6,1.2,1.6
				c0.1,0.9,0.1,1.6,0.1,5.8v4.8c0,2.5,0,4.7-0.1,5.8c-0.1,0.8-0.2,1.4-0.8,1.5c-0.2,0.1-0.6,0.1-1,0.1c-0.3,0-0.4,0.1-0.4,0.2
				c0,0.2,0.2,0.3,0.5,0.3c1.1,0,2.8-0.1,3.4-0.1c0.8,0,3.3,0.2,3.9,0.2c5,0,7.3-3,7.3-5.9C220,63.6,217.3,61.7,215.1,60.9z
				 M210.4,53.7c0-0.3,0.1-0.4,0.2-0.5c0.3-0.1,0.5-0.1,0.9-0.1c2.3,0,3.4,2.4,3.4,4.2c0,1.3-0.4,2.3-1.1,2.9
				c-0.5,0.4-1.1,0.5-2,0.5c-0.6,0-1,0-1.3-0.1c-0.1,0-0.2-0.1-0.2-0.3V53.7z M213.4,71.5c-0.6,0-1.2,0-2-0.3c-0.9-0.4-1-0.8-1-2.6
				v-6.4c0-0.1,0.1-0.2,0.2-0.2c0.4,0,0.7,0,1.2,0c1.1,0.1,1.7,0.2,2.3,0.7c2.1,1.4,2.6,3.7,2.6,5.4
				C216.7,70.9,214.6,71.5,213.4,71.5z M201.4,72.2c-0.4,0-0.9,0-1.7-0.3c-0.8-0.2-1.1-1-1.3-2.7l-2.5-16.8
				c-0.1-0.6-0.2-0.8-0.5-0.8c-0.2,0-0.4,0.2-0.6,0.7l-7.4,15.5L180,52.3c-0.4-0.7-0.5-0.8-0.7-0.8c-0.2,0-0.4,0.2-0.5,0.7
				l-2.7,17.7c-0.1,0.9-0.4,2-1.1,2.1c-0.4,0.1-0.6,0.1-0.8,0.1c-0.3,0-0.4,0.1-0.4,0.2c0,0.2,0.2,0.3,0.5,0.3
				c0.9,0,2.2-0.1,2.7-0.1c0.5,0,1.7,0.1,2.9,0.1c0.4,0,0.7-0.1,0.7-0.3c0-0.1-0.2-0.2-0.4-0.2c-0.3,0-0.7,0-1.1-0.1
				c-0.5-0.1-0.8-0.4-0.8-0.9c0-0.4,0-0.8,0.1-1.3l1.4-10.8h0.1c1,2,2.6,5.5,2.8,6c0.3,0.8,2.5,4.9,3.1,6.2c0.4,0.8,0.7,1.4,1,1.4
				c0.2,0,0.4-0.2,1-1.5l5.9-12.3h0.1l1.6,12c0.1,0.8,0,1.1-0.1,1.2c-0.2,0.1-0.3,0.2-0.3,0.3c0,0.2,0.2,0.2,0.8,0.3
				c1.1,0.1,4.8,0.2,5.5,0.2c0.4,0,0.7-0.1,0.7-0.3C201.8,72.2,201.6,72.2,201.4,72.2z M257,72.2c-0.3,0-0.7,0-1.1-0.1
				c-0.6-0.1-1.4-0.5-2.4-3c-1.7-4.1-6.1-15.2-6.7-16.7c-0.3-0.6-0.4-0.9-0.7-0.9c-0.3,0-0.4,0.3-0.8,1.1l-6.8,17.1
				c-0.5,1.4-1.1,2.3-2.3,2.4c-0.2,0-0.6,0.1-0.8,0.1c-0.2,0-0.3,0.1-0.3,0.2c0,0.2,0.2,0.3,0.5,0.3c1.4,0,2.9-0.1,3.2-0.1
				c0.8,0,2,0.1,2.9,0.1c0.3,0,0.5-0.1,0.5-0.3c0-0.2-0.1-0.2-0.4-0.2h-0.4c-0.8,0-1.1-0.4-1.1-0.8c0-0.3,0.1-1,0.4-1.7l1.5-3.9
				c0.1-0.2,0.1-0.2,0.2-0.2h6.1c0.1,0,0.2,0.1,0.3,0.2l2.2,5.8c0.1,0.3-0.1,0.6-0.2,0.6c-0.3,0-0.4,0.1-0.4,0.2
				c0,0.2,0.3,0.2,0.8,0.2c2.2,0.1,4.2,0.1,5.1,0.1c1,0,1.3-0.1,1.3-0.3C257.4,72.2,257.2,72.2,257,72.2z M247.8,64.2h-5
				c-0.1,0-0.1-0.1-0.1-0.2l2.5-6.7c0-0.1,0.1-0.2,0.2-0.2c0.1,0,0.1,0.1,0.1,0.2L248,64C248,64.1,248,64.2,247.8,64.2z M31.9,72.6
				h31.1v-2.6H31.9V72.6z M51.1,50.3c-0.4,0.1-0.8,0-1.1-0.3c-0.3-0.2-0.6-0.4-0.9-0.6c0.9-0.6,1.6-1.6,1.6-2.7
				c0-1.6-1.2-2.9-2.7-3.1l1.2-1.5c0.1-0.2,0.1-0.4,0-0.5l-1.5-1.9c-0.1-0.1-0.1-0.1-0.2-0.1c-0.1,0-0.2,0-0.2,0.1l-1.5,1.9
				c-0.1,0.1-0.1,0.4,0,0.5l1.2,1.5c-1.5,0.2-2.7,1.6-2.7,3.1c0,1.2,0.6,2.2,1.6,2.7c-0.3,0.2-0.6,0.4-0.9,0.6
				c-0.3,0.3-0.7,0.4-1.1,0.3c-6.6-2.1-12.5-4.2-15.8-0.9c-4,3.9,0.7,10.2,2.1,12.8c1,1.8,1.7,3.9,1.7,5.6h31.1
				c0-1.7,0.7-3.8,1.7-5.6c1.5-2.6,6.1-8.9,2.1-12.8C63.6,46.2,57.7,48.2,51.1,50.3z M42.8,65.7c-1.2,0.1-2.2-1-2.6-2.6l1-2.3
				c0.1-0.3,0-0.5-0.1-0.7l-3.1-3.1c-0.2-0.2-0.3-0.2-0.4,0L36,60.2c-0.1,0.3,0,0.5,0.2,0.7l2.3,2.4c0.5,1.9-0.8,2.5-1.5,2.5
				c-2.5,0-4.5-3.4-6.5-6.9c-2-3.4-2.7-5.9-1.2-7.8c2.5-3.2,9.1-0.7,14.2,1.7c0,0.7,0.1,1.6,0.6,2.6C46.8,61.3,45,65.6,42.8,65.7z
				 M64.5,58.9c-2,3.5-4,6.9-6.5,6.9c-0.7,0-2-0.7-1.5-2.5l2.3-2.4c0.2-0.2,0.3-0.4,0.2-0.7l-1.5-3.1c-0.1-0.2-0.2-0.2-0.4,0
				L54,60.2c-0.2,0.2-0.2,0.4-0.1,0.7l1,2.3c-0.4,1.5-1.4,2.6-2.6,2.6c-2.2-0.1-4.1-4.4-1.4-10.4c0.5-1,0.6-1.9,0.6-2.6
				c5.1-2.3,11.7-4.8,14.2-1.7C67.1,52.9,66.4,55.4,64.5,58.9z"/>
		</g>
	</g>
</g>
</svg>
