<?xml version="1.0" encoding="utf-8"?>
<!-- Generator: Adobe Illustrator 25.0.0, SVG Export Plug-In . SVG Version: 6.00 Build 0)  -->
<svg version="1.1" id="Layer_1" xmlns="http://www.w3.org/2000/svg" xmlns:xlink="http://www.w3.org/1999/xlink" x="0px" y="0px"
	 viewBox="0 0 800 307" style="enable-background:new 0 0 800 307;" xml:space="preserve">
<style type="text/css">
	.st0{fill:#CD2030;}
	.st1{fill:#FFFFFF;}
</style>
<g>
	<g>
		<path class="st0" d="M76.8,61.4h18.4l13.6,73.1H93.9L91.5,119H80.8l-2.5,15.4H63L76.8,61.4z M90,109.4l-3.9-28.5l-3.9,28.5H90z"/>
		<path class="st0" d="M115,111.8V61.4h16v52.9c0,4.6,0.5,9.7,5.7,9.7s5.6-5.1,5.6-9.7V61.4h16.1v50.4c0,15.3-4.9,23.7-21.7,23.7
			C119.8,135.6,115,127.2,115,111.8z"/>
		<path class="st0" d="M166.9,112.4l13.8-2.1c0.2,9.5,2.3,13,6.4,13c3.3,0,4.1-2.8,4.1-5.3c0-6-3.1-9.7-8-13.9l-6.3-5.5
			c-5.6-4.7-9.8-10.2-9.8-19c0-12.4,7.8-19.1,20.5-19.1c15.6,0,17.9,12.2,18.1,20.7l-13.9,1.7c-0.2-6.5-0.6-10.6-4.8-10.6
			c-3,0-4.3,3.2-4.3,5.7c0,5.4,2.8,8.3,7,12l6,5.3c6.3,5.4,11.4,11.8,11.4,21.9c0,10.4-7.5,18.4-19.1,18.4
			C174.2,135.6,167.5,128.6,166.9,112.4z"/>
		<path class="st0" d="M221.5,73.4h-11v-12h38.2v12h-10.9v61.1h-16.2V73.4z"/>
		<path class="st0" d="M255.1,61.4h32.8v11h-16.7v18.1H284v11.2h-12.7v21.8h16.9v10.9h-33V61.4z"/>
		<path class="st0" d="M295.4,61.4h20.1c14.7,0,24.3,4,24.3,19.3c0,9-1.7,15-8.9,18.4l10,35.4h-16.7l-8-32.7h-4.6v32.7h-16.1V61.4z
			 M316.1,92.4c6.8,0,8.8-3.8,8.8-10.3c0-6.2-1.9-9.9-8-9.9h-5.2v20.2H316.1z"/>
		<path class="st0" d="M349.6,61.4h32.8v11h-16.7v18.1h12.7v11.2h-12.7v21.8h16.9v10.9h-33V61.4z"/>
		<path class="st1" d="M390.9,61.4h17.3l8,42.5l8.7-42.5h16.7l1.3,73.1h-11.5L430,85.9l-8.5,48.6h-10.2l-9-49l-1.1,49h-11.6
			L390.9,61.4z"/>
		<path class="st1" d="M453.4,61.4h32.8v11h-16.7v18.1h12.7v11.2h-12.7v21.8h16.9v10.9h-33V61.4z"/>
		<path class="st1" d="M493.7,61.4h18.5c19,0,24.5,6.9,24.5,23.1V111c0,16.4-5.5,23.5-24.4,23.5h-18.7V61.4z M512.4,123.3
			c7.3,0,7.8-3.2,7.8-9.7V81.7c0-6.4-0.7-9-7.8-9h-2.4v50.6H512.4z"/>
		<path class="st1" d="M546.7,61.4h16.1v73.1h-16.1V61.4z"/>
		<path class="st1" d="M572.8,111.2V84.9c0-15.2,5.2-24.4,21.9-24.4c16.1,0,21,8.7,21,21.1v6.3h-15.8v-7.3c0-4.2-0.1-8.8-5.2-8.8
			c-5.1,0-5.6,4.6-5.6,9v34.4c0,5,0.8,8.9,5.6,8.9c5.1,0,5.2-4.5,5.2-8.9v-7.7h15.8v6.3c0,12.5-4.7,21.7-21,21.7
			C578,135.6,572.8,126,572.8,111.2z"/>
		<path class="st1" d="M624.7,61.4h16.1v73.1h-16.1V61.4z"/>
		<path class="st1" d="M651.7,61.4h11.4l15,35.2V61.4h13.4v73.1h-10.9l-15-37.9v37.9h-13.8V61.4z"/>
		<path class="st1" d="M702.3,61.4h32.8v11h-16.7v18.1h12.7v11.2h-12.7v21.8h16.9v10.9h-33V61.4z"/>
	</g>
	<g id="_x32__Line_3_">
		<rect id="_x32__Line_Vertical_Bar_3_" x="397.4" y="169.2" class="st1" width="1.6" height="80"/>
		<g>
			<path class="st1" d="M420.7,191.6c-0.5-1.1-0.8-1.3-1.5-1.5c-0.3-0.1-0.6-0.1-0.8-0.1c-0.2,0-0.2-0.1-0.2-0.2
				c0-0.2,0.2-0.2,0.5-0.2c1.1,0,2.2,0.1,2.9,0.1c0.5,0,1.5-0.1,2.5-0.1c0.2,0,0.5,0,0.5,0.2c0,0.1-0.1,0.2-0.3,0.2
				c-0.3,0-0.6,0-0.8,0.1c-0.1,0.1-0.2,0.2-0.2,0.4c0,0.3,0.2,0.8,0.5,1.6l3.5,9.2h0.1c0.9-2.2,3.5-8.7,4-10.1
				c0.1-0.3,0.2-0.6,0.2-0.8c0-0.2-0.1-0.3-0.3-0.4c-0.2-0.1-0.5-0.1-0.8-0.1c-0.2,0-0.3,0-0.3-0.2c0-0.2,0.2-0.2,0.6-0.2
				c1,0,1.9,0.1,2.1,0.1c0.3,0,1.3-0.1,1.9-0.1c0.3,0,0.4,0,0.4,0.2c0,0.1-0.1,0.2-0.3,0.2s-0.6,0-1,0.2c-0.3,0.2-0.6,0.5-1.1,1.8
				c-0.8,1.9-1.3,3-2.4,5.5c-1.3,3-2.2,5.2-2.7,6.2c-0.5,1.2-0.6,1.5-0.9,1.5c-0.3,0-0.4-0.3-0.8-1.2L420.7,191.6z"/>
			<path class="st1" d="M437.5,200.5c-0.1,0-0.1,0-0.2,0.1l-1,2.3c-0.2,0.4-0.3,0.9-0.3,1.1c0,0.3,0.2,0.5,0.7,0.5h0.3
				c0.2,0,0.3,0.1,0.3,0.2c0,0.1-0.1,0.2-0.3,0.2c-0.6,0-1.4-0.1-2-0.1c-0.2,0-1.1,0.1-2.1,0.1c-0.2,0-0.3,0-0.3-0.2
				c0-0.1,0.1-0.2,0.2-0.2c0.2,0,0.4,0,0.5,0c0.8-0.1,1.1-0.6,1.5-1.5l4.7-10.8c0.2-0.5,0.3-0.7,0.5-0.7c0.3,0,0.3,0.2,0.5,0.5
				c0.4,1,3.4,7.9,4.5,10.5c0.7,1.6,1.2,1.8,1.5,1.8c0.3,0,0.5,0.1,0.7,0.1c0.2,0,0.2,0.1,0.2,0.2c0,0.1-0.1,0.2-0.8,0.2
				c-0.6,0-1.9,0-3.4,0c-0.3,0-0.5,0-0.5-0.1c0-0.1,0-0.2,0.2-0.2c0.1,0,0.2-0.2,0.2-0.4l-1.4-3.5c0-0.1-0.1-0.1-0.2-0.1H437.5z
				 M441.3,199.6c0.1,0,0.1,0,0.1-0.1l-1.7-4.3c0-0.1,0-0.2-0.1-0.2c-0.1,0-0.1,0.1-0.1,0.2l-1.7,4.3c0,0.1,0,0.1,0.1,0.1H441.3z"/>
			<path class="st1" d="M461.4,203.7c0,0.5,0,0.5-0.2,0.6c-1.2,0.6-3,0.8-4.4,0.8c-4.4,0-8.2-2-8.2-6.7c0-2.8,1.5-4.7,3.1-5.6
				c1.7-1,3.3-1.1,4.8-1.1c1.2,0,2.8,0.2,3.2,0.3c0.4,0.1,1,0.2,1.4,0.2c0.2,0,0.2,0.1,0.2,0.2c0,0.2-0.1,0.7-0.1,2.8
				c0,0.3-0.1,0.4-0.2,0.4c-0.1,0-0.2-0.1-0.2-0.2c0-0.4-0.1-0.9-0.6-1.4c-0.5-0.5-1.9-1.3-3.9-1.3c-1,0-2.2,0-3.4,1
				c-1,0.8-1.6,2.1-1.6,4.2c0,3.7,2.4,6.4,6.2,6.4c0.5,0,0.8,0,1.3-0.2c0.3-0.1,0.3-0.3,0.3-0.6v-1.6c0-0.9,0-1.5,0-2
				c0-0.6-0.2-0.8-0.8-0.9c-0.1,0-0.4-0.1-0.7-0.1c-0.2,0-0.3-0.1-0.3-0.2c0-0.1,0.1-0.2,0.4-0.2c0.9,0,2.2,0,2.7,0
				c0.6,0,1.5,0,2.1,0c0.2,0,0.4,0,0.4,0.2c0,0.1-0.1,0.2-0.2,0.2c-0.1,0-0.3,0-0.5,0.1c-0.5,0.1-0.7,0.3-0.7,0.9c0,0.5,0,1.2,0,2.1
				V203.7z"/>
			<path class="st1" d="M467.4,196.9c0-2.6,0-3.1,0-3.6c0-0.6-0.2-0.8-0.8-0.9c-0.1,0-0.4-0.1-0.7-0.1c-0.2,0-0.3-0.1-0.3-0.2
				s0.1-0.2,0.4-0.2c0.9,0,2.1,0,2.6,0c0.6,0,4.5,0,4.9,0c0.3,0,0.6-0.1,0.7-0.1c0.1,0,0.2-0.1,0.3-0.1c0.1,0,0.1,0.1,0.1,0.2
				c0,0.1-0.1,0.3-0.1,1.1c0,0.2-0.1,0.9-0.1,1.1c0,0.1-0.1,0.3-0.2,0.3c-0.1,0-0.1-0.1-0.1-0.2c0-0.1,0-0.4-0.1-0.6
				c-0.1-0.3-0.3-0.5-1.2-0.6c-0.3,0-2.4-0.1-2.8-0.1c-0.1,0-0.1,0.1-0.1,0.2v4.3c0,0.1,0,0.2,0.1,0.2c0.4,0,2.7,0,3.1,0
				c0.4,0,0.7-0.1,0.9-0.3c0.1-0.1,0.2-0.2,0.3-0.2c0.1,0,0.1,0.1,0.1,0.2c0,0.1,0,0.4-0.1,1.3c0,0.3-0.1,1-0.1,1.2
				c0,0.1,0,0.4-0.2,0.4c-0.1,0-0.2-0.1-0.2-0.1c0-0.2,0-0.4-0.1-0.6c-0.1-0.3-0.3-0.6-1-0.7c-0.3,0-2.3-0.1-2.8-0.1
				c-0.1,0-0.1,0.1-0.1,0.2v1.4c0,0.6,0,2,0,2.6c0,1.2,0.6,1.4,2.4,1.4c0.5,0,1.2,0,1.7-0.2c0.4-0.2,0.6-0.6,0.8-1.3
				c0-0.2,0.1-0.3,0.2-0.3c0.1,0,0.2,0.2,0.2,0.4c0,0.4-0.1,1.6-0.2,1.9c-0.1,0.4-0.3,0.4-1,0.4c-1.3,0-2.4,0-3.3-0.1
				c-0.9,0-1.5,0-2.1,0c-0.2,0-0.6,0-1,0c-0.4,0-0.9,0-1.2,0c-0.2,0-0.3-0.1-0.3-0.2c0-0.1,0.1-0.2,0.3-0.2c0.3,0,0.5,0,0.6-0.1
				c0.4-0.1,0.5-0.4,0.5-0.9c0.1-0.7,0.1-2.1,0.1-3.7V196.9z"/>
			<path class="st1" d="M482,199.9c0,2.2,0,3.3,0.4,3.6c0.3,0.3,1,0.4,2.4,0.4c1,0,1.6,0,2.1-0.5c0.2-0.2,0.4-0.7,0.4-1
				c0-0.2,0.1-0.3,0.2-0.3c0.1,0,0.2,0.2,0.2,0.4c0,0.2-0.1,1.5-0.3,2c-0.1,0.4-0.2,0.5-1.1,0.5c-1.3,0-2.3,0-3.2-0.1
				c-0.9,0-1.6,0-2.4,0c-0.2,0-0.6,0-1,0c-0.4,0-0.9,0-1.2,0c-0.2,0-0.3-0.1-0.3-0.2c0-0.1,0.1-0.2,0.3-0.2c0.3,0,0.5,0,0.6-0.1
				c0.4-0.1,0.5-0.4,0.5-0.9c0.1-0.7,0.1-2.1,0.1-3.7v-3c0-2.6,0-3.1,0-3.6c0-0.6-0.2-0.8-0.8-0.9c-0.1,0-0.4-0.1-0.6-0.1
				c-0.2,0-0.3-0.1-0.3-0.2s0.1-0.2,0.4-0.2c0.8,0,2,0,2.4,0c0.4,0,1.9,0,2.6,0c0.3,0,0.4,0,0.4,0.2s-0.1,0.2-0.3,0.2
				c-0.2,0-0.5,0-0.7,0.1c-0.5,0.1-0.6,0.3-0.7,0.9c0,0.5,0,1,0,3.6V199.9z"/>
			<path class="st1" d="M489.5,198.4c0-2.9,2.1-6.7,7.5-6.7c4.5,0,7.3,2.5,7.3,6.4s-2.9,7-7.5,7
				C491.6,205.1,489.5,201.4,489.5,198.4z M501.6,198.7c0-3.8-2.3-6.2-5.2-6.2c-2,0-4.3,1.1-4.3,5.3c0,3.5,2,6.3,5.4,6.3
				C498.7,204.2,501.6,203.6,501.6,198.7z"/>
			<path class="st1" d="M508.2,204.7c-0.3-0.1-0.3-0.2-0.3-0.6c0-0.9,0.1-2,0.1-2.3c0-0.3,0.1-0.4,0.2-0.4c0.2,0,0.2,0.2,0.2,0.3
				c0,0.2,0.1,0.6,0.2,0.9c0.4,1.3,1.7,1.7,2.8,1.7c1.5,0,2.5-1,2.5-2.2c0-0.7-0.2-1.5-1.8-2.4l-1-0.6c-2.1-1.2-2.8-2.4-2.8-3.9
				c0-2.1,2-3.5,4.5-3.5c1.2,0,2.1,0.2,2.5,0.3c0.2,0,0.2,0.1,0.2,0.2c0,0.2-0.1,0.7-0.1,2.1c0,0.4-0.1,0.5-0.2,0.5
				c-0.1,0-0.2-0.1-0.2-0.3c0-0.2-0.1-0.7-0.5-1.1c-0.3-0.3-0.8-0.8-2-0.8c-1.3,0-2.4,0.7-2.4,1.8c0,0.8,0.3,1.4,1.9,2.3l0.7,0.4
				c2.3,1.3,3.1,2.6,3.1,4.2c0,1.3-0.5,2.3-1.8,3.2c-0.9,0.6-2,0.7-3,0.7C510.1,205.1,509,205,508.2,204.7z"/>
			<path class="st1" d="M528.9,203c-2-1.7-2.5-4-2.5-6c0-1.4,0.4-3.8,2.4-5.5c1.5-1.3,3.4-2.1,6.4-2.1c1.3,0,2,0.1,2.9,0.2
				c0.8,0.1,1.4,0.3,2,0.3c0.2,0,0.3,0.1,0.3,0.2c0,0.2-0.1,0.4-0.1,1.1c0,0.7,0,1.8-0.1,2.2c0,0.3-0.1,0.5-0.2,0.5
				c-0.2,0-0.2-0.2-0.2-0.4c0-0.6-0.3-1.3-0.8-1.9c-0.7-0.7-2.2-1.3-4.1-1.3c-1.8,0-2.9,0.4-3.8,1.3c-1.5,1.4-1.9,3.3-1.9,5.2
				c0,4.8,3.7,7.2,6.4,7.2c1.8,0,2.9-0.2,3.7-1.1c0.3-0.4,0.6-1,0.7-1.3c0.1-0.3,0.1-0.4,0.3-0.4c0.1,0,0.2,0.1,0.2,0.3
				c0,0.2-0.2,2-0.4,2.7c-0.1,0.3-0.2,0.4-0.5,0.6c-0.8,0.3-2.3,0.5-3.6,0.5C533.1,205.2,530.8,204.6,528.9,203z"/>
			<path class="st1" d="M543.5,198.4c0-2.9,2.1-6.7,7.5-6.7c4.5,0,7.3,2.5,7.3,6.4s-2.9,7-7.5,7
				C545.6,205.1,543.5,201.4,543.5,198.4z M555.6,198.7c0-3.8-2.3-6.2-5.2-6.2c-2,0-4.3,1.1-4.3,5.3c0,3.5,2,6.3,5.4,6.3
				C552.7,204.2,555.6,203.6,555.6,198.7z"/>
			<path class="st1" d="M564.9,199.9c0,2.2,0,3.3,0.4,3.6c0.3,0.3,1,0.4,2.4,0.4c1,0,1.6,0,2.1-0.5c0.2-0.2,0.4-0.7,0.4-1
				c0-0.2,0.1-0.3,0.2-0.3c0.1,0,0.2,0.2,0.2,0.4c0,0.2-0.1,1.5-0.3,2c-0.1,0.4-0.2,0.5-1.1,0.5c-1.3,0-2.3,0-3.2-0.1
				c-0.9,0-1.6,0-2.4,0c-0.2,0-0.6,0-1,0c-0.4,0-0.9,0-1.2,0c-0.2,0-0.3-0.1-0.3-0.2c0-0.1,0.1-0.2,0.3-0.2c0.3,0,0.5,0,0.6-0.1
				c0.4-0.1,0.5-0.4,0.5-0.9c0.1-0.7,0.1-2.1,0.1-3.7v-3c0-2.6,0-3.1,0-3.6c0-0.6-0.2-0.8-0.8-0.9c-0.1,0-0.4-0.1-0.6-0.1
				c-0.2,0-0.3-0.1-0.3-0.2s0.1-0.2,0.4-0.2c0.8,0,2,0,2.4,0c0.4,0,1.9,0,2.6,0c0.3,0,0.4,0,0.4,0.2s-0.1,0.2-0.3,0.2
				c-0.2,0-0.5,0-0.7,0.1c-0.5,0.1-0.6,0.3-0.7,0.9c0,0.5,0,1,0,3.6V199.9z"/>
			<path class="st1" d="M577.1,199.9c0,2.2,0,3.3,0.4,3.6c0.3,0.3,1,0.4,2.4,0.4c1,0,1.6,0,2.1-0.5c0.2-0.2,0.4-0.7,0.4-1
				c0-0.2,0.1-0.3,0.2-0.3c0.1,0,0.2,0.2,0.2,0.4c0,0.2-0.1,1.5-0.3,2c-0.1,0.4-0.2,0.5-1.1,0.5c-1.3,0-2.3,0-3.2-0.1
				c-0.9,0-1.6,0-2.4,0c-0.2,0-0.6,0-1,0c-0.4,0-0.9,0-1.2,0c-0.2,0-0.3-0.1-0.3-0.2c0-0.1,0.1-0.2,0.3-0.2c0.3,0,0.5,0,0.6-0.1
				c0.4-0.1,0.5-0.4,0.5-0.9c0.1-0.7,0.1-2.1,0.1-3.7v-3c0-2.6,0-3.1,0-3.6c0-0.6-0.2-0.8-0.8-0.9c-0.1,0-0.4-0.1-0.6-0.1
				c-0.2,0-0.3-0.1-0.3-0.2s0.1-0.2,0.4-0.2c0.8,0,2,0,2.4,0c0.4,0,1.9,0,2.6,0c0.3,0,0.4,0,0.4,0.2s-0.1,0.2-0.3,0.2
				c-0.2,0-0.5,0-0.7,0.1c-0.5,0.1-0.6,0.3-0.7,0.9c0,0.5,0,1,0,3.6V199.9z"/>
			<path class="st1" d="M586.9,196.9c0-2.6,0-3.1,0-3.6c0-0.6-0.2-0.8-0.8-0.9c-0.1,0-0.4-0.1-0.7-0.1c-0.2,0-0.3-0.1-0.3-0.2
				s0.1-0.2,0.4-0.2c0.9,0,2.1,0,2.6,0c0.6,0,4.5,0,4.9,0c0.3,0,0.6-0.1,0.7-0.1c0.1,0,0.2-0.1,0.3-0.1c0.1,0,0.1,0.1,0.1,0.2
				c0,0.1-0.1,0.3-0.1,1.1c0,0.2-0.1,0.9-0.1,1.1c0,0.1-0.1,0.3-0.2,0.3c-0.1,0-0.1-0.1-0.1-0.2c0-0.1,0-0.4-0.1-0.6
				c-0.1-0.3-0.3-0.5-1.2-0.6c-0.3,0-2.4-0.1-2.8-0.1c-0.1,0-0.1,0.1-0.1,0.2v4.3c0,0.1,0,0.2,0.1,0.2c0.4,0,2.7,0,3.1,0
				c0.4,0,0.7-0.1,0.9-0.3c0.1-0.1,0.2-0.2,0.3-0.2c0.1,0,0.1,0.1,0.1,0.2c0,0.1,0,0.4-0.1,1.3c0,0.3-0.1,1-0.1,1.2
				c0,0.1,0,0.4-0.2,0.4c-0.1,0-0.2-0.1-0.2-0.1c0-0.2,0-0.4-0.1-0.6c-0.1-0.3-0.3-0.6-1-0.7c-0.3,0-2.3-0.1-2.8-0.1
				c-0.1,0-0.1,0.1-0.1,0.2v1.4c0,0.6,0,2,0,2.6c0,1.2,0.6,1.4,2.4,1.4c0.5,0,1.2,0,1.7-0.2c0.4-0.2,0.6-0.6,0.8-1.3
				c0-0.2,0.1-0.3,0.2-0.3c0.1,0,0.2,0.2,0.2,0.4c0,0.4-0.1,1.6-0.2,1.9c-0.1,0.4-0.3,0.4-1,0.4c-1.3,0-2.4,0-3.3-0.1
				c-0.9,0-1.5,0-2.1,0c-0.2,0-0.6,0-1,0c-0.4,0-0.9,0-1.2,0c-0.2,0-0.3-0.1-0.3-0.2c0-0.1,0.1-0.2,0.3-0.2c0.3,0,0.5,0,0.6-0.1
				c0.4-0.1,0.5-0.4,0.5-0.9c0.1-0.7,0.1-2.1,0.1-3.7V196.9z"/>
			<path class="st1" d="M610.5,203.7c0,0.5,0,0.5-0.2,0.6c-1.2,0.6-3,0.8-4.4,0.8c-4.4,0-8.2-2-8.2-6.7c0-2.8,1.5-4.7,3.1-5.6
				c1.7-1,3.3-1.1,4.8-1.1c1.2,0,2.8,0.2,3.2,0.3c0.4,0.1,1,0.2,1.4,0.2c0.2,0,0.2,0.1,0.2,0.2c0,0.2-0.1,0.7-0.1,2.8
				c0,0.3-0.1,0.4-0.2,0.4c-0.1,0-0.2-0.1-0.2-0.2c0-0.4-0.1-0.9-0.6-1.4c-0.5-0.5-1.9-1.3-3.9-1.3c-1,0-2.2,0-3.4,1
				c-1,0.8-1.6,2.1-1.6,4.2c0,3.7,2.4,6.4,6.2,6.4c0.5,0,0.8,0,1.3-0.2c0.3-0.1,0.3-0.3,0.3-0.6v-1.6c0-0.9,0-1.5,0-2
				c0-0.6-0.2-0.8-0.8-0.9c-0.1,0-0.4-0.1-0.7-0.1c-0.2,0-0.3-0.1-0.3-0.2c0-0.1,0.1-0.2,0.4-0.2c0.9,0,2.2,0,2.7,0
				c0.6,0,1.5,0,2.1,0c0.2,0,0.4,0,0.4,0.2c0,0.1-0.1,0.2-0.2,0.2c-0.1,0-0.3,0-0.5,0.1c-0.5,0.1-0.7,0.3-0.7,0.9c0,0.5,0,1.2,0,2.1
				V203.7z"/>
			<path class="st1" d="M616.5,196.9c0-2.6,0-3.1,0-3.6c0-0.6-0.2-0.8-0.8-0.9c-0.1,0-0.4-0.1-0.7-0.1c-0.2,0-0.3-0.1-0.3-0.2
				s0.1-0.2,0.4-0.2c0.9,0,2.1,0,2.6,0c0.6,0,4.5,0,4.9,0c0.3,0,0.6-0.1,0.7-0.1c0.1,0,0.2-0.1,0.3-0.1c0.1,0,0.1,0.1,0.1,0.2
				c0,0.1-0.1,0.3-0.1,1.1c0,0.2-0.1,0.9-0.1,1.1c0,0.1-0.1,0.3-0.2,0.3c-0.1,0-0.1-0.1-0.1-0.2c0-0.1,0-0.4-0.1-0.6
				c-0.1-0.3-0.3-0.5-1.2-0.6c-0.3,0-2.4-0.1-2.8-0.1c-0.1,0-0.1,0.1-0.1,0.2v4.3c0,0.1,0,0.2,0.1,0.2c0.4,0,2.7,0,3.1,0
				c0.4,0,0.7-0.1,0.9-0.3c0.1-0.1,0.2-0.2,0.3-0.2c0.1,0,0.1,0.1,0.1,0.2c0,0.1,0,0.4-0.1,1.3c0,0.3-0.1,1-0.1,1.2
				c0,0.1,0,0.4-0.2,0.4c-0.1,0-0.2-0.1-0.2-0.1c0-0.2,0-0.4-0.1-0.6c-0.1-0.3-0.3-0.6-1-0.7c-0.3,0-2.3-0.1-2.8-0.1
				c-0.1,0-0.1,0.1-0.1,0.2v1.4c0,0.6,0,2,0,2.6c0,1.2,0.6,1.4,2.4,1.4c0.5,0,1.2,0,1.7-0.2c0.4-0.2,0.6-0.6,0.8-1.3
				c0-0.2,0.1-0.3,0.2-0.3c0.1,0,0.2,0.2,0.2,0.4c0,0.4-0.1,1.6-0.2,1.9c-0.1,0.4-0.3,0.4-1,0.4c-1.3,0-2.4,0-3.3-0.1
				c-0.9,0-1.5,0-2.1,0c-0.2,0-0.6,0-1,0c-0.4,0-0.9,0-1.2,0c-0.2,0-0.3-0.1-0.3-0.2c0-0.1,0.1-0.2,0.3-0.2c0.3,0,0.5,0,0.6-0.1
				c0.4-0.1,0.5-0.4,0.5-0.9c0.1-0.7,0.1-2.1,0.1-3.7V196.9z"/>
			<path class="st1" d="M634.3,198.4c0-2.9,2.1-6.7,7.5-6.7c4.5,0,7.3,2.5,7.3,6.4s-2.9,7-7.5,7
				C636.4,205.1,634.3,201.4,634.3,198.4z M646.4,198.7c0-3.8-2.3-6.2-5.2-6.2c-2,0-4.3,1.1-4.3,5.3c0,3.5,2,6.3,5.4,6.3
				C643.6,204.2,646.4,203.6,646.4,198.7z"/>
			<path class="st1" d="M655.8,200c0,1.7,0,2.9,0.1,3.6c0.1,0.5,0.2,0.8,0.7,0.9c0.2,0,0.6,0.1,0.9,0.1c0.2,0,0.3,0.1,0.3,0.2
				c0,0.1-0.1,0.2-0.4,0.2c-1.1,0-2.4-0.1-2.9-0.1s-1.6,0.1-2.3,0.1c-0.2,0-0.4,0-0.4-0.2c0-0.1,0.1-0.2,0.3-0.2
				c0.3,0,0.5,0,0.6-0.1c0.4-0.1,0.5-0.4,0.5-0.9c0.1-0.7,0.1-2,0.1-3.7v-3c0-2.6,0-3.1,0-3.6c0-0.6-0.2-0.8-0.8-0.9
				c-0.1,0-0.4-0.1-0.7-0.1c-0.2,0-0.3-0.1-0.3-0.2s0.1-0.2,0.4-0.2c0.9,0,2,0,2.6,0c0.7,0,4.6,0,5.1,0c0.3,0,0.5,0,0.7-0.1
				c0.1,0,0.2-0.1,0.3-0.1c0.1,0,0.1,0.1,0.1,0.2c0,0.1-0.1,0.3-0.1,0.8c0,0.2-0.1,1.2-0.1,1.4c0,0.1-0.1,0.3-0.2,0.3
				c-0.1,0-0.2-0.1-0.2-0.3c0-0.1,0-0.4-0.1-0.6c-0.1-0.2-0.5-0.5-1.1-0.5l-3-0.1c-0.1,0-0.2,0-0.2,0.2v4.2c0,0.1,0,0.2,0.1,0.2
				l2.5,0c0.3,0,0.5,0,0.8,0c0.3,0,0.6-0.1,0.7-0.3c0.1-0.1,0.1-0.2,0.2-0.2c0.1,0,0.1,0.1,0.1,0.2c0,0.1-0.1,0.6-0.1,1.1
				c0,0.3-0.1,1.1-0.1,1.3c0,0.1,0,0.4-0.2,0.4c-0.1,0-0.2-0.1-0.2-0.2s0-0.3-0.1-0.5c-0.1-0.2-0.3-0.6-0.9-0.6
				c-0.4,0-2.6-0.1-2.9-0.1c-0.1,0-0.1,0-0.1,0.1V200z"/>
			<path class="st1" d="M422.5,219.4c0-3.1,0-3.6,0-4.3c0-0.7-0.2-1-0.9-1.2c-0.2,0-0.5-0.1-0.8-0.1c-0.2,0-0.3,0-0.3-0.2
				c0-0.1,0.1-0.2,0.4-0.2c1.1,0,2.3,0.1,2.9,0.1c0.8,0,2-0.1,2.9-0.1c2.5,0,3.4,0.9,3.8,1.2c0.4,0.4,1,1.3,1,2.4
				c0,2.9-2.1,4.9-5,4.9c-0.1,0-0.3,0-0.4,0c-0.1,0-0.2,0-0.2-0.2c0-0.2,0.1-0.2,0.6-0.2c1.1,0,2.7-1.3,2.7-3.3c0-0.7-0.1-2-1.2-3
				c-0.7-0.7-1.6-0.8-2-0.8c-0.3,0-0.6,0-0.8,0.1c-0.1,0-0.2,0.2-0.2,0.4v8.1c0,1.9,0,3.5,0.1,4.3c0.1,0.6,0.2,1,0.8,1.1
				c0.3,0,0.7,0.1,1,0.1c0.2,0,0.3,0.1,0.3,0.2c0,0.1-0.2,0.2-0.4,0.2c-1.3,0-2.6-0.1-3.1-0.1c-0.5,0-1.7,0.1-2.6,0.1
				c-0.3,0-0.4-0.1-0.4-0.2c0-0.1,0.1-0.2,0.3-0.2c0.3,0,0.5,0,0.7-0.1c0.4-0.1,0.5-0.5,0.6-1.1c0.1-0.9,0.1-2.4,0.1-4.3V219.4z"/>
			<path class="st1" d="M445.6,221.4c0,0,0.1,0,0.1-0.1V221c0-2.6,0-3.2,0-3.8c0-0.6-0.2-0.8-0.8-0.9c-0.1,0-0.4-0.1-0.7-0.1
				c-0.2,0-0.3-0.1-0.3-0.2s0.1-0.2,0.4-0.2c1,0,2.2,0,2.7,0c0.4,0,1.6,0,2.3,0c0.3,0,0.4,0,0.4,0.2s-0.1,0.2-0.3,0.2
				c-0.1,0-0.3,0-0.5,0.1c-0.5,0.1-0.6,0.3-0.6,0.9c0,0.5,0,1,0,3.6v3c0,1.6,0,2.9,0.1,3.7c0.1,0.5,0.2,0.8,0.7,0.9
				c0.2,0,0.6,0.1,0.9,0.1c0.2,0,0.3,0.1,0.3,0.2c0,0.1-0.1,0.2-0.4,0.2c-1.2,0-2.3-0.1-2.8-0.1c-0.4,0-1.7,0.1-2.3,0.1
				c-0.2,0-0.4-0.1-0.4-0.2c0-0.1,0.1-0.2,0.3-0.2c0.3,0,0.5,0,0.6-0.1c0.4-0.1,0.5-0.4,0.5-0.9c0.1-0.7,0.1-2,0.1-3.6v-1.3
				c0-0.1-0.1-0.1-0.1-0.1h-6.7c-0.1,0-0.1,0-0.1,0.1v1.3c0,1.6,0,2.9,0.1,3.6c0.1,0.5,0.2,0.8,0.7,0.9c0.2,0,0.6,0.1,0.9,0.1
				c0.2,0,0.3,0.1,0.3,0.2c0,0.1-0.1,0.2-0.4,0.2c-1.2,0-2.4-0.1-2.9-0.1c-0.4,0-1.6,0.1-2.3,0.1c-0.2,0-0.3-0.1-0.3-0.2
				c0-0.1,0.1-0.2,0.3-0.2c0.3,0,0.5,0,0.6-0.1c0.4-0.1,0.5-0.4,0.5-0.9c0.1-0.7,0.1-2.1,0.1-3.7v-3c0-2.6,0-3.1,0-3.6
				c0-0.6-0.2-0.8-0.8-0.9c-0.1,0-0.4-0.1-0.7-0.1c-0.2,0-0.3-0.1-0.3-0.2s0.1-0.2,0.4-0.2c1,0,2.1,0,2.6,0c0.4,0,1.7,0,2.4,0
				c0.2,0,0.4,0,0.4,0.2s-0.1,0.2-0.3,0.2c-0.1,0-0.3,0-0.5,0.1c-0.5,0.1-0.6,0.3-0.7,0.9c0,0.5,0,1.2,0,3.8v0.4
				c0,0.1,0.1,0.1,0.1,0.1H445.6z"/>
			<path class="st1" d="M456.9,224.4c0-0.9-0.2-1.3-0.4-1.8c-0.1-0.3-2.6-4-3.2-5c-0.4-0.6-0.8-1-1.2-1.2c-0.2-0.1-0.5-0.2-0.7-0.2
				c-0.1,0-0.3-0.1-0.3-0.2s0.1-0.2,0.3-0.2c0.3,0,1.6,0,2.2,0c0.4,0,1.2,0,2,0c0.2,0,0.3,0,0.3,0.2c0,0.1-0.1,0.1-0.4,0.2
				c-0.1,0-0.2,0.1-0.2,0.3c0,0.1,0.1,0.3,0.2,0.6c0.3,0.5,2.7,4.6,3,5c0.2-0.4,2.4-4.1,2.7-4.6c0.2-0.4,0.3-0.7,0.3-0.9
				c0-0.2-0.1-0.3-0.4-0.4c-0.2,0-0.3-0.1-0.3-0.2c0-0.1,0.1-0.2,0.3-0.2c0.6,0,1.2,0,1.7,0c0.4,0,1.6,0,1.9,0c0.2,0,0.3,0,0.3,0.1
				c0,0.1-0.1,0.2-0.3,0.2c-0.2,0-0.5,0.1-0.8,0.2c-0.4,0.2-0.5,0.3-0.9,0.8c-0.6,0.7-3.1,4.8-3.5,5.5c-0.3,0.6-0.2,1.2-0.2,1.7v1.4
				c0,0.3,0,1,0,1.7c0,0.5,0.2,0.8,0.7,0.9c0.3,0,0.6,0.1,0.9,0.1c0.2,0,0.3,0.1,0.3,0.2c0,0.1-0.1,0.2-0.4,0.2
				c-1.1,0-2.3-0.1-2.8-0.1c-0.4,0-1.6,0.1-2.3,0.1c-0.2,0-0.4,0-0.4-0.2c0-0.1,0.1-0.2,0.3-0.2c0.2,0,0.5,0,0.6-0.1
				c0.4-0.1,0.5-0.4,0.5-0.9c0.1-0.7,0.1-1.4,0.1-1.7V224.4z"/>
			<path class="st1" d="M467,228.6c-0.3-0.1-0.3-0.2-0.3-0.6c0-0.9,0.1-2,0.1-2.3c0-0.3,0.1-0.4,0.2-0.4c0.2,0,0.2,0.2,0.2,0.3
				c0,0.2,0.1,0.6,0.2,0.9c0.4,1.3,1.7,1.7,2.8,1.7c1.5,0,2.5-1,2.5-2.2c0-0.7-0.2-1.5-1.8-2.4l-1-0.6c-2.1-1.2-2.8-2.4-2.8-3.9
				c0-2.1,2-3.5,4.5-3.5c1.2,0,2.1,0.2,2.5,0.3c0.2,0,0.2,0.1,0.2,0.2c0,0.2-0.1,0.7-0.1,2.1c0,0.4-0.1,0.5-0.2,0.5
				c-0.1,0-0.2-0.1-0.2-0.3c0-0.2-0.1-0.7-0.5-1.1c-0.3-0.3-0.8-0.8-2-0.8c-1.3,0-2.4,0.7-2.4,1.8c0,0.8,0.3,1.4,1.9,2.3l0.7,0.4
				c2.3,1.3,3.1,2.6,3.1,4.2c0,1.3-0.5,2.3-1.8,3.2c-0.9,0.6-2,0.7-3,0.7C468.8,229.1,467.7,229,467,228.6z"/>
			<path class="st1" d="M479.5,220.8c0-2.6,0-3.1,0-3.6c0-0.6-0.2-0.8-0.6-0.9c-0.2-0.1-0.4-0.1-0.6-0.1c-0.2,0-0.3,0-0.3-0.2
				c0-0.1,0.1-0.1,0.4-0.1c0.7,0,1.9,0,2.4,0c0.4,0,1.6,0,2.3,0c0.2,0,0.4,0,0.4,0.1c0,0.2-0.1,0.2-0.3,0.2c-0.2,0-0.3,0-0.5,0.1
				c-0.5,0.1-0.6,0.3-0.7,0.9c0,0.5,0,1,0,3.6v3c0,1.7,0,3,0.1,3.8c0.1,0.5,0.2,0.7,0.7,0.8c0.2,0,0.6,0.1,0.9,0.1
				c0.2,0,0.3,0.1,0.3,0.2c0,0.1-0.1,0.2-0.3,0.2c-1.2,0-2.4-0.1-2.9-0.1c-0.4,0-1.6,0.1-2.3,0.1c-0.2,0-0.3-0.1-0.3-0.2
				c0-0.1,0.1-0.2,0.3-0.2c0.3,0,0.5,0,0.6-0.1c0.4-0.1,0.5-0.3,0.5-0.8c0.1-0.7,0.1-2.1,0.1-3.7V220.8z"/>
			<path class="st1" d="M488.8,227.2c-1.8-1.5-2.2-3.4-2.2-5.1c0-1.2,0.4-3.2,2.1-4.7c1.3-1.1,3-1.8,5.6-1.8c1.1,0,1.8,0.1,2.6,0.2
				c0.7,0.1,1.3,0.2,1.8,0.3c0.2,0,0.3,0.1,0.3,0.2c0,0.1,0,0.3-0.1,1c0,0.6,0,1.5-0.1,1.9c0,0.2-0.1,0.4-0.2,0.4
				c-0.1,0-0.2-0.1-0.2-0.4c0-0.5-0.2-1.2-0.7-1.6c-0.6-0.6-1.8-1-3.4-1c-1.6,0-2.6,0.3-3.4,1c-1.3,1.1-1.6,2.8-1.6,4.5
				c0,4.1,3.2,6,5.5,6c1.6,0,2.4-0.1,3.2-0.9c0.3-0.3,0.5-0.8,0.6-1.2c0-0.3,0.1-0.3,0.2-0.3c0.1,0,0.2,0.2,0.2,0.3
				c0,0.2-0.2,1.7-0.4,2.3c-0.1,0.3-0.2,0.4-0.5,0.5c-0.7,0.3-2.1,0.4-3.2,0.4C492.5,229.1,490.4,228.6,488.8,227.2z"/>
			<path class="st1" d="M503.8,220.8c0-2.6,0-3.1,0-3.6c0-0.6-0.2-0.8-0.6-0.9c-0.2-0.1-0.4-0.1-0.6-0.1c-0.2,0-0.3,0-0.3-0.2
				c0-0.1,0.1-0.1,0.4-0.1c0.7,0,1.9,0,2.4,0c0.4,0,1.6,0,2.3,0c0.2,0,0.4,0,0.4,0.1c0,0.2-0.1,0.2-0.3,0.2c-0.2,0-0.3,0-0.5,0.1
				c-0.5,0.1-0.6,0.3-0.7,0.9c0,0.5,0,1,0,3.6v3c0,1.7,0,3,0.1,3.8c0.1,0.5,0.2,0.7,0.7,0.8c0.2,0,0.6,0.1,0.9,0.1
				c0.2,0,0.3,0.1,0.3,0.2c0,0.1-0.1,0.2-0.3,0.2c-1.2,0-2.4-0.1-2.9-0.1c-0.4,0-1.6,0.1-2.3,0.1c-0.2,0-0.3-0.1-0.3-0.2
				c0-0.1,0.1-0.2,0.3-0.2c0.3,0,0.5,0,0.6-0.1c0.4-0.1,0.5-0.3,0.5-0.8c0.1-0.7,0.1-2.1,0.1-3.7V220.8z"/>
			<path class="st1" d="M513.8,224.5c-0.1,0-0.1,0-0.2,0.1l-1,2.3c-0.2,0.4-0.3,0.9-0.3,1.1c0,0.3,0.2,0.5,0.7,0.5h0.3
				c0.2,0,0.3,0.1,0.3,0.2c0,0.1-0.1,0.2-0.3,0.2c-0.6,0-1.4-0.1-2-0.1c-0.2,0-1.1,0.1-2.1,0.1c-0.2,0-0.3,0-0.3-0.2
				c0-0.1,0.1-0.2,0.2-0.2c0.2,0,0.4,0,0.5,0c0.8-0.1,1.1-0.6,1.5-1.5l4.7-10.8c0.2-0.5,0.3-0.7,0.5-0.7c0.3,0,0.3,0.2,0.5,0.5
				c0.4,1,3.4,7.9,4.5,10.5c0.7,1.6,1.2,1.8,1.5,1.8c0.3,0,0.5,0.1,0.7,0.1c0.2,0,0.2,0.1,0.2,0.2c0,0.1-0.1,0.2-0.8,0.2
				c-0.6,0-1.9,0-3.4,0c-0.3,0-0.5,0-0.5-0.1c0-0.1,0-0.2,0.2-0.2c0.1,0,0.2-0.2,0.2-0.4l-1.4-3.5c0-0.1-0.1-0.1-0.2-0.1H513.8z
				 M517.6,223.6c0.1,0,0.1,0,0.1-0.1l-1.7-4.3c0-0.1,0-0.2-0.1-0.2c-0.1,0-0.1,0.1-0.1,0.2l-1.7,4.3c0,0.1,0,0.1,0.1,0.1H517.6z"/>
			<path class="st1" d="M528,226.5c0,1.3,0.3,1.7,0.6,1.9c0.3,0.1,0.6,0.1,0.9,0.1c0.2,0,0.3,0.1,0.3,0.2c0,0.1-0.2,0.2-0.4,0.2
				c-1.2,0-2-0.1-2.3-0.1c-0.2,0-1,0.1-1.9,0.1c-0.2,0-0.4,0-0.4-0.2c0-0.1,0.1-0.2,0.3-0.2c0.2,0,0.6,0,0.8-0.1
				c0.5-0.1,0.5-0.6,0.5-2.1l0.2-10.2c0-0.3,0.1-0.6,0.3-0.6c0.2,0,0.5,0.3,0.8,0.6c0.2,0.2,2.9,3,5.5,5.5c1.2,1.2,3.6,3.6,3.8,3.9
				h0.1l-0.2-7.7c0-1.1-0.2-1.4-0.6-1.5c-0.3-0.1-0.7-0.1-0.9-0.1c-0.2,0-0.3-0.1-0.3-0.2c0-0.1,0.2-0.2,0.4-0.2c0.9,0,1.9,0,2.3,0
				c0.2,0,0.9,0,1.7,0c0.2,0,0.4,0,0.4,0.2c0,0.1-0.1,0.2-0.3,0.2c-0.2,0-0.3,0-0.5,0.1c-0.5,0.1-0.6,0.4-0.6,1.4l-0.2,10.9
				c0,0.4-0.1,0.5-0.3,0.5c-0.3,0-0.5-0.2-0.7-0.4c-1.1-1-3.3-3.2-5.2-5c-1.9-1.9-3.8-3.9-4.2-4.3h-0.1L528,226.5z"/>
			<path class="st1" d="M543.9,228.6c-0.3-0.1-0.3-0.2-0.3-0.6c0-0.9,0.1-2,0.1-2.3c0-0.3,0.1-0.4,0.2-0.4c0.2,0,0.2,0.2,0.2,0.3
				c0,0.2,0.1,0.6,0.2,0.9c0.4,1.3,1.7,1.7,2.8,1.7c1.5,0,2.5-1,2.5-2.2c0-0.7-0.2-1.5-1.8-2.4l-1-0.6c-2.1-1.2-2.8-2.4-2.8-3.9
				c0-2.1,2-3.5,4.5-3.5c1.2,0,2.1,0.2,2.5,0.3c0.2,0,0.2,0.1,0.2,0.2c0,0.2-0.1,0.7-0.1,2.1c0,0.4-0.1,0.5-0.2,0.5
				c-0.1,0-0.2-0.1-0.2-0.3c0-0.2-0.1-0.7-0.5-1.1c-0.3-0.3-0.8-0.8-2-0.8c-1.3,0-2.4,0.7-2.4,1.8c0,0.8,0.3,1.4,1.9,2.3l0.7,0.4
				c2.3,1.3,3.1,2.6,3.1,4.2c0,1.3-0.5,2.3-1.8,3.2c-0.9,0.6-2,0.7-3,0.7C545.8,229.1,544.7,229,543.9,228.6z"/>
			<path class="st1" d="M564.7,224.5c-0.1,0-0.1,0-0.2,0.1l-1,2.3c-0.2,0.4-0.3,0.9-0.3,1.1c0,0.3,0.2,0.5,0.7,0.5h0.3
				c0.2,0,0.3,0.1,0.3,0.2c0,0.1-0.1,0.2-0.3,0.2c-0.6,0-1.4-0.1-2-0.1c-0.2,0-1.1,0.1-2.1,0.1c-0.2,0-0.3,0-0.3-0.2
				c0-0.1,0.1-0.2,0.2-0.2c0.2,0,0.4,0,0.5,0c0.8-0.1,1.1-0.6,1.5-1.5l4.7-10.8c0.2-0.5,0.3-0.7,0.5-0.7c0.3,0,0.3,0.2,0.5,0.5
				c0.4,1,3.4,7.9,4.5,10.5c0.7,1.6,1.2,1.8,1.5,1.8c0.3,0,0.5,0.1,0.7,0.1c0.2,0,0.2,0.1,0.2,0.2c0,0.1-0.1,0.2-0.8,0.2
				c-0.6,0-1.9,0-3.4,0c-0.3,0-0.5,0-0.5-0.1c0-0.1,0-0.2,0.2-0.2c0.1,0,0.2-0.2,0.2-0.4l-1.4-3.5c0-0.1-0.1-0.1-0.2-0.1H564.7z
				 M568.5,223.6c0.1,0,0.1,0,0.1-0.1l-1.7-4.3c0-0.1,0-0.2-0.1-0.2c-0.1,0-0.1,0.1-0.1,0.2l-1.7,4.3c0,0.1,0,0.1,0.1,0.1H568.5z"/>
			<path class="st1" d="M578.9,226.5c0,1.3,0.3,1.7,0.6,1.9c0.3,0.1,0.6,0.1,0.9,0.1c0.2,0,0.3,0.1,0.3,0.2c0,0.1-0.2,0.2-0.4,0.2
				c-1.2,0-2-0.1-2.3-0.1c-0.2,0-1,0.1-1.9,0.1c-0.2,0-0.4,0-0.4-0.2c0-0.1,0.1-0.2,0.3-0.2c0.2,0,0.6,0,0.8-0.1
				c0.5-0.1,0.5-0.6,0.5-2.1l0.2-10.2c0-0.3,0.1-0.6,0.3-0.6c0.2,0,0.5,0.3,0.8,0.6c0.2,0.2,2.9,3,5.5,5.5c1.2,1.2,3.6,3.6,3.8,3.9
				h0.1l-0.2-7.7c0-1.1-0.2-1.4-0.6-1.5c-0.3-0.1-0.7-0.1-0.9-0.1c-0.2,0-0.3-0.1-0.3-0.2c0-0.1,0.2-0.2,0.4-0.2c0.9,0,1.9,0,2.3,0
				c0.2,0,0.9,0,1.7,0c0.2,0,0.4,0,0.4,0.2c0,0.1-0.1,0.2-0.3,0.2c-0.2,0-0.3,0-0.5,0.1c-0.5,0.1-0.6,0.4-0.6,1.4l-0.2,10.9
				c0,0.4-0.1,0.5-0.3,0.5c-0.3,0-0.5-0.2-0.7-0.4c-1.1-1-3.3-3.2-5.2-5c-1.9-1.9-3.8-3.9-4.2-4.3h-0.1L578.9,226.5z"/>
			<path class="st1" d="M595.8,220.8c0-2.6,0-3.1,0-3.6c0-0.6-0.2-0.8-0.8-0.9c-0.1,0-0.4-0.1-0.7-0.1c-0.2,0-0.3-0.1-0.3-0.2
				s0.1-0.2,0.4-0.2c0.9,0,2.1,0,2.6,0c0.5,0,1.8,0,2.9,0c2.2,0,5.2,0,7.2,2c0.9,0.9,1.7,2.3,1.7,4.4c0,2.2-0.9,3.8-1.9,4.8
				c-0.8,0.8-2.7,2-6,2c-0.6,0-1.4-0.1-2.1-0.1c-0.7-0.1-1.4-0.1-1.8-0.1c-0.2,0-0.6,0-1,0c-0.4,0-0.9,0-1.2,0
				c-0.2,0-0.3-0.1-0.3-0.2c0-0.1,0.1-0.2,0.3-0.2c0.3,0,0.5,0,0.6-0.1c0.4-0.1,0.5-0.4,0.5-0.9c0.1-0.7,0.1-2.1,0.1-3.7V220.8z
				 M598.2,222.7c0,1.8,0,3.1,0,3.5c0,0.4,0.1,1,0.2,1.2c0.2,0.3,0.9,0.7,2.3,0.7c1.6,0,2.8-0.3,3.9-1.2c1.2-1,1.5-2.5,1.5-4.3
				c0-2.2-0.9-3.6-1.7-4.3c-1.6-1.5-3.6-1.6-5-1.6c-0.4,0-1,0-1.1,0.1c-0.2,0.1-0.2,0.1-0.2,0.3c0,0.6,0,2,0,3.4V222.7z"/>
			<path class="st1" d="M620,228.6c-0.3-0.1-0.4-0.2-0.4-0.7c0-1.1,0.1-2.3,0.1-2.7c0-0.3,0.1-0.5,0.2-0.5c0.2,0,0.2,0.2,0.2,0.3
				c0,0.3,0.1,0.7,0.2,1c0.4,1.5,1.6,2,2.9,2c1.8,0,2.7-1.2,2.7-2.3c0-1-0.3-1.9-2-3.2l-0.9-0.7c-2.2-1.7-3-3.2-3-4.8
				c0-2.2,1.9-3.8,4.7-3.8c1.3,0,2.2,0.2,2.7,0.3c0.2,0,0.3,0.1,0.3,0.2c0,0.3-0.1,0.9-0.1,2.4c0,0.4-0.1,0.6-0.2,0.6
				c-0.1,0-0.2-0.1-0.2-0.4c0-0.2-0.1-0.8-0.5-1.3c-0.3-0.4-0.9-1-2.2-1c-1.5,0-2.4,0.9-2.4,2.1c0,0.9,0.5,1.6,2.1,2.9l0.6,0.4
				c2.4,1.8,3.3,3.2,3.3,5.2c0,1.2-0.4,2.6-1.9,3.5c-1,0.6-2.1,0.8-3.2,0.8C621.8,229.1,620.9,229,620,228.6z"/>
			<path class="st1" d="M632.7,220.8c0-2.6,0-3.1,0-3.6c0-0.6-0.2-0.8-0.8-0.9c-0.1,0-0.4-0.1-0.7-0.1c-0.2,0-0.3-0.1-0.3-0.2
				s0.1-0.2,0.4-0.2c1,0,2.1,0,2.7,0c0.4,0,1.6,0,2.3,0c0.3,0,0.4,0,0.4,0.2s-0.1,0.2-0.3,0.2c-0.2,0-0.3,0-0.5,0.1
				c-0.5,0.1-0.6,0.3-0.6,0.9c0,0.5,0,1,0,3.6v2.4c0,2.5,0.5,3.5,1.4,4.2c0.8,0.6,1.6,0.7,2.2,0.7c0.8,0,1.7-0.2,2.4-0.9
				c1-0.9,1-2.4,1-4.2v-2.2c0-2.6,0-3.1,0-3.6c0-0.6-0.2-0.8-0.8-0.9c-0.1,0-0.4-0.1-0.6-0.1c-0.2,0-0.3-0.1-0.3-0.2
				s0.1-0.2,0.4-0.2c0.9,0,2.1,0,2.1,0c0.2,0,1.4,0,2.1,0c0.2,0,0.4,0,0.4,0.2s-0.1,0.2-0.3,0.2c-0.2,0-0.3,0-0.5,0.1
				c-0.5,0.1-0.6,0.3-0.6,0.9c0,0.5,0,1,0,3.6v1.8c0,1.9-0.2,3.9-1.7,5.2c-1.3,1.1-2.6,1.2-3.8,1.2c-0.9,0-2.8,0-4.1-1.2
				c-0.9-0.8-1.6-2.1-1.6-4.6V220.8z"/>
			<path class="st1" d="M649.5,220.8c0-2.6,0-3.1,0-3.6c0-0.6-0.2-0.8-0.8-0.9c-0.1,0-0.4-0.1-0.7-0.1c-0.2,0-0.3-0.1-0.3-0.2
				s0.1-0.2,0.4-0.2c0.9,0,2.1,0,2.4,0c0.6,0,2.2,0,2.8,0c1.1,0,2.4,0.1,3.4,0.7c0.5,0.3,1.3,1.2,1.3,2.4c0,1.3-0.7,2.4-2.5,3.8
				c1.6,1.9,2.8,3.5,3.9,4.6c1,1,1.6,1.1,1.9,1.1c0.2,0,0.3,0,0.4,0c0.1,0,0.2,0.1,0.2,0.2c0,0.1-0.1,0.2-0.3,0.2h-1.7
				c-1,0-1.5-0.1-1.9-0.3c-0.8-0.4-1.4-1.2-2.4-2.5c-0.7-0.9-1.5-2.1-1.7-2.3c-0.1-0.1-0.2-0.1-0.3-0.1l-1.6,0c-0.1,0-0.1,0-0.1,0.1
				v0.2c0,1.6,0,2.9,0.1,3.7c0.1,0.5,0.1,0.8,0.7,0.9c0.3,0,0.6,0.1,0.9,0.1c0.1,0,0.2,0.1,0.2,0.2c0,0.1-0.1,0.2-0.4,0.2
				c-1,0-2.5-0.1-2.8-0.1c-0.3,0-1.5,0.1-2.2,0.1c-0.2,0-0.3-0.1-0.3-0.2c0-0.1,0.1-0.2,0.3-0.2c0.3,0,0.5,0,0.6-0.1
				c0.4-0.1,0.5-0.4,0.5-0.9c0.1-0.7,0.1-2.1,0.1-3.7V220.8z M651.8,222.2c0,0.2,0,0.2,0.2,0.3c0.4,0.1,0.9,0.2,1.4,0.2
				c0.7,0,1-0.1,1.3-0.3c0.5-0.4,1.2-1.1,1.2-2.6c0-2.4-1.7-3.1-2.7-3.1c-0.4,0-0.9,0-1.1,0.1c-0.1,0-0.2,0.1-0.2,0.2V222.2z"/>
			<path class="st1" d="M675.2,227.7c0,0.5,0,0.5-0.2,0.6c-1.2,0.6-3,0.8-4.4,0.8c-4.4,0-8.2-2-8.2-6.7c0-2.8,1.5-4.7,3.1-5.6
				c1.7-1,3.3-1.1,4.8-1.1c1.2,0,2.8,0.2,3.2,0.3c0.4,0.1,1,0.2,1.4,0.2c0.2,0,0.2,0.1,0.2,0.2c0,0.2-0.1,0.7-0.1,2.8
				c0,0.3-0.1,0.4-0.2,0.4c-0.1,0-0.2-0.1-0.2-0.2c0-0.4-0.1-0.9-0.6-1.4c-0.5-0.5-1.9-1.3-3.9-1.3c-1,0-2.2,0-3.4,1
				c-1,0.8-1.6,2.1-1.6,4.2c0,3.7,2.4,6.4,6.2,6.4c0.5,0,0.8,0,1.3-0.2c0.3-0.1,0.3-0.3,0.3-0.6v-1.6c0-0.9,0-1.5,0-2
				c0-0.6-0.2-0.8-0.8-0.9c-0.1,0-0.4-0.1-0.7-0.1c-0.2,0-0.3-0.1-0.3-0.2c0-0.1,0.1-0.2,0.4-0.2c0.9,0,2.2,0,2.7,0
				c0.6,0,1.5,0,2.1,0c0.2,0,0.4,0,0.4,0.2c0,0.1-0.1,0.2-0.2,0.2c-0.1,0-0.3,0-0.5,0.1c-0.5,0.1-0.7,0.3-0.7,0.9c0,0.5,0,1.2,0,2.1
				V227.7z"/>
			<path class="st1" d="M681.2,220.8c0-2.6,0-3.1,0-3.6c0-0.6-0.2-0.8-0.8-0.9c-0.1,0-0.4-0.1-0.7-0.1c-0.2,0-0.3-0.1-0.3-0.2
				s0.1-0.2,0.4-0.2c0.9,0,2.1,0,2.6,0c0.6,0,4.5,0,4.9,0c0.3,0,0.6-0.1,0.7-0.1c0.1,0,0.2-0.1,0.3-0.1c0.1,0,0.1,0.1,0.1,0.2
				c0,0.1-0.1,0.3-0.1,1.1c0,0.2-0.1,0.9-0.1,1.1c0,0.1-0.1,0.3-0.2,0.3c-0.1,0-0.1-0.1-0.1-0.2c0-0.1,0-0.4-0.1-0.6
				c-0.1-0.3-0.3-0.5-1.2-0.6c-0.3,0-2.4-0.1-2.8-0.1c-0.1,0-0.1,0.1-0.1,0.2v4.3c0,0.1,0,0.2,0.1,0.2c0.4,0,2.7,0,3.1,0
				c0.4,0,0.7-0.1,0.9-0.3c0.1-0.1,0.2-0.2,0.3-0.2c0.1,0,0.1,0.1,0.1,0.2c0,0.1,0,0.4-0.1,1.3c0,0.3-0.1,1-0.1,1.2
				c0,0.1,0,0.4-0.2,0.4c-0.1,0-0.2-0.1-0.2-0.1c0-0.2,0-0.4-0.1-0.6c-0.1-0.3-0.3-0.6-1-0.7c-0.3,0-2.3-0.1-2.8-0.1
				c-0.1,0-0.1,0.1-0.1,0.2v1.4c0,0.6,0,2,0,2.6c0,1.2,0.6,1.4,2.4,1.4c0.5,0,1.2,0,1.7-0.2c0.4-0.2,0.6-0.6,0.8-1.3
				c0-0.2,0.1-0.3,0.2-0.3c0.1,0,0.2,0.2,0.2,0.4c0,0.4-0.1,1.6-0.2,1.9c-0.1,0.4-0.3,0.4-1,0.4c-1.3,0-2.4,0-3.3-0.1
				c-0.9,0-1.5,0-2.1,0c-0.2,0-0.6,0-1,0c-0.4,0-0.9,0-1.2,0c-0.2,0-0.3-0.1-0.3-0.2c0-0.1,0.1-0.2,0.3-0.2c0.3,0,0.5,0,0.6-0.1
				c0.4-0.1,0.5-0.4,0.5-0.9c0.1-0.7,0.1-2.1,0.1-3.7V220.8z"/>
			<path class="st1" d="M691.9,222.3c0-2.9,2.1-6.7,7.5-6.7c4.5,0,7.3,2.5,7.3,6.4c0,3.9-2.9,7-7.5,7
				C694,229.1,691.9,225.4,691.9,222.3z M704,222.7c0-3.8-2.3-6.2-5.2-6.2c-2,0-4.3,1.1-4.3,5.3c0,3.5,2,6.3,5.4,6.3
				C701.2,228.1,704,227.6,704,222.7z"/>
			<path class="st1" d="M712.1,226.5c0,1.3,0.3,1.7,0.6,1.9c0.3,0.1,0.6,0.1,0.9,0.1c0.2,0,0.3,0.1,0.3,0.2c0,0.1-0.2,0.2-0.4,0.2
				c-1.2,0-2-0.1-2.3-0.1c-0.2,0-1,0.1-1.9,0.1c-0.2,0-0.4,0-0.4-0.2c0-0.1,0.1-0.2,0.3-0.2c0.2,0,0.6,0,0.8-0.1
				c0.5-0.1,0.5-0.6,0.5-2.1l0.2-10.2c0-0.3,0.1-0.6,0.3-0.6c0.2,0,0.5,0.3,0.8,0.6c0.2,0.2,2.9,3,5.5,5.5c1.2,1.2,3.6,3.6,3.8,3.9
				h0.1l-0.2-7.7c0-1.1-0.2-1.4-0.6-1.5c-0.3-0.1-0.7-0.1-0.9-0.1c-0.2,0-0.3-0.1-0.3-0.2c0-0.1,0.2-0.2,0.4-0.2c0.9,0,1.9,0,2.3,0
				c0.2,0,0.9,0,1.7,0c0.2,0,0.4,0,0.4,0.2c0,0.1-0.1,0.2-0.3,0.2c-0.2,0-0.3,0-0.5,0.1c-0.5,0.1-0.6,0.4-0.6,1.4l-0.2,10.9
				c0,0.4-0.1,0.5-0.3,0.5c-0.3,0-0.5-0.2-0.7-0.4c-1.1-1-3.3-3.2-5.2-5c-1.9-1.9-3.8-3.9-4.2-4.3h-0.1L712.1,226.5z"/>
			<path class="st1" d="M728,228.6c-0.3-0.1-0.3-0.2-0.3-0.6c0-0.9,0.1-2,0.1-2.3c0-0.3,0.1-0.4,0.2-0.4c0.2,0,0.2,0.2,0.2,0.3
				c0,0.2,0.1,0.6,0.2,0.9c0.4,1.3,1.7,1.7,2.8,1.7c1.5,0,2.5-1,2.5-2.2c0-0.7-0.2-1.5-1.8-2.4l-1-0.6c-2.1-1.2-2.8-2.4-2.8-3.9
				c0-2.1,2-3.5,4.5-3.5c1.2,0,2.1,0.2,2.5,0.3c0.2,0,0.2,0.1,0.2,0.2c0,0.2-0.1,0.7-0.1,2.1c0,0.4-0.1,0.5-0.2,0.5
				c-0.1,0-0.2-0.1-0.2-0.3c0-0.2-0.1-0.7-0.5-1.1c-0.3-0.3-0.8-0.8-2-0.8c-1.3,0-2.4,0.7-2.4,1.8c0,0.8,0.3,1.4,1.9,2.3l0.7,0.4
				c2.3,1.3,3.1,2.6,3.1,4.2c0,1.3-0.5,2.3-1.8,3.2c-0.9,0.6-2,0.7-3,0.7C729.9,229.1,728.8,229,728,228.6z"/>
		</g>
		<path id="Columbia_Trademark_3_" class="st1" d="M168.2,220.7c-0.4,0-0.4,0.2-0.6,0.9c-0.2,0.8-0.7,2.1-1.5,2.9
			c-1.8,2-4.1,2.5-8,2.5c-5.9,0-13.8-5.2-13.8-15.6c0-4.3,0.8-8.4,4-11.4c1.9-1.8,4.4-2.7,8.2-2.7c4,0,7.5,1.2,8.9,2.7
			c1.1,1.1,1.7,2.7,1.7,4c0,0.6,0.1,1,0.4,1c0.4,0,0.5-0.4,0.5-1c0.1-0.9,0-3.3,0.1-4.7c0.1-1.5,0.2-2.1,0.2-2.4
			c0-0.3-0.2-0.5-0.7-0.5c-1.3-0.1-2.7-0.5-4.4-0.7c-2-0.3-3.6-0.4-6.4-0.4c-6.5,0-10.7,1.8-13.9,4.6c-4.2,3.9-5.1,9-5.1,12
			c0,4.3,1.1,9.2,5.4,12.9c4,3.5,9,4.8,15,4.8c2.8,0,6.1-0.3,7.9-1c0.7-0.3,0.9-0.5,1.1-1.3c0.4-1.5,1-5.3,1-5.8
			C168.6,221.1,168.5,220.7,168.2,220.7z M189.3,200.6c-11,0-15.2,8.1-15.2,14.4c0,6.5,4.3,14.4,14.8,14.4c9.3,0,15.2-6.6,15.2-15.1
			C204.1,205.9,198.4,200.6,189.3,200.6z M190.5,227.6c-7,0-11.3-6.1-11.3-13.7c0-9.1,4.8-11.5,9-11.5c6,0,10.8,5.1,10.8,13.3
			C199,226.3,193,227.6,190.5,227.6z M260.4,201.1c-1.4,0-3.7,0.1-4.2,0.1c0,0-2.3-0.1-4.2-0.1c-0.5,0-0.8,0.1-0.8,0.3
			c0,0.3,0.2,0.3,0.6,0.3c0.4,0,1,0,1.3,0.1c1.2,0.3,1.5,0.8,1.6,2.1c0.1,1.2,0.1,2.2,0.1,7.8v4.6c0,3.8-0.1,7.1-2.1,9.1
			c-1.5,1.5-3.4,2-5.1,2c-1.2,0-2.9-0.1-4.6-1.5c-1.8-1.5-2.9-3.7-2.9-9v-5.1c0-5.6,0-6.6,0.1-7.8c0.1-1.3,0.4-1.9,1.4-2.1
			c0.4-0.1,0.7-0.1,1.1-0.1c0.4,0,0.6-0.1,0.6-0.3c0-0.3-0.3-0.3-0.8-0.3c-1.3,0-3.6,0.1-4.5,0.1c-1.1,0-3.4-0.1-5.4-0.1
			c-0.6,0-0.8,0.1-0.8,0.3c0,0.3,0.2,0.3,0.6,0.3c0.5,0,1.1,0,1.4,0.1c1.2,0.3,1.5,0.8,1.6,2.1c0.1,1.2,0.1,2.2,0.1,7.8v5.4
			c0,5.3,1.4,8,3.3,9.7c2.7,2.4,6.2,2.5,8.1,2.5c2.4,0,5-0.4,7.6-2.6c3.1-2.6,3.5-7,3.5-11v-3.9c0-5.6,0-6.6,0.1-7.8
			c0.1-1.3,0.4-1.9,1.4-2.1c0.4-0.1,0.7-0.1,1.1-0.1c0.4,0,0.7-0.1,0.7-0.3C261.2,201.2,261,201.1,260.4,201.1z M342.3,228.2
			c-0.6,0-1.4-0.1-1.9-0.1c-1.1-0.1-1.4-0.8-1.5-1.8c-0.1-1.6-0.1-4.5-0.1-8v-6.5c0-5.6,0-6.6,0.1-7.8c0.1-1.3,0.4-1.9,1.4-2.1
			c0.4-0.1,0.7-0.1,1.1-0.1c0.4,0,0.6-0.1,0.6-0.4c0-0.2-0.3-0.3-0.8-0.3c-1.4,0-3.6,0.1-4.5,0.1c-1.1,0-3.4-0.1-4.8-0.1
			c-0.6,0-0.9,0.1-0.9,0.3c0,0.3,0.2,0.4,0.6,0.4c0.4,0,0.9,0,1.3,0.1c0.8,0.2,1.2,0.8,1.3,2.1c0.1,1.2,0.1,2.2,0.1,7.8v6.5
			c0,3.6,0,6.5-0.2,8c-0.1,1.1-0.3,1.7-1.1,1.8c-0.3,0.1-0.8,0.1-1.3,0.1c-0.4,0-0.6,0.1-0.6,0.3c0,0.3,0.3,0.4,0.7,0.4
			c1.5,0,3.8-0.1,4.6-0.1c1,0,3.3,0.1,5.7,0.1c0.4,0,0.7-0.1,0.7-0.4C342.9,228.3,342.7,228.2,342.3,228.2z M228.1,223.2
			c-0.3,0-0.4,0.2-0.4,0.6c-0.1,0.7-0.5,1.7-1,2.2c-0.9,1-2.4,1-4.3,1c-2.9,0-3.8-0.3-4.4-0.8c-0.8-0.7-0.8-3.2-0.8-7.9v-6.5
			c0-5.6,0-6.6,0.1-7.8c0.1-1.3,0.4-1.9,1.4-2.1c0.4-0.1,1-0.1,1.4-0.1c0.4,0,0.7-0.1,0.7-0.3c0-0.3-0.3-0.3-0.8-0.3
			c-1.4,0-4.1,0.1-5,0.1c-1,0-3.3-0.1-5-0.1c-0.6,0-0.8,0.1-0.8,0.3c0,0.3,0.2,0.3,0.6,0.3c0.5,0,0.9,0,1.2,0.1
			c1.2,0.3,1.5,0.8,1.6,2.1c0.1,1.2,0.1,2.2,0.1,7.8v6.5c0,3.4,0,6.3-0.2,7.8c-0.1,1.1-0.3,1.9-1.1,2c-0.3,0.1-0.8,0.1-1.3,0.1
			c-0.4,0-0.6,0.1-0.6,0.3c0,0.3,0.3,0.4,0.7,0.4c1.5,0,3.8-0.1,4.6-0.1c3,0,5.4,0.2,10.7,0.2c1.9,0,2.1-0.2,2.3-1
			c0.3-1.1,0.6-3.8,0.6-4.2C228.4,223.3,228.4,223.2,228.1,223.2z M319,213.1c2-1.6,3.7-3.4,3.7-6.4c0-1.9-1.2-5.5-7.8-5.5
			c-1.2,0-2.7,0.1-4.5,0.1c-0.7,0-3-0.1-5-0.1c-0.6,0-0.8,0.1-0.8,0.3c0,0.3,0.2,0.3,0.6,0.3c0.5,0,1.1,0,1.4,0.1
			c1.2,0.3,1.5,0.8,1.6,2.1c0.1,1.2,0.1,2.2,0.1,7.8v6.5c0,3.4,0,6.3-0.2,7.8c-0.1,1.1-0.3,1.9-1.1,2c-0.3,0.1-0.8,0.1-1.3,0.1
			c-0.4,0-0.6,0.1-0.6,0.3c0,0.3,0.3,0.4,0.7,0.4c1.5,0,3.8-0.1,4.6-0.1c1.1,0,4.4,0.2,5.3,0.2c6.8,0,9.8-4.1,9.8-8
			C325.7,216.7,322,214.1,319,213.1z M312.7,203.3c0-0.4,0.1-0.5,0.3-0.6c0.4-0.1,0.7-0.1,1.2-0.1c3.2,0,4.6,3.2,4.6,5.7
			c0,1.8-0.6,3.1-1.5,3.9c-0.6,0.6-1.4,0.7-2.6,0.7c-0.8,0-1.4,0-1.7-0.1c-0.1,0-0.3-0.1-0.3-0.4V203.3z M316.7,227.3
			c-0.8,0-1.7,0-2.7-0.4c-1.2-0.5-1.3-1.1-1.3-3.5v-8.7c0-0.2,0.1-0.3,0.2-0.3c0.6,0,0.9,0,1.6,0c1.4,0.1,2.3,0.3,3,0.9
			c2.8,1.9,3.6,5,3.6,7.3C321.1,226.5,318.4,227.3,316.7,227.3z M300.5,228.2c-0.5,0-1.2,0-2.3-0.4c-1.1-0.3-1.5-1.4-1.8-3.7
			l-3.3-22.7c-0.1-0.8-0.3-1.1-0.7-1.1c-0.3,0-0.5,0.3-0.8,0.9l-10,21l-10-20.7c-0.5-1-0.7-1.1-1-1.1c-0.3,0-0.5,0.3-0.6,1
			l-3.6,23.9c-0.2,1.2-0.5,2.7-1.5,2.9c-0.5,0.1-0.8,0.1-1.1,0.1c-0.4,0-0.6,0.1-0.6,0.3c0,0.3,0.3,0.4,0.7,0.4
			c1.2,0,2.9-0.1,3.6-0.1c0.7,0,2.3,0.1,3.9,0.1c0.6,0,0.9-0.1,0.9-0.4c0-0.2-0.3-0.3-0.5-0.3c-0.4,0-0.9,0-1.5-0.2
			c-0.6-0.1-1.1-0.5-1.1-1.2c0-0.6,0-1.1,0.1-1.7l1.9-14.6h0.1c1.3,2.7,3.5,7.4,3.8,8.1c0.4,1,3.3,6.6,4.2,8.3
			c0.6,1.1,1,1.8,1.3,1.8c0.3,0,0.5-0.3,1.4-2.1l8-16.7h0.1l2.2,16.2c0.1,1,0,1.5-0.2,1.6c-0.3,0.1-0.4,0.2-0.4,0.4
			c0,0.2,0.2,0.3,1.1,0.4c1.5,0.1,6.5,0.2,7.5,0.2c0.5,0,1-0.1,1-0.4C301.1,228.3,300.9,228.2,300.5,228.2z M375.6,228.2
			c-0.4,0-1,0-1.5-0.1c-0.8-0.2-1.8-0.7-3.2-4c-2.3-5.6-8.2-20.6-9.1-22.6c-0.4-0.8-0.6-1.2-0.9-1.2c-0.4,0-0.6,0.4-1,1.5l-9.2,23.1
			c-0.7,1.8-1.4,3.1-3.1,3.3c-0.3,0-0.8,0.1-1.1,0.1c-0.3,0-0.4,0.1-0.4,0.3c0,0.3,0.2,0.4,0.7,0.4c1.9,0,3.9-0.1,4.3-0.1
			c1.1,0,2.7,0.1,3.9,0.1c0.4,0,0.6-0.1,0.6-0.4c0-0.2-0.1-0.3-0.6-0.3h-0.5c-1.1,0-1.5-0.5-1.5-1.1c0-0.4,0.2-1.3,0.6-2.2l2-5.2
			c0.1-0.2,0.1-0.3,0.3-0.3h8.2c0.2,0,0.3,0.1,0.4,0.3l2.9,7.8c0.2,0.4-0.1,0.8-0.3,0.8c-0.4,0-0.5,0.1-0.5,0.3
			c0,0.3,0.4,0.3,1.1,0.3c2.9,0.1,5.6,0.1,6.9,0.1c1.4,0,1.7-0.1,1.7-0.4C376.1,228.3,375.9,228.2,375.6,228.2z M363.2,217.5h-6.8
			c-0.1,0-0.2-0.1-0.1-0.3l3.4-9c0-0.1,0.1-0.3,0.2-0.3c0.1,0,0.1,0.2,0.2,0.3l3.3,9.1C363.4,217.4,363.4,217.5,363.2,217.5z
			 M71.8,228.9h42v-3.5h-42V228.9z M97.7,198.7c-0.5,0.2-1,0-1.5-0.4c-0.4-0.3-0.8-0.6-1.2-0.8c1.3-0.7,2.1-2.1,2.1-3.7
			c0-2.1-1.6-3.9-3.6-4.2l1.6-2c0.2-0.2,0.2-0.5,0-0.7l-2-2.5c-0.1-0.1-0.2-0.1-0.3-0.1c-0.1,0-0.2,0-0.3,0.1l-2,2.5
			c-0.2,0.2-0.2,0.5,0,0.7l1.6,2c-2.1,0.3-3.6,2.1-3.6,4.2c0,1.6,0.8,2.9,2.1,3.7c-0.4,0.2-0.8,0.5-1.2,0.8c-0.5,0.4-1,0.5-1.5,0.4
			c-8.9-2.9-16.8-5.6-21.3-1.2c-5.4,5.3,0.9,13.8,2.9,17.3c1.4,2.5,2.4,5.3,2.4,7.6h42c0-2.3,1-5.1,2.4-7.6c2-3.5,8.2-12,2.9-17.3
			C114.5,193.1,106.6,195.9,97.7,198.7z M86.4,219.5c-1.6,0.1-3-1.4-3.5-3.4l1.3-3.1c0.2-0.3,0-0.7-0.2-0.9l-4.2-4.2
			c-0.2-0.2-0.5-0.2-0.6,0l-2,4.2c-0.2,0.4,0,0.6,0.2,0.9l3.2,3.2c0.7,2.5-1,3.4-2,3.4c-3.3,0-6-4.5-8.7-9.3
			c-2.7-4.6-3.6-8-1.6-10.6c3.4-4.3,12.3-0.9,19.1,2.2c-0.1,1,0.2,2.1,0.8,3.5C91.9,213.6,89.4,219.3,86.4,219.5z M115.7,210.3
			c-2.7,4.7-5.4,9.3-8.8,9.3c-1,0-2.7-0.9-2-3.4l3.2-3.2c0.2-0.2,0.4-0.5,0.2-0.9l-2-4.2c-0.1-0.2-0.3-0.2-0.6,0l-4.2,4.2
			c-0.2,0.2-0.3,0.5-0.2,0.9l1.3,3.1c-0.5,2.1-1.9,3.6-3.5,3.4c-3-0.2-5.5-5.9-1.8-14.1c0.6-1.4,0.8-2.5,0.8-3.5
			c6.9-3.1,15.8-6.5,19.1-2.2C119.3,202.3,118.4,205.7,115.7,210.3z"/>
	</g>
</g>
</svg>
