<?xml version="1.0" encoding="utf-8"?>
<!-- Generator: Adobe Illustrator 23.0.4, SVG Export Plug-In . SVG Version: 6.00 Build 0)  -->
<svg version="1.1" xmlns="http://www.w3.org/2000/svg" xmlns:xlink="http://www.w3.org/1999/xlink" x="0px" y="0px"
	 viewBox="0 0 1400 300" style="enable-background:new 0 0 1400 300;" xml:space="preserve">
<style type="text/css">
	.st0{fill:#0058A9;}
	.st1{fill:#78B0E9;stroke:#78B0E9;stroke-width:2.7;}
	.st2{fill-rule:evenodd;clip-rule:evenodd;fill:#0058A9;}
	.st3{fill:#78B0E9;}
</style>
<g id="Layer_1">
</g>
<g id="Layer_2">
</g>
<g id="Layer_3">
	<g>
		<path class="st0" d="M216.73,142.66c-7.89-7.07-9.84-16.35-9.84-24.07c0-5.44,1.87-14.96,9.11-22.2c4.88-4.88,12.27-8.7,24.8-8.7
			c3.25,0,7.8,0.24,11.79,0.98c3.09,0.57,5.69,1.06,8.29,1.22c0.9,0.08,1.06,0.41,1.06,0.89c0,0.65-0.24,1.63-0.41,4.56
			c-0.16,2.68-0.16,7.15-0.24,8.37c-0.08,1.22-0.24,1.71-0.73,1.71c-0.57,0-0.65-0.57-0.65-1.71c0-3.17-1.3-6.5-3.42-8.29
			c-2.85-2.44-9.1-4.64-16.26-4.64c-10.81,0-15.85,3.17-18.7,5.94c-5.93,5.69-7.32,12.93-7.32,21.22
			c0,15.53,11.96,29.76,29.36,29.76c6.1,0,10.89-0.73,14.15-4.07c1.71-1.79,2.76-5.37,3.01-6.83c0.16-0.9,0.32-1.22,0.81-1.22
			c0.41,0,0.57,0.57,0.57,1.22c0,0.57-0.97,7.65-1.79,10.41c-0.48,1.54-0.65,1.71-2.11,2.36c-3.25,1.3-9.44,1.87-14.64,1.87
			C231.36,151.44,223.15,148.44,216.73,142.66z"/>
		<path class="st0" d="M299.11,97.04c16.1,0,28.29,9.84,28.29,25.94c0,15.45-11.46,28.21-28.7,28.21
			c-19.6,0-27.97-14.72-27.97-27.16C270.74,112.9,279.36,97.04,299.11,97.04z M300.74,148.35c6.42,0,19.35-3.41,19.35-23.42
			c0-16.59-10.08-25.29-21.38-25.29c-11.95,0-20.57,7.48-20.57,22.52C278.14,138.27,287.81,148.35,300.74,148.35z"/>
		<path class="st0" d="M348.89,130.38c0,10.17,0.16,14.31,1.46,15.53c1.14,1.14,3.91,1.63,9.51,1.63c3.74,0,6.91-0.08,8.62-2.11
			c0.89-1.06,1.46-2.52,1.71-3.9c0.08-0.49,0.32-0.9,0.73-0.9c0.33,0,0.49,0.33,0.49,1.06c0,0.73-0.49,4.88-1.06,6.91
			c-0.49,1.62-0.73,1.87-4.55,1.87c-5.12,0-9.11-0.08-12.44-0.25c-3.25-0.08-5.69-0.16-7.8-0.16c-0.32,0-1.54,0-2.92,0.08
			c-1.47,0.08-3.01,0.16-4.15,0.16c-0.73,0-1.14-0.16-1.14-0.57c0-0.24,0.16-0.57,0.57-0.57c0.65,0,1.54-0.16,2.19-0.32
			c1.38-0.33,1.55-1.63,1.87-3.66c0.41-2.85,0.41-8.3,0.41-14.97v-12.2c0-10.73,0-12.68-0.16-14.88c-0.16-2.36-0.57-3.5-2.93-3.82
			c-0.57-0.08-1.79-0.16-2.44-0.16c-0.24,0-0.57-0.32-0.57-0.57c0-0.41,0.33-0.57,1.14-0.57c3.25,0,7.72,0.16,8.13,0.16
			c0.33,0,5.69-0.16,7.89-0.16c0.73,0,1.14,0.16,1.14,0.57c0,0.25-0.32,0.49-0.57,0.49c-0.49,0-1.54,0.08-2.36,0.16
			c-2.12,0.41-2.52,1.46-2.68,3.9c-0.08,2.19-0.08,4.15-0.08,14.88V130.38z"/>
		<path class="st0" d="M381.83,118.02c0-10.73,0-12.68-0.16-14.88c-0.16-2.2-0.57-3.5-2.93-3.82c-0.57-0.08-1.79-0.16-2.44-0.16
			c-0.24,0-0.57-0.32-0.57-0.57c0-0.41,0.32-0.57,1.14-0.57c3.25,0,7.56,0.16,8.22,0.16c0.65,0,5.12-0.16,7.24-0.16
			c0.81,0,1.22,0.16,1.22,0.57c0,0.25-0.33,0.57-0.65,0.57c-0.49,0-0.89,0-1.79,0.16c-1.87,0.33-2.28,1.55-2.44,3.82
			c-0.16,2.19-0.16,4.15-0.16,14.88v9.68c0,10,2.2,14.15,5.29,16.91c3.49,3.17,6.59,3.74,10.65,3.74c4.39,0,8.62-1.95,11.06-4.88
			c3.34-3.99,4.07-9.68,4.07-16.75v-8.7c0-10.73-0.08-12.69-0.16-14.88c-0.09-2.2-0.49-3.5-2.85-3.82
			c-0.57-0.08-1.79-0.16-2.44-0.16c-0.32,0-0.57-0.32-0.57-0.57c0-0.41,0.32-0.57,1.14-0.57c3.17,0,7.32,0.16,7.73,0.16
			c0.49,0,3.9-0.16,6.02-0.16c0.81,0,1.14,0.16,1.14,0.57c0,0.25-0.24,0.57-0.57,0.57c-0.49,0-0.9,0-1.79,0.16
			c-1.95,0.41-2.36,1.55-2.52,3.82c-0.16,2.19-0.08,4.15-0.08,14.88l0,7.4c0,7.48-0.97,15.86-6.67,20.74
			c-5.2,4.47-10.73,5.04-14.96,5.04c-2.36,0-9.84-0.16-14.88-4.88c-3.5-3.25-6.26-8.05-6.26-18.13L381.83,118.02z"/>
		<path class="st0" d="M497.39,141.36c0.24,2.44,0.73,6.18,3.66,7.16c2.03,0.65,3.9,0.65,4.64,0.65c0.32,0,0.57,0.16,0.57,0.49
			c0,0.41-0.65,0.65-1.46,0.65c-1.63,0-9.6-0.16-12.2-0.41c-1.7-0.16-2.03-0.41-2.03-0.73c0-0.24,0.17-0.49,0.49-0.57
			c0.41-0.08,0.49-1.14,0.32-2.44l-3.41-34.97h-0.16l-17.24,35.29c-1.46,3.01-1.87,3.66-2.52,3.66c-0.65,0-1.06-0.65-2.44-3.17
			c-1.87-3.41-6.58-12.28-8.37-16.02c-2.11-4.39-7.89-16.02-9.11-18.86h-0.33l-2.76,31.22c-0.08,1.06-0.08,2.36-0.08,3.5
			c0,1.06,0.65,1.71,1.71,1.95c1.22,0.33,2.27,0.41,2.76,0.41c0.24,0,0.57,0.24,0.57,0.49c0,0.49-0.49,0.65-1.3,0.65
			c-2.68,0-6.1-0.24-6.67-0.24c-0.65,0-4.07,0.24-6.02,0.24c-0.73,0-1.22-0.16-1.22-0.65c0-0.24,0.32-0.49,0.73-0.49
			c0.57,0,1.06-0.08,2.12-0.24c2.36-0.41,2.44-2.93,2.76-5.53l5.2-45.13c0.08-0.73,0.41-1.22,0.81-1.22c0.49,0,1.06,0.24,1.46,1.06
			l21.63,42.93l20.82-42.85c0.32-0.65,0.65-1.14,1.14-1.14c0.49,0,0.89,0.57,1.06,1.87L497.39,141.36z"/>
		<path class="st0" d="M518.96,118.02c0-10.73,0-12.68-0.16-14.88c-0.16-2.36-0.57-3.66-2.93-3.98c-0.57-0.08-1.79-0.16-2.44-0.17
			c-0.24,0-0.57-0.16-0.57-0.41c0-0.41,0.33-0.57,1.14-0.57c3.25,0,7.89,0.16,8.29,0.16c1.71,0,5.04-0.16,8.38-0.16
			c11.95,0,15.04,6.91,15.04,10.57c0,5.45-3.58,8.86-7.23,12.12c5.44,1.63,12.6,6.58,12.6,14.39c0,7.73-5.78,15.37-17.97,15.37
			c-1.3,0-3.9-0.09-6.18-0.25c-2.27-0.08-4.31-0.16-4.63-0.16c-0.16,0-1.46,0.08-2.93,0.08c-1.46,0.08-3.17,0.16-4.31,0.16
			c-0.74,0-1.14-0.16-1.14-0.57c0-0.24,0.16-0.41,0.57-0.41c0.65,0,1.55-0.24,2.2-0.32c1.38-0.24,1.54-1.79,1.87-3.82
			c0.41-2.85,0.41-8.3,0.41-14.97V118.02z M525.14,119.49c0,0.49,0.16,0.65,0.49,0.73c0.41,0.08,1.7,0.33,4.39,0.33
			c3.98,0,5.53-0.16,6.99-1.79c1.54-1.71,2.76-4.07,2.76-7.4c0-5.28-2.93-11.14-10.08-11.14c-0.81,0-2.52,0.08-3.66,0.33
			c-0.65,0.16-0.9,0.33-0.9,0.73L525.14,119.49z M525.14,127.13c0,5.37,0,13.66,0.08,14.72c0.24,3.34,0.24,4.15,2.44,5.2
			c1.95,0.89,4.96,0.98,6.25,0.98c4.72,0,10.49-1.79,10.49-10.65c0-3.09-1.22-9.03-6.83-12.6c-2.44-1.54-4.71-1.47-6.42-1.79
			c-0.89-0.16-4.47-0.16-5.61-0.16c-0.24,0-0.41,0.16-0.41,0.49L525.14,127.13z"/>
		<path class="st0" d="M576.22,130.22c0,6.67,0,12.12,0.32,14.96c0.24,2.03,0.48,3.33,2.6,3.66c1.06,0.16,2.6,0.32,3.25,0.32
			c0.41,0,0.57,0.33,0.57,0.57c0,0.33-0.32,0.57-1.14,0.57c-3.99,0-8.62-0.24-8.95-0.24c-0.41,0-4.88,0.24-7.07,0.24
			c-0.73,0-1.14-0.16-1.14-0.57c0-0.24,0.16-0.57,0.57-0.57c0.65,0,1.54-0.16,2.19-0.32c1.38-0.33,1.63-1.63,1.87-3.66
			c0.32-2.85,0.41-8.3,0.41-14.96v-12.2c0-10.73,0-12.69-0.16-14.88c-0.16-2.36-0.74-3.42-2.28-3.74c-0.81-0.16-1.71-0.24-2.19-0.24
			c-0.33,0-0.57-0.32-0.57-0.57c0-0.41,0.32-0.57,1.14-0.57c2.36,0,6.83,0.16,7.24,0.16c0.33,0,4.96-0.16,7.16-0.16
			c0.81,0,1.14,0.16,1.14,0.57c0,0.25-0.33,0.57-0.57,0.57c-0.49,0-0.98,0-1.79,0.16c-1.95,0.41-2.36,1.38-2.52,3.82
			c-0.08,2.19-0.08,4.15-0.08,14.88V130.22z"/>
		<path class="st0" d="M615.5,99.4c0.89-2.28,1.22-2.68,1.71-2.68c0.73,0,0.97,0.98,1.7,2.52c1.3,2.93,12.77,31.47,17.16,41.96
			c2.6,6.18,4.55,7.07,6.1,7.56c1.06,0.33,2.12,0.41,2.85,0.41c0.41,0,0.9,0.16,0.9,0.57c0,0.41-0.81,0.57-1.63,0.57
			c-1.06,0-6.34,0-11.3-0.16c-1.38-0.08-2.52-0.08-2.52-0.49c0-0.33,0.16-0.33,0.49-0.49c0.41-0.16,1.14-0.73,0.65-1.86l-6.42-15.86
			c-0.16-0.32-0.25-0.4-0.65-0.4h-16.5c-0.32,0-0.57,0.16-0.73,0.57l-4.07,11.06c-0.65,1.71-1.06,3.42-1.06,4.64
			c0,1.38,1.22,1.87,2.44,1.87h0.65c0.57,0,0.73,0.24,0.73,0.57c0,0.41-0.41,0.57-1.06,0.57c-1.71,0-5.61-0.24-6.42-0.24
			c-0.73,0-4.31,0.24-7.23,0.24c-0.9,0-1.38-0.16-1.38-0.57c0-0.32,0.32-0.57,0.65-0.57c0.49,0,1.55-0.08,2.11-0.16
			c3.25-0.41,4.64-2.84,6.02-6.34L615.5,99.4z M623.47,128.19c0.32,0,0.32-0.16,0.24-0.49l-7.08-18.95c-0.41-1.06-0.81-1.06-1.22,0
			l-6.67,18.95c-0.08,0.33,0,0.49,0.25,0.49H623.47z"/>
		<line class="st1" x1="672.05" y1="84.77" x2="672.05" y2="160.69"/>
		<rect x="76.82" y="144.01" class="st2" width="81.48" height="6.71"/>
		<path class="st2" d="M168.42,88.67c-8.71-8.54-24.03-3.19-41.39,2.35c-0.97,0.31-1.98,0.03-2.87-0.67
			c-0.76-0.64-1.56-1.17-2.35-1.64c2.45-1.45,4.1-4.12,4.1-7.17c0-4.17-3.06-7.61-7.05-8.24l3.07-3.96c0.3-0.39,0.3-1.04,0-1.43
			l-3.81-4.92c-0.15-0.2-0.35-0.29-0.55-0.29s-0.4,0.1-0.56,0.29l-3.8,4.92c-0.3,0.39-0.3,1.04,0,1.43l3.06,3.96
			c-3.99,0.63-7.05,4.07-7.05,8.24c0,3.05,1.65,5.72,4.09,7.17c-0.79,0.46-1.59,1-2.35,1.64c-0.88,0.7-1.89,0.98-2.87,0.67
			c-17.36-5.55-32.68-10.89-41.39-2.35c-10.43,10.23,1.71,26.77,5.53,33.58c2.68,4.78,4.57,10.34,4.57,14.76h40.75h40.75
			c0-4.42,1.9-9.98,4.58-14.76C166.71,115.44,178.86,98.9,168.42,88.67z M105.15,131.36c-3.15,0.21-5.76-2.71-6.76-6.7l2.59-6.05
			c0.29-0.67,0.09-1.28-0.34-1.72l-8.19-8.19c-0.46-0.46-0.89-0.48-1.11,0l-3.87,8.18c-0.3,0.7,0.02,1.24,0.44,1.71l6.11,6.18
			c1.28,4.86-2.02,6.62-3.87,6.62c-6.49,0-11.68-8.82-16.98-17.96c-5.21-8.98-7.04-15.55-3.12-20.5c6.56-8.28,23.77-1.73,37.15,4.37
			c-0.12,1.92,0.33,4.14,1.51,6.78C115.77,119.82,111.01,130.96,105.15,131.36z M161.97,113.44c-5.3,9.14-10.49,17.96-16.97,17.96
			c-1.86,0-5.16-1.77-3.88-6.62l6.11-6.18c0.42-0.47,0.74-1.01,0.44-1.71l-3.88-8.18c-0.22-0.48-0.65-0.46-1.11,0l-8.19,8.19
			c-0.44,0.44-0.63,1.05-0.34,1.72l2.58,6.05c-1,3.99-3.6,6.9-6.76,6.7c-5.86-0.4-10.62-11.54-3.56-27.28
			c1.19-2.64,1.64-4.87,1.51-6.78c13.38-6.1,30.6-12.64,37.16-4.37C169.01,97.89,167.18,104.46,161.97,113.44z"/>
		<g>
			<path class="st3" d="M728.43,141.58c4.58-10.57,15.15-38.11,16.88-43.79c0.39-1.18,0.71-2.29,0.71-3c0-0.63-0.24-1.42-1.03-1.81
				c-0.95-0.32-2.13-0.32-3-0.32c-0.47,0-0.87-0.08-0.87-0.47c0-0.47,0.47-0.63,1.74-0.63c3.16,0,6.79,0.24,7.73,0.24
				c0.47,0,3.87-0.24,6.15-0.24c0.87,0,1.34,0.16,1.34,0.55s-0.32,0.55-0.95,0.55c-0.55,0-2.29,0-3.79,0.95
				c-1.03,0.71-2.21,2.05-4.34,7.42c-0.87,2.21-4.81,11.68-8.84,21.38c-4.81,11.52-8.36,20.04-10.18,23.91c-2.21,4.73-2.53,6-3.31,6
				c-0.95,0-1.34-1.1-2.84-4.89l-19.33-48.37c-1.74-4.42-2.92-5.29-5.68-6.08c-1.18-0.32-2.52-0.32-3-0.32
				c-0.47,0-0.63-0.24-0.63-0.55c0-0.47,0.79-0.55,2.05-0.55c3.79,0,8.29,0.24,9.23,0.24c0.79,0,4.34-0.24,7.34-0.24
				c1.42,0,2.13,0.16,2.13,0.55s-0.24,0.55-0.79,0.55c-0.87,0-2.29,0.08-3,0.39c-0.87,0.39-1.03,1.03-1.03,1.58
				c0,1.03,0.95,3.47,2.13,6.55L728.43,141.58z"/>
			<path class="st3" d="M769.85,114.44c0-12.31,0-14.52-0.16-17.04c-0.16-2.68-0.79-3.95-3.39-4.5c-0.63-0.16-1.97-0.24-2.68-0.24
				c-0.32,0-0.63-0.16-0.63-0.47c0-0.47,0.39-0.63,1.26-0.63c3.55,0,8.29,0.24,8.92,0.24c1.74,0,6.31-0.24,9.94-0.24
				c9.86,0,13.41,3.31,14.68,4.5c1.74,1.66,3.95,5.21,3.95,9.39c0,11.2-8.21,18.78-19.41,18.78c-0.39,0-1.26,0-1.66-0.08
				c-0.39,0-0.87-0.16-0.87-0.55c0-0.63,0.47-0.71,2.13-0.71c7.65,0,13.65-5.6,13.65-12.86c0-2.6-0.24-7.89-4.42-12.15
				s-9-3.94-10.81-3.94c-1.34,0-2.68,0.16-3.39,0.47c-0.47,0.16-0.63,0.71-0.63,1.5v32.43c0,7.57,0,13.81,0.39,17.12
				c0.24,2.29,0.71,4.02,3.08,4.34c1.1,0.16,2.84,0.32,3.55,0.32c0.47,0,0.63,0.24,0.63,0.47c0,0.39-0.39,0.63-1.26,0.63
				c-4.34,0-9.31-0.24-9.71-0.24c-0.24,0-5.21,0.24-7.58,0.24c-0.87,0-1.26-0.16-1.26-0.63c0-0.24,0.16-0.47,0.63-0.47
				c0.71,0,1.66-0.16,2.37-0.32c1.58-0.32,1.97-2.05,2.29-4.34c0.39-3.31,0.39-9.55,0.39-17.12V114.44z"/>
			<path class="st3" d="M837.31,128.33c0,7.57,0,13.81,0.39,17.12c0.24,2.29,0.71,4.02,3.08,4.34c1.1,0.16,2.84,0.32,3.55,0.32
				c0.47,0,0.63,0.24,0.63,0.47c0,0.39-0.39,0.63-1.26,0.63c-4.34,0-9.31-0.24-9.71-0.24s-5.37,0.24-7.73,0.24
				c-0.87,0-1.26-0.16-1.26-0.63c0-0.24,0.16-0.47,0.63-0.47c0.71,0,1.66-0.16,2.37-0.32c1.58-0.32,1.97-2.05,2.29-4.34
				c0.39-3.31,0.39-9.55,0.39-17.12V94.95L819,95.11c-4.89,0.08-6.79,0.63-8.05,2.52c-0.87,1.34-1.1,1.89-1.34,2.45
				c-0.24,0.63-0.47,0.79-0.79,0.79c-0.24,0-0.39-0.24-0.39-0.71c0-0.79,1.58-7.57,1.74-8.21c0.16-0.47,0.47-1.5,0.79-1.5
				c0.55,0,1.34,0.79,3.47,0.95c2.29,0.24,5.29,0.39,6.23,0.39h29.59c2.53,0,4.34-0.16,5.6-0.39c1.18-0.16,1.89-0.39,2.21-0.39
				c0.39,0,0.39,0.47,0.39,0.95c0,2.37-0.24,7.81-0.24,8.68c0,0.71-0.24,1.03-0.55,1.03c-0.39,0-0.55-0.24-0.63-1.34l-0.08-0.87
				c-0.24-2.37-2.13-4.18-9.71-4.34l-9.94-0.16V128.33z"/>
			<path class="st3" d="M881.65,128.48c0,11.6,0.32,16.65,1.74,18.07c1.26,1.26,3.31,1.81,9.47,1.81c4.18,0,7.65-0.08,9.55-2.37
				c1.03-1.26,1.82-3.24,2.05-4.73c0.08-0.63,0.24-1.03,0.71-1.03c0.39,0,0.47,0.32,0.47,1.18c0,0.87-0.55,5.6-1.18,7.89
				c-0.55,1.81-0.79,2.13-4.97,2.13c-5.68,0-9.78-0.16-13.1-0.24c-3.31-0.16-5.76-0.24-8.05-0.24c-0.32,0-1.66,0.08-3.23,0.08
				c-1.58,0.08-3.31,0.16-4.5,0.16c-0.87,0-1.26-0.16-1.26-0.63c0-0.24,0.16-0.47,0.63-0.47c0.71,0,1.66-0.16,2.37-0.32
				c1.58-0.32,1.97-2.05,2.29-4.34c0.39-3.31,0.39-9.55,0.39-17.12v-13.89c0-12.31,0-14.52-0.16-17.04
				c-0.16-2.68-0.79-3.95-3.39-4.5c-0.63-0.16-1.97-0.24-2.68-0.24c-0.32,0-0.63-0.16-0.63-0.47c0-0.47,0.39-0.63,1.26-0.63
				c3.55,0,8.52,0.24,8.92,0.24s6.15-0.24,8.52-0.24c0.87,0,1.26,0.16,1.26,0.63c0,0.32-0.32,0.47-0.63,0.47
				c-0.55,0-1.66,0.08-2.6,0.24c-2.29,0.39-2.92,1.74-3.08,4.5c-0.16,2.52-0.16,4.73-0.16,17.04V128.48z"/>
			<path class="st3" d="M928.35,128.33c0,7.57,0,13.81,0.39,17.12c0.24,2.29,0.71,4.02,3.08,4.34c1.1,0.16,2.84,0.32,3.55,0.32
				c0.47,0,0.63,0.24,0.63,0.47c0,0.39-0.39,0.63-1.26,0.63c-4.34,0-9.31-0.24-9.71-0.24s-5.37,0.24-7.73,0.24
				c-0.87,0-1.26-0.16-1.26-0.63c0-0.24,0.16-0.47,0.63-0.47c0.71,0,1.66-0.16,2.37-0.32c1.58-0.32,1.97-2.05,2.29-4.34
				c0.39-3.31,0.39-9.55,0.39-17.12v-13.89c0-12.31,0-14.52-0.16-17.04c-0.16-2.68-0.95-4.02-2.68-4.42
				c-0.87-0.24-1.89-0.32-2.45-0.32c-0.32,0-0.63-0.16-0.63-0.47c0-0.47,0.39-0.63,1.26-0.63c2.6,0,7.57,0.24,7.97,0.24
				s5.37-0.24,7.73-0.24c0.87,0,1.26,0.16,1.26,0.63c0,0.32-0.32,0.47-0.63,0.47c-0.55,0-1.03,0.08-1.97,0.24
				c-2.13,0.39-2.76,1.74-2.92,4.5c-0.16,2.52-0.16,4.73-0.16,17.04V128.33z"/>
		</g>
		<g>
			<path class="st0" d="M238.68,208.21c0,8.58-6.53,14.98-15.32,14.98c-9.84,0-15.5-6.92-15.5-14.67c0-8.88,6.44-15.45,15.58-15.45
				C233.5,193.06,238.68,200.28,238.68,208.21z M213.77,207.25c0,6.01,2.57,14.19,10.01,14.19c4.96,0,8.97-3.7,8.97-12.45
				c0-6.57-2.96-14.19-9.88-14.19C218.52,194.8,213.77,197.98,213.77,207.25z"/>
			<path class="st0" d="M249.83,207.38c-0.91,0-0.91,0.09-0.91,1.35v8.58c0,3.22,0.17,3.61,1.7,3.88l1.04,0.17
				c0.3,0.3,0.26,1.09-0.09,1.26c-1.31-0.09-3-0.13-5.05-0.13c-1.44,0-2.87,0.04-4.7,0.13c-0.35-0.17-0.39-0.96-0.09-1.26l0.96-0.13
				c1.48-0.22,1.65-0.7,1.65-3.92v-8.62c0-1.18-0.04-1.31-0.78-1.31h-1.57c-0.35-0.17-0.44-0.74-0.13-1l1.87-0.96
				c0.3-0.17,0.61-0.43,0.61-0.96v-0.35c0-1.26,0.17-3.4,0.96-5.62c1.26-3.48,4.14-6.09,8.53-6.09c2.39,0,3.96,0.78,5.14,1.74
				c1.65-1.61,3.74-2.79,7.18-2.79c3.53,0,6.18,1.83,6.18,4.05c0,1.44-1.04,2.26-2.26,2.26c-1.04,0-1.39-0.39-1.65-0.87
				c-1.44-2.74-2.87-3.7-4-3.7c-3.09,0-3.7,3.66-3.7,10.93v0.48c0,0.65,0.13,0.83,1.09,0.83h3.7c3.92,0,6.44-0.61,6.57-0.61
				c0.26,0,0.48,0.09,0.57,0.35c-0.09,1.35-0.13,3.44-0.13,5.22v7.01c0,3.22,0.17,3.66,1.65,3.92l0.78,0.13
				c0.3,0.3,0.26,1.09-0.09,1.26c-1.61-0.09-3.09-0.13-4.7-0.13c-1.44,0-2.92,0.04-4.27,0.13c-0.39-0.17-0.44-0.96-0.13-1.26
				l0.52-0.09c1.48-0.26,1.65-0.74,1.65-3.96v-6.4c0-3.4-0.04-3.53-2.26-3.53h-4.05c-0.83,0-0.91,0.09-0.91,1.35v8.58
				c0,3.22,0.17,3.7,1.7,3.88l1.7,0.17c0.3,0.3,0.26,1.09-0.09,1.26c-1.92-0.09-3.61-0.13-5.66-0.13c-1.44,0-2.92,0.04-4.44,0.13
				c-0.35-0.17-0.39-0.96-0.09-1.26l0.65-0.09c1.48-0.22,1.65-0.74,1.65-3.96v-8.62c0-1.18-0.04-1.31-0.78-1.31H249.83z
				 M248.91,204.24c0,1,0.04,1.09,0.96,1.09h5.66c0.57,0,0.61-0.35,0.61-0.74v-0.91c0-1.83,0.22-3.96,0.91-6.18
				c-0.44-1.7-2.13-3.35-4-3.35c-2.26,0-4.14,1.48-4.14,9.1V204.24z"/>
			<path class="st0" d="M291.58,205.33c0.57,0.52,0.87,1.22,0.87,2.22c0,1.39-0.74,2.05-1.09,2.05c-0.3,0-0.52-0.09-0.83-0.48
				c-0.96-1.26-2.26-2.66-3.96-2.66c-2.48,0-5.05,2.44-5.05,6.53c0,3.53,2.26,6.88,6.23,6.88c2.83,0,3.83-1.04,4.7-2.31
				c0.39-0.04,0.87,0.26,0.91,0.78c-1.57,3.53-4.92,4.75-7.66,4.75c-2.31,0-4.57-0.91-6.05-2.35c-1.52-1.48-2.52-3.74-2.52-6.27
				c0-5.09,3.7-9.75,10.71-9.75C289.1,204.72,290.36,204.9,291.58,205.33z"/>
			<path class="st0" d="M299.51,212.17c-0.83,0-0.91,0.04-0.91,0.57c0,3.92,2.7,7.05,6.57,7.05c1.74,0,3.18-0.57,4.18-2.18
				c0.44-0.13,0.91,0.3,0.96,0.7c-1.48,3.48-4.7,4.79-7.36,4.79c-5.05,0-8.4-3.74-8.4-8.71c0-4.92,3.35-9.66,9.19-9.66
				c3.22,0,6.53,2.09,6.53,5.88c0,0.39-0.04,0.65-0.22,1c-0.26,0.39-1.26,0.57-3,0.57H299.51z M303.51,210.43
				c1.26,0,1.83-0.13,2.13-0.3c0.26-0.17,0.44-0.52,0.44-0.91c0-1.57-1-2.83-2.87-2.83c-2.92,0-4.27,2.83-4.27,3.74
				c0,0.17,0.09,0.3,0.61,0.3H303.51z"/>
			<path class="st0" d="M341.74,213.69c0,6.18-4.35,9.4-9.53,9.4c-5.01,0-9.19-3.18-9.19-8.88c0-5.83,4.44-9.49,9.53-9.49
				C337.47,204.72,341.74,208.03,341.74,213.69z M332.73,221.35c3,0,3.87-3.57,3.87-6.92c0-3.66-1.26-7.97-4.48-7.97
				c-2.22,0-3.96,2.26-3.96,7.1C328.15,217.52,329.59,221.35,332.73,221.35z"/>
			<path class="st0" d="M352.41,207.38c-0.91,0-0.91,0.09-0.91,1.35v8.58c0,3.22,0.17,3.7,1.7,3.88l1.7,0.17
				c0.3,0.3,0.26,1.09-0.09,1.26c-1.96-0.09-3.66-0.13-5.7-0.13c-1.44,0-2.92,0.04-4.7,0.13c-0.35-0.17-0.39-0.96-0.09-1.26
				l0.96-0.13c1.48-0.22,1.65-0.7,1.65-3.92v-8.62c0-1.18-0.04-1.31-0.78-1.31h-1.57c-0.35-0.17-0.44-0.74-0.13-1l1.87-0.96
				c0.3-0.17,0.61-0.43,0.61-0.96v-0.78c0-1.87,0.17-4,0.91-6.22c1.13-3.44,4.05-6.09,8.14-6.09c3,0,4.96,1.35,4.96,3.18
				c0,1.22-1.09,2.09-2.13,2.09c-0.65,0-1-0.26-1.26-0.61c-1.39-2-2.35-2.87-3.4-2.87c-1.48,0-2.66,2.96-2.66,9.49v1.31
				c0,1.31,0.04,1.39,0.96,1.39h4.57c0.17,0.13,0.26,0.39,0.26,0.7c0,0.74-0.26,1.13-0.61,1.35H352.41z"/>
			<path class="st0" d="M375.92,207.25c-0.78,0-0.83,0.09-0.83,1.48v6.7c0,2.74,0.39,5.18,3.18,5.18c0.87,0,1.39-0.3,2.09-0.78
				c0.39,0.04,0.65,0.39,0.57,0.87c-0.87,1.22-2.87,2.39-5.53,2.39c-4.14,0-4.88-2.39-4.88-5.44v-8.84c0-1.52-0.09-1.57-0.78-1.57
				h-1.52c-0.44-0.22-0.52-0.91-0.13-1.18c1.48-0.57,2.48-1.13,3.44-1.83c0.83-0.61,1.78-1.52,2.39-2.7c0.39-0.26,1-0.13,1.22,0.22
				v2.61c0,0.7,0,0.83,0.83,0.83h4.31c0.26,0.13,0.35,0.48,0.35,0.92c-0.04,0.52-0.22,0.91-0.57,1.13H375.92z"/>
			<path class="st0" d="M388.76,206.07c0,0.52,0.09,0.74,0.39,0.74c1.52-1.13,3.4-2.09,5.57-2.09c3.74,0,5.57,2.39,5.57,6.09v6.49
				c0,3.22,0.17,3.74,1.65,3.92l1,0.13c0.39,0.3,0.35,1.09-0.09,1.26c-1.83-0.09-3.31-0.13-4.92-0.13c-1.44,0-2.92,0.04-4.44,0.13
				c-0.35-0.17-0.39-0.96-0.09-1.26l0.65-0.09c1.48-0.22,1.65-0.74,1.65-3.96v-6.14c0-2.09-0.91-3.83-3.48-3.83
				c-1.44,0-2.44,0.7-2.96,1.26c-0.48,0.52-0.52,1.17-0.52,2.87v5.83c0,3.22,0.17,3.74,1.65,3.96l0.65,0.09
				c0.3,0.3,0.26,1.09-0.09,1.26c-1.52-0.09-3-0.13-4.61-0.13c-1.39,0-2.87,0.04-4.7,0.13c-0.35-0.17-0.39-0.96-0.09-1.26l0.96-0.13
				c1.48-0.22,1.65-0.7,1.65-3.92v-18.68c0-2.92-0.09-3.18-1-3.79l-0.61-0.39c-0.26-0.17-0.3-0.87,0-1c1.7-0.48,3.92-1.39,5.7-2.09
				c0.26-0.04,0.52,0.13,0.61,0.35c-0.09,1.74-0.13,4.44-0.13,6.31V206.07z"/>
			<path class="st0" d="M409.88,212.17c-0.83,0-0.91,0.04-0.91,0.57c0,3.92,2.7,7.05,6.57,7.05c1.74,0,3.18-0.57,4.18-2.18
				c0.44-0.13,0.91,0.3,0.96,0.7c-1.48,3.48-4.7,4.79-7.36,4.79c-5.05,0-8.4-3.74-8.4-8.71c0-4.92,3.35-9.66,9.19-9.66
				c3.22,0,6.53,2.09,6.53,5.88c0,0.39-0.04,0.65-0.22,1c-0.26,0.39-1.26,0.57-3,0.57H409.88z M413.88,210.43
				c1.26,0,1.83-0.13,2.13-0.3c0.26-0.17,0.44-0.52,0.44-0.91c0-1.57-1-2.83-2.87-2.83c-2.92,0-4.27,2.83-4.27,3.74
				c0,0.17,0.09,0.3,0.61,0.3H413.88z"/>
			<path class="st0" d="M450.02,211.69c-1.78,3.96-3.79,9.05-4.53,11.27c-0.09,0.13-0.44,0.22-0.74,0.22s-0.61-0.09-0.83-0.22
				c-0.52-1.74-1.22-3.87-2-5.7l-7.62-18.33c-1.22-2.92-1.61-3.53-3.35-3.87l-1.04-0.22c-0.3-0.3-0.3-1.09,0.13-1.22
				c1.7,0.09,3.57,0.13,5.27,0.13c1.96,0,3.44-0.04,5.75-0.13c0.39,0.26,0.44,0.96,0.04,1.26l-1.09,0.26
				c-0.96,0.22-1.31,0.44-1.31,0.78c0,0.39,0.35,1.35,2.13,5.79l3.13,7.75c0.78,1.96,1.96,4.53,2.39,5.53
				c2.35-5.49,4.96-11.49,7.27-17.41c0.7-1.74,0.57-2.09-0.74-2.39l-1.26-0.31c-0.3-0.35-0.26-1.04,0.09-1.26
				c1.79,0.09,3.27,0.13,4.66,0.13c1.57,0,3-0.04,4.22-0.13c0.35,0.22,0.3,0.91,0.09,1.26l-1.09,0.22c-1,0.22-1.96,0.52-2.7,1.79
				c-1.22,2.09-2.44,5.01-4.44,9.4L450.02,211.69z"/>
			<path class="st0" d="M467.18,217.3c0,3.22,0.17,3.66,1.65,3.92l0.78,0.13c0.3,0.3,0.26,1.09-0.09,1.26
				c-1.61-0.09-3.09-0.13-4.7-0.13c-1.44,0-2.92,0.04-4.57,0.13c-0.35-0.17-0.39-0.96-0.09-1.26l0.78-0.13
				c1.48-0.26,1.65-0.7,1.65-3.92v-6.4c0-1.96,0-2.48-1.09-3.13l-0.52-0.3c-0.13-0.17-0.13-0.78,0.04-1
				c2.26-0.65,4.44-1.61,5.66-2.35c0.26,0.04,0.48,0.13,0.61,0.35c-0.09,1.44-0.13,3.53-0.13,5.31V217.3z M462.21,198.11
				c0-1.48,1.09-2.61,2.66-2.61c1.57,0,2.66,1.13,2.66,2.61c0,1.48-1.09,2.61-2.66,2.61C463.3,200.72,462.21,199.59,462.21,198.11z"
				/>
			<path class="st0" d="M486.25,205.33c0.57,0.52,0.87,1.22,0.87,2.22c0,1.39-0.74,2.05-1.09,2.05c-0.3,0-0.52-0.09-0.83-0.48
				c-0.96-1.26-2.26-2.66-3.96-2.66c-2.48,0-5.05,2.44-5.05,6.53c0,3.53,2.26,6.88,6.23,6.88c2.83,0,3.83-1.04,4.7-2.31
				c0.39-0.04,0.87,0.26,0.91,0.78c-1.57,3.53-4.92,4.75-7.66,4.75c-2.31,0-4.57-0.91-6.05-2.35c-1.52-1.48-2.52-3.74-2.52-6.27
				c0-5.09,3.7-9.75,10.71-9.75C483.76,204.72,485.03,204.9,486.25,205.33z"/>
			<path class="st0" d="M494.17,212.17c-0.83,0-0.91,0.04-0.91,0.57c0,3.92,2.7,7.05,6.57,7.05c1.74,0,3.18-0.57,4.18-2.18
				c0.44-0.13,0.91,0.3,0.96,0.7c-1.48,3.48-4.7,4.79-7.36,4.79c-5.05,0-8.4-3.74-8.4-8.71c0-4.92,3.35-9.66,9.19-9.66
				c3.22,0,6.53,2.09,6.53,5.88c0,0.39-0.04,0.65-0.22,1c-0.26,0.39-1.26,0.57-3,0.57H494.17z M498.18,210.43
				c1.26,0,1.83-0.13,2.13-0.3c0.26-0.17,0.44-0.52,0.44-0.91c0-1.57-1-2.83-2.87-2.83c-2.92,0-4.27,2.83-4.27,3.74
				c0,0.17,0.09,0.3,0.61,0.3H498.18z"/>
			<path class="st0" d="M521.52,200.28c0-3.96-0.04-4.66-1.87-4.88l-1.52-0.17c-0.3-0.3-0.3-1.04,0.04-1.22
				c3.05-0.35,5.66-0.39,9.62-0.39c4.14,0,7.14,0.61,9.1,1.74c2.26,1.35,3.7,3.66,3.7,6.53c0,6.62-6.31,8.45-9.75,8.45
				c-0.39,0-0.74,0-1.09-0.04c-0.3-0.26-0.35-0.83-0.13-1.09c3.96-0.78,5.4-3.66,5.4-7.23c0-3.53-2.26-6.62-6.23-6.62
				c-2.18,0-2.22,0.13-2.22,1.83v19.02c0,4.61,0.39,4.75,2.44,4.96l1.61,0.17c0.26,0.3,0.22,1.09-0.09,1.26
				c-2.57-0.09-4.53-0.13-6.44-0.13s-3.87,0.04-5.62,0.13c-0.35-0.17-0.39-0.96-0.09-1.26l0.7-0.09c2.05-0.26,2.44-0.44,2.44-5.05
				V200.28z"/>
			<path class="st0" d="M544.5,210.9c0-1.96,0-2.48-1.09-3.13l-0.52-0.3c-0.13-0.17-0.13-0.78,0.04-1c1.87-0.61,4.18-1.57,5.49-2.35
				c0.26,0,0.52,0.13,0.61,0.39c-0.04,0.83-0.09,1.57-0.09,1.96c0,0.3,0.17,0.52,0.44,0.52c1.35-0.96,2.79-2.26,4.27-2.26
				c1.52,0,2.39,1,2.39,2.13c0,1.7-1.26,2.53-2.44,2.53c-0.44,0-0.83-0.13-1.18-0.35c-1.09-0.74-1.83-0.83-2.09-0.83
				c-1,0-1.26,1-1.26,3.13v5.96c0,3.22,0.17,3.7,1.7,3.88l1.7,0.17c0.31,0.3,0.26,1.09-0.09,1.26c-2.61-0.09-4.09-0.13-5.7-0.13
				c-1.44,0-2.87,0.04-4.53,0.13c-0.35-0.17-0.39-0.96-0.09-1.26l0.78-0.13c1.48-0.26,1.65-0.7,1.65-3.92V210.9z"/>
			<path class="st0" d="M575.63,213.69c0,6.18-4.35,9.4-9.53,9.4c-5.01,0-9.19-3.18-9.19-8.88c0-5.83,4.44-9.49,9.53-9.49
				C571.37,204.72,575.63,208.03,575.63,213.69z M566.62,221.35c3,0,3.87-3.57,3.87-6.92c0-3.66-1.26-7.97-4.48-7.97
				c-2.22,0-3.96,2.26-3.96,7.1C562.05,217.52,563.49,221.35,566.62,221.35z"/>
			<path class="st0" d="M589.09,217.74c-0.7,1.57-1.52,3.61-2.05,5.09c-0.17,0.17-0.44,0.26-0.74,0.26s-0.57-0.09-0.78-0.26
				c-0.44-1.22-1.13-2.92-1.65-4.05c-0.96-2.13-3.35-7.62-4.18-9.45c-0.87-1.87-1.35-2.44-2.66-2.7l-0.83-0.17
				c-0.3-0.3-0.26-1.04,0.09-1.26c1.52,0.09,3.05,0.13,4.57,0.13c1.96,0,3.27-0.04,4.79-0.13c0.44,0.17,0.48,0.96,0.09,1.26
				l-0.78,0.13c-0.61,0.09-1.09,0.22-1.09,0.48c0,0.26,0.09,0.74,0.35,1.39c0.61,1.61,2.83,7.01,3.48,8.31
				c1.04-2.18,2.09-4.83,3.22-7.57c0.44-1.09,0.61-1.65,0.61-1.96s-0.39-0.48-0.91-0.57l-1.04-0.22c-0.35-0.35-0.3-1.09,0.17-1.26
				c1.31,0.09,2.39,0.13,3.66,0.13c1.13,0,2.22-0.04,3.18-0.13c0.39,0.17,0.44,0.96,0.09,1.26l-0.87,0.17
				c-1.31,0.26-1.92,0.57-3.26,3.53L589.09,217.74z"/>
			<path class="st0" d="M615.17,213.69c0,6.18-4.35,9.4-9.53,9.4c-5.01,0-9.19-3.18-9.19-8.88c0-5.83,4.44-9.49,9.53-9.49
				C610.9,204.72,615.17,208.03,615.17,213.69z M606.16,221.35c3,0,3.87-3.57,3.87-6.92c0-3.66-1.26-7.97-4.48-7.97
				c-2.22,0-3.96,2.26-3.96,7.1C601.58,217.52,603.02,221.35,606.16,221.35z"/>
			<path class="st0" d="M618.65,221.7c-0.44-0.83-0.7-3.05-0.61-4.92c0.26-0.35,0.91-0.39,1.22-0.09c0.78,2.44,2.39,4.75,4.7,4.75
				c1.35,0,2.44-0.91,2.44-2.44c0-1.61-1.44-2.66-2.96-3.4c-2.26-1.09-4.61-2.7-4.61-5.49c-0.04-3.4,2.87-5.4,6.49-5.4
				c1.78,0,3.44,0.52,4.05,0.87c0.44,0.91,0.65,2.26,0.65,4.22c-0.13,0.35-0.87,0.48-1.18,0.22c-0.65-2-2.05-3.66-3.74-3.66
				c-1.39,0-2.44,1-2.44,2.26s1.26,2.18,2.92,2.96c2.35,1.13,4.83,2.61,4.83,6.05c0,3.79-3.35,5.44-6.79,5.44
				C621.83,223.09,620.05,222.75,618.65,221.7z"/>
			<path class="st0" d="M640.64,207.25c-0.78,0-0.83,0.09-0.83,1.48v6.7c0,2.74,0.39,5.18,3.18,5.18c0.87,0,1.39-0.3,2.09-0.78
				c0.39,0.04,0.65,0.39,0.57,0.87c-0.87,1.22-2.87,2.39-5.53,2.39c-4.14,0-4.88-2.39-4.88-5.44v-8.84c0-1.52-0.09-1.57-0.78-1.57
				h-1.52c-0.44-0.22-0.52-0.91-0.13-1.18c1.48-0.57,2.48-1.13,3.44-1.83c0.83-0.61,1.78-1.52,2.39-2.7c0.39-0.26,1-0.13,1.22,0.22
				v2.61c0,0.7,0,0.83,0.83,0.83h4.31c0.26,0.13,0.35,0.48,0.35,0.92c-0.04,0.52-0.22,0.91-0.57,1.13H640.64z"/>
			<path class="st0" d="M665.54,207.38c-0.91,0-0.91,0.09-0.91,1.35v8.58c0,3.22,0.17,3.7,1.7,3.88l1.7,0.17
				c0.3,0.3,0.26,1.09-0.09,1.26c-1.96-0.09-3.66-0.13-5.7-0.13c-1.44,0-2.92,0.04-4.7,0.13c-0.35-0.17-0.39-0.96-0.09-1.26
				l0.96-0.13c1.48-0.22,1.65-0.7,1.65-3.92v-8.62c0-1.18-0.04-1.31-0.78-1.31h-1.57c-0.35-0.17-0.44-0.74-0.13-1l1.87-0.96
				c0.3-0.17,0.61-0.43,0.61-0.96v-0.78c0-1.87,0.17-4,0.91-6.22c1.13-3.44,4.05-6.09,8.14-6.09c3,0,4.96,1.35,4.96,3.18
				c0,1.22-1.09,2.09-2.13,2.09c-0.65,0-1-0.26-1.26-0.61c-1.39-2-2.35-2.87-3.4-2.87c-1.48,0-2.66,2.96-2.66,9.49v1.31
				c0,1.31,0.04,1.39,0.96,1.39h4.57c0.17,0.13,0.26,0.39,0.26,0.7c0,0.74-0.26,1.13-0.61,1.35H665.54z"/>
			<path class="st0" d="M689.4,213.69c0,6.18-4.35,9.4-9.53,9.4c-5.01,0-9.19-3.18-9.19-8.88c0-5.83,4.44-9.49,9.53-9.49
				C685.14,204.72,689.4,208.03,689.4,213.69z M680.39,221.35c3,0,3.87-3.57,3.87-6.92c0-3.66-1.26-7.97-4.48-7.97
				c-2.22,0-3.96,2.26-3.96,7.1C675.82,217.52,677.26,221.35,680.39,221.35z"/>
			<path class="st0" d="M694.63,210.9c0-1.96,0-2.48-1.09-3.13l-0.52-0.3c-0.13-0.17-0.13-0.78,0.04-1
				c1.87-0.61,4.18-1.57,5.49-2.35c0.26,0,0.52,0.13,0.61,0.39c-0.04,0.83-0.09,1.57-0.09,1.96c0,0.3,0.17,0.52,0.44,0.52
				c1.35-0.96,2.79-2.26,4.27-2.26c1.52,0,2.39,1,2.39,2.13c0,1.7-1.26,2.53-2.44,2.53c-0.44,0-0.83-0.13-1.18-0.35
				c-1.09-0.74-1.83-0.83-2.09-0.83c-1,0-1.26,1-1.26,3.13v5.96c0,3.22,0.17,3.7,1.7,3.88l1.7,0.17c0.3,0.3,0.26,1.09-0.09,1.26
				c-2.61-0.09-4.09-0.13-5.7-0.13c-1.44,0-2.87,0.04-4.53,0.13c-0.35-0.17-0.39-0.96-0.09-1.26l0.78-0.13
				c1.48-0.26,1.65-0.7,1.65-3.92V210.9z"/>
			<path class="st0" d="M730.64,197.41c0-1.83-0.04-1.92-1.17-1.92h-2.44c-4,0-5.18,0.48-6.79,4c-0.3,0.26-1.22,0.13-1.39-0.3
				c0.74-2.35,1.39-5.05,1.7-6.57c0.09-0.13,0.26-0.17,0.48-0.17c0.17,0,0.35,0.04,0.43,0.17c0.22,1.09,0.83,1.13,3.79,1.13H743
				c2.13,0,2.79-0.13,3.31-1.13c0.17-0.09,0.35-0.17,0.52-0.17c0.26,0,0.48,0.09,0.57,0.22c-0.44,1.79-0.78,5.53-0.65,6.92
				c-0.22,0.35-0.96,0.44-1.35,0.13c-0.57-3.4-1.39-4.22-6.05-4.22h-2.48c-1.13,0-1.18,0.09-1.18,1.92v18.81
				c0,4.61,0.39,4.75,2.44,4.96l1.57,0.17c0.3,0.3,0.26,1.09-0.09,1.26c-2.52-0.09-4.48-0.13-6.4-0.13c-1.92,0-3.96,0.04-6.75,0.13
				c-0.35-0.17-0.39-1.04-0.09-1.26l1.83-0.22c2.05-0.26,2.44-0.3,2.44-4.92V197.41z"/>
			<path class="st0" d="M748.97,212.17c-0.83,0-0.91,0.04-0.91,0.57c0,3.92,2.7,7.05,6.57,7.05c1.74,0,3.18-0.57,4.18-2.18
				c0.44-0.13,0.92,0.3,0.96,0.7c-1.48,3.48-4.7,4.79-7.36,4.79c-5.05,0-8.4-3.74-8.4-8.71c0-4.92,3.35-9.66,9.19-9.66
				c3.22,0,6.53,2.09,6.53,5.88c0,0.39-0.04,0.65-0.22,1c-0.26,0.39-1.26,0.57-3,0.57H748.97z M752.97,210.43
				c1.26,0,1.83-0.13,2.13-0.3c0.26-0.17,0.44-0.52,0.44-0.91c0-1.57-1-2.83-2.87-2.83c-2.92,0-4.27,2.83-4.27,3.74
				c0,0.17,0.09,0.3,0.61,0.3H752.97z"/>
			<path class="st0" d="M775.39,216.96c-0.13,2.52,0.52,3.83,2.09,3.83c0.74,0,1.35-0.48,1.48-0.48c0.22,0,0.52,0.48,0.39,0.87
				c-0.87,1.22-3,1.92-4.35,1.92c-1.09,0-2.31-0.3-3.13-1.22c-0.3-0.3-0.48-0.52-0.7-0.52s-0.52,0.22-1.17,0.61
				c-0.83,0.52-2.13,1.13-3.7,1.13c-2.96,0-4.44-2.05-4.44-4.22c0-1.57,0.61-3,3.61-4.05c1.52-0.52,3.18-1.13,4.79-1.74
				c0.87-0.3,1-0.7,1-1.13l0.04-1.13c0.09-2.22-0.52-4.14-2.66-4.14c-1.22,0-2.13,0.65-2.31,1.92c-0.09,0.83-0.35,1.26-0.83,1.57
				c-0.61,0.39-1.83,0.78-2.79,0.78c-0.57,0-0.83-0.3-0.83-0.7c0-0.52,0.26-1.44,1.7-2.79c1.35-1.26,4.48-2.74,6.7-2.74
				c3.44,0,5.57,1.61,5.4,5.44L775.39,216.96z M771.13,215.48c0-0.48-0.13-0.74-0.35-0.74c-0.35,0-1.13,0.22-1.92,0.52
				c-1.22,0.44-2.35,1.04-2.35,2.92c0,1.13,0.78,2.52,2.44,2.52c1.57,0,2.05-1.04,2.09-2.09L771.13,215.48z"/>
			<path class="st0" d="M794.55,205.33c0.57,0.52,0.87,1.22,0.87,2.22c0,1.39-0.74,2.05-1.09,2.05c-0.3,0-0.52-0.09-0.83-0.48
				c-0.96-1.26-2.26-2.66-3.96-2.66c-2.48,0-5.05,2.44-5.05,6.53c0,3.53,2.26,6.88,6.23,6.88c2.83,0,3.83-1.04,4.7-2.31
				c0.39-0.04,0.87,0.26,0.92,0.78c-1.57,3.53-4.92,4.75-7.66,4.75c-2.31,0-4.57-0.91-6.05-2.35c-1.52-1.48-2.52-3.74-2.52-6.27
				c0-5.09,3.7-9.75,10.71-9.75C792.07,204.72,793.33,204.9,794.55,205.33z"/>
			<path class="st0" d="M804.09,206.07c0,0.52,0.09,0.74,0.39,0.74c1.52-1.13,3.4-2.09,5.57-2.09c3.74,0,5.57,2.39,5.57,6.09v6.49
				c0,3.22,0.17,3.74,1.65,3.92l1,0.13c0.39,0.3,0.35,1.09-0.09,1.26c-1.83-0.09-3.31-0.13-4.92-0.13c-1.44,0-2.92,0.04-4.44,0.13
				c-0.35-0.17-0.39-0.96-0.09-1.26l0.65-0.09c1.48-0.22,1.65-0.74,1.65-3.96v-6.14c0-2.09-0.91-3.83-3.48-3.83
				c-1.44,0-2.44,0.7-2.96,1.26c-0.48,0.52-0.52,1.17-0.52,2.87v5.83c0,3.22,0.17,3.74,1.65,3.96l0.65,0.09
				c0.3,0.3,0.26,1.09-0.09,1.26c-1.52-0.09-3-0.13-4.62-0.13c-1.39,0-2.87,0.04-4.7,0.13c-0.35-0.17-0.39-0.96-0.09-1.26l0.96-0.13
				c1.48-0.22,1.65-0.7,1.65-3.92v-18.68c0-2.92-0.09-3.18-1-3.79l-0.61-0.39c-0.26-0.17-0.3-0.87,0-1c1.7-0.48,3.92-1.39,5.7-2.09
				c0.26-0.04,0.52,0.13,0.61,0.35c-0.09,1.74-0.13,4.44-0.13,6.31V206.07z"/>
			<path class="st0" d="M827.3,217.3c0,3.22,0.17,3.66,1.65,3.92l0.78,0.13c0.3,0.3,0.26,1.09-0.09,1.26
				c-1.61-0.09-3.09-0.13-4.7-0.13c-1.44,0-2.92,0.04-4.57,0.13c-0.35-0.17-0.39-0.96-0.09-1.26l0.78-0.13
				c1.48-0.26,1.65-0.7,1.65-3.92v-6.4c0-1.96,0-2.48-1.09-3.13l-0.52-0.3c-0.13-0.17-0.13-0.78,0.04-1
				c2.26-0.65,4.44-1.61,5.66-2.35c0.26,0.04,0.48,0.13,0.61,0.35c-0.09,1.44-0.13,3.53-0.13,5.31V217.3z M822.33,198.11
				c0-1.48,1.09-2.61,2.66-2.61s2.66,1.13,2.66,2.61c0,1.48-1.09,2.61-2.66,2.61S822.33,199.59,822.33,198.11z"/>
			<path class="st0" d="M838.96,217.3c0,3.22,0.17,3.74,1.65,3.96l0.65,0.09c0.3,0.3,0.26,1.09-0.09,1.26
				c-1.52-0.09-3-0.13-4.61-0.13c-1.39,0-2.87,0.04-4.7,0.13c-0.35-0.17-0.39-0.96-0.09-1.26l0.96-0.13
				c1.48-0.22,1.65-0.7,1.65-3.92v-6.4c0-1.96,0-2.48-1.09-3.13l-0.52-0.3c-0.13-0.17-0.13-0.78,0.04-1
				c1.87-0.52,4.27-1.57,5.66-2.35c0.3,0,0.48,0.17,0.57,0.35c-0.09,0.83-0.09,1.65-0.09,2c0,0.3,0.13,0.39,0.39,0.44
				c2.05-1.13,3.26-2.18,5.96-2.18c3.53,0,5.18,2.44,5.18,5.83v6.75c0,3.22,0.17,3.74,1.65,3.92l1,0.13c0.3,0.3,0.26,1.09-0.09,1.26
				c-1.83-0.09-3.31-0.13-4.92-0.13c-1.44,0-2.92,0.04-4.44,0.13c-0.35-0.17-0.39-0.96-0.09-1.26l0.65-0.09
				c1.48-0.22,1.65-0.74,1.65-3.96v-6.01c0-2.22-0.87-3.96-3.48-3.96c-1.35,0-2.44,0.7-2.87,1.35c-0.57,0.78-0.61,1.17-0.61,2.79
				V217.3z"/>
			<path class="st0" d="M870.66,208.55c0.13,0.44,0.22,0.91,0.22,1.87c0,3.66-2.44,7.18-7.97,7.18c-0.52,0-1.09-0.09-1.65-0.17
				c-0.7,0.35-1.35,0.91-1.35,1.7c0,0.87,0.61,1.7,2.39,1.7c1.26,0,2.92-0.09,4.79-0.09c3.13,0,7.1,0.52,7.1,5.27
				c0,2.26-1.57,4.4-2.74,5.31c-1.92,1.57-4.7,2.87-8.45,2.87c-6.14,0-8.14-2.87-8.14-5.14c0-0.65,0.09-1.22,0.61-1.87
				c0.39-0.43,2.05-1.39,2.7-1.96c0.35-0.26,0.65-0.83,0.26-0.96c-1.52-0.52-2.87-1.92-2.87-3.61c0-0.44,0.17-0.78,0.7-1.09
				c0.65-0.35,2.79-1.7,2.79-2.31c0-0.13,0-0.39-0.17-0.48c-1.48-0.61-3.22-2.35-3.22-5.18c0-3.92,3.26-6.88,7.97-6.88
				c1.74,0,3.26,0.35,4.4,0.91c0.91,0.44,1.39,0.65,1.92,0.65h4.27c0.17,0.13,0.35,0.44,0.35,0.78c0,0.87-0.35,1.39-0.7,1.48H870.66
				z M863.35,224.62c-1.52,0-2.44,0.13-2.96,0.52c-0.74,0.57-1.31,1.35-1.31,2.44c0,2.66,2.35,4.4,5.7,4.4
				c3.7,0,5.79-1.52,5.79-4.05c0-2.22-2.05-3.31-4.75-3.31H863.35z M863.69,215.95c1.65,0,2.87-1.44,2.87-4.48
				c0-2.96-1.26-5.09-3.22-5.09c-1.52,0-2.87,1.44-2.87,4.44C860.47,214.17,862.04,215.95,863.69,215.95z"/>
			<path class="st0" d="M876.76,227.88c-0.61-0.22-0.78-0.74-0.48-1.31c1.52-0.48,3.74-1.57,3.74-3.87c0-1.92-2.09-2.39-2.52-2.61
				c-0.61-0.3-1-0.87-1-1.61c0-1.26,1-2.31,2.7-2.31c1.65,0,3.66,1.52,3.66,4.75C882.85,224.7,879.98,226.93,876.76,227.88z"/>
			<path class="st0" d="M905.97,215.3c0,2.18,0.09,3.74,0.74,4.48c0.52,0.61,1.22,0.96,4.7,0.96c4.83,0,5.53-0.22,7.53-4.7
				c0.44-0.22,1.13-0.09,1.35,0.26c-0.35,1.83-1.31,5.14-1.83,6.31c-1.83-0.09-5.57-0.13-10.45-0.13h-4.53
				c-2.22,0-4.4,0.04-6.23,0.13c-0.35-0.17-0.48-1.04-0.09-1.26l1.31-0.22c2.05-0.35,2.44-0.39,2.44-4.92v-16.19
				c0-4.53-0.39-4.66-2.44-4.96l-1.22-0.17c-0.3-0.22-0.3-1.09,0.09-1.26c2.18,0.09,4.14,0.13,6.14,0.13c1.92,0,3.87-0.04,5.79-0.13
				c0.39,0.17,0.44,1.04,0.09,1.26l-0.96,0.17c-2.05,0.35-2.44,0.44-2.44,4.96V215.3z"/>
			<path class="st0" d="M926.44,212.17c-0.83,0-0.91,0.04-0.91,0.57c0,3.92,2.7,7.05,6.57,7.05c1.74,0,3.18-0.57,4.18-2.18
				c0.44-0.13,0.92,0.3,0.96,0.7c-1.48,3.48-4.7,4.79-7.36,4.79c-5.05,0-8.4-3.74-8.4-8.71c0-4.92,3.35-9.66,9.19-9.66
				c3.22,0,6.53,2.09,6.53,5.88c0,0.39-0.04,0.65-0.22,1c-0.26,0.39-1.26,0.57-3,0.57H926.44z M930.44,210.43
				c1.26,0,1.83-0.13,2.13-0.3c0.26-0.17,0.44-0.52,0.44-0.91c0-1.57-1-2.83-2.87-2.83c-2.92,0-4.27,2.83-4.27,3.74
				c0,0.17,0.09,0.3,0.61,0.3H930.44z"/>
			<path class="st0" d="M952.86,216.96c-0.13,2.52,0.52,3.83,2.09,3.83c0.74,0,1.35-0.48,1.48-0.48c0.22,0,0.52,0.48,0.39,0.87
				c-0.87,1.22-3,1.92-4.35,1.92c-1.09,0-2.31-0.3-3.13-1.22c-0.3-0.3-0.48-0.52-0.7-0.52s-0.52,0.22-1.17,0.61
				c-0.83,0.52-2.13,1.13-3.7,1.13c-2.96,0-4.44-2.05-4.44-4.22c0-1.57,0.61-3,3.61-4.05c1.52-0.52,3.18-1.13,4.79-1.74
				c0.87-0.3,1-0.7,1-1.13l0.04-1.13c0.09-2.22-0.52-4.14-2.66-4.14c-1.22,0-2.13,0.65-2.31,1.92c-0.09,0.83-0.35,1.26-0.83,1.57
				c-0.61,0.39-1.83,0.78-2.79,0.78c-0.57,0-0.83-0.3-0.83-0.7c0-0.52,0.26-1.44,1.7-2.79c1.35-1.26,4.48-2.74,6.7-2.74
				c3.44,0,5.57,1.61,5.4,5.44L952.86,216.96z M948.6,215.48c0-0.48-0.13-0.74-0.35-0.74c-0.35,0-1.13,0.22-1.92,0.52
				c-1.22,0.44-2.35,1.04-2.35,2.92c0,1.13,0.78,2.52,2.44,2.52c1.57,0,2.05-1.04,2.09-2.09L948.6,215.48z"/>
			<path class="st0" d="M960.09,210.9c0-1.96,0-2.48-1.09-3.13l-0.52-0.3c-0.13-0.17-0.13-0.78,0.04-1
				c1.87-0.61,4.18-1.57,5.48-2.35c0.26,0,0.52,0.13,0.61,0.39c-0.04,0.83-0.09,1.57-0.09,1.96c0,0.3,0.17,0.52,0.44,0.52
				c1.35-0.96,2.79-2.26,4.27-2.26c1.52,0,2.39,1,2.39,2.13c0,1.7-1.26,2.53-2.44,2.53c-0.43,0-0.83-0.13-1.17-0.35
				c-1.09-0.74-1.83-0.83-2.09-0.83c-1,0-1.26,1-1.26,3.13v5.96c0,3.22,0.17,3.7,1.7,3.88l1.7,0.17c0.3,0.3,0.26,1.09-0.09,1.26
				c-2.61-0.09-4.09-0.13-5.7-0.13c-1.44,0-2.87,0.04-4.53,0.13c-0.35-0.17-0.39-0.96-0.09-1.26l0.78-0.13
				c1.48-0.26,1.65-0.7,1.65-3.92V210.9z"/>
			<path class="st0" d="M979.64,217.3c0,3.22,0.17,3.74,1.65,3.96l0.65,0.09c0.3,0.3,0.26,1.09-0.09,1.26
				c-1.52-0.09-3-0.13-4.61-0.13c-1.39,0-2.87,0.04-4.7,0.13c-0.35-0.17-0.39-0.96-0.09-1.26l0.96-0.13
				c1.48-0.22,1.65-0.7,1.65-3.92v-6.4c0-1.96,0-2.48-1.09-3.13l-0.52-0.3c-0.13-0.17-0.13-0.78,0.04-1
				c1.87-0.52,4.27-1.57,5.66-2.35c0.3,0,0.48,0.17,0.57,0.35c-0.09,0.83-0.09,1.65-0.09,2c0,0.3,0.13,0.39,0.39,0.44
				c2.05-1.13,3.26-2.18,5.96-2.18c3.53,0,5.18,2.44,5.18,5.83v6.75c0,3.22,0.17,3.74,1.65,3.92l1,0.13c0.3,0.3,0.26,1.09-0.09,1.26
				c-1.83-0.09-3.31-0.13-4.92-0.13c-1.44,0-2.92,0.04-4.44,0.13c-0.35-0.17-0.39-0.96-0.09-1.26l0.65-0.09
				c1.48-0.22,1.65-0.74,1.65-3.96v-6.01c0-2.22-0.87-3.96-3.48-3.96c-1.35,0-2.44,0.7-2.87,1.35c-0.57,0.78-0.61,1.17-0.61,2.79
				V217.3z"/>
			<path class="st0" d="M1002.85,217.3c0,3.22,0.17,3.66,1.65,3.92l0.78,0.13c0.3,0.3,0.26,1.09-0.09,1.26
				c-1.61-0.09-3.09-0.13-4.7-0.13c-1.44,0-2.92,0.04-4.57,0.13c-0.35-0.17-0.39-0.96-0.09-1.26l0.78-0.13
				c1.48-0.26,1.65-0.7,1.65-3.92v-6.4c0-1.96,0-2.48-1.09-3.13l-0.52-0.3c-0.13-0.17-0.13-0.78,0.04-1
				c2.26-0.65,4.44-1.61,5.66-2.35c0.26,0.04,0.48,0.13,0.61,0.35c-0.09,1.44-0.13,3.53-0.13,5.31V217.3z M997.88,198.11
				c0-1.48,1.09-2.61,2.66-2.61s2.66,1.13,2.66,2.61c0,1.48-1.09,2.61-2.66,2.61S997.88,199.59,997.88,198.11z"/>
			<path class="st0" d="M1014.52,217.3c0,3.22,0.17,3.74,1.65,3.96l0.65,0.09c0.3,0.3,0.26,1.09-0.09,1.26
				c-1.52-0.09-3-0.13-4.61-0.13c-1.39,0-2.87,0.04-4.7,0.13c-0.35-0.17-0.39-0.96-0.09-1.26l0.96-0.13
				c1.48-0.22,1.65-0.7,1.65-3.92v-6.4c0-1.96,0-2.48-1.09-3.13l-0.52-0.3c-0.13-0.17-0.13-0.78,0.04-1
				c1.87-0.52,4.27-1.57,5.66-2.35c0.3,0,0.48,0.17,0.57,0.35c-0.09,0.83-0.09,1.65-0.09,2c0,0.3,0.13,0.39,0.39,0.44
				c2.05-1.13,3.26-2.18,5.96-2.18c3.53,0,5.18,2.44,5.18,5.83v6.75c0,3.22,0.17,3.74,1.65,3.92l1,0.13c0.3,0.3,0.26,1.09-0.09,1.26
				c-1.83-0.09-3.31-0.13-4.92-0.13c-1.44,0-2.92,0.04-4.44,0.13c-0.35-0.17-0.39-0.96-0.09-1.26l0.65-0.09
				c1.48-0.22,1.65-0.74,1.65-3.96v-6.01c0-2.22-0.87-3.96-3.48-3.96c-1.35,0-2.44,0.7-2.87,1.35c-0.57,0.78-0.61,1.17-0.61,2.79
				V217.3z"/>
			<path class="st0" d="M1046.21,208.55c0.13,0.44,0.22,0.91,0.22,1.87c0,3.66-2.44,7.18-7.97,7.18c-0.52,0-1.09-0.09-1.65-0.17
				c-0.7,0.35-1.35,0.91-1.35,1.7c0,0.87,0.61,1.7,2.39,1.7c1.26,0,2.92-0.09,4.79-0.09c3.13,0,7.1,0.52,7.1,5.27
				c0,2.26-1.57,4.4-2.74,5.31c-1.92,1.57-4.7,2.87-8.45,2.87c-6.14,0-8.14-2.87-8.14-5.14c0-0.65,0.09-1.22,0.61-1.87
				c0.39-0.43,2.05-1.39,2.7-1.96c0.35-0.26,0.65-0.83,0.26-0.96c-1.52-0.52-2.87-1.92-2.87-3.61c0-0.44,0.17-0.78,0.7-1.09
				c0.65-0.35,2.79-1.7,2.79-2.31c0-0.13,0-0.39-0.17-0.48c-1.48-0.61-3.22-2.35-3.22-5.18c0-3.92,3.26-6.88,7.97-6.88
				c1.74,0,3.26,0.35,4.4,0.91c0.91,0.44,1.39,0.65,1.92,0.65h4.27c0.17,0.13,0.35,0.44,0.35,0.78c0,0.87-0.35,1.39-0.7,1.48
				H1046.21z M1038.9,224.62c-1.52,0-2.44,0.13-2.96,0.52c-0.74,0.57-1.31,1.35-1.31,2.44c0,2.66,2.35,4.4,5.7,4.4
				c3.7,0,5.79-1.52,5.79-4.05c0-2.22-2.05-3.31-4.75-3.31H1038.9z M1039.25,215.95c1.65,0,2.87-1.44,2.87-4.48
				c0-2.96-1.26-5.09-3.22-5.09c-1.52,0-2.87,1.44-2.87,4.44C1036.02,214.17,1037.59,215.95,1039.25,215.95z"/>
			<path class="st0" d="M1052.31,227.88c-0.61-0.22-0.78-0.74-0.48-1.31c1.52-0.48,3.74-1.57,3.74-3.87c0-1.92-2.09-2.39-2.52-2.61
				c-0.61-0.3-1-0.87-1-1.61c0-1.26,1-2.31,2.7-2.31c1.65,0,3.66,1.52,3.66,4.75C1058.4,224.7,1055.53,226.93,1052.31,227.88z"/>
			<path class="st0" d="M1086.22,216.96c-0.13,2.52,0.52,3.83,2.09,3.83c0.74,0,1.35-0.48,1.48-0.48c0.22,0,0.52,0.48,0.39,0.87
				c-0.87,1.22-3,1.92-4.35,1.92c-1.09,0-2.31-0.3-3.13-1.22c-0.3-0.3-0.48-0.52-0.7-0.52s-0.52,0.22-1.17,0.61
				c-0.83,0.52-2.13,1.13-3.7,1.13c-2.96,0-4.44-2.05-4.44-4.22c0-1.57,0.61-3,3.61-4.05c1.52-0.52,3.18-1.13,4.79-1.74
				c0.87-0.3,1-0.7,1-1.13l0.04-1.13c0.09-2.22-0.52-4.14-2.66-4.14c-1.22,0-2.13,0.65-2.31,1.92c-0.09,0.83-0.35,1.26-0.83,1.57
				c-0.61,0.39-1.83,0.78-2.79,0.78c-0.57,0-0.83-0.3-0.83-0.7c0-0.52,0.26-1.44,1.7-2.79c1.35-1.26,4.48-2.74,6.7-2.74
				c3.44,0,5.57,1.61,5.4,5.44L1086.22,216.96z M1081.96,215.48c0-0.48-0.13-0.74-0.35-0.74c-0.35,0-1.13,0.22-1.92,0.52
				c-1.22,0.44-2.35,1.04-2.35,2.92c0,1.13,0.78,2.52,2.44,2.52c1.57,0,2.05-1.04,2.09-2.09L1081.96,215.48z"/>
			<path class="st0" d="M1097.98,217.3c0,3.22,0.17,3.74,1.65,3.96l0.65,0.09c0.3,0.3,0.26,1.09-0.09,1.26
				c-1.52-0.09-3-0.13-4.61-0.13c-1.39,0-2.87,0.04-4.7,0.13c-0.35-0.17-0.39-0.96-0.09-1.26l0.96-0.13
				c1.48-0.22,1.65-0.7,1.65-3.92v-6.4c0-1.96,0-2.48-1.09-3.13l-0.52-0.3c-0.13-0.17-0.13-0.78,0.04-1
				c1.87-0.52,4.27-1.57,5.66-2.35c0.3,0,0.48,0.17,0.57,0.35c-0.09,0.83-0.09,1.65-0.09,2c0,0.3,0.13,0.39,0.39,0.44
				c2.05-1.13,3.26-2.18,5.96-2.18c3.53,0,5.18,2.44,5.18,5.83v6.75c0,3.22,0.17,3.74,1.65,3.92l1,0.13c0.3,0.3,0.26,1.09-0.09,1.26
				c-1.83-0.09-3.31-0.13-4.92-0.13c-1.44,0-2.92,0.04-4.44,0.13c-0.35-0.17-0.39-0.96-0.09-1.26l0.65-0.09
				c1.48-0.22,1.65-0.74,1.65-3.96v-6.01c0-2.22-0.87-3.96-3.48-3.96c-1.35,0-2.44,0.7-2.87,1.35c-0.57,0.78-0.61,1.17-0.61,2.79
				V217.3z"/>
			<path class="st0" d="M1131.94,215.39c0,3.96,0.3,5.31,1.04,5.31c0.48,0,1.18-0.13,1.83-0.39c0.35,0.26,0.43,1.31-0.04,1.57
				c-2.22,0.22-5.31,0.96-6.88,1.65c-0.22-0.04-0.44-0.22-0.52-0.48l0.09-0.65c0.09-0.65,0.04-1-0.04-1.22l-0.22-0.04
				c-1.31,0.96-2.92,1.96-5.01,1.96c-4.96,0-8.05-4-8.05-8.36c0-6.27,5.01-10.01,10.45-10.01c1.13,0,1.96,0.13,2.52,0.3
				c0.17-0.04,0.26-0.22,0.26-0.7v-5.7c0-2.92-0.09-3.18-1-3.79l-0.61-0.39c-0.26-0.17-0.3-0.87,0-1c1.7-0.48,3.96-1.39,5.7-2.09
				c0.26-0.04,0.52,0.13,0.61,0.35c-0.09,1.74-0.13,4.44-0.13,6.31V215.39z M1127.37,210.03c0-0.87-0.13-1.48-0.57-2.09
				c-0.61-0.83-1.57-1.48-2.92-1.48c-2.96,0-4.83,2.92-4.83,6.57c0,4.48,2.35,7.44,5.44,7.44c1.04,0,2.22-0.57,2.57-0.96
				c0.22-0.22,0.3-0.61,0.3-1.22V210.03z"/>
			<path class="st0" d="M1156.02,216.22c0,4.61,0.39,4.75,2.44,5.01l0.96,0.13c0.3,0.3,0.26,1.09-0.09,1.26
				c-1.92-0.09-3.88-0.13-5.79-0.13c-1.92,0-3.96,0.04-5.88,0.13c-0.35-0.17-0.39-0.96-0.09-1.26l0.96-0.13
				c2.05-0.26,2.44-0.39,2.44-5.01v-16.19c0-4.62-0.39-4.75-2.44-5.01l-0.96-0.13c-0.3-0.3-0.26-1.09,0.09-1.26
				c1.92,0.09,3.87,0.13,5.88,0.13c1.92,0,3.87-0.04,5.79-0.13c0.35,0.17,0.39,0.96,0.09,1.26l-0.96,0.13
				c-2.05,0.26-2.44,0.39-2.44,5.01V216.22z"/>
			<path class="st0" d="M1169.08,217.3c0,3.22,0.17,3.74,1.65,3.96l0.65,0.09c0.3,0.3,0.26,1.09-0.09,1.26
				c-1.52-0.09-3-0.13-4.61-0.13c-1.39,0-2.87,0.04-4.7,0.13c-0.35-0.17-0.39-0.96-0.09-1.26l0.96-0.13
				c1.48-0.22,1.65-0.7,1.65-3.92v-6.4c0-1.96,0-2.48-1.09-3.13l-0.52-0.3c-0.13-0.17-0.13-0.78,0.04-1
				c1.87-0.52,4.27-1.57,5.66-2.35c0.3,0,0.48,0.17,0.57,0.35c-0.09,0.83-0.09,1.65-0.09,2c0,0.3,0.13,0.39,0.39,0.44
				c2.05-1.13,3.26-2.18,5.96-2.18c3.53,0,5.18,2.44,5.18,5.83v6.75c0,3.22,0.17,3.74,1.65,3.92l1,0.13c0.3,0.3,0.26,1.09-0.09,1.26
				c-1.83-0.09-3.31-0.13-4.92-0.13c-1.44,0-2.92,0.04-4.44,0.13c-0.35-0.17-0.39-0.96-0.09-1.26l0.65-0.09
				c1.48-0.22,1.65-0.74,1.65-3.96v-6.01c0-2.22-0.87-3.96-3.48-3.96c-1.35,0-2.44,0.7-2.87,1.35c-0.57,0.78-0.61,1.17-0.61,2.79
				V217.3z"/>
			<path class="st0" d="M1192.29,217.3c0,3.22,0.17,3.74,1.65,3.96l0.65,0.09c0.3,0.3,0.26,1.09-0.09,1.26
				c-1.52-0.09-3-0.13-4.61-0.13c-1.39,0-2.87,0.04-4.7,0.13c-0.35-0.17-0.39-0.96-0.09-1.26l0.96-0.13
				c1.48-0.22,1.65-0.7,1.65-3.92v-6.4c0-1.96,0-2.48-1.09-3.13l-0.52-0.3c-0.13-0.17-0.13-0.78,0.04-1
				c1.87-0.52,4.27-1.57,5.66-2.35c0.3,0,0.48,0.17,0.57,0.35c-0.09,0.83-0.09,1.65-0.09,2c0,0.3,0.13,0.39,0.39,0.44
				c2.05-1.13,3.26-2.18,5.96-2.18c3.53,0,5.18,2.44,5.18,5.83v6.75c0,3.22,0.17,3.74,1.65,3.92l1,0.13c0.3,0.3,0.26,1.09-0.09,1.26
				c-1.83-0.09-3.31-0.13-4.92-0.13c-1.44,0-2.92,0.04-4.44,0.13c-0.35-0.17-0.39-0.96-0.09-1.26l0.65-0.09
				c1.48-0.22,1.65-0.74,1.65-3.96v-6.01c0-2.22-0.87-3.96-3.48-3.96c-1.35,0-2.44,0.7-2.87,1.35c-0.57,0.78-0.61,1.17-0.61,2.79
				V217.3z"/>
			<path class="st0" d="M1227.16,213.69c0,6.18-4.35,9.4-9.53,9.4c-5.01,0-9.19-3.18-9.19-8.88c0-5.83,4.44-9.49,9.53-9.49
				C1222.9,204.72,1227.16,208.03,1227.16,213.69z M1218.15,221.35c3,0,3.87-3.57,3.87-6.92c0-3.66-1.26-7.97-4.48-7.97
				c-2.22,0-3.96,2.26-3.96,7.1C1213.58,217.52,1215.02,221.35,1218.15,221.35z"/>
			<path class="st0" d="M1240.62,217.74c-0.7,1.57-1.52,3.61-2.05,5.09c-0.17,0.17-0.43,0.26-0.74,0.26s-0.57-0.09-0.78-0.26
				c-0.44-1.22-1.13-2.92-1.65-4.05c-0.96-2.13-3.35-7.62-4.18-9.45c-0.87-1.87-1.35-2.44-2.66-2.7l-0.83-0.17
				c-0.31-0.3-0.26-1.04,0.09-1.26c1.52,0.09,3.05,0.13,4.57,0.13c1.96,0,3.27-0.04,4.79-0.13c0.44,0.17,0.48,0.96,0.09,1.26
				l-0.78,0.13c-0.61,0.09-1.09,0.22-1.09,0.48c0,0.26,0.09,0.74,0.35,1.39c0.61,1.61,2.83,7.01,3.48,8.31
				c1.04-2.18,2.09-4.83,3.22-7.57c0.44-1.09,0.61-1.65,0.61-1.96s-0.39-0.48-0.91-0.57l-1.04-0.22c-0.35-0.35-0.3-1.09,0.17-1.26
				c1.31,0.09,2.39,0.13,3.66,0.13c1.13,0,2.22-0.04,3.18-0.13c0.39,0.17,0.44,0.96,0.09,1.26l-0.87,0.17
				c-1.31,0.26-1.92,0.57-3.27,3.53L1240.62,217.74z"/>
			<path class="st0" d="M1261.56,216.96c-0.13,2.52,0.52,3.83,2.09,3.83c0.74,0,1.35-0.48,1.48-0.48c0.22,0,0.52,0.48,0.39,0.87
				c-0.87,1.22-3,1.92-4.35,1.92c-1.09,0-2.31-0.3-3.13-1.22c-0.3-0.3-0.48-0.52-0.7-0.52s-0.52,0.22-1.17,0.61
				c-0.83,0.52-2.13,1.13-3.7,1.13c-2.96,0-4.44-2.05-4.44-4.22c0-1.57,0.61-3,3.61-4.05c1.52-0.52,3.18-1.13,4.79-1.74
				c0.87-0.3,1-0.7,1-1.13l0.04-1.13c0.09-2.22-0.52-4.14-2.66-4.14c-1.22,0-2.13,0.65-2.31,1.92c-0.09,0.83-0.35,1.26-0.83,1.57
				c-0.61,0.39-1.83,0.78-2.79,0.78c-0.57,0-0.83-0.3-0.83-0.7c0-0.52,0.26-1.44,1.7-2.79c1.35-1.26,4.48-2.74,6.7-2.74
				c3.44,0,5.57,1.61,5.4,5.44L1261.56,216.96z M1257.29,215.48c0-0.48-0.13-0.74-0.35-0.74c-0.35,0-1.13,0.22-1.92,0.52
				c-1.22,0.44-2.35,1.04-2.35,2.92c0,1.13,0.78,2.52,2.44,2.52c1.57,0,2.05-1.04,2.09-2.09L1257.29,215.48z"/>
			<path class="st0" d="M1273.97,207.25c-0.78,0-0.83,0.09-0.83,1.48v6.7c0,2.74,0.39,5.18,3.18,5.18c0.87,0,1.39-0.3,2.09-0.78
				c0.39,0.04,0.65,0.39,0.57,0.87c-0.87,1.22-2.87,2.39-5.53,2.39c-4.14,0-4.88-2.39-4.88-5.44v-8.84c0-1.52-0.09-1.57-0.78-1.57
				h-1.52c-0.44-0.22-0.52-0.91-0.13-1.18c1.48-0.57,2.48-1.13,3.44-1.83c0.83-0.61,1.79-1.52,2.39-2.7c0.39-0.26,1-0.13,1.22,0.22
				v2.61c0,0.7,0,0.83,0.83,0.83h4.31c0.26,0.13,0.35,0.48,0.35,0.92c-0.04,0.52-0.22,0.91-0.57,1.13H1273.97z"/>
			<path class="st0" d="M1287.29,217.3c0,3.22,0.17,3.66,1.65,3.92l0.78,0.13c0.3,0.3,0.26,1.09-0.09,1.26
				c-1.61-0.09-3.09-0.13-4.7-0.13c-1.44,0-2.92,0.04-4.57,0.13c-0.35-0.17-0.39-0.96-0.09-1.26l0.78-0.13
				c1.48-0.26,1.65-0.7,1.65-3.92v-6.4c0-1.96,0-2.48-1.09-3.13l-0.52-0.3c-0.13-0.17-0.13-0.78,0.04-1
				c2.26-0.65,4.44-1.61,5.66-2.35c0.26,0.04,0.48,0.13,0.61,0.35c-0.09,1.44-0.13,3.53-0.13,5.31V217.3z M1282.33,198.11
				c0-1.48,1.09-2.61,2.66-2.61s2.66,1.13,2.66,2.61c0,1.48-1.09,2.61-2.66,2.61S1282.33,199.59,1282.33,198.11z"/>
			<path class="st0" d="M1310.63,213.69c0,6.18-4.35,9.4-9.53,9.4c-5.01,0-9.19-3.18-9.19-8.88c0-5.83,4.44-9.49,9.53-9.49
				C1306.36,204.72,1310.63,208.03,1310.63,213.69z M1301.62,221.35c3,0,3.87-3.57,3.87-6.92c0-3.66-1.26-7.97-4.48-7.97
				c-2.22,0-3.96,2.26-3.96,7.1C1297.04,217.52,1298.48,221.35,1301.62,221.35z"/>
			<path class="st0" d="M1320.38,217.3c0,3.22,0.17,3.74,1.65,3.96l0.65,0.09c0.3,0.3,0.26,1.09-0.09,1.26
				c-1.52-0.09-3-0.13-4.61-0.13c-1.39,0-2.87,0.04-4.7,0.13c-0.35-0.17-0.39-0.96-0.09-1.26l0.96-0.13
				c1.48-0.22,1.65-0.7,1.65-3.92v-6.4c0-1.96,0-2.48-1.09-3.13l-0.52-0.3c-0.13-0.17-0.13-0.78,0.04-1
				c1.87-0.52,4.27-1.57,5.66-2.35c0.3,0,0.48,0.17,0.57,0.35c-0.09,0.83-0.09,1.65-0.09,2c0,0.3,0.13,0.39,0.39,0.44
				c2.05-1.13,3.26-2.18,5.96-2.18c3.53,0,5.18,2.44,5.18,5.83v6.75c0,3.22,0.17,3.74,1.65,3.92l1,0.13c0.3,0.3,0.26,1.09-0.09,1.26
				c-1.83-0.09-3.31-0.13-4.92-0.13c-1.44,0-2.92,0.04-4.44,0.13c-0.35-0.17-0.39-0.96-0.09-1.26l0.65-0.09
				c1.48-0.22,1.65-0.74,1.65-3.96v-6.01c0-2.22-0.87-3.96-3.48-3.96c-1.35,0-2.44,0.7-2.87,1.35c-0.57,0.78-0.61,1.17-0.61,2.79
				V217.3z"/>
		</g>
	</g>
	<g>
		<path class="st0" d="M1869.39,124.76c-7.73-6.93-9.64-16.02-9.64-23.58c0-5.33,1.83-14.66,8.93-21.75
			c4.78-4.78,12.03-8.53,24.3-8.53c3.18,0,7.65,0.24,11.55,0.96c3.03,0.56,5.58,1.04,8.13,1.2c0.88,0.08,1.04,0.4,1.04,0.87
			c0,0.64-0.24,1.59-0.4,4.46c-0.16,2.63-0.16,7.01-0.24,8.2c-0.08,1.2-0.24,1.67-0.72,1.67c-0.56,0-0.64-0.56-0.64-1.67
			c0-3.11-1.27-6.37-3.35-8.13c-2.79-2.39-8.92-4.54-15.94-4.54c-10.59,0-15.53,3.11-18.32,5.82c-5.81,5.58-7.17,12.67-7.17,20.79
			c0,15.22,11.71,29.16,28.76,29.16c5.98,0,10.67-0.72,13.86-3.98c1.68-1.75,2.71-5.26,2.95-6.69c0.16-0.88,0.32-1.19,0.8-1.19
			c0.4,0,0.56,0.56,0.56,1.19c0,0.56-0.96,7.49-1.75,10.2c-0.47,1.51-0.64,1.67-2.07,2.31c-3.19,1.28-9.25,1.83-14.34,1.83
			C1883.73,133.36,1875.68,130.41,1869.39,124.76z"/>
		<path class="st0" d="M1950.11,80.06c15.77,0,27.72,9.64,27.72,25.42c0,15.14-11.23,27.64-28.12,27.64
			c-19.2,0-27.41-14.42-27.41-26.61C1922.31,95.6,1930.75,80.06,1950.11,80.06z M1951.71,130.33c6.29,0,18.96-3.35,18.96-22.95
			c0-16.25-9.88-24.78-20.95-24.78c-11.71,0-20.16,7.33-20.16,22.07C1929.56,120.45,1939.04,130.33,1951.71,130.33z"/>
		<path class="st0" d="M1998.89,112.72c0,9.96,0.16,14.02,1.43,15.22c1.12,1.12,3.83,1.59,9.32,1.59c3.67,0,6.77-0.08,8.45-2.07
			c0.87-1.04,1.43-2.47,1.67-3.82c0.08-0.48,0.31-0.88,0.71-0.88c0.32,0,0.48,0.32,0.48,1.04c0,0.72-0.48,4.78-1.04,6.77
			c-0.48,1.59-0.71,1.83-4.46,1.83c-5.02,0-8.92-0.08-12.19-0.24c-3.19-0.08-5.57-0.16-7.65-0.16c-0.32,0-1.51,0-2.86,0.08
			c-1.44,0.08-2.95,0.16-4.07,0.16c-0.72,0-1.11-0.16-1.11-0.56c0-0.24,0.16-0.56,0.56-0.56c0.64,0,1.51-0.16,2.15-0.32
			c1.35-0.32,1.52-1.59,1.83-3.58c0.4-2.79,0.4-8.13,0.4-14.66v-11.95c0-10.52,0-12.43-0.16-14.58c-0.16-2.31-0.56-3.42-2.87-3.75
			c-0.56-0.08-1.75-0.16-2.39-0.16c-0.24,0-0.56-0.32-0.56-0.56c0-0.4,0.32-0.56,1.12-0.56c3.19,0,7.57,0.16,7.97,0.16
			c0.32,0,5.58-0.16,7.73-0.16c0.71,0,1.11,0.16,1.11,0.56c0,0.24-0.31,0.48-0.55,0.48c-0.48,0-1.51,0.08-2.31,0.16
			c-2.07,0.4-2.47,1.43-2.63,3.82c-0.08,2.15-0.08,4.06-0.08,14.58V112.72z"/>
		<path class="st0" d="M2031.17,100.61c0-10.52,0-12.43-0.16-14.58c-0.16-2.15-0.56-3.42-2.87-3.75c-0.56-0.08-1.75-0.16-2.39-0.16
			c-0.24,0-0.56-0.32-0.56-0.56c0-0.4,0.32-0.56,1.11-0.56c3.19,0,7.41,0.16,8.05,0.16c0.64,0,5.02-0.16,7.09-0.16
			c0.8,0,1.2,0.16,1.2,0.56c0,0.24-0.32,0.56-0.64,0.56c-0.48,0-0.88,0-1.75,0.16c-1.83,0.32-2.23,1.52-2.39,3.75
			c-0.16,2.15-0.16,4.06-0.16,14.58v9.48c0,9.8,2.15,13.86,5.18,16.57c3.42,3.11,6.45,3.66,10.43,3.66c4.3,0,8.45-1.91,10.84-4.78
			c3.27-3.91,3.98-9.48,3.98-16.41v-8.52c0-10.52-0.08-12.43-0.16-14.58c-0.08-2.15-0.48-3.43-2.79-3.75
			c-0.56-0.08-1.75-0.16-2.39-0.16c-0.32,0-0.56-0.32-0.56-0.56c0-0.4,0.32-0.56,1.11-0.56c3.11,0,7.17,0.16,7.57,0.16
			c0.48,0,3.82-0.16,5.9-0.16c0.79,0,1.11,0.16,1.11,0.56c0,0.24-0.24,0.56-0.56,0.56c-0.48,0-0.88,0-1.75,0.16
			c-1.92,0.4-2.31,1.52-2.47,3.75c-0.16,2.15-0.08,4.06-0.08,14.58l0,7.25c0,7.33-0.96,15.54-6.53,20.32
			c-5.1,4.38-10.52,4.94-14.66,4.94c-2.31,0-9.64-0.16-14.58-4.78c-3.43-3.19-6.14-7.89-6.14-17.77L2031.17,100.61z"/>
		<path class="st0" d="M2144.4,123.48c0.24,2.39,0.72,6.05,3.59,7.01c1.99,0.64,3.82,0.64,4.54,0.64c0.32,0,0.55,0.16,0.55,0.48
			c0,0.4-0.64,0.64-1.43,0.64c-1.59,0-9.4-0.16-11.95-0.4c-1.67-0.16-1.99-0.4-1.99-0.72c0-0.24,0.16-0.48,0.48-0.56
			c0.4-0.08,0.48-1.11,0.31-2.39l-3.34-34.26h-0.16l-16.89,34.58c-1.43,2.95-1.83,3.58-2.47,3.58c-0.64,0-1.04-0.64-2.39-3.11
			c-1.83-3.35-6.45-12.03-8.21-15.7c-2.07-4.3-7.73-15.7-8.92-18.48h-0.32l-2.71,30.59c-0.08,1.04-0.08,2.31-0.08,3.43
			c0,1.04,0.64,1.67,1.68,1.91c1.19,0.32,2.23,0.4,2.71,0.4c0.24,0,0.56,0.24,0.56,0.48c0,0.48-0.48,0.64-1.27,0.64
			c-2.63,0-5.98-0.24-6.53-0.24c-0.64,0-3.98,0.24-5.9,0.24c-0.72,0-1.19-0.16-1.19-0.64c0-0.24,0.32-0.48,0.72-0.48
			c0.56,0,1.04-0.08,2.07-0.24c2.31-0.4,2.39-2.87,2.71-5.42l5.1-44.22c0.08-0.72,0.4-1.2,0.8-1.2c0.48,0,1.04,0.24,1.43,1.04
			l21.19,42.07l20.4-41.99c0.32-0.64,0.63-1.11,1.11-1.11c0.48,0,0.87,0.56,1.04,1.83L2144.4,123.48z"/>
		<path class="st0" d="M2165.53,100.61c0-10.52,0-12.43-0.16-14.58c-0.16-2.31-0.56-3.59-2.87-3.9c-0.56-0.08-1.75-0.16-2.39-0.16
			c-0.24,0-0.56-0.16-0.56-0.4c0-0.4,0.32-0.56,1.12-0.56c3.19,0,7.73,0.16,8.13,0.16c1.68,0,4.94-0.16,8.21-0.16
			c11.71,0,14.74,6.77,14.74,10.36c0,5.34-3.5,8.69-7.09,11.87c5.33,1.59,12.35,6.45,12.35,14.1c0,7.57-5.66,15.06-17.61,15.06
			c-1.27,0-3.82-0.08-6.05-0.24c-2.23-0.08-4.22-0.16-4.54-0.16c-0.16,0-1.43,0.08-2.87,0.08c-1.43,0.08-3.11,0.16-4.22,0.16
			c-0.72,0-1.12-0.16-1.12-0.56c0-0.24,0.16-0.4,0.56-0.4c0.64,0,1.52-0.24,2.15-0.32c1.35-0.24,1.51-1.75,1.83-3.74
			c0.4-2.79,0.4-8.13,0.4-14.66V100.61z M2171.58,102.05c0,0.48,0.16,0.64,0.48,0.72c0.4,0.08,1.67,0.32,4.3,0.32
			c3.9,0,5.42-0.16,6.85-1.75c1.51-1.67,2.71-3.98,2.71-7.25c0-5.18-2.87-10.92-9.88-10.92c-0.8,0-2.47,0.08-3.58,0.32
			c-0.64,0.16-0.88,0.32-0.88,0.72L2171.58,102.05z M2171.58,109.54c0,5.26,0,13.39,0.08,14.42c0.24,3.27,0.24,4.06,2.39,5.1
			c1.91,0.87,4.86,0.96,6.13,0.96c4.62,0,10.28-1.75,10.28-10.44c0-3.03-1.2-8.85-6.7-12.35c-2.39-1.51-4.62-1.44-6.29-1.75
			c-0.88-0.16-4.38-0.16-5.5-0.16c-0.24,0-0.4,0.16-0.4,0.48L2171.58,109.54z"/>
		<path class="st0" d="M2221.63,112.57c0,6.53,0,11.87,0.32,14.66c0.24,1.99,0.47,3.27,2.55,3.58c1.04,0.16,2.55,0.32,3.19,0.32
			c0.4,0,0.56,0.32,0.56,0.56c0,0.32-0.32,0.56-1.11,0.56c-3.91,0-8.44-0.24-8.77-0.24c-0.4,0-4.78,0.24-6.93,0.24
			c-0.72,0-1.11-0.16-1.11-0.56c0-0.24,0.16-0.56,0.56-0.56c0.64,0,1.51-0.16,2.15-0.32c1.35-0.32,1.59-1.59,1.83-3.58
			c0.32-2.79,0.4-8.13,0.4-14.66v-11.95c0-10.52,0-12.43-0.16-14.58c-0.16-2.31-0.72-3.35-2.23-3.67c-0.8-0.16-1.67-0.24-2.15-0.24
			c-0.32,0-0.56-0.32-0.56-0.56c0-0.4,0.32-0.56,1.11-0.56c2.31,0,6.69,0.16,7.09,0.16c0.32,0,4.86-0.16,7.01-0.16
			c0.8,0,1.12,0.16,1.12,0.56c0,0.24-0.32,0.56-0.56,0.56c-0.48,0-0.96,0-1.75,0.16c-1.92,0.4-2.31,1.35-2.47,3.75
			c-0.08,2.15-0.08,4.06-0.08,14.58V112.57z"/>
		<path class="st0" d="M2260.12,82.37c0.88-2.23,1.2-2.63,1.67-2.63c0.71,0,0.95,0.96,1.67,2.47c1.28,2.87,12.51,30.83,16.81,41.11
			c2.55,6.06,4.46,6.93,5.98,7.41c1.04,0.32,2.07,0.4,2.79,0.4c0.4,0,0.88,0.16,0.88,0.56c0,0.4-0.8,0.56-1.59,0.56
			c-1.04,0-6.22,0-11.08-0.16c-1.36-0.08-2.47-0.08-2.47-0.48c0-0.32,0.16-0.32,0.48-0.48c0.4-0.16,1.12-0.71,0.64-1.83l-6.29-15.54
			c-0.16-0.32-0.24-0.4-0.64-0.4h-16.17c-0.32,0-0.56,0.16-0.72,0.56l-3.99,10.84c-0.64,1.67-1.04,3.35-1.04,4.54
			c0,1.35,1.2,1.83,2.39,1.83h0.64c0.56,0,0.72,0.24,0.72,0.56c0,0.4-0.4,0.56-1.04,0.56c-1.67,0-5.5-0.24-6.29-0.24
			c-0.72,0-4.22,0.24-7.09,0.24c-0.88,0-1.36-0.16-1.36-0.56c0-0.32,0.32-0.56,0.64-0.56c0.48,0,1.52-0.08,2.07-0.16
			c3.19-0.4,4.54-2.79,5.9-6.21L2260.12,82.37z M2267.93,110.57c0.32,0,0.32-0.16,0.24-0.48l-6.93-18.57c-0.4-1.03-0.8-1.03-1.2,0
			l-6.54,18.57c-0.07,0.32,0,0.48,0.24,0.48H2267.93z"/>
		<line class="st1" x1="2315.54" y1="68.03" x2="2315.54" y2="142.42"/>
		<rect x="1732.3" y="126.08" class="st2" width="79.84" height="6.57"/>
		<path class="st2" d="M1822.06,71.85c-8.53-8.37-23.55-3.13-40.56,2.31c-0.95,0.31-1.94,0.03-2.81-0.66
			c-0.74-0.62-1.53-1.15-2.3-1.6c2.4-1.42,4.01-4.03,4.01-7.03c0-4.08-3-7.46-6.91-8.07l3-3.88c0.29-0.39,0.29-1.01,0-1.4
			l-3.73-4.82c-0.15-0.19-0.34-0.29-0.54-0.29c-0.2,0-0.39,0.1-0.54,0.29l-3.73,4.82c-0.3,0.39-0.3,1.01,0,1.4l3,3.88
			c-3.91,0.61-6.91,3.99-6.91,8.07c0,2.99,1.61,5.6,4.01,7.03c-0.77,0.45-1.56,0.98-2.3,1.6c-0.87,0.69-1.85,0.96-2.81,0.66
			c-17.01-5.44-32.02-10.67-40.55-2.31c-10.22,10.02,1.68,26.23,5.42,32.91c2.63,4.68,4.48,10.13,4.48,14.46h39.93h39.93
			c0-4.33,1.86-9.78,4.48-14.46C1820.38,98.09,1832.28,81.87,1822.06,71.85z M1760.06,113.68c-3.09,0.21-5.64-2.65-6.62-6.56
			l2.53-5.93c0.28-0.65,0.09-1.26-0.34-1.69l-8.02-8.02c-0.45-0.45-0.87-0.47-1.09,0l-3.8,8.02c-0.29,0.68,0.02,1.22,0.43,1.68
			l5.99,6.05c1.25,4.76-1.98,6.49-3.8,6.49c-6.36,0-11.44-8.64-16.64-17.6c-5.11-8.8-6.9-15.24-3.05-20.09
			c6.43-8.11,23.29-1.69,36.41,4.28c-0.12,1.88,0.32,4.06,1.48,6.65C1770.47,102.38,1765.8,113.29,1760.06,113.68z M1815.73,96.12
			c-5.2,8.96-10.28,17.6-16.63,17.6c-1.82,0-5.05-1.73-3.8-6.49l5.99-6.05c0.41-0.46,0.72-0.99,0.43-1.68l-3.8-8.02
			c-0.22-0.47-0.63-0.45-1.09,0l-8.02,8.02c-0.43,0.43-0.62,1.03-0.34,1.69l2.53,5.93c-0.98,3.91-3.53,6.77-6.62,6.56
			c-5.74-0.39-10.41-11.31-3.49-26.73c1.16-2.59,1.6-4.77,1.48-6.65c13.11-5.97,29.98-12.39,36.41-4.28
			C1822.63,80.89,1820.84,87.33,1815.73,96.12z"/>
		<g>
			<path class="st3" d="M2370.78,123.7c4.48-10.36,14.84-37.34,16.54-42.9c0.39-1.16,0.7-2.24,0.7-2.94c0-0.62-0.23-1.39-1-1.78
				c-0.93-0.31-2.09-0.31-2.94-0.31c-0.46,0-0.85-0.08-0.85-0.46c0-0.46,0.46-0.62,1.7-0.62c3.09,0,6.65,0.23,7.58,0.23
				c0.46,0,3.79-0.23,6.03-0.23c0.85,0,1.31,0.15,1.31,0.54c0,0.39-0.31,0.54-0.93,0.54c-0.54,0-2.24,0-3.71,0.93
				c-1,0.7-2.16,2.01-4.25,7.27c-0.85,2.16-4.71,11.44-8.66,20.95c-4.72,11.29-8.19,19.63-9.97,23.42
				c-2.17,4.64-2.47,5.87-3.25,5.87c-0.93,0-1.31-1.08-2.78-4.79l-18.94-47.39c-1.7-4.33-2.86-5.18-5.57-5.95
				c-1.16-0.31-2.47-0.31-2.94-0.31s-0.62-0.23-0.62-0.54c0-0.46,0.77-0.54,2.01-0.54c3.71,0,8.12,0.23,9.04,0.23
				c0.77,0,4.25-0.23,7.19-0.23c1.39,0,2.09,0.15,2.09,0.54c0,0.39-0.23,0.54-0.77,0.54c-0.85,0-2.24,0.08-2.94,0.39
				c-0.85,0.39-1,1-1,1.55c0,1,0.93,3.4,2.09,6.42L2370.78,123.7z"/>
			<path class="st3" d="M2411.36,97.11c0-12.06,0-14.22-0.16-16.7c-0.15-2.63-0.77-3.87-3.32-4.41c-0.62-0.15-1.93-0.23-2.63-0.23
				c-0.31,0-0.62-0.15-0.62-0.46c0-0.46,0.39-0.62,1.24-0.62c3.48,0,8.12,0.23,8.73,0.23c1.7,0,6.18-0.23,9.74-0.23
				c9.66,0,13.14,3.25,14.38,4.41c1.7,1.62,3.87,5.1,3.87,9.2c0,10.98-8.04,18.4-19.02,18.4c-0.39,0-1.24,0-1.62-0.08
				c-0.39,0-0.85-0.15-0.85-0.54c0-0.62,0.46-0.7,2.09-0.7c7.5,0,13.37-5.49,13.37-12.6c0-2.55-0.23-7.73-4.33-11.9
				s-8.81-3.87-10.59-3.87c-1.31,0-2.63,0.15-3.32,0.46c-0.46,0.15-0.62,0.7-0.62,1.47v31.77c0,7.42,0,13.53,0.39,16.77
				c0.23,2.24,0.7,3.94,3.01,4.25c1.08,0.15,2.78,0.31,3.48,0.31c0.46,0,0.62,0.23,0.62,0.46c0,0.39-0.39,0.62-1.24,0.62
				c-4.25,0-9.12-0.23-9.51-0.23c-0.23,0-5.1,0.23-7.42,0.23c-0.85,0-1.24-0.15-1.24-0.62c0-0.23,0.15-0.46,0.62-0.46
				c0.7,0,1.62-0.15,2.32-0.31c1.55-0.31,1.93-2.01,2.24-4.25c0.39-3.25,0.39-9.35,0.39-16.77V97.11z"/>
			<path class="st3" d="M2477.46,110.71c0,7.42,0,13.53,0.39,16.77c0.23,2.24,0.7,3.94,3.01,4.25c1.08,0.15,2.78,0.31,3.48,0.31
				c0.46,0,0.62,0.23,0.62,0.46c0,0.39-0.39,0.62-1.24,0.62c-4.25,0-9.12-0.23-9.51-0.23c-0.39,0-5.26,0.23-7.58,0.23
				c-0.85,0-1.24-0.15-1.24-0.62c0-0.23,0.15-0.46,0.62-0.46c0.7,0,1.62-0.15,2.32-0.31c1.55-0.31,1.93-2.01,2.24-4.25
				c0.39-3.25,0.39-9.35,0.39-16.77v-32.7l-11.44,0.15c-4.79,0.08-6.65,0.62-7.88,2.47c-0.85,1.31-1.08,1.85-1.31,2.4
				c-0.23,0.62-0.46,0.77-0.77,0.77c-0.23,0-0.39-0.23-0.39-0.7c0-0.77,1.55-7.42,1.7-8.04c0.16-0.46,0.46-1.47,0.77-1.47
				c0.54,0,1.31,0.77,3.4,0.93c2.24,0.23,5.18,0.39,6.11,0.39h28.99c2.47,0,4.25-0.15,5.49-0.39c1.16-0.15,1.86-0.39,2.16-0.39
				c0.39,0,0.39,0.46,0.39,0.93c0,2.32-0.23,7.65-0.23,8.5c0,0.7-0.23,1-0.54,1c-0.39,0-0.54-0.23-0.62-1.31l-0.08-0.85
				c-0.23-2.32-2.09-4.1-9.51-4.25l-9.74-0.15V110.71z"/>
			<path class="st3" d="M2520.91,110.87c0,11.36,0.31,16.31,1.7,17.7c1.24,1.24,3.25,1.78,9.28,1.78c4.1,0,7.5-0.08,9.35-2.32
				c1-1.24,1.78-3.17,2.01-4.64c0.08-0.62,0.23-1.01,0.7-1.01c0.39,0,0.46,0.31,0.46,1.16c0,0.85-0.54,5.49-1.16,7.73
				c-0.54,1.78-0.77,2.09-4.87,2.09c-5.57,0-9.58-0.15-12.83-0.23c-3.25-0.15-5.64-0.23-7.88-0.23c-0.31,0-1.62,0.08-3.17,0.08
				c-1.55,0.08-3.25,0.15-4.41,0.15c-0.85,0-1.24-0.15-1.24-0.62c0-0.23,0.15-0.46,0.62-0.46c0.7,0,1.62-0.15,2.32-0.31
				c1.55-0.31,1.93-2.01,2.24-4.25c0.39-3.25,0.39-9.35,0.39-16.77v-13.6c0-12.06,0-14.22-0.16-16.7c-0.15-2.63-0.77-3.87-3.32-4.41
				c-0.62-0.15-1.93-0.23-2.63-0.23c-0.31,0-0.62-0.15-0.62-0.46c0-0.46,0.39-0.62,1.24-0.62c3.48,0,8.35,0.23,8.73,0.23
				c0.39,0,6.03-0.23,8.35-0.23c0.85,0,1.24,0.15,1.24,0.62c0,0.31-0.31,0.46-0.62,0.46c-0.54,0-1.62,0.08-2.55,0.23
				c-2.24,0.39-2.86,1.7-3.01,4.41c-0.15,2.47-0.15,4.64-0.15,16.7V110.87z"/>
			<path class="st3" d="M2566.67,110.71c0,7.42,0,13.53,0.39,16.77c0.23,2.24,0.7,3.94,3.01,4.25c1.08,0.15,2.78,0.31,3.48,0.31
				c0.46,0,0.62,0.23,0.62,0.46c0,0.39-0.39,0.62-1.24,0.62c-4.25,0-9.12-0.23-9.51-0.23c-0.39,0-5.26,0.23-7.58,0.23
				c-0.85,0-1.24-0.15-1.24-0.62c0-0.23,0.15-0.46,0.62-0.46c0.7,0,1.62-0.15,2.32-0.31c1.55-0.31,1.93-2.01,2.24-4.25
				c0.39-3.25,0.39-9.35,0.39-16.77v-13.6c0-12.06,0-14.22-0.15-16.7c-0.16-2.63-0.93-3.94-2.63-4.33c-0.85-0.23-1.86-0.31-2.4-0.31
				c-0.31,0-0.62-0.15-0.62-0.46c0-0.46,0.39-0.62,1.24-0.62c2.55,0,7.42,0.23,7.81,0.23c0.39,0,5.26-0.23,7.58-0.23
				c0.85,0,1.24,0.15,1.24,0.62c0,0.31-0.31,0.46-0.62,0.46c-0.54,0-1,0.08-1.93,0.23c-2.09,0.39-2.71,1.7-2.86,4.41
				c-0.15,2.47-0.15,4.64-0.15,16.7V110.71z"/>
		</g>
		<g>
			<path class="st0" d="M1893.08,190.44c0,8.98-6.84,15.68-16.04,15.68c-10.3,0-16.23-7.25-16.23-15.36
				c0-9.3,6.75-16.18,16.32-16.18C1887.66,174.57,1893.08,182.14,1893.08,190.44z M1867.01,189.43c0,6.29,2.69,14.86,10.48,14.86
				c5.2,0,9.39-3.87,9.39-13.04c0-6.88-3.1-14.86-10.35-14.86C1871.98,176.4,1867.01,179.72,1867.01,189.43z"/>
			<path class="st0" d="M1904.75,189.57c-0.96,0-0.96,0.09-0.96,1.41v8.98c0,3.37,0.18,3.78,1.78,4.06l1.09,0.18
				c0.32,0.32,0.27,1.14-0.09,1.32c-1.37-0.09-3.15-0.14-5.29-0.14c-1.5,0-3.01,0.05-4.92,0.14c-0.36-0.18-0.41-1-0.09-1.32l1-0.14
				c1.55-0.23,1.73-0.73,1.73-4.1v-9.02c0-1.23-0.05-1.37-0.82-1.37h-1.64c-0.37-0.18-0.46-0.78-0.14-1.05l1.96-1
				c0.32-0.18,0.64-0.46,0.64-1v-0.37c0-1.32,0.18-3.55,1-5.88c1.32-3.65,4.33-6.38,8.93-6.38c2.51,0,4.15,0.82,5.38,1.82
				c1.73-1.69,3.92-2.92,7.52-2.92c3.69,0,6.47,1.91,6.47,4.24c0,1.5-1.09,2.37-2.37,2.37c-1.09,0-1.46-0.41-1.73-0.91
				c-1.5-2.87-3.01-3.88-4.19-3.88c-3.24,0-3.87,3.83-3.87,11.44v0.5c0,0.68,0.14,0.87,1.14,0.87h3.87c4.1,0,6.75-0.64,6.88-0.64
				c0.27,0,0.5,0.09,0.59,0.36c-0.09,1.41-0.14,3.6-0.14,5.47v7.34c0,3.37,0.18,3.83,1.73,4.1l0.82,0.14
				c0.32,0.32,0.27,1.14-0.09,1.32c-1.69-0.09-3.24-0.14-4.92-0.14c-1.5,0-3.05,0.05-4.47,0.14c-0.41-0.18-0.46-1-0.14-1.32
				l0.55-0.09c1.55-0.27,1.73-0.77,1.73-4.15v-6.7c0-3.55-0.04-3.69-2.37-3.69h-4.24c-0.87,0-0.96,0.09-0.96,1.41v8.98
				c0,3.37,0.18,3.87,1.78,4.06l1.78,0.18c0.32,0.32,0.27,1.14-0.09,1.32c-2.01-0.09-3.78-0.14-5.93-0.14
				c-1.5,0-3.05,0.05-4.65,0.14c-0.36-0.18-0.41-1-0.09-1.32l0.68-0.09c1.55-0.23,1.73-0.77,1.73-4.15v-9.02
				c0-1.23-0.04-1.37-0.82-1.37H1904.75z M1903.79,186.29c0,1.05,0.04,1.14,1,1.14h5.93c0.59,0,0.64-0.36,0.64-0.77v-0.96
				c0-1.91,0.23-4.15,0.96-6.47c-0.46-1.78-2.23-3.51-4.19-3.51c-2.37,0-4.33,1.55-4.33,9.53V186.29z"/>
			<path class="st0" d="M1948.45,187.43c0.59,0.55,0.91,1.28,0.91,2.33c0,1.46-0.77,2.14-1.14,2.14c-0.32,0-0.55-0.09-0.87-0.5
				c-1-1.32-2.37-2.78-4.15-2.78c-2.6,0-5.29,2.55-5.29,6.84c0,3.69,2.37,7.2,6.52,7.2c2.96,0,4.01-1.09,4.92-2.42
				c0.41-0.05,0.91,0.27,0.96,0.82c-1.64,3.69-5.15,4.97-8.02,4.97c-2.42,0-4.79-0.96-6.33-2.46c-1.6-1.55-2.64-3.92-2.64-6.56
				c0-5.33,3.87-10.21,11.21-10.21C1945.85,186.79,1947.17,186.97,1948.45,187.43z"/>
			<path class="st0" d="M1956.74,194.58c-0.87,0-0.96,0.04-0.96,0.59c0,4.1,2.83,7.38,6.88,7.38c1.82,0,3.33-0.59,4.38-2.28
				c0.46-0.14,0.96,0.32,1,0.73c-1.55,3.65-4.92,5.01-7.7,5.01c-5.29,0-8.8-3.92-8.8-9.12c0-5.15,3.51-10.12,9.62-10.12
				c3.37,0,6.84,2.19,6.84,6.15c0,0.41-0.04,0.68-0.23,1.05c-0.27,0.41-1.32,0.59-3.14,0.59H1956.74z M1960.94,192.76
				c1.32,0,1.91-0.14,2.23-0.32c0.27-0.18,0.46-0.55,0.46-0.96c0-1.64-1.05-2.96-3.01-2.96c-3.05,0-4.47,2.96-4.47,3.92
				c0,0.18,0.09,0.32,0.64,0.32H1960.94z"/>
			<path class="st0" d="M2000.95,196.18c0,6.47-4.56,9.84-9.98,9.84c-5.24,0-9.62-3.33-9.62-9.3c0-6.11,4.65-9.94,9.98-9.94
				C1996.48,186.79,2000.95,190.25,2000.95,196.18z M1991.52,204.2c3.14,0,4.06-3.74,4.06-7.25c0-3.83-1.32-8.34-4.69-8.34
				c-2.32,0-4.15,2.37-4.15,7.43C1986.73,200.19,1988.23,204.2,1991.52,204.2z"/>
			<path class="st0" d="M2012.11,189.57c-0.96,0-0.96,0.09-0.96,1.41v8.98c0,3.37,0.18,3.87,1.78,4.06l1.78,0.18
				c0.32,0.32,0.27,1.14-0.09,1.32c-2.05-0.09-3.83-0.14-5.97-0.14c-1.5,0-3.05,0.05-4.92,0.14c-0.36-0.18-0.41-1-0.09-1.32l1-0.14
				c1.55-0.23,1.73-0.73,1.73-4.1v-9.02c0-1.23-0.05-1.37-0.82-1.37h-1.64c-0.37-0.18-0.46-0.78-0.14-1.05l1.96-1
				c0.32-0.18,0.64-0.46,0.64-1v-0.82c0-1.96,0.18-4.19,0.96-6.52c1.19-3.6,4.24-6.38,8.52-6.38c3.14,0,5.2,1.41,5.2,3.33
				c0,1.28-1.14,2.19-2.23,2.19c-0.68,0-1.05-0.27-1.32-0.64c-1.46-2.1-2.46-3.01-3.55-3.01c-1.55,0-2.78,3.1-2.78,9.94v1.37
				c0,1.37,0.04,1.46,1,1.46h4.79c0.18,0.14,0.27,0.41,0.27,0.73c0,0.77-0.27,1.18-0.64,1.41H2012.11z"/>
			<path class="st0" d="M2036.72,189.43c-0.82,0-0.87,0.09-0.87,1.55V198c0,2.87,0.41,5.42,3.33,5.42c0.91,0,1.46-0.32,2.19-0.82
				c0.41,0.05,0.68,0.41,0.59,0.91c-0.91,1.28-3.01,2.51-5.79,2.51c-4.33,0-5.11-2.51-5.11-5.7v-9.25c0-1.59-0.09-1.64-0.82-1.64
				h-1.59c-0.46-0.23-0.55-0.96-0.14-1.23c1.55-0.59,2.6-1.19,3.6-1.92c0.87-0.64,1.87-1.59,2.51-2.83
				c0.41-0.27,1.05-0.14,1.28,0.23v2.74c0,0.73,0,0.87,0.87,0.87h4.51c0.27,0.14,0.36,0.5,0.36,0.96c-0.04,0.55-0.23,0.96-0.59,1.19
				H2036.72z"/>
			<path class="st0" d="M2050.16,188.2c0,0.55,0.09,0.77,0.41,0.77c1.6-1.18,3.56-2.19,5.83-2.19c3.92,0,5.83,2.51,5.83,6.38v6.79
				c0,3.37,0.18,3.92,1.73,4.1l1.05,0.14c0.41,0.32,0.37,1.14-0.09,1.32c-1.91-0.09-3.46-0.14-5.15-0.14c-1.5,0-3.05,0.05-4.65,0.14
				c-0.37-0.18-0.41-1-0.09-1.32l0.68-0.09c1.55-0.23,1.73-0.77,1.73-4.15v-6.43c0-2.19-0.96-4.01-3.65-4.01
				c-1.5,0-2.55,0.73-3.1,1.32c-0.5,0.55-0.55,1.23-0.55,3.01v6.11c0,3.37,0.18,3.92,1.73,4.15l0.68,0.09
				c0.32,0.32,0.27,1.14-0.09,1.32c-1.6-0.09-3.15-0.14-4.83-0.14c-1.46,0-3.01,0.05-4.92,0.14c-0.37-0.18-0.41-1-0.09-1.32l1-0.14
				c1.55-0.23,1.73-0.73,1.73-4.1v-19.55c0-3.05-0.09-3.33-1.05-3.97l-0.64-0.41c-0.27-0.18-0.32-0.91,0-1.05
				c1.78-0.5,4.1-1.46,5.97-2.19c0.27-0.05,0.55,0.14,0.64,0.36c-0.09,1.82-0.14,4.65-0.14,6.61V188.2z"/>
			<path class="st0" d="M2072.26,194.58c-0.87,0-0.96,0.04-0.96,0.59c0,4.1,2.83,7.38,6.88,7.38c1.82,0,3.33-0.59,4.38-2.28
				c0.46-0.14,0.96,0.32,1,0.73c-1.55,3.65-4.92,5.01-7.7,5.01c-5.29,0-8.8-3.92-8.8-9.12c0-5.15,3.51-10.12,9.62-10.12
				c3.37,0,6.84,2.19,6.84,6.15c0,0.41-0.04,0.68-0.23,1.05c-0.27,0.41-1.32,0.59-3.14,0.59H2072.26z M2076.46,192.76
				c1.32,0,1.91-0.14,2.23-0.32c0.27-0.18,0.46-0.55,0.46-0.96c0-1.64-1.05-2.96-3.01-2.96c-3.05,0-4.47,2.96-4.47,3.92
				c0,0.18,0.09,0.32,0.64,0.32H2076.46z"/>
			<path class="st0" d="M2114.28,194.08c-1.87,4.15-3.97,9.48-4.74,11.8c-0.09,0.14-0.46,0.23-0.78,0.23
				c-0.32,0-0.64-0.09-0.87-0.23c-0.55-1.82-1.28-4.06-2.1-5.97l-7.98-19.19c-1.28-3.05-1.69-3.69-3.51-4.06l-1.09-0.23
				c-0.32-0.32-0.32-1.14,0.14-1.28c1.78,0.09,3.74,0.14,5.52,0.14c2.05,0,3.6-0.05,6.02-0.14c0.41,0.27,0.46,1,0.05,1.32
				l-1.14,0.27c-1,0.23-1.37,0.46-1.37,0.82c0,0.41,0.36,1.41,2.23,6.06l3.28,8.11c0.82,2.05,2.05,4.74,2.51,5.79
				c2.46-5.74,5.2-12.03,7.61-18.23c0.73-1.82,0.59-2.19-0.77-2.51l-1.32-0.32c-0.32-0.36-0.27-1.09,0.09-1.32
				c1.87,0.09,3.42,0.14,4.88,0.14c1.64,0,3.14-0.05,4.42-0.14c0.36,0.23,0.32,0.96,0.09,1.32l-1.14,0.23
				c-1.05,0.23-2.05,0.55-2.83,1.87c-1.28,2.19-2.55,5.24-4.65,9.84L2114.28,194.08z"/>
			<path class="st0" d="M2132.24,199.96c0,3.37,0.18,3.83,1.73,4.1l0.82,0.14c0.32,0.32,0.27,1.14-0.09,1.32
				c-1.69-0.09-3.24-0.14-4.92-0.14c-1.5,0-3.05,0.05-4.79,0.14c-0.37-0.18-0.41-1-0.09-1.32l0.82-0.14
				c1.55-0.27,1.73-0.73,1.73-4.1v-6.7c0-2.05,0-2.6-1.14-3.28l-0.55-0.32c-0.14-0.18-0.14-0.82,0.05-1.05
				c2.37-0.68,4.65-1.69,5.92-2.46c0.27,0.05,0.5,0.14,0.64,0.37c-0.09,1.5-0.14,3.69-0.14,5.56V199.96z M2127.04,179.86
				c0-1.55,1.14-2.74,2.78-2.74s2.78,1.19,2.78,2.74s-1.14,2.73-2.78,2.73S2127.04,181.41,2127.04,179.86z"/>
			<path class="st0" d="M2152.2,187.43c0.59,0.55,0.91,1.28,0.91,2.33c0,1.46-0.77,2.14-1.14,2.14c-0.32,0-0.55-0.09-0.87-0.5
				c-1-1.32-2.37-2.78-4.15-2.78c-2.6,0-5.29,2.55-5.29,6.84c0,3.69,2.37,7.2,6.52,7.2c2.96,0,4.01-1.09,4.92-2.42
				c0.41-0.05,0.91,0.27,0.96,0.82c-1.64,3.69-5.15,4.97-8.02,4.97c-2.42,0-4.79-0.96-6.33-2.46c-1.6-1.55-2.64-3.92-2.64-6.56
				c0-5.33,3.87-10.21,11.21-10.21C2149.6,186.79,2150.92,186.97,2152.2,187.43z"/>
			<path class="st0" d="M2160.49,194.58c-0.87,0-0.96,0.04-0.96,0.59c0,4.1,2.83,7.38,6.88,7.38c1.82,0,3.33-0.59,4.38-2.28
				c0.46-0.14,0.96,0.32,1,0.73c-1.55,3.65-4.92,5.01-7.7,5.01c-5.29,0-8.8-3.92-8.8-9.12c0-5.15,3.51-10.12,9.62-10.12
				c3.37,0,6.84,2.19,6.84,6.15c0,0.41-0.04,0.68-0.23,1.05c-0.27,0.41-1.32,0.59-3.14,0.59H2160.49z M2164.68,192.76
				c1.32,0,1.91-0.14,2.23-0.32c0.27-0.18,0.46-0.55,0.46-0.96c0-1.64-1.05-2.96-3.01-2.96c-3.05,0-4.47,2.96-4.47,3.92
				c0,0.18,0.09,0.32,0.64,0.32H2164.68z"/>
			<path class="st0" d="M2189.11,182.14c0-4.15-0.05-4.88-1.96-5.1l-1.59-0.18c-0.32-0.32-0.32-1.09,0.04-1.28
				c3.19-0.37,5.93-0.41,10.07-0.41c4.33,0,7.47,0.64,9.53,1.82c2.37,1.41,3.87,3.83,3.87,6.84c0,6.93-6.61,8.84-10.21,8.84
				c-0.41,0-0.78,0-1.14-0.05c-0.32-0.27-0.36-0.87-0.14-1.14c4.15-0.82,5.65-3.83,5.65-7.57c0-3.69-2.37-6.93-6.52-6.93
				c-2.28,0-2.32,0.14-2.32,1.92v19.92c0,4.83,0.41,4.97,2.55,5.2l1.69,0.18c0.27,0.32,0.23,1.14-0.09,1.32
				c-2.69-0.09-4.74-0.14-6.75-0.14c-2.01,0-4.06,0.05-5.88,0.14c-0.36-0.18-0.41-1-0.09-1.32l0.73-0.09
				c2.14-0.27,2.55-0.46,2.55-5.29V182.14z"/>
			<path class="st0" d="M2213.17,193.26c0-2.05,0-2.6-1.14-3.28l-0.55-0.32c-0.14-0.18-0.14-0.82,0.05-1.05
				c1.96-0.64,4.38-1.64,5.74-2.46c0.27,0,0.55,0.14,0.64,0.41c-0.05,0.87-0.09,1.64-0.09,2.05c0,0.32,0.18,0.55,0.46,0.55
				c1.41-1,2.92-2.37,4.47-2.37c1.59,0,2.51,1.05,2.51,2.23c0,1.78-1.32,2.64-2.55,2.64c-0.46,0-0.87-0.14-1.23-0.37
				c-1.14-0.77-1.91-0.87-2.19-0.87c-1.05,0-1.32,1.05-1.32,3.28v6.24c0,3.37,0.18,3.87,1.78,4.06l1.78,0.18
				c0.32,0.32,0.27,1.14-0.09,1.32c-2.73-0.09-4.28-0.14-5.97-0.14c-1.5,0-3.01,0.05-4.74,0.14c-0.37-0.18-0.41-1-0.09-1.32
				l0.82-0.14c1.55-0.27,1.73-0.73,1.73-4.1V193.26z"/>
			<path class="st0" d="M2245.76,196.18c0,6.47-4.56,9.84-9.98,9.84c-5.24,0-9.62-3.33-9.62-9.3c0-6.11,4.65-9.94,9.98-9.94
				C2241.29,186.79,2245.76,190.25,2245.76,196.18z M2236.32,204.2c3.14,0,4.06-3.74,4.06-7.25c0-3.83-1.32-8.34-4.69-8.34
				c-2.32,0-4.15,2.37-4.15,7.43C2231.54,200.19,2233.04,204.2,2236.32,204.2z"/>
			<path class="st0" d="M2259.84,200.42c-0.73,1.64-1.6,3.78-2.14,5.33c-0.18,0.18-0.46,0.27-0.77,0.27s-0.59-0.09-0.82-0.27
				c-0.46-1.28-1.19-3.05-1.73-4.24c-1-2.23-3.51-7.98-4.38-9.89c-0.91-1.96-1.41-2.55-2.78-2.83l-0.87-0.18
				c-0.32-0.32-0.27-1.09,0.09-1.32c1.6,0.09,3.19,0.14,4.79,0.14c2.05,0,3.42-0.04,5.01-0.14c0.46,0.18,0.5,1,0.09,1.32l-0.82,0.14
				c-0.64,0.09-1.14,0.23-1.14,0.5s0.09,0.78,0.37,1.46c0.64,1.69,2.96,7.34,3.65,8.71c1.09-2.28,2.19-5.06,3.37-7.93
				c0.46-1.14,0.64-1.73,0.64-2.05s-0.41-0.5-0.96-0.59l-1.09-0.23c-0.36-0.37-0.32-1.14,0.18-1.32c1.37,0.09,2.51,0.14,3.83,0.14
				c1.19,0,2.33-0.04,3.33-0.14c0.41,0.18,0.46,1,0.09,1.32l-0.91,0.18c-1.37,0.27-2,0.59-3.42,3.69L2259.84,200.42z"/>
			<path class="st0" d="M2287.13,196.18c0,6.47-4.56,9.84-9.98,9.84c-5.24,0-9.62-3.33-9.62-9.3c0-6.11,4.65-9.94,9.98-9.94
				C2282.67,186.79,2287.13,190.25,2287.13,196.18z M2277.7,204.2c3.14,0,4.06-3.74,4.06-7.25c0-3.83-1.32-8.34-4.69-8.34
				c-2.32,0-4.15,2.37-4.15,7.43C2272.91,200.19,2274.42,204.2,2277.7,204.2z"/>
			<path class="st0" d="M2290.78,204.56c-0.46-0.87-0.73-3.19-0.64-5.15c0.27-0.36,0.96-0.41,1.28-0.09
				c0.82,2.55,2.51,4.97,4.92,4.97c1.41,0,2.55-0.96,2.55-2.55c0-1.69-1.5-2.78-3.1-3.55c-2.37-1.14-4.83-2.83-4.83-5.74
				c-0.05-3.55,3.01-5.65,6.79-5.65c1.87,0,3.6,0.55,4.24,0.91c0.46,0.96,0.68,2.37,0.68,4.42c-0.14,0.37-0.91,0.5-1.23,0.23
				c-0.68-2.1-2.14-3.83-3.92-3.83c-1.46,0-2.55,1.05-2.55,2.37c0,1.32,1.32,2.28,3.05,3.1c2.46,1.18,5.06,2.73,5.06,6.33
				c0,3.97-3.51,5.7-7.11,5.7C2294.1,206.02,2292.24,205.66,2290.78,204.56z"/>
			<path class="st0" d="M2313.79,189.43c-0.82,0-0.87,0.09-0.87,1.55V198c0,2.87,0.41,5.42,3.33,5.42c0.91,0,1.46-0.32,2.19-0.82
				c0.41,0.05,0.68,0.41,0.59,0.91c-0.91,1.28-3.01,2.51-5.79,2.51c-4.33,0-5.11-2.51-5.11-5.7v-9.25c0-1.59-0.09-1.64-0.82-1.64
				h-1.59c-0.46-0.23-0.55-0.96-0.14-1.23c1.55-0.59,2.6-1.19,3.6-1.92c0.87-0.64,1.87-1.59,2.51-2.83
				c0.41-0.27,1.05-0.14,1.28,0.23v2.74c0,0.73,0,0.87,0.87,0.87h4.51c0.27,0.14,0.36,0.5,0.36,0.96c-0.04,0.55-0.23,0.96-0.59,1.19
				H2313.79z"/>
			<path class="st0" d="M1868.66,244.26c-0.96,0-0.96,0.09-0.96,1.41v8.98c0,3.37,0.18,3.87,1.78,4.06l1.78,0.18
				c0.32,0.32,0.27,1.14-0.09,1.32c-2.05-0.09-3.83-0.14-5.97-0.14c-1.5,0-3.05,0.05-4.92,0.14c-0.36-0.18-0.41-1-0.09-1.32l1-0.14
				c1.55-0.23,1.73-0.73,1.73-4.1v-9.02c0-1.23-0.05-1.37-0.82-1.37h-1.64c-0.37-0.18-0.46-0.78-0.14-1.05l1.96-1
				c0.32-0.18,0.64-0.46,0.64-1v-0.82c0-1.96,0.18-4.19,0.96-6.52c1.19-3.6,4.24-6.38,8.52-6.38c3.14,0,5.2,1.41,5.2,3.33
				c0,1.28-1.14,2.19-2.23,2.19c-0.68,0-1.05-0.27-1.32-0.64c-1.46-2.1-2.46-3.01-3.55-3.01c-1.55,0-2.78,3.1-2.78,9.94v1.37
				c0,1.37,0.04,1.46,1,1.46h4.79c0.18,0.14,0.27,0.41,0.27,0.73c0,0.77-0.27,1.18-0.64,1.41H1868.66z"/>
			<path class="st0" d="M1893.63,250.86c0,6.47-4.56,9.84-9.98,9.84c-5.24,0-9.62-3.33-9.62-9.3c0-6.11,4.65-9.94,9.98-9.94
				C1889.16,241.47,1893.63,244.94,1893.63,250.86z M1884.2,258.89c3.14,0,4.06-3.74,4.06-7.25c0-3.83-1.32-8.34-4.69-8.34
				c-2.32,0-4.15,2.37-4.15,7.43C1879.41,254.87,1880.91,258.89,1884.2,258.89z"/>
			<path class="st0" d="M1899.1,247.95c0-2.05,0-2.6-1.14-3.28l-0.55-0.32c-0.14-0.18-0.14-0.82,0.05-1.05
				c1.96-0.64,4.38-1.64,5.74-2.46c0.27,0,0.55,0.14,0.64,0.41c-0.05,0.87-0.09,1.64-0.09,2.05c0,0.32,0.18,0.55,0.46,0.55
				c1.41-1,2.92-2.37,4.47-2.37c1.59,0,2.51,1.05,2.51,2.23c0,1.78-1.32,2.64-2.55,2.64c-0.46,0-0.87-0.14-1.23-0.37
				c-1.14-0.77-1.91-0.87-2.19-0.87c-1.05,0-1.32,1.05-1.32,3.28v6.24c0,3.37,0.18,3.87,1.78,4.06l1.78,0.18
				c0.32,0.32,0.27,1.14-0.09,1.32c-2.73-0.09-4.28-0.14-5.97-0.14c-1.5,0-3.01,0.05-4.74,0.14c-0.37-0.18-0.41-1-0.09-1.32
				l0.82-0.14c1.55-0.27,1.73-0.73,1.73-4.1V247.95z"/>
			<path class="st0" d="M1936.78,233.82c0-1.91-0.05-2.01-1.23-2.01H1933c-4.19,0-5.42,0.5-7.11,4.19
				c-0.32,0.27-1.28,0.14-1.46-0.32c0.78-2.46,1.46-5.29,1.78-6.88c0.09-0.14,0.27-0.18,0.5-0.18c0.18,0,0.36,0.05,0.46,0.18
				c0.23,1.14,0.87,1.19,3.97,1.19h18.6c2.23,0,2.92-0.14,3.46-1.19c0.18-0.09,0.36-0.18,0.55-0.18c0.27,0,0.5,0.09,0.59,0.23
				c-0.46,1.87-0.82,5.79-0.68,7.25c-0.23,0.36-1,0.46-1.41,0.14c-0.59-3.56-1.46-4.42-6.33-4.42h-2.6c-1.18,0-1.23,0.09-1.23,2.01
				v19.69c0,4.83,0.41,4.97,2.55,5.2l1.64,0.18c0.32,0.32,0.27,1.14-0.09,1.32c-2.64-0.09-4.7-0.14-6.7-0.14
				c-2.01,0-4.15,0.05-7.06,0.14c-0.37-0.18-0.41-1.09-0.09-1.32l1.92-0.23c2.14-0.27,2.55-0.32,2.55-5.15V233.82z"/>
			<path class="st0" d="M1955.97,249.27c-0.87,0-0.96,0.04-0.96,0.59c0,4.1,2.83,7.38,6.88,7.38c1.82,0,3.33-0.59,4.38-2.28
				c0.46-0.14,0.96,0.32,1,0.73c-1.55,3.65-4.92,5.01-7.7,5.01c-5.29,0-8.8-3.92-8.8-9.12c0-5.15,3.51-10.12,9.62-10.12
				c3.37,0,6.84,2.19,6.84,6.15c0,0.41-0.04,0.68-0.23,1.05c-0.27,0.41-1.32,0.59-3.14,0.59H1955.97z M1960.16,247.45
				c1.32,0,1.91-0.14,2.23-0.32c0.27-0.18,0.46-0.55,0.46-0.96c0-1.64-1.05-2.96-3.01-2.96c-3.05,0-4.47,2.96-4.47,3.92
				c0,0.18,0.09,0.32,0.64,0.32H1960.16z"/>
			<path class="st0" d="M1983.63,254.28c-0.14,2.64,0.55,4.01,2.19,4.01c0.77,0,1.41-0.5,1.55-0.5c0.23,0,0.55,0.5,0.41,0.91
				c-0.91,1.28-3.15,2-4.56,2c-1.14,0-2.42-0.32-3.28-1.28c-0.32-0.32-0.5-0.55-0.73-0.55c-0.23,0-0.55,0.23-1.23,0.64
				c-0.87,0.55-2.23,1.18-3.87,1.18c-3.1,0-4.65-2.14-4.65-4.42c0-1.64,0.64-3.14,3.78-4.24c1.6-0.55,3.33-1.19,5.01-1.82
				c0.91-0.32,1.05-0.73,1.05-1.19l0.04-1.18c0.09-2.32-0.55-4.33-2.78-4.33c-1.28,0-2.23,0.68-2.42,2.01
				c-0.09,0.87-0.37,1.32-0.87,1.64c-0.64,0.41-1.91,0.82-2.92,0.82c-0.59,0-0.87-0.32-0.87-0.73c0-0.55,0.27-1.5,1.78-2.92
				c1.41-1.32,4.7-2.87,7.02-2.87c3.6,0,5.83,1.69,5.65,5.7L1983.63,254.28z M1979.17,252.73c0-0.5-0.14-0.78-0.37-0.78
				c-0.36,0-1.18,0.23-2,0.55c-1.28,0.46-2.46,1.09-2.46,3.05c0,1.19,0.82,2.64,2.55,2.64c1.64,0,2.14-1.09,2.19-2.19
				L1979.17,252.73z"/>
			<path class="st0" d="M2003.68,242.11c0.59,0.55,0.91,1.28,0.91,2.33c0,1.46-0.77,2.14-1.14,2.14c-0.32,0-0.55-0.09-0.87-0.5
				c-1-1.32-2.37-2.78-4.15-2.78c-2.6,0-5.29,2.55-5.29,6.84c0,3.69,2.37,7.2,6.52,7.2c2.96,0,4.01-1.09,4.92-2.42
				c0.41-0.05,0.91,0.27,0.96,0.82c-1.64,3.69-5.15,4.97-8.02,4.97c-2.42,0-4.79-0.96-6.33-2.46c-1.6-1.55-2.64-3.92-2.64-6.56
				c0-5.33,3.87-10.21,11.21-10.21C2001.08,241.47,2002.41,241.66,2003.68,242.11z"/>
			<path class="st0" d="M2013.66,242.89c0,0.55,0.09,0.77,0.41,0.77c1.6-1.18,3.56-2.19,5.83-2.19c3.92,0,5.83,2.51,5.83,6.38v6.79
				c0,3.37,0.18,3.92,1.73,4.1l1.05,0.14c0.41,0.32,0.37,1.14-0.09,1.32c-1.91-0.09-3.46-0.14-5.15-0.14c-1.5,0-3.05,0.05-4.65,0.14
				c-0.37-0.18-0.41-1-0.09-1.32l0.68-0.09c1.55-0.23,1.73-0.77,1.73-4.15v-6.43c0-2.19-0.96-4.01-3.65-4.01
				c-1.5,0-2.55,0.73-3.1,1.32c-0.5,0.55-0.55,1.23-0.55,3.01v6.11c0,3.37,0.18,3.92,1.73,4.15l0.68,0.09
				c0.32,0.32,0.27,1.14-0.09,1.32c-1.6-0.09-3.15-0.14-4.83-0.14c-1.46,0-3.01,0.05-4.92,0.14c-0.37-0.18-0.41-1-0.09-1.32l1-0.14
				c1.55-0.23,1.73-0.73,1.73-4.1v-19.55c0-3.05-0.09-3.33-1.05-3.97l-0.64-0.41c-0.27-0.18-0.32-0.91,0-1.05
				c1.78-0.5,4.1-1.46,5.97-2.19c0.27-0.05,0.55,0.14,0.64,0.36c-0.09,1.82-0.14,4.65-0.14,6.61V242.89z"/>
			<path class="st0" d="M2037.95,254.65c0,3.37,0.18,3.83,1.73,4.1l0.82,0.14c0.32,0.32,0.27,1.14-0.09,1.32
				c-1.69-0.09-3.24-0.14-4.92-0.14c-1.5,0-3.05,0.05-4.79,0.14c-0.37-0.18-0.41-1-0.09-1.32l0.82-0.14
				c1.55-0.27,1.73-0.73,1.73-4.1v-6.7c0-2.05,0-2.6-1.14-3.28l-0.55-0.32c-0.14-0.18-0.14-0.82,0.05-1.05
				c2.37-0.68,4.65-1.69,5.92-2.46c0.27,0.05,0.5,0.14,0.64,0.37c-0.09,1.5-0.14,3.69-0.14,5.56V254.65z M2032.75,234.55
				c0-1.55,1.14-2.74,2.78-2.74s2.78,1.19,2.78,2.74s-1.14,2.73-2.78,2.73S2032.75,236.1,2032.75,234.55z"/>
			<path class="st0" d="M2050.16,254.65c0,3.37,0.18,3.92,1.73,4.15l0.68,0.09c0.32,0.32,0.27,1.14-0.09,1.32
				c-1.6-0.09-3.14-0.14-4.83-0.14c-1.46,0-3.01,0.05-4.92,0.14c-0.36-0.18-0.41-1-0.09-1.32l1-0.14c1.55-0.23,1.73-0.73,1.73-4.1
				v-6.7c0-2.05,0-2.6-1.14-3.28l-0.55-0.32c-0.14-0.18-0.14-0.82,0.05-1.05c1.96-0.55,4.47-1.64,5.92-2.46
				c0.32,0,0.5,0.18,0.59,0.37c-0.09,0.87-0.09,1.73-0.09,2.1c0,0.32,0.14,0.41,0.41,0.46c2.14-1.18,3.42-2.28,6.24-2.28
				c3.69,0,5.42,2.55,5.42,6.11v7.06c0,3.37,0.18,3.92,1.73,4.1l1.05,0.14c0.32,0.32,0.27,1.14-0.09,1.32
				c-1.91-0.09-3.46-0.14-5.15-0.14c-1.5,0-3.05,0.05-4.65,0.14c-0.36-0.18-0.41-1-0.09-1.32l0.68-0.09
				c1.55-0.23,1.73-0.77,1.73-4.15v-6.29c0-2.32-0.91-4.15-3.65-4.15c-1.41,0-2.55,0.73-3.01,1.41c-0.59,0.82-0.64,1.23-0.64,2.92
				V254.65z"/>
			<path class="st0" d="M2083.34,245.49c0.14,0.46,0.23,0.96,0.23,1.96c0,3.83-2.55,7.52-8.34,7.52c-0.55,0-1.14-0.09-1.73-0.18
				c-0.73,0.36-1.41,0.96-1.41,1.78c0,0.91,0.64,1.78,2.51,1.78c1.32,0,3.05-0.09,5.01-0.09c3.28,0,7.43,0.55,7.43,5.51
				c0,2.37-1.64,4.6-2.87,5.56c-2.01,1.64-4.92,3.01-8.84,3.01c-6.43,0-8.52-3.01-8.52-5.38c0-0.68,0.09-1.28,0.64-1.96
				c0.41-0.46,2.14-1.46,2.83-2.05c0.36-0.27,0.68-0.87,0.27-1c-1.6-0.55-3.01-2.01-3.01-3.78c0-0.46,0.18-0.82,0.73-1.14
				c0.68-0.36,2.92-1.78,2.92-2.42c0-0.14,0-0.41-0.18-0.5c-1.55-0.64-3.37-2.46-3.37-5.42c0-4.1,3.42-7.2,8.34-7.2
				c1.82,0,3.42,0.36,4.6,0.96c0.96,0.46,1.46,0.68,2,0.68h4.47c0.18,0.14,0.36,0.46,0.36,0.82c0,0.91-0.36,1.46-0.73,1.55H2083.34z
				 M2075.68,262.3c-1.6,0-2.55,0.14-3.1,0.55c-0.77,0.59-1.37,1.41-1.37,2.55c0,2.78,2.46,4.6,5.97,4.6c3.87,0,6.06-1.59,6.06-4.24
				c0-2.32-2.14-3.46-4.97-3.46H2075.68z M2076.05,253.23c1.73,0,3.01-1.5,3.01-4.69c0-3.1-1.32-5.33-3.37-5.33
				c-1.6,0-3.01,1.5-3.01,4.65C2072.67,251.37,2074.32,253.23,2076.05,253.23z"/>
			<path class="st0" d="M2089.72,265.72c-0.64-0.23-0.82-0.77-0.5-1.37c1.59-0.5,3.92-1.64,3.92-4.06c0-2-2.19-2.51-2.64-2.73
				c-0.64-0.32-1.05-0.91-1.05-1.69c0-1.32,1.05-2.42,2.83-2.42c1.73,0,3.83,1.59,3.83,4.97
				C2096.1,262.39,2093.09,264.72,2089.72,265.72z"/>
			<path class="st0" d="M2120.3,252.55c0,2.28,0.09,3.92,0.77,4.69c0.55,0.64,1.28,1,4.92,1c5.06,0,5.79-0.23,7.88-4.92
				c0.46-0.23,1.19-0.09,1.41,0.27c-0.36,1.91-1.37,5.38-1.91,6.61c-1.91-0.09-5.83-0.14-10.94-0.14h-4.74
				c-2.33,0-4.6,0.05-6.52,0.14c-0.37-0.18-0.5-1.09-0.09-1.32l1.37-0.23c2.14-0.36,2.55-0.41,2.55-5.15v-16.96
				c0-4.74-0.41-4.88-2.55-5.2l-1.28-0.18c-0.32-0.23-0.32-1.14,0.09-1.32c2.28,0.09,4.33,0.14,6.43,0.14c2,0,4.06-0.05,6.06-0.14
				c0.41,0.18,0.46,1.09,0.09,1.32l-1,0.18c-2.14,0.36-2.55,0.46-2.55,5.2V252.55z"/>
			<path class="st0" d="M2141.71,249.27c-0.87,0-0.96,0.04-0.96,0.59c0,4.1,2.83,7.38,6.88,7.38c1.82,0,3.33-0.59,4.38-2.28
				c0.46-0.14,0.96,0.32,1,0.73c-1.55,3.65-4.92,5.01-7.7,5.01c-5.29,0-8.8-3.92-8.8-9.12c0-5.15,3.51-10.12,9.62-10.12
				c3.37,0,6.84,2.19,6.84,6.15c0,0.41-0.04,0.68-0.23,1.05c-0.27,0.41-1.32,0.59-3.14,0.59H2141.71z M2145.91,247.45
				c1.32,0,1.91-0.14,2.23-0.32c0.27-0.18,0.46-0.55,0.46-0.96c0-1.64-1.05-2.96-3.01-2.96c-3.05,0-4.47,2.96-4.47,3.92
				c0,0.18,0.09,0.32,0.64,0.32H2145.91z"/>
			<path class="st0" d="M2169.38,254.28c-0.14,2.64,0.55,4.01,2.19,4.01c0.77,0,1.41-0.5,1.55-0.5c0.23,0,0.55,0.5,0.41,0.91
				c-0.91,1.28-3.15,2-4.56,2c-1.14,0-2.42-0.32-3.28-1.28c-0.32-0.32-0.5-0.55-0.73-0.55c-0.23,0-0.55,0.23-1.23,0.64
				c-0.87,0.55-2.23,1.18-3.87,1.18c-3.1,0-4.65-2.14-4.65-4.42c0-1.64,0.64-3.14,3.78-4.24c1.6-0.55,3.33-1.19,5.01-1.82
				c0.91-0.32,1.05-0.73,1.05-1.19l0.04-1.18c0.09-2.32-0.55-4.33-2.78-4.33c-1.28,0-2.23,0.68-2.42,2.01
				c-0.09,0.87-0.37,1.32-0.87,1.64c-0.64,0.41-1.91,0.82-2.92,0.82c-0.59,0-0.87-0.32-0.87-0.73c0-0.55,0.27-1.5,1.78-2.92
				c1.41-1.32,4.7-2.87,7.02-2.87c3.6,0,5.83,1.69,5.65,5.7L2169.38,254.28z M2164.91,252.73c0-0.5-0.14-0.78-0.37-0.78
				c-0.36,0-1.18,0.23-2,0.55c-1.28,0.46-2.46,1.09-2.46,3.05c0,1.19,0.82,2.64,2.55,2.64c1.64,0,2.14-1.09,2.19-2.19
				L2164.91,252.73z"/>
			<path class="st0" d="M2176.94,247.95c0-2.05,0-2.6-1.14-3.28l-0.55-0.32c-0.14-0.18-0.14-0.82,0.05-1.05
				c1.96-0.64,4.38-1.64,5.74-2.46c0.27,0,0.55,0.14,0.64,0.41c-0.05,0.87-0.09,1.64-0.09,2.05c0,0.32,0.18,0.55,0.46,0.55
				c1.41-1,2.92-2.37,4.47-2.37c1.59,0,2.51,1.05,2.51,2.23c0,1.78-1.32,2.64-2.55,2.64c-0.46,0-0.87-0.14-1.23-0.37
				c-1.14-0.77-1.91-0.87-2.19-0.87c-1.05,0-1.32,1.05-1.32,3.28v6.24c0,3.37,0.18,3.87,1.78,4.06l1.78,0.18
				c0.32,0.32,0.27,1.14-0.09,1.32c-2.73-0.09-4.28-0.14-5.97-0.14c-1.5,0-3.01,0.05-4.74,0.14c-0.37-0.18-0.41-1-0.09-1.32
				l0.82-0.14c1.55-0.27,1.73-0.73,1.73-4.1V247.95z"/>
			<path class="st0" d="M2197.4,254.65c0,3.37,0.18,3.92,1.73,4.15l0.68,0.09c0.32,0.32,0.27,1.14-0.09,1.32
				c-1.6-0.09-3.14-0.14-4.83-0.14c-1.46,0-3.01,0.05-4.92,0.14c-0.36-0.18-0.41-1-0.09-1.32l1-0.14c1.55-0.23,1.73-0.73,1.73-4.1
				v-6.7c0-2.05,0-2.6-1.14-3.28l-0.55-0.32c-0.14-0.18-0.14-0.82,0.05-1.05c1.96-0.55,4.47-1.64,5.92-2.46
				c0.32,0,0.5,0.18,0.59,0.37c-0.09,0.87-0.09,1.73-0.09,2.1c0,0.32,0.14,0.41,0.41,0.46c2.14-1.18,3.42-2.28,6.24-2.28
				c3.69,0,5.42,2.55,5.42,6.11v7.06c0,3.37,0.18,3.92,1.73,4.1l1.05,0.14c0.32,0.32,0.27,1.14-0.09,1.32
				c-1.91-0.09-3.46-0.14-5.15-0.14c-1.5,0-3.05,0.05-4.65,0.14c-0.36-0.18-0.41-1-0.09-1.32l0.68-0.09
				c1.55-0.23,1.73-0.77,1.73-4.15v-6.29c0-2.32-0.91-4.15-3.65-4.15c-1.41,0-2.55,0.73-3.01,1.41c-0.59,0.82-0.64,1.23-0.64,2.92
				V254.65z"/>
			<path class="st0" d="M2221.69,254.65c0,3.37,0.18,3.83,1.73,4.1l0.82,0.14c0.32,0.32,0.27,1.14-0.09,1.32
				c-1.69-0.09-3.24-0.14-4.92-0.14c-1.5,0-3.05,0.05-4.79,0.14c-0.37-0.18-0.41-1-0.09-1.32l0.82-0.14
				c1.55-0.27,1.73-0.73,1.73-4.1v-6.7c0-2.05,0-2.6-1.14-3.28l-0.55-0.32c-0.14-0.18-0.14-0.82,0.05-1.05
				c2.37-0.68,4.65-1.69,5.92-2.46c0.27,0.05,0.5,0.14,0.64,0.37c-0.09,1.5-0.14,3.69-0.14,5.56V254.65z M2216.5,234.55
				c0-1.55,1.14-2.74,2.78-2.74s2.78,1.19,2.78,2.74s-1.14,2.73-2.78,2.73S2216.5,236.1,2216.5,234.55z"/>
			<path class="st0" d="M2233.9,254.65c0,3.37,0.18,3.92,1.73,4.15l0.68,0.09c0.32,0.32,0.27,1.14-0.09,1.32
				c-1.6-0.09-3.14-0.14-4.83-0.14c-1.46,0-3.01,0.05-4.92,0.14c-0.36-0.18-0.41-1-0.09-1.32l1-0.14c1.55-0.23,1.73-0.73,1.73-4.1
				v-6.7c0-2.05,0-2.6-1.14-3.28l-0.55-0.32c-0.14-0.18-0.14-0.82,0.05-1.05c1.96-0.55,4.47-1.64,5.92-2.46
				c0.32,0,0.5,0.18,0.59,0.37c-0.09,0.87-0.09,1.73-0.09,2.1c0,0.32,0.14,0.41,0.41,0.46c2.14-1.18,3.42-2.28,6.24-2.28
				c3.69,0,5.42,2.55,5.42,6.11v7.06c0,3.37,0.18,3.92,1.73,4.1l1.05,0.14c0.32,0.32,0.27,1.14-0.09,1.32
				c-1.91-0.09-3.46-0.14-5.15-0.14c-1.5,0-3.05,0.05-4.65,0.14c-0.36-0.18-0.41-1-0.09-1.32l0.68-0.09
				c1.55-0.23,1.73-0.77,1.73-4.15v-6.29c0-2.32-0.91-4.15-3.65-4.15c-1.41,0-2.55,0.73-3.01,1.41c-0.59,0.82-0.64,1.23-0.64,2.92
				V254.65z"/>
			<path class="st0" d="M2267.08,245.49c0.14,0.46,0.23,0.96,0.23,1.96c0,3.83-2.55,7.52-8.34,7.52c-0.55,0-1.14-0.09-1.73-0.18
				c-0.73,0.36-1.41,0.96-1.41,1.78c0,0.91,0.64,1.78,2.51,1.78c1.32,0,3.05-0.09,5.01-0.09c3.28,0,7.43,0.55,7.43,5.51
				c0,2.37-1.64,4.6-2.87,5.56c-2.01,1.64-4.92,3.01-8.84,3.01c-6.43,0-8.52-3.01-8.52-5.38c0-0.68,0.09-1.28,0.64-1.96
				c0.41-0.46,2.14-1.46,2.83-2.05c0.36-0.27,0.68-0.87,0.27-1c-1.6-0.55-3.01-2.01-3.01-3.78c0-0.46,0.18-0.82,0.73-1.14
				c0.68-0.36,2.92-1.78,2.92-2.42c0-0.14,0-0.41-0.18-0.5c-1.55-0.64-3.37-2.46-3.37-5.42c0-4.1,3.42-7.2,8.34-7.2
				c1.82,0,3.42,0.36,4.6,0.96c0.96,0.46,1.46,0.68,2,0.68h4.47c0.18,0.14,0.36,0.46,0.36,0.82c0,0.91-0.36,1.46-0.73,1.55H2267.08z
				 M2259.42,262.3c-1.6,0-2.55,0.14-3.1,0.55c-0.77,0.59-1.37,1.41-1.37,2.55c0,2.78,2.46,4.6,5.97,4.6c3.87,0,6.06-1.59,6.06-4.24
				c0-2.32-2.14-3.46-4.97-3.46H2259.42z M2259.79,253.23c1.73,0,3.01-1.5,3.01-4.69c0-3.1-1.32-5.33-3.37-5.33
				c-1.6,0-3.01,1.5-3.01,4.65C2256.42,251.37,2258.06,253.23,2259.79,253.23z"/>
			<path class="st0" d="M2273.46,265.72c-0.64-0.23-0.82-0.77-0.5-1.37c1.59-0.5,3.92-1.64,3.92-4.06c0-2-2.19-2.51-2.64-2.73
				c-0.64-0.32-1.05-0.91-1.05-1.69c0-1.32,1.05-2.42,2.83-2.42c1.73,0,3.83,1.59,3.83,4.97
				C2279.84,262.39,2276.83,264.72,2273.46,265.72z"/>
			<path class="st0" d="M2308.96,254.28c-0.14,2.64,0.55,4.01,2.19,4.01c0.77,0,1.41-0.5,1.55-0.5c0.23,0,0.55,0.5,0.41,0.91
				c-0.91,1.28-3.15,2-4.56,2c-1.14,0-2.42-0.32-3.28-1.28c-0.32-0.32-0.5-0.55-0.73-0.55c-0.23,0-0.55,0.23-1.23,0.64
				c-0.87,0.55-2.23,1.18-3.87,1.18c-3.1,0-4.65-2.14-4.65-4.42c0-1.64,0.64-3.14,3.78-4.24c1.6-0.55,3.33-1.19,5.01-1.82
				c0.91-0.32,1.05-0.73,1.05-1.19l0.04-1.18c0.09-2.32-0.55-4.33-2.78-4.33c-1.28,0-2.23,0.68-2.42,2.01
				c-0.09,0.87-0.37,1.32-0.87,1.64c-0.64,0.41-1.91,0.82-2.92,0.82c-0.59,0-0.87-0.32-0.87-0.73c0-0.55,0.27-1.5,1.78-2.92
				c1.41-1.32,4.7-2.87,7.02-2.87c3.6,0,5.83,1.69,5.65,5.7L2308.96,254.28z M2304.49,252.73c0-0.5-0.14-0.78-0.37-0.78
				c-0.36,0-1.18,0.23-2,0.55c-1.28,0.46-2.46,1.09-2.46,3.05c0,1.19,0.82,2.64,2.55,2.64c1.64,0,2.14-1.09,2.19-2.19
				L2304.49,252.73z"/>
			<path class="st0" d="M2321.26,254.65c0,3.37,0.18,3.92,1.73,4.15l0.68,0.09c0.32,0.32,0.27,1.14-0.09,1.32
				c-1.6-0.09-3.14-0.14-4.83-0.14c-1.46,0-3.01,0.05-4.92,0.14c-0.36-0.18-0.41-1-0.09-1.32l1-0.14c1.55-0.23,1.73-0.73,1.73-4.1
				v-6.7c0-2.05,0-2.6-1.14-3.28l-0.55-0.32c-0.14-0.18-0.14-0.82,0.05-1.05c1.96-0.55,4.47-1.64,5.92-2.46
				c0.32,0,0.5,0.18,0.59,0.37c-0.09,0.87-0.09,1.73-0.09,2.1c0,0.32,0.14,0.41,0.41,0.46c2.14-1.18,3.42-2.28,6.24-2.28
				c3.69,0,5.42,2.55,5.42,6.11v7.06c0,3.37,0.18,3.92,1.73,4.1l1.05,0.14c0.32,0.32,0.27,1.14-0.09,1.32
				c-1.91-0.09-3.46-0.14-5.15-0.14c-1.5,0-3.05,0.05-4.65,0.14c-0.36-0.18-0.41-1-0.09-1.32l0.68-0.09
				c1.55-0.23,1.73-0.77,1.73-4.15v-6.29c0-2.32-0.91-4.15-3.65-4.15c-1.41,0-2.55,0.73-3.01,1.41c-0.59,0.82-0.64,1.23-0.64,2.92
				V254.65z"/>
			<path class="st0" d="M2356.81,252.64c0,4.15,0.32,5.56,1.09,5.56c0.5,0,1.23-0.14,1.91-0.41c0.36,0.27,0.46,1.37-0.05,1.64
				c-2.32,0.23-5.56,1-7.2,1.73c-0.23-0.05-0.46-0.23-0.55-0.5l0.09-0.68c0.09-0.68,0.05-1.05-0.04-1.28l-0.23-0.05
				c-1.37,1-3.05,2.05-5.24,2.05c-5.2,0-8.43-4.19-8.43-8.75c0-6.56,5.24-10.48,10.94-10.48c1.19,0,2.05,0.14,2.64,0.32
				c0.18-0.05,0.27-0.23,0.27-0.73v-5.97c0-3.05-0.09-3.33-1.05-3.97l-0.64-0.41c-0.27-0.18-0.32-0.91,0-1.05
				c1.78-0.5,4.15-1.46,5.97-2.19c0.27-0.05,0.55,0.14,0.64,0.36c-0.09,1.82-0.14,4.65-0.14,6.61V252.64z M2352.02,247.04
				c0-0.91-0.14-1.55-0.59-2.19c-0.64-0.87-1.64-1.55-3.05-1.55c-3.1,0-5.06,3.05-5.06,6.88c0,4.69,2.46,7.79,5.7,7.79
				c1.09,0,2.32-0.59,2.69-1c0.23-0.23,0.32-0.64,0.32-1.28V247.04z"/>
			<path class="st0" d="M2382.01,253.51c0,4.83,0.41,4.97,2.55,5.24l1,0.14c0.32,0.32,0.27,1.14-0.09,1.32
				c-2.01-0.09-4.06-0.14-6.06-0.14c-2.01,0-4.15,0.05-6.15,0.14c-0.36-0.18-0.41-1-0.09-1.32l1-0.14c2.14-0.27,2.55-0.41,2.55-5.24
				v-16.96c0-4.83-0.41-4.97-2.55-5.24l-1-0.14c-0.32-0.32-0.27-1.14,0.09-1.32c2,0.09,4.06,0.14,6.15,0.14c2,0,4.06-0.05,6.06-0.14
				c0.36,0.18,0.41,1,0.09,1.32l-1,0.14c-2.14,0.27-2.55,0.41-2.55,5.24V253.51z"/>
			<path class="st0" d="M2395.68,254.65c0,3.37,0.18,3.92,1.73,4.15l0.68,0.09c0.32,0.32,0.27,1.14-0.09,1.32
				c-1.6-0.09-3.14-0.14-4.83-0.14c-1.46,0-3.01,0.05-4.92,0.14c-0.36-0.18-0.41-1-0.09-1.32l1-0.14c1.55-0.23,1.73-0.73,1.73-4.1
				v-6.7c0-2.05,0-2.6-1.14-3.28l-0.55-0.32c-0.14-0.18-0.14-0.82,0.05-1.05c1.96-0.55,4.47-1.64,5.92-2.46
				c0.32,0,0.5,0.18,0.59,0.37c-0.09,0.87-0.09,1.73-0.09,2.1c0,0.32,0.14,0.41,0.41,0.46c2.14-1.18,3.42-2.28,6.24-2.28
				c3.69,0,5.42,2.55,5.42,6.11v7.06c0,3.37,0.18,3.92,1.73,4.1l1.05,0.14c0.32,0.32,0.27,1.14-0.09,1.32
				c-1.91-0.09-3.46-0.14-5.15-0.14c-1.5,0-3.05,0.05-4.65,0.14c-0.36-0.18-0.41-1-0.09-1.32l0.68-0.09
				c1.55-0.23,1.73-0.77,1.73-4.15v-6.29c0-2.32-0.91-4.15-3.65-4.15c-1.41,0-2.55,0.73-3.01,1.41c-0.59,0.82-0.64,1.23-0.64,2.92
				V254.65z"/>
			<path class="st0" d="M2419.97,254.65c0,3.37,0.18,3.92,1.73,4.15l0.68,0.09c0.32,0.32,0.27,1.14-0.09,1.32
				c-1.6-0.09-3.14-0.14-4.83-0.14c-1.46,0-3.01,0.05-4.92,0.14c-0.36-0.18-0.41-1-0.09-1.32l1-0.14c1.55-0.23,1.73-0.73,1.73-4.1
				v-6.7c0-2.05,0-2.6-1.14-3.28l-0.55-0.32c-0.14-0.18-0.14-0.82,0.05-1.05c1.96-0.55,4.47-1.64,5.92-2.46
				c0.32,0,0.5,0.18,0.59,0.37c-0.09,0.87-0.09,1.73-0.09,2.1c0,0.32,0.14,0.41,0.41,0.46c2.14-1.18,3.42-2.28,6.24-2.28
				c3.69,0,5.42,2.55,5.42,6.11v7.06c0,3.37,0.18,3.92,1.73,4.1l1.05,0.14c0.32,0.32,0.27,1.14-0.09,1.32
				c-1.91-0.09-3.46-0.14-5.15-0.14c-1.5,0-3.05,0.05-4.65,0.14c-0.36-0.18-0.41-1-0.09-1.32l0.68-0.09
				c1.55-0.23,1.73-0.77,1.73-4.15v-6.29c0-2.32-0.91-4.15-3.65-4.15c-1.41,0-2.55,0.73-3.01,1.41c-0.59,0.82-0.64,1.23-0.64,2.92
				V254.65z"/>
			<path class="st0" d="M2456.47,250.86c0,6.47-4.56,9.84-9.98,9.84c-5.24,0-9.62-3.33-9.62-9.3c0-6.11,4.65-9.94,9.98-9.94
				C2452.01,241.47,2456.47,244.94,2456.47,250.86z M2447.04,258.89c3.14,0,4.06-3.74,4.06-7.25c0-3.83-1.32-8.34-4.69-8.34
				c-2.32,0-4.15,2.37-4.15,7.43C2442.25,254.87,2443.76,258.89,2447.04,258.89z"/>
			<path class="st0" d="M2470.55,255.1c-0.73,1.64-1.6,3.78-2.14,5.33c-0.18,0.18-0.46,0.27-0.77,0.27s-0.59-0.09-0.82-0.27
				c-0.46-1.28-1.19-3.05-1.73-4.24c-1-2.23-3.51-7.98-4.38-9.89c-0.91-1.96-1.41-2.55-2.78-2.83l-0.87-0.18
				c-0.32-0.32-0.27-1.09,0.09-1.32c1.6,0.09,3.19,0.14,4.79,0.14c2.05,0,3.42-0.04,5.01-0.14c0.46,0.18,0.5,1,0.09,1.32l-0.82,0.14
				c-0.64,0.09-1.14,0.23-1.14,0.5s0.09,0.78,0.37,1.46c0.64,1.69,2.96,7.34,3.65,8.71c1.09-2.28,2.19-5.06,3.37-7.93
				c0.46-1.14,0.64-1.73,0.64-2.05s-0.41-0.5-0.96-0.59l-1.09-0.23c-0.36-0.37-0.32-1.14,0.18-1.32c1.37,0.09,2.51,0.14,3.83,0.14
				c1.19,0,2.33-0.04,3.33-0.14c0.41,0.18,0.46,1,0.09,1.32l-0.91,0.18c-1.37,0.27-2,0.59-3.42,3.69L2470.55,255.1z"/>
			<path class="st0" d="M2492.47,254.28c-0.14,2.64,0.55,4.01,2.19,4.01c0.77,0,1.41-0.5,1.55-0.5c0.23,0,0.55,0.5,0.41,0.91
				c-0.91,1.28-3.15,2-4.56,2c-1.14,0-2.42-0.32-3.28-1.28c-0.32-0.32-0.5-0.55-0.73-0.55c-0.23,0-0.55,0.23-1.23,0.64
				c-0.87,0.55-2.23,1.18-3.87,1.18c-3.1,0-4.65-2.14-4.65-4.42c0-1.64,0.64-3.14,3.78-4.24c1.6-0.55,3.33-1.19,5.01-1.82
				c0.91-0.32,1.05-0.73,1.05-1.19l0.04-1.18c0.09-2.32-0.55-4.33-2.78-4.33c-1.28,0-2.23,0.68-2.42,2.01
				c-0.09,0.87-0.37,1.32-0.87,1.64c-0.64,0.41-1.91,0.82-2.92,0.82c-0.59,0-0.87-0.32-0.87-0.73c0-0.55,0.27-1.5,1.78-2.92
				c1.41-1.32,4.7-2.87,7.02-2.87c3.6,0,5.83,1.69,5.65,5.7L2492.47,254.28z M2488.01,252.73c0-0.5-0.14-0.78-0.37-0.78
				c-0.36,0-1.18,0.23-2,0.55c-1.28,0.46-2.46,1.09-2.46,3.05c0,1.19,0.82,2.64,2.55,2.64c1.64,0,2.14-1.09,2.19-2.19
				L2488.01,252.73z"/>
			<path class="st0" d="M2505.46,244.12c-0.82,0-0.87,0.09-0.87,1.55v7.02c0,2.87,0.41,5.42,3.33,5.42c0.91,0,1.46-0.32,2.19-0.82
				c0.41,0.05,0.68,0.41,0.59,0.91c-0.91,1.28-3.01,2.51-5.79,2.51c-4.33,0-5.11-2.51-5.11-5.7v-9.25c0-1.59-0.09-1.64-0.82-1.64
				h-1.59c-0.46-0.23-0.55-0.96-0.14-1.23c1.55-0.59,2.6-1.19,3.6-1.92c0.87-0.64,1.87-1.59,2.51-2.83
				c0.41-0.27,1.05-0.14,1.28,0.23v2.74c0,0.73,0,0.87,0.87,0.87h4.51c0.27,0.14,0.36,0.5,0.36,0.96c-0.04,0.55-0.23,0.96-0.59,1.19
				H2505.46z"/>
			<path class="st0" d="M2519.41,254.65c0,3.37,0.18,3.83,1.73,4.1l0.82,0.14c0.32,0.32,0.27,1.14-0.09,1.32
				c-1.69-0.09-3.24-0.14-4.92-0.14c-1.5,0-3.05,0.05-4.79,0.14c-0.37-0.18-0.41-1-0.09-1.32l0.82-0.14
				c1.55-0.27,1.73-0.73,1.73-4.1v-6.7c0-2.05,0-2.6-1.14-3.28l-0.55-0.32c-0.14-0.18-0.14-0.82,0.05-1.05
				c2.37-0.68,4.65-1.69,5.92-2.46c0.27,0.05,0.5,0.14,0.64,0.37c-0.09,1.5-0.14,3.69-0.14,5.56V254.65z M2514.21,234.55
				c0-1.55,1.14-2.74,2.78-2.74s2.78,1.19,2.78,2.74s-1.14,2.73-2.78,2.73S2514.21,236.1,2514.21,234.55z"/>
			<path class="st0" d="M2543.83,250.86c0,6.47-4.56,9.84-9.98,9.84c-5.24,0-9.62-3.33-9.62-9.3c0-6.11,4.65-9.94,9.98-9.94
				C2539.37,241.47,2543.83,244.94,2543.83,250.86z M2534.4,258.89c3.14,0,4.06-3.74,4.06-7.25c0-3.83-1.32-8.34-4.69-8.34
				c-2.32,0-4.15,2.37-4.15,7.43C2529.61,254.87,2531.12,258.89,2534.4,258.89z"/>
			<path class="st0" d="M2554.04,254.65c0,3.37,0.18,3.92,1.73,4.15l0.68,0.09c0.32,0.32,0.27,1.14-0.09,1.32
				c-1.6-0.09-3.14-0.14-4.83-0.14c-1.46,0-3.01,0.05-4.92,0.14c-0.36-0.18-0.41-1-0.09-1.32l1-0.14c1.55-0.23,1.73-0.73,1.73-4.1
				v-6.7c0-2.05,0-2.6-1.14-3.28l-0.55-0.32c-0.14-0.18-0.14-0.82,0.05-1.05c1.96-0.55,4.47-1.64,5.92-2.46
				c0.32,0,0.5,0.18,0.59,0.37c-0.09,0.87-0.09,1.73-0.09,2.1c0,0.32,0.14,0.41,0.41,0.46c2.14-1.18,3.42-2.28,6.24-2.28
				c3.69,0,5.42,2.55,5.42,6.11v7.06c0,3.37,0.18,3.92,1.73,4.1l1.05,0.14c0.32,0.32,0.27,1.14-0.09,1.32
				c-1.91-0.09-3.46-0.14-5.15-0.14c-1.5,0-3.05,0.05-4.65,0.14c-0.36-0.18-0.41-1-0.09-1.32l0.68-0.09
				c1.55-0.23,1.73-0.77,1.73-4.15v-6.29c0-2.32-0.91-4.15-3.65-4.15c-1.41,0-2.55,0.73-3.01,1.41c-0.59,0.82-0.64,1.23-0.64,2.92
				V254.65z"/>
		</g>
	</g>
</g>
</svg>
